%TF.GenerationSoftware,KiCad,Pcbnew,8.0.1*%
%TF.CreationDate,2024-10-17T14:11:02-05:00*%
%TF.ProjectId,sip-board,7369702d-626f-4617-9264-2e6b69636164,rev?*%
%TF.SameCoordinates,Original*%
%TF.FileFunction,Drillmap*%
%TF.FilePolarity,Positive*%
%FSLAX45Y45*%
G04 Gerber Fmt 4.5, Leading zero omitted, Abs format (unit mm)*
G04 Created by KiCad (PCBNEW 8.0.1) date 2024-10-17 14:11:02*
%MOMM*%
%LPD*%
G01*
G04 APERTURE LIST*
%ADD10C,0.200000*%
G04 APERTURE END LIST*
D10*
X13700000Y-7862000D02*
X15400000Y-7862000D01*
X15400000Y-12862000D01*
X13700000Y-12862000D01*
X13700000Y-7862000D01*
X13950777Y-13183484D02*
X13950777Y-12983484D01*
X13950777Y-12983484D02*
X13998396Y-12983484D01*
X13998396Y-12983484D02*
X14026967Y-12993008D01*
X14026967Y-12993008D02*
X14046015Y-13012055D01*
X14046015Y-13012055D02*
X14055539Y-13031103D01*
X14055539Y-13031103D02*
X14065062Y-13069198D01*
X14065062Y-13069198D02*
X14065062Y-13097769D01*
X14065062Y-13097769D02*
X14055539Y-13135865D01*
X14055539Y-13135865D02*
X14046015Y-13154912D01*
X14046015Y-13154912D02*
X14026967Y-13173960D01*
X14026967Y-13173960D02*
X13998396Y-13183484D01*
X13998396Y-13183484D02*
X13950777Y-13183484D01*
X14150777Y-13183484D02*
X14150777Y-13050150D01*
X14150777Y-13088246D02*
X14160301Y-13069198D01*
X14160301Y-13069198D02*
X14169824Y-13059674D01*
X14169824Y-13059674D02*
X14188872Y-13050150D01*
X14188872Y-13050150D02*
X14207920Y-13050150D01*
X14274586Y-13183484D02*
X14274586Y-13050150D01*
X14274586Y-12983484D02*
X14265062Y-12993008D01*
X14265062Y-12993008D02*
X14274586Y-13002531D01*
X14274586Y-13002531D02*
X14284110Y-12993008D01*
X14284110Y-12993008D02*
X14274586Y-12983484D01*
X14274586Y-12983484D02*
X14274586Y-13002531D01*
X14398396Y-13183484D02*
X14379348Y-13173960D01*
X14379348Y-13173960D02*
X14369824Y-13154912D01*
X14369824Y-13154912D02*
X14369824Y-12983484D01*
X14503158Y-13183484D02*
X14484110Y-13173960D01*
X14484110Y-13173960D02*
X14474586Y-13154912D01*
X14474586Y-13154912D02*
X14474586Y-12983484D01*
X14731729Y-13183484D02*
X14731729Y-12983484D01*
X14731729Y-12983484D02*
X14798396Y-13126341D01*
X14798396Y-13126341D02*
X14865062Y-12983484D01*
X14865062Y-12983484D02*
X14865062Y-13183484D01*
X15046015Y-13183484D02*
X15046015Y-13078722D01*
X15046015Y-13078722D02*
X15036491Y-13059674D01*
X15036491Y-13059674D02*
X15017443Y-13050150D01*
X15017443Y-13050150D02*
X14979348Y-13050150D01*
X14979348Y-13050150D02*
X14960301Y-13059674D01*
X15046015Y-13173960D02*
X15026967Y-13183484D01*
X15026967Y-13183484D02*
X14979348Y-13183484D01*
X14979348Y-13183484D02*
X14960301Y-13173960D01*
X14960301Y-13173960D02*
X14950777Y-13154912D01*
X14950777Y-13154912D02*
X14950777Y-13135865D01*
X14950777Y-13135865D02*
X14960301Y-13116817D01*
X14960301Y-13116817D02*
X14979348Y-13107293D01*
X14979348Y-13107293D02*
X15026967Y-13107293D01*
X15026967Y-13107293D02*
X15046015Y-13097769D01*
X15141253Y-13050150D02*
X15141253Y-13250150D01*
X15141253Y-13059674D02*
X15160301Y-13050150D01*
X15160301Y-13050150D02*
X15198396Y-13050150D01*
X15198396Y-13050150D02*
X15217443Y-13059674D01*
X15217443Y-13059674D02*
X15226967Y-13069198D01*
X15226967Y-13069198D02*
X15236491Y-13088246D01*
X15236491Y-13088246D02*
X15236491Y-13145388D01*
X15236491Y-13145388D02*
X15226967Y-13164436D01*
X15226967Y-13164436D02*
X15217443Y-13173960D01*
X15217443Y-13173960D02*
X15198396Y-13183484D01*
X15198396Y-13183484D02*
X15160301Y-13183484D01*
X15160301Y-13183484D02*
X15141253Y-13173960D01*
X15322205Y-13164436D02*
X15331729Y-13173960D01*
X15331729Y-13173960D02*
X15322205Y-13183484D01*
X15322205Y-13183484D02*
X15312682Y-13173960D01*
X15312682Y-13173960D02*
X15322205Y-13164436D01*
X15322205Y-13164436D02*
X15322205Y-13183484D01*
X15322205Y-13059674D02*
X15331729Y-13069198D01*
X15331729Y-13069198D02*
X15322205Y-13078722D01*
X15322205Y-13078722D02*
X15312682Y-13069198D01*
X15312682Y-13069198D02*
X15322205Y-13059674D01*
X15322205Y-13059674D02*
X15322205Y-13078722D01*
M02*
