%TF.GenerationSoftware,KiCad,Pcbnew,8.0.1*%
%TF.CreationDate,2024-10-17T14:11:02-05:00*%
%TF.ProjectId,sip-board,7369702d-626f-4617-9264-2e6b69636164,rev?*%
%TF.SameCoordinates,Original*%
%TF.FileFunction,Drillmap*%
%TF.FilePolarity,Positive*%
%FSLAX45Y45*%
G04 Gerber Fmt 4.5, Leading zero omitted, Abs format (unit mm)*
G04 Created by KiCad (PCBNEW 8.0.1) date 2024-10-17 14:11:02*
%MOMM*%
%LPD*%
G01*
G04 APERTURE LIST*
%ADD10C,0.200000*%
%ADD11C,0.100000*%
G04 APERTURE END LIST*
D10*
X13700000Y-7862000D02*
X15400000Y-7862000D01*
X15400000Y-12862000D01*
X13700000Y-12862000D01*
X13700000Y-7862000D01*
D11*
X13890000Y-10625000D02*
X13900000Y-10635000D01*
X13900000Y-10625000D02*
X13890000Y-10635000D01*
X14113000Y-10448000D02*
X14123000Y-10458000D01*
X14123000Y-10448000D02*
X14113000Y-10458000D01*
X14300000Y-10624000D02*
X14310000Y-10634000D01*
X14310000Y-10624000D02*
X14300000Y-10634000D01*
X14487000Y-10354000D02*
X14497000Y-10364000D01*
X14497000Y-10354000D02*
X14487000Y-10364000D01*
X14488000Y-10554000D02*
X14498000Y-10564000D01*
X14498000Y-10554000D02*
X14488000Y-10564000D01*
X14535000Y-10406000D02*
X14545000Y-10416000D01*
X14545000Y-10406000D02*
X14535000Y-10416000D01*
X14536000Y-10005000D02*
X14546000Y-10015000D01*
X14546000Y-10005000D02*
X14536000Y-10015000D01*
X14536000Y-10155000D02*
X14546000Y-10165000D01*
X14546000Y-10155000D02*
X14536000Y-10165000D01*
X14536000Y-11415000D02*
X14546000Y-11425000D01*
X14546000Y-11415000D02*
X14536000Y-11425000D01*
X14569000Y-8216000D02*
X14579000Y-8226000D01*
X14579000Y-8216000D02*
X14569000Y-8226000D01*
X14582000Y-9818000D02*
X14592000Y-9828000D01*
X14592000Y-9818000D02*
X14582000Y-9828000D01*
X14585000Y-10156000D02*
X14595000Y-10166000D01*
X14595000Y-10156000D02*
X14585000Y-10166000D01*
X14586000Y-10205000D02*
X14596000Y-10215000D01*
X14596000Y-10205000D02*
X14586000Y-10215000D01*
X14586000Y-10405000D02*
X14596000Y-10415000D01*
X14596000Y-10405000D02*
X14586000Y-10415000D01*
X14636000Y-10005000D02*
X14646000Y-10015000D01*
X14646000Y-10005000D02*
X14636000Y-10015000D01*
X14686000Y-10455000D02*
X14696000Y-10465000D01*
X14696000Y-10455000D02*
X14686000Y-10465000D01*
X14725000Y-10622000D02*
X14735000Y-10632000D01*
X14735000Y-10622000D02*
X14725000Y-10632000D01*
X14790000Y-11414000D02*
X14800000Y-11424000D01*
X14800000Y-11414000D02*
X14790000Y-11424000D01*
X14101750Y-9619000D02*
G75*
G02*
X14084250Y-9619000I-8750J0D01*
G01*
X14084250Y-9619000D02*
G75*
G02*
X14101750Y-9619000I8750J0D01*
G01*
D10*
X13950777Y-13183484D02*
X13950777Y-12983484D01*
X13950777Y-12983484D02*
X13998396Y-12983484D01*
X13998396Y-12983484D02*
X14026967Y-12993008D01*
X14026967Y-12993008D02*
X14046015Y-13012055D01*
X14046015Y-13012055D02*
X14055539Y-13031103D01*
X14055539Y-13031103D02*
X14065062Y-13069198D01*
X14065062Y-13069198D02*
X14065062Y-13097769D01*
X14065062Y-13097769D02*
X14055539Y-13135865D01*
X14055539Y-13135865D02*
X14046015Y-13154912D01*
X14046015Y-13154912D02*
X14026967Y-13173960D01*
X14026967Y-13173960D02*
X13998396Y-13183484D01*
X13998396Y-13183484D02*
X13950777Y-13183484D01*
X14150777Y-13183484D02*
X14150777Y-13050150D01*
X14150777Y-13088246D02*
X14160301Y-13069198D01*
X14160301Y-13069198D02*
X14169824Y-13059674D01*
X14169824Y-13059674D02*
X14188872Y-13050150D01*
X14188872Y-13050150D02*
X14207920Y-13050150D01*
X14274586Y-13183484D02*
X14274586Y-13050150D01*
X14274586Y-12983484D02*
X14265062Y-12993008D01*
X14265062Y-12993008D02*
X14274586Y-13002531D01*
X14274586Y-13002531D02*
X14284110Y-12993008D01*
X14284110Y-12993008D02*
X14274586Y-12983484D01*
X14274586Y-12983484D02*
X14274586Y-13002531D01*
X14398396Y-13183484D02*
X14379348Y-13173960D01*
X14379348Y-13173960D02*
X14369824Y-13154912D01*
X14369824Y-13154912D02*
X14369824Y-12983484D01*
X14503158Y-13183484D02*
X14484110Y-13173960D01*
X14484110Y-13173960D02*
X14474586Y-13154912D01*
X14474586Y-13154912D02*
X14474586Y-12983484D01*
X14731729Y-13183484D02*
X14731729Y-12983484D01*
X14731729Y-12983484D02*
X14798396Y-13126341D01*
X14798396Y-13126341D02*
X14865062Y-12983484D01*
X14865062Y-12983484D02*
X14865062Y-13183484D01*
X15046015Y-13183484D02*
X15046015Y-13078722D01*
X15046015Y-13078722D02*
X15036491Y-13059674D01*
X15036491Y-13059674D02*
X15017443Y-13050150D01*
X15017443Y-13050150D02*
X14979348Y-13050150D01*
X14979348Y-13050150D02*
X14960301Y-13059674D01*
X15046015Y-13173960D02*
X15026967Y-13183484D01*
X15026967Y-13183484D02*
X14979348Y-13183484D01*
X14979348Y-13183484D02*
X14960301Y-13173960D01*
X14960301Y-13173960D02*
X14950777Y-13154912D01*
X14950777Y-13154912D02*
X14950777Y-13135865D01*
X14950777Y-13135865D02*
X14960301Y-13116817D01*
X14960301Y-13116817D02*
X14979348Y-13107293D01*
X14979348Y-13107293D02*
X15026967Y-13107293D01*
X15026967Y-13107293D02*
X15046015Y-13097769D01*
X15141253Y-13050150D02*
X15141253Y-13250150D01*
X15141253Y-13059674D02*
X15160301Y-13050150D01*
X15160301Y-13050150D02*
X15198396Y-13050150D01*
X15198396Y-13050150D02*
X15217443Y-13059674D01*
X15217443Y-13059674D02*
X15226967Y-13069198D01*
X15226967Y-13069198D02*
X15236491Y-13088246D01*
X15236491Y-13088246D02*
X15236491Y-13145388D01*
X15236491Y-13145388D02*
X15226967Y-13164436D01*
X15226967Y-13164436D02*
X15217443Y-13173960D01*
X15217443Y-13173960D02*
X15198396Y-13183484D01*
X15198396Y-13183484D02*
X15160301Y-13183484D01*
X15160301Y-13183484D02*
X15141253Y-13173960D01*
X15322205Y-13164436D02*
X15331729Y-13173960D01*
X15331729Y-13173960D02*
X15322205Y-13183484D01*
X15322205Y-13183484D02*
X15312682Y-13173960D01*
X15312682Y-13173960D02*
X15322205Y-13164436D01*
X15322205Y-13164436D02*
X15322205Y-13183484D01*
X15322205Y-13059674D02*
X15331729Y-13069198D01*
X15331729Y-13069198D02*
X15322205Y-13078722D01*
X15322205Y-13078722D02*
X15312682Y-13069198D01*
X15312682Y-13069198D02*
X15322205Y-13059674D01*
X15322205Y-13059674D02*
X15322205Y-13078722D01*
D11*
X13680000Y-13507000D02*
X13690000Y-13517000D01*
X13690000Y-13507000D02*
X13680000Y-13517000D01*
D10*
X13988872Y-13403484D02*
X14007920Y-13403484D01*
X14007920Y-13403484D02*
X14026967Y-13413008D01*
X14026967Y-13413008D02*
X14036491Y-13422531D01*
X14036491Y-13422531D02*
X14046015Y-13441579D01*
X14046015Y-13441579D02*
X14055539Y-13479674D01*
X14055539Y-13479674D02*
X14055539Y-13527293D01*
X14055539Y-13527293D02*
X14046015Y-13565388D01*
X14046015Y-13565388D02*
X14036491Y-13584436D01*
X14036491Y-13584436D02*
X14026967Y-13593960D01*
X14026967Y-13593960D02*
X14007920Y-13603484D01*
X14007920Y-13603484D02*
X13988872Y-13603484D01*
X13988872Y-13603484D02*
X13969824Y-13593960D01*
X13969824Y-13593960D02*
X13960301Y-13584436D01*
X13960301Y-13584436D02*
X13950777Y-13565388D01*
X13950777Y-13565388D02*
X13941253Y-13527293D01*
X13941253Y-13527293D02*
X13941253Y-13479674D01*
X13941253Y-13479674D02*
X13950777Y-13441579D01*
X13950777Y-13441579D02*
X13960301Y-13422531D01*
X13960301Y-13422531D02*
X13969824Y-13413008D01*
X13969824Y-13413008D02*
X13988872Y-13403484D01*
X14141253Y-13584436D02*
X14150777Y-13593960D01*
X14150777Y-13593960D02*
X14141253Y-13603484D01*
X14141253Y-13603484D02*
X14131729Y-13593960D01*
X14131729Y-13593960D02*
X14141253Y-13584436D01*
X14141253Y-13584436D02*
X14141253Y-13603484D01*
X14341253Y-13603484D02*
X14226967Y-13603484D01*
X14284110Y-13603484D02*
X14284110Y-13403484D01*
X14284110Y-13403484D02*
X14265062Y-13432055D01*
X14265062Y-13432055D02*
X14246015Y-13451103D01*
X14246015Y-13451103D02*
X14226967Y-13460627D01*
X14465062Y-13403484D02*
X14484110Y-13403484D01*
X14484110Y-13403484D02*
X14503158Y-13413008D01*
X14503158Y-13413008D02*
X14512682Y-13422531D01*
X14512682Y-13422531D02*
X14522205Y-13441579D01*
X14522205Y-13441579D02*
X14531729Y-13479674D01*
X14531729Y-13479674D02*
X14531729Y-13527293D01*
X14531729Y-13527293D02*
X14522205Y-13565388D01*
X14522205Y-13565388D02*
X14512682Y-13584436D01*
X14512682Y-13584436D02*
X14503158Y-13593960D01*
X14503158Y-13593960D02*
X14484110Y-13603484D01*
X14484110Y-13603484D02*
X14465062Y-13603484D01*
X14465062Y-13603484D02*
X14446015Y-13593960D01*
X14446015Y-13593960D02*
X14436491Y-13584436D01*
X14436491Y-13584436D02*
X14426967Y-13565388D01*
X14426967Y-13565388D02*
X14417443Y-13527293D01*
X14417443Y-13527293D02*
X14417443Y-13479674D01*
X14417443Y-13479674D02*
X14426967Y-13441579D01*
X14426967Y-13441579D02*
X14436491Y-13422531D01*
X14436491Y-13422531D02*
X14446015Y-13413008D01*
X14446015Y-13413008D02*
X14465062Y-13403484D01*
X14655539Y-13403484D02*
X14674586Y-13403484D01*
X14674586Y-13403484D02*
X14693634Y-13413008D01*
X14693634Y-13413008D02*
X14703158Y-13422531D01*
X14703158Y-13422531D02*
X14712682Y-13441579D01*
X14712682Y-13441579D02*
X14722205Y-13479674D01*
X14722205Y-13479674D02*
X14722205Y-13527293D01*
X14722205Y-13527293D02*
X14712682Y-13565388D01*
X14712682Y-13565388D02*
X14703158Y-13584436D01*
X14703158Y-13584436D02*
X14693634Y-13593960D01*
X14693634Y-13593960D02*
X14674586Y-13603484D01*
X14674586Y-13603484D02*
X14655539Y-13603484D01*
X14655539Y-13603484D02*
X14636491Y-13593960D01*
X14636491Y-13593960D02*
X14626967Y-13584436D01*
X14626967Y-13584436D02*
X14617443Y-13565388D01*
X14617443Y-13565388D02*
X14607920Y-13527293D01*
X14607920Y-13527293D02*
X14607920Y-13479674D01*
X14607920Y-13479674D02*
X14617443Y-13441579D01*
X14617443Y-13441579D02*
X14626967Y-13422531D01*
X14626967Y-13422531D02*
X14636491Y-13413008D01*
X14636491Y-13413008D02*
X14655539Y-13403484D01*
X14807920Y-13603484D02*
X14807920Y-13470150D01*
X14807920Y-13489198D02*
X14817443Y-13479674D01*
X14817443Y-13479674D02*
X14836491Y-13470150D01*
X14836491Y-13470150D02*
X14865063Y-13470150D01*
X14865063Y-13470150D02*
X14884110Y-13479674D01*
X14884110Y-13479674D02*
X14893634Y-13498722D01*
X14893634Y-13498722D02*
X14893634Y-13603484D01*
X14893634Y-13498722D02*
X14903158Y-13479674D01*
X14903158Y-13479674D02*
X14922205Y-13470150D01*
X14922205Y-13470150D02*
X14950777Y-13470150D01*
X14950777Y-13470150D02*
X14969824Y-13479674D01*
X14969824Y-13479674D02*
X14979348Y-13498722D01*
X14979348Y-13498722D02*
X14979348Y-13603484D01*
X15074586Y-13603484D02*
X15074586Y-13470150D01*
X15074586Y-13489198D02*
X15084110Y-13479674D01*
X15084110Y-13479674D02*
X15103158Y-13470150D01*
X15103158Y-13470150D02*
X15131729Y-13470150D01*
X15131729Y-13470150D02*
X15150777Y-13479674D01*
X15150777Y-13479674D02*
X15160301Y-13498722D01*
X15160301Y-13498722D02*
X15160301Y-13603484D01*
X15160301Y-13498722D02*
X15169824Y-13479674D01*
X15169824Y-13479674D02*
X15188872Y-13470150D01*
X15188872Y-13470150D02*
X15217443Y-13470150D01*
X15217443Y-13470150D02*
X15236491Y-13479674D01*
X15236491Y-13479674D02*
X15246015Y-13498722D01*
X15246015Y-13498722D02*
X15246015Y-13603484D01*
X15636491Y-13393960D02*
X15465063Y-13651103D01*
X15893634Y-13403484D02*
X15912682Y-13403484D01*
X15912682Y-13403484D02*
X15931729Y-13413008D01*
X15931729Y-13413008D02*
X15941253Y-13422531D01*
X15941253Y-13422531D02*
X15950777Y-13441579D01*
X15950777Y-13441579D02*
X15960301Y-13479674D01*
X15960301Y-13479674D02*
X15960301Y-13527293D01*
X15960301Y-13527293D02*
X15950777Y-13565388D01*
X15950777Y-13565388D02*
X15941253Y-13584436D01*
X15941253Y-13584436D02*
X15931729Y-13593960D01*
X15931729Y-13593960D02*
X15912682Y-13603484D01*
X15912682Y-13603484D02*
X15893634Y-13603484D01*
X15893634Y-13603484D02*
X15874586Y-13593960D01*
X15874586Y-13593960D02*
X15865063Y-13584436D01*
X15865063Y-13584436D02*
X15855539Y-13565388D01*
X15855539Y-13565388D02*
X15846015Y-13527293D01*
X15846015Y-13527293D02*
X15846015Y-13479674D01*
X15846015Y-13479674D02*
X15855539Y-13441579D01*
X15855539Y-13441579D02*
X15865063Y-13422531D01*
X15865063Y-13422531D02*
X15874586Y-13413008D01*
X15874586Y-13413008D02*
X15893634Y-13403484D01*
X16046015Y-13584436D02*
X16055539Y-13593960D01*
X16055539Y-13593960D02*
X16046015Y-13603484D01*
X16046015Y-13603484D02*
X16036491Y-13593960D01*
X16036491Y-13593960D02*
X16046015Y-13584436D01*
X16046015Y-13584436D02*
X16046015Y-13603484D01*
X16179348Y-13403484D02*
X16198396Y-13403484D01*
X16198396Y-13403484D02*
X16217444Y-13413008D01*
X16217444Y-13413008D02*
X16226967Y-13422531D01*
X16226967Y-13422531D02*
X16236491Y-13441579D01*
X16236491Y-13441579D02*
X16246015Y-13479674D01*
X16246015Y-13479674D02*
X16246015Y-13527293D01*
X16246015Y-13527293D02*
X16236491Y-13565388D01*
X16236491Y-13565388D02*
X16226967Y-13584436D01*
X16226967Y-13584436D02*
X16217444Y-13593960D01*
X16217444Y-13593960D02*
X16198396Y-13603484D01*
X16198396Y-13603484D02*
X16179348Y-13603484D01*
X16179348Y-13603484D02*
X16160301Y-13593960D01*
X16160301Y-13593960D02*
X16150777Y-13584436D01*
X16150777Y-13584436D02*
X16141253Y-13565388D01*
X16141253Y-13565388D02*
X16131729Y-13527293D01*
X16131729Y-13527293D02*
X16131729Y-13479674D01*
X16131729Y-13479674D02*
X16141253Y-13441579D01*
X16141253Y-13441579D02*
X16150777Y-13422531D01*
X16150777Y-13422531D02*
X16160301Y-13413008D01*
X16160301Y-13413008D02*
X16179348Y-13403484D01*
X16369825Y-13403484D02*
X16388872Y-13403484D01*
X16388872Y-13403484D02*
X16407920Y-13413008D01*
X16407920Y-13413008D02*
X16417444Y-13422531D01*
X16417444Y-13422531D02*
X16426967Y-13441579D01*
X16426967Y-13441579D02*
X16436491Y-13479674D01*
X16436491Y-13479674D02*
X16436491Y-13527293D01*
X16436491Y-13527293D02*
X16426967Y-13565388D01*
X16426967Y-13565388D02*
X16417444Y-13584436D01*
X16417444Y-13584436D02*
X16407920Y-13593960D01*
X16407920Y-13593960D02*
X16388872Y-13603484D01*
X16388872Y-13603484D02*
X16369825Y-13603484D01*
X16369825Y-13603484D02*
X16350777Y-13593960D01*
X16350777Y-13593960D02*
X16341253Y-13584436D01*
X16341253Y-13584436D02*
X16331729Y-13565388D01*
X16331729Y-13565388D02*
X16322206Y-13527293D01*
X16322206Y-13527293D02*
X16322206Y-13479674D01*
X16322206Y-13479674D02*
X16331729Y-13441579D01*
X16331729Y-13441579D02*
X16341253Y-13422531D01*
X16341253Y-13422531D02*
X16350777Y-13413008D01*
X16350777Y-13413008D02*
X16369825Y-13403484D01*
X16503158Y-13403484D02*
X16626967Y-13403484D01*
X16626967Y-13403484D02*
X16560301Y-13479674D01*
X16560301Y-13479674D02*
X16588872Y-13479674D01*
X16588872Y-13479674D02*
X16607920Y-13489198D01*
X16607920Y-13489198D02*
X16617444Y-13498722D01*
X16617444Y-13498722D02*
X16626967Y-13517769D01*
X16626967Y-13517769D02*
X16626967Y-13565388D01*
X16626967Y-13565388D02*
X16617444Y-13584436D01*
X16617444Y-13584436D02*
X16607920Y-13593960D01*
X16607920Y-13593960D02*
X16588872Y-13603484D01*
X16588872Y-13603484D02*
X16531729Y-13603484D01*
X16531729Y-13603484D02*
X16512682Y-13593960D01*
X16512682Y-13593960D02*
X16503158Y-13584436D01*
X16722206Y-13603484D02*
X16760301Y-13603484D01*
X16760301Y-13603484D02*
X16779349Y-13593960D01*
X16779349Y-13593960D02*
X16788872Y-13584436D01*
X16788872Y-13584436D02*
X16807920Y-13555865D01*
X16807920Y-13555865D02*
X16817444Y-13517769D01*
X16817444Y-13517769D02*
X16817444Y-13441579D01*
X16817444Y-13441579D02*
X16807920Y-13422531D01*
X16807920Y-13422531D02*
X16798396Y-13413008D01*
X16798396Y-13413008D02*
X16779349Y-13403484D01*
X16779349Y-13403484D02*
X16741253Y-13403484D01*
X16741253Y-13403484D02*
X16722206Y-13413008D01*
X16722206Y-13413008D02*
X16712682Y-13422531D01*
X16712682Y-13422531D02*
X16703158Y-13441579D01*
X16703158Y-13441579D02*
X16703158Y-13489198D01*
X16703158Y-13489198D02*
X16712682Y-13508246D01*
X16712682Y-13508246D02*
X16722206Y-13517769D01*
X16722206Y-13517769D02*
X16741253Y-13527293D01*
X16741253Y-13527293D02*
X16779349Y-13527293D01*
X16779349Y-13527293D02*
X16798396Y-13517769D01*
X16798396Y-13517769D02*
X16807920Y-13508246D01*
X16807920Y-13508246D02*
X16817444Y-13489198D01*
X16893634Y-13403484D02*
X16893634Y-13441579D01*
X16969825Y-13403484D02*
X16969825Y-13441579D01*
X17265063Y-13679674D02*
X17255539Y-13670150D01*
X17255539Y-13670150D02*
X17236491Y-13641579D01*
X17236491Y-13641579D02*
X17226968Y-13622531D01*
X17226968Y-13622531D02*
X17217444Y-13593960D01*
X17217444Y-13593960D02*
X17207920Y-13546341D01*
X17207920Y-13546341D02*
X17207920Y-13508246D01*
X17207920Y-13508246D02*
X17217444Y-13460627D01*
X17217444Y-13460627D02*
X17226968Y-13432055D01*
X17226968Y-13432055D02*
X17236491Y-13413008D01*
X17236491Y-13413008D02*
X17255539Y-13384436D01*
X17255539Y-13384436D02*
X17265063Y-13374912D01*
X17446015Y-13603484D02*
X17331730Y-13603484D01*
X17388872Y-13603484D02*
X17388872Y-13403484D01*
X17388872Y-13403484D02*
X17369825Y-13432055D01*
X17369825Y-13432055D02*
X17350777Y-13451103D01*
X17350777Y-13451103D02*
X17331730Y-13460627D01*
X17560301Y-13489198D02*
X17541253Y-13479674D01*
X17541253Y-13479674D02*
X17531730Y-13470150D01*
X17531730Y-13470150D02*
X17522206Y-13451103D01*
X17522206Y-13451103D02*
X17522206Y-13441579D01*
X17522206Y-13441579D02*
X17531730Y-13422531D01*
X17531730Y-13422531D02*
X17541253Y-13413008D01*
X17541253Y-13413008D02*
X17560301Y-13403484D01*
X17560301Y-13403484D02*
X17598396Y-13403484D01*
X17598396Y-13403484D02*
X17617444Y-13413008D01*
X17617444Y-13413008D02*
X17626968Y-13422531D01*
X17626968Y-13422531D02*
X17636491Y-13441579D01*
X17636491Y-13441579D02*
X17636491Y-13451103D01*
X17636491Y-13451103D02*
X17626968Y-13470150D01*
X17626968Y-13470150D02*
X17617444Y-13479674D01*
X17617444Y-13479674D02*
X17598396Y-13489198D01*
X17598396Y-13489198D02*
X17560301Y-13489198D01*
X17560301Y-13489198D02*
X17541253Y-13498722D01*
X17541253Y-13498722D02*
X17531730Y-13508246D01*
X17531730Y-13508246D02*
X17522206Y-13527293D01*
X17522206Y-13527293D02*
X17522206Y-13565388D01*
X17522206Y-13565388D02*
X17531730Y-13584436D01*
X17531730Y-13584436D02*
X17541253Y-13593960D01*
X17541253Y-13593960D02*
X17560301Y-13603484D01*
X17560301Y-13603484D02*
X17598396Y-13603484D01*
X17598396Y-13603484D02*
X17617444Y-13593960D01*
X17617444Y-13593960D02*
X17626968Y-13584436D01*
X17626968Y-13584436D02*
X17636491Y-13565388D01*
X17636491Y-13565388D02*
X17636491Y-13527293D01*
X17636491Y-13527293D02*
X17626968Y-13508246D01*
X17626968Y-13508246D02*
X17617444Y-13498722D01*
X17617444Y-13498722D02*
X17598396Y-13489198D01*
X17874587Y-13603484D02*
X17874587Y-13403484D01*
X17960301Y-13603484D02*
X17960301Y-13498722D01*
X17960301Y-13498722D02*
X17950777Y-13479674D01*
X17950777Y-13479674D02*
X17931730Y-13470150D01*
X17931730Y-13470150D02*
X17903158Y-13470150D01*
X17903158Y-13470150D02*
X17884111Y-13479674D01*
X17884111Y-13479674D02*
X17874587Y-13489198D01*
X18084111Y-13603484D02*
X18065063Y-13593960D01*
X18065063Y-13593960D02*
X18055539Y-13584436D01*
X18055539Y-13584436D02*
X18046015Y-13565388D01*
X18046015Y-13565388D02*
X18046015Y-13508246D01*
X18046015Y-13508246D02*
X18055539Y-13489198D01*
X18055539Y-13489198D02*
X18065063Y-13479674D01*
X18065063Y-13479674D02*
X18084111Y-13470150D01*
X18084111Y-13470150D02*
X18112682Y-13470150D01*
X18112682Y-13470150D02*
X18131730Y-13479674D01*
X18131730Y-13479674D02*
X18141253Y-13489198D01*
X18141253Y-13489198D02*
X18150777Y-13508246D01*
X18150777Y-13508246D02*
X18150777Y-13565388D01*
X18150777Y-13565388D02*
X18141253Y-13584436D01*
X18141253Y-13584436D02*
X18131730Y-13593960D01*
X18131730Y-13593960D02*
X18112682Y-13603484D01*
X18112682Y-13603484D02*
X18084111Y-13603484D01*
X18265063Y-13603484D02*
X18246015Y-13593960D01*
X18246015Y-13593960D02*
X18236492Y-13574912D01*
X18236492Y-13574912D02*
X18236492Y-13403484D01*
X18417444Y-13593960D02*
X18398396Y-13603484D01*
X18398396Y-13603484D02*
X18360301Y-13603484D01*
X18360301Y-13603484D02*
X18341253Y-13593960D01*
X18341253Y-13593960D02*
X18331730Y-13574912D01*
X18331730Y-13574912D02*
X18331730Y-13498722D01*
X18331730Y-13498722D02*
X18341253Y-13479674D01*
X18341253Y-13479674D02*
X18360301Y-13470150D01*
X18360301Y-13470150D02*
X18398396Y-13470150D01*
X18398396Y-13470150D02*
X18417444Y-13479674D01*
X18417444Y-13479674D02*
X18426968Y-13498722D01*
X18426968Y-13498722D02*
X18426968Y-13517769D01*
X18426968Y-13517769D02*
X18331730Y-13536817D01*
X18503158Y-13593960D02*
X18522206Y-13603484D01*
X18522206Y-13603484D02*
X18560301Y-13603484D01*
X18560301Y-13603484D02*
X18579349Y-13593960D01*
X18579349Y-13593960D02*
X18588873Y-13574912D01*
X18588873Y-13574912D02*
X18588873Y-13565388D01*
X18588873Y-13565388D02*
X18579349Y-13546341D01*
X18579349Y-13546341D02*
X18560301Y-13536817D01*
X18560301Y-13536817D02*
X18531730Y-13536817D01*
X18531730Y-13536817D02*
X18512682Y-13527293D01*
X18512682Y-13527293D02*
X18503158Y-13508246D01*
X18503158Y-13508246D02*
X18503158Y-13498722D01*
X18503158Y-13498722D02*
X18512682Y-13479674D01*
X18512682Y-13479674D02*
X18531730Y-13470150D01*
X18531730Y-13470150D02*
X18560301Y-13470150D01*
X18560301Y-13470150D02*
X18579349Y-13479674D01*
X18655539Y-13679674D02*
X18665063Y-13670150D01*
X18665063Y-13670150D02*
X18684111Y-13641579D01*
X18684111Y-13641579D02*
X18693634Y-13622531D01*
X18693634Y-13622531D02*
X18703158Y-13593960D01*
X18703158Y-13593960D02*
X18712682Y-13546341D01*
X18712682Y-13546341D02*
X18712682Y-13508246D01*
X18712682Y-13508246D02*
X18703158Y-13460627D01*
X18703158Y-13460627D02*
X18693634Y-13432055D01*
X18693634Y-13432055D02*
X18684111Y-13413008D01*
X18684111Y-13413008D02*
X18665063Y-13384436D01*
X18665063Y-13384436D02*
X18655539Y-13374912D01*
D11*
X13690000Y-13776000D02*
G75*
G02*
X13672500Y-13776000I-8750J0D01*
G01*
X13672500Y-13776000D02*
G75*
G02*
X13690000Y-13776000I8750J0D01*
G01*
D10*
X13988872Y-13667484D02*
X14007920Y-13667484D01*
X14007920Y-13667484D02*
X14026967Y-13677008D01*
X14026967Y-13677008D02*
X14036491Y-13686531D01*
X14036491Y-13686531D02*
X14046015Y-13705579D01*
X14046015Y-13705579D02*
X14055539Y-13743674D01*
X14055539Y-13743674D02*
X14055539Y-13791293D01*
X14055539Y-13791293D02*
X14046015Y-13829388D01*
X14046015Y-13829388D02*
X14036491Y-13848436D01*
X14036491Y-13848436D02*
X14026967Y-13857960D01*
X14026967Y-13857960D02*
X14007920Y-13867484D01*
X14007920Y-13867484D02*
X13988872Y-13867484D01*
X13988872Y-13867484D02*
X13969824Y-13857960D01*
X13969824Y-13857960D02*
X13960301Y-13848436D01*
X13960301Y-13848436D02*
X13950777Y-13829388D01*
X13950777Y-13829388D02*
X13941253Y-13791293D01*
X13941253Y-13791293D02*
X13941253Y-13743674D01*
X13941253Y-13743674D02*
X13950777Y-13705579D01*
X13950777Y-13705579D02*
X13960301Y-13686531D01*
X13960301Y-13686531D02*
X13969824Y-13677008D01*
X13969824Y-13677008D02*
X13988872Y-13667484D01*
X14141253Y-13848436D02*
X14150777Y-13857960D01*
X14150777Y-13857960D02*
X14141253Y-13867484D01*
X14141253Y-13867484D02*
X14131729Y-13857960D01*
X14131729Y-13857960D02*
X14141253Y-13848436D01*
X14141253Y-13848436D02*
X14141253Y-13867484D01*
X14341253Y-13867484D02*
X14226967Y-13867484D01*
X14284110Y-13867484D02*
X14284110Y-13667484D01*
X14284110Y-13667484D02*
X14265062Y-13696055D01*
X14265062Y-13696055D02*
X14246015Y-13715103D01*
X14246015Y-13715103D02*
X14226967Y-13724627D01*
X14407920Y-13667484D02*
X14541253Y-13667484D01*
X14541253Y-13667484D02*
X14455539Y-13867484D01*
X14712682Y-13667484D02*
X14617443Y-13667484D01*
X14617443Y-13667484D02*
X14607920Y-13762722D01*
X14607920Y-13762722D02*
X14617443Y-13753198D01*
X14617443Y-13753198D02*
X14636491Y-13743674D01*
X14636491Y-13743674D02*
X14684110Y-13743674D01*
X14684110Y-13743674D02*
X14703158Y-13753198D01*
X14703158Y-13753198D02*
X14712682Y-13762722D01*
X14712682Y-13762722D02*
X14722205Y-13781769D01*
X14722205Y-13781769D02*
X14722205Y-13829388D01*
X14722205Y-13829388D02*
X14712682Y-13848436D01*
X14712682Y-13848436D02*
X14703158Y-13857960D01*
X14703158Y-13857960D02*
X14684110Y-13867484D01*
X14684110Y-13867484D02*
X14636491Y-13867484D01*
X14636491Y-13867484D02*
X14617443Y-13857960D01*
X14617443Y-13857960D02*
X14607920Y-13848436D01*
X14807920Y-13867484D02*
X14807920Y-13734150D01*
X14807920Y-13753198D02*
X14817443Y-13743674D01*
X14817443Y-13743674D02*
X14836491Y-13734150D01*
X14836491Y-13734150D02*
X14865063Y-13734150D01*
X14865063Y-13734150D02*
X14884110Y-13743674D01*
X14884110Y-13743674D02*
X14893634Y-13762722D01*
X14893634Y-13762722D02*
X14893634Y-13867484D01*
X14893634Y-13762722D02*
X14903158Y-13743674D01*
X14903158Y-13743674D02*
X14922205Y-13734150D01*
X14922205Y-13734150D02*
X14950777Y-13734150D01*
X14950777Y-13734150D02*
X14969824Y-13743674D01*
X14969824Y-13743674D02*
X14979348Y-13762722D01*
X14979348Y-13762722D02*
X14979348Y-13867484D01*
X15074586Y-13867484D02*
X15074586Y-13734150D01*
X15074586Y-13753198D02*
X15084110Y-13743674D01*
X15084110Y-13743674D02*
X15103158Y-13734150D01*
X15103158Y-13734150D02*
X15131729Y-13734150D01*
X15131729Y-13734150D02*
X15150777Y-13743674D01*
X15150777Y-13743674D02*
X15160301Y-13762722D01*
X15160301Y-13762722D02*
X15160301Y-13867484D01*
X15160301Y-13762722D02*
X15169824Y-13743674D01*
X15169824Y-13743674D02*
X15188872Y-13734150D01*
X15188872Y-13734150D02*
X15217443Y-13734150D01*
X15217443Y-13734150D02*
X15236491Y-13743674D01*
X15236491Y-13743674D02*
X15246015Y-13762722D01*
X15246015Y-13762722D02*
X15246015Y-13867484D01*
X15636491Y-13657960D02*
X15465063Y-13915103D01*
X15893634Y-13667484D02*
X15912682Y-13667484D01*
X15912682Y-13667484D02*
X15931729Y-13677008D01*
X15931729Y-13677008D02*
X15941253Y-13686531D01*
X15941253Y-13686531D02*
X15950777Y-13705579D01*
X15950777Y-13705579D02*
X15960301Y-13743674D01*
X15960301Y-13743674D02*
X15960301Y-13791293D01*
X15960301Y-13791293D02*
X15950777Y-13829388D01*
X15950777Y-13829388D02*
X15941253Y-13848436D01*
X15941253Y-13848436D02*
X15931729Y-13857960D01*
X15931729Y-13857960D02*
X15912682Y-13867484D01*
X15912682Y-13867484D02*
X15893634Y-13867484D01*
X15893634Y-13867484D02*
X15874586Y-13857960D01*
X15874586Y-13857960D02*
X15865063Y-13848436D01*
X15865063Y-13848436D02*
X15855539Y-13829388D01*
X15855539Y-13829388D02*
X15846015Y-13791293D01*
X15846015Y-13791293D02*
X15846015Y-13743674D01*
X15846015Y-13743674D02*
X15855539Y-13705579D01*
X15855539Y-13705579D02*
X15865063Y-13686531D01*
X15865063Y-13686531D02*
X15874586Y-13677008D01*
X15874586Y-13677008D02*
X15893634Y-13667484D01*
X16046015Y-13848436D02*
X16055539Y-13857960D01*
X16055539Y-13857960D02*
X16046015Y-13867484D01*
X16046015Y-13867484D02*
X16036491Y-13857960D01*
X16036491Y-13857960D02*
X16046015Y-13848436D01*
X16046015Y-13848436D02*
X16046015Y-13867484D01*
X16179348Y-13667484D02*
X16198396Y-13667484D01*
X16198396Y-13667484D02*
X16217444Y-13677008D01*
X16217444Y-13677008D02*
X16226967Y-13686531D01*
X16226967Y-13686531D02*
X16236491Y-13705579D01*
X16236491Y-13705579D02*
X16246015Y-13743674D01*
X16246015Y-13743674D02*
X16246015Y-13791293D01*
X16246015Y-13791293D02*
X16236491Y-13829388D01*
X16236491Y-13829388D02*
X16226967Y-13848436D01*
X16226967Y-13848436D02*
X16217444Y-13857960D01*
X16217444Y-13857960D02*
X16198396Y-13867484D01*
X16198396Y-13867484D02*
X16179348Y-13867484D01*
X16179348Y-13867484D02*
X16160301Y-13857960D01*
X16160301Y-13857960D02*
X16150777Y-13848436D01*
X16150777Y-13848436D02*
X16141253Y-13829388D01*
X16141253Y-13829388D02*
X16131729Y-13791293D01*
X16131729Y-13791293D02*
X16131729Y-13743674D01*
X16131729Y-13743674D02*
X16141253Y-13705579D01*
X16141253Y-13705579D02*
X16150777Y-13686531D01*
X16150777Y-13686531D02*
X16160301Y-13677008D01*
X16160301Y-13677008D02*
X16179348Y-13667484D01*
X16369825Y-13667484D02*
X16388872Y-13667484D01*
X16388872Y-13667484D02*
X16407920Y-13677008D01*
X16407920Y-13677008D02*
X16417444Y-13686531D01*
X16417444Y-13686531D02*
X16426967Y-13705579D01*
X16426967Y-13705579D02*
X16436491Y-13743674D01*
X16436491Y-13743674D02*
X16436491Y-13791293D01*
X16436491Y-13791293D02*
X16426967Y-13829388D01*
X16426967Y-13829388D02*
X16417444Y-13848436D01*
X16417444Y-13848436D02*
X16407920Y-13857960D01*
X16407920Y-13857960D02*
X16388872Y-13867484D01*
X16388872Y-13867484D02*
X16369825Y-13867484D01*
X16369825Y-13867484D02*
X16350777Y-13857960D01*
X16350777Y-13857960D02*
X16341253Y-13848436D01*
X16341253Y-13848436D02*
X16331729Y-13829388D01*
X16331729Y-13829388D02*
X16322206Y-13791293D01*
X16322206Y-13791293D02*
X16322206Y-13743674D01*
X16322206Y-13743674D02*
X16331729Y-13705579D01*
X16331729Y-13705579D02*
X16341253Y-13686531D01*
X16341253Y-13686531D02*
X16350777Y-13677008D01*
X16350777Y-13677008D02*
X16369825Y-13667484D01*
X16607920Y-13667484D02*
X16569825Y-13667484D01*
X16569825Y-13667484D02*
X16550777Y-13677008D01*
X16550777Y-13677008D02*
X16541253Y-13686531D01*
X16541253Y-13686531D02*
X16522206Y-13715103D01*
X16522206Y-13715103D02*
X16512682Y-13753198D01*
X16512682Y-13753198D02*
X16512682Y-13829388D01*
X16512682Y-13829388D02*
X16522206Y-13848436D01*
X16522206Y-13848436D02*
X16531729Y-13857960D01*
X16531729Y-13857960D02*
X16550777Y-13867484D01*
X16550777Y-13867484D02*
X16588872Y-13867484D01*
X16588872Y-13867484D02*
X16607920Y-13857960D01*
X16607920Y-13857960D02*
X16617444Y-13848436D01*
X16617444Y-13848436D02*
X16626967Y-13829388D01*
X16626967Y-13829388D02*
X16626967Y-13781769D01*
X16626967Y-13781769D02*
X16617444Y-13762722D01*
X16617444Y-13762722D02*
X16607920Y-13753198D01*
X16607920Y-13753198D02*
X16588872Y-13743674D01*
X16588872Y-13743674D02*
X16550777Y-13743674D01*
X16550777Y-13743674D02*
X16531729Y-13753198D01*
X16531729Y-13753198D02*
X16522206Y-13762722D01*
X16522206Y-13762722D02*
X16512682Y-13781769D01*
X16722206Y-13867484D02*
X16760301Y-13867484D01*
X16760301Y-13867484D02*
X16779349Y-13857960D01*
X16779349Y-13857960D02*
X16788872Y-13848436D01*
X16788872Y-13848436D02*
X16807920Y-13819865D01*
X16807920Y-13819865D02*
X16817444Y-13781769D01*
X16817444Y-13781769D02*
X16817444Y-13705579D01*
X16817444Y-13705579D02*
X16807920Y-13686531D01*
X16807920Y-13686531D02*
X16798396Y-13677008D01*
X16798396Y-13677008D02*
X16779349Y-13667484D01*
X16779349Y-13667484D02*
X16741253Y-13667484D01*
X16741253Y-13667484D02*
X16722206Y-13677008D01*
X16722206Y-13677008D02*
X16712682Y-13686531D01*
X16712682Y-13686531D02*
X16703158Y-13705579D01*
X16703158Y-13705579D02*
X16703158Y-13753198D01*
X16703158Y-13753198D02*
X16712682Y-13772246D01*
X16712682Y-13772246D02*
X16722206Y-13781769D01*
X16722206Y-13781769D02*
X16741253Y-13791293D01*
X16741253Y-13791293D02*
X16779349Y-13791293D01*
X16779349Y-13791293D02*
X16798396Y-13781769D01*
X16798396Y-13781769D02*
X16807920Y-13772246D01*
X16807920Y-13772246D02*
X16817444Y-13753198D01*
X16893634Y-13667484D02*
X16893634Y-13705579D01*
X16969825Y-13667484D02*
X16969825Y-13705579D01*
X17265063Y-13943674D02*
X17255539Y-13934150D01*
X17255539Y-13934150D02*
X17236491Y-13905579D01*
X17236491Y-13905579D02*
X17226968Y-13886531D01*
X17226968Y-13886531D02*
X17217444Y-13857960D01*
X17217444Y-13857960D02*
X17207920Y-13810341D01*
X17207920Y-13810341D02*
X17207920Y-13772246D01*
X17207920Y-13772246D02*
X17217444Y-13724627D01*
X17217444Y-13724627D02*
X17226968Y-13696055D01*
X17226968Y-13696055D02*
X17236491Y-13677008D01*
X17236491Y-13677008D02*
X17255539Y-13648436D01*
X17255539Y-13648436D02*
X17265063Y-13638912D01*
X17446015Y-13867484D02*
X17331730Y-13867484D01*
X17388872Y-13867484D02*
X17388872Y-13667484D01*
X17388872Y-13667484D02*
X17369825Y-13696055D01*
X17369825Y-13696055D02*
X17350777Y-13715103D01*
X17350777Y-13715103D02*
X17331730Y-13724627D01*
X17684111Y-13867484D02*
X17684111Y-13667484D01*
X17769825Y-13867484D02*
X17769825Y-13762722D01*
X17769825Y-13762722D02*
X17760301Y-13743674D01*
X17760301Y-13743674D02*
X17741253Y-13734150D01*
X17741253Y-13734150D02*
X17712682Y-13734150D01*
X17712682Y-13734150D02*
X17693634Y-13743674D01*
X17693634Y-13743674D02*
X17684111Y-13753198D01*
X17893634Y-13867484D02*
X17874587Y-13857960D01*
X17874587Y-13857960D02*
X17865063Y-13848436D01*
X17865063Y-13848436D02*
X17855539Y-13829388D01*
X17855539Y-13829388D02*
X17855539Y-13772246D01*
X17855539Y-13772246D02*
X17865063Y-13753198D01*
X17865063Y-13753198D02*
X17874587Y-13743674D01*
X17874587Y-13743674D02*
X17893634Y-13734150D01*
X17893634Y-13734150D02*
X17922206Y-13734150D01*
X17922206Y-13734150D02*
X17941253Y-13743674D01*
X17941253Y-13743674D02*
X17950777Y-13753198D01*
X17950777Y-13753198D02*
X17960301Y-13772246D01*
X17960301Y-13772246D02*
X17960301Y-13829388D01*
X17960301Y-13829388D02*
X17950777Y-13848436D01*
X17950777Y-13848436D02*
X17941253Y-13857960D01*
X17941253Y-13857960D02*
X17922206Y-13867484D01*
X17922206Y-13867484D02*
X17893634Y-13867484D01*
X18074587Y-13867484D02*
X18055539Y-13857960D01*
X18055539Y-13857960D02*
X18046015Y-13838912D01*
X18046015Y-13838912D02*
X18046015Y-13667484D01*
X18226968Y-13857960D02*
X18207920Y-13867484D01*
X18207920Y-13867484D02*
X18169825Y-13867484D01*
X18169825Y-13867484D02*
X18150777Y-13857960D01*
X18150777Y-13857960D02*
X18141253Y-13838912D01*
X18141253Y-13838912D02*
X18141253Y-13762722D01*
X18141253Y-13762722D02*
X18150777Y-13743674D01*
X18150777Y-13743674D02*
X18169825Y-13734150D01*
X18169825Y-13734150D02*
X18207920Y-13734150D01*
X18207920Y-13734150D02*
X18226968Y-13743674D01*
X18226968Y-13743674D02*
X18236492Y-13762722D01*
X18236492Y-13762722D02*
X18236492Y-13781769D01*
X18236492Y-13781769D02*
X18141253Y-13800817D01*
X18303158Y-13943674D02*
X18312682Y-13934150D01*
X18312682Y-13934150D02*
X18331730Y-13905579D01*
X18331730Y-13905579D02*
X18341253Y-13886531D01*
X18341253Y-13886531D02*
X18350777Y-13857960D01*
X18350777Y-13857960D02*
X18360301Y-13810341D01*
X18360301Y-13810341D02*
X18360301Y-13772246D01*
X18360301Y-13772246D02*
X18350777Y-13724627D01*
X18350777Y-13724627D02*
X18341253Y-13696055D01*
X18341253Y-13696055D02*
X18331730Y-13677008D01*
X18331730Y-13677008D02*
X18312682Y-13648436D01*
X18312682Y-13648436D02*
X18303158Y-13638912D01*
M02*
