%TF.GenerationSoftware,KiCad,Pcbnew,8.0.1*%
%TF.CreationDate,2024-10-17T14:11:07-05:00*%
%TF.ProjectId,sip-board,7369702d-626f-4617-9264-2e6b69636164,rev?*%
%TF.SameCoordinates,Original*%
%TF.FileFunction,Copper,L2,Inr*%
%TF.FilePolarity,Positive*%
%FSLAX46Y46*%
G04 Gerber Fmt 4.6, Leading zero omitted, Abs format (unit mm)*
G04 Created by KiCad (PCBNEW 8.0.1) date 2024-10-17 14:11:07*
%MOMM*%
%LPD*%
G01*
G04 APERTURE LIST*
%TA.AperFunction,CastellatedPad*%
%ADD10R,1.700000X1.700000*%
%TD*%
%TA.AperFunction,CastellatedPad*%
%ADD11O,1.700000X1.700000*%
%TD*%
%TA.AperFunction,ComponentPad*%
%ADD12R,1.700000X1.700000*%
%TD*%
%TA.AperFunction,ComponentPad*%
%ADD13O,1.700000X1.700000*%
%TD*%
%TA.AperFunction,ViaPad*%
%ADD14C,0.300000*%
%TD*%
%TA.AperFunction,ViaPad*%
%ADD15C,0.254000*%
%TD*%
G04 APERTURE END LIST*
D10*
%TO.N,A1_5V*%
%TO.C,J5*%
X153970000Y-104800000D03*
D11*
%TO.N,A2_5V*%
X153970000Y-107340000D03*
%TO.N,A3_5V*%
X153970000Y-109880000D03*
%TO.N,A4_5V*%
X153970000Y-112420000D03*
%TO.N,A5_5V*%
X153970000Y-114960000D03*
%TO.N,A6_5V*%
X153970000Y-117500000D03*
%TO.N,A7_5V*%
X153970000Y-120040000D03*
%TO.N,A8_5V*%
X153970000Y-122580000D03*
%TO.N,A9_5V*%
X153970000Y-125120000D03*
%TO.N,A10_5V*%
X153970000Y-127660000D03*
%TD*%
D10*
%TO.N,+5V*%
%TO.C,J3*%
X137000000Y-104840000D03*
D11*
%TO.N,D2_5V*%
X137000000Y-107380000D03*
%TO.N,D7_5V*%
X137000000Y-109920000D03*
%TO.N,D0_5V*%
X137000000Y-112460000D03*
%TO.N,D1_5V*%
X137000000Y-115000000D03*
%TO.N,INT_5V*%
X137000000Y-117540000D03*
%TO.N,NMI_5V*%
X137000000Y-120080000D03*
%TO.N,HALT_5V*%
X137000000Y-122620000D03*
%TO.N,MREQ_5V*%
X137000000Y-125160000D03*
%TO.N,IORQ_5V*%
X137000000Y-127700000D03*
%TD*%
D10*
%TO.N,A11_5V*%
%TO.C,J2*%
X137000000Y-79405000D03*
D11*
%TO.N,A12_5V*%
X137000000Y-81945000D03*
%TO.N,A13_5V*%
X137000000Y-84485000D03*
%TO.N,A14_5V*%
X137000000Y-87025000D03*
%TO.N,A15_5V*%
X137000000Y-89565000D03*
%TO.N,CLK_5V*%
X137000000Y-92105000D03*
%TO.N,D4_5V*%
X137000000Y-94645000D03*
%TO.N,D3_5V*%
X137000000Y-97185000D03*
%TO.N,D5_5V*%
X137000000Y-99725000D03*
%TO.N,D6_5V*%
X137000000Y-102265000D03*
%TD*%
D12*
%TO.N,RD_5V*%
%TO.C,J4*%
X153940000Y-79400000D03*
D13*
%TO.N,WR_5V*%
X153940000Y-81940000D03*
%TO.N,BUSAK_5V*%
X153940000Y-84480000D03*
%TO.N,WAIT_5V*%
X153940000Y-87020000D03*
%TO.N,BUSRQ_5V*%
X153940000Y-89560000D03*
%TO.N,RESET_5V*%
X153940000Y-92100000D03*
%TO.N,M1_5V*%
X153940000Y-94640000D03*
%TO.N,RFSH_5V*%
X153940000Y-97180000D03*
%TO.N,GND*%
X153940000Y-99720000D03*
%TO.N,A0_5V*%
X153940000Y-102260000D03*
%TD*%
D14*
%TO.N,+1V0*%
X140930000Y-96190000D03*
D15*
X143050000Y-106290000D03*
X144920000Y-103590000D03*
X145410000Y-100100000D03*
X147300000Y-106270000D03*
X145400000Y-104110000D03*
X146400000Y-102110000D03*
X145900000Y-101610000D03*
X146410000Y-100100000D03*
X145410000Y-101600000D03*
X144920000Y-102590000D03*
X145910000Y-102100000D03*
%TO.N,GND*%
X150400000Y-106500000D03*
X144320000Y-92110000D03*
X150530000Y-95300000D03*
D14*
X148410000Y-104600000D03*
D15*
X146760000Y-114750000D03*
X141770000Y-101850000D03*
X148130000Y-92140000D03*
X145420000Y-100590000D03*
X143420000Y-104590000D03*
X145932310Y-104577690D03*
X147160000Y-98930000D03*
X139870000Y-92050000D03*
X149060000Y-105850000D03*
X142160000Y-98920000D03*
X148410000Y-102100000D03*
X145900000Y-103110000D03*
X146420000Y-100590000D03*
X149040000Y-103850000D03*
D14*
X148690000Y-87960000D03*
D15*
X149240000Y-114750000D03*
X141770000Y-104350000D03*
X146900000Y-102110000D03*
D14*
X137750000Y-88290000D03*
D15*
X144160000Y-106240000D03*
X147920000Y-100590000D03*
D14*
X147880000Y-82870000D03*
X148690000Y-89720000D03*
D15*
X143910000Y-101100000D03*
X144920000Y-100090000D03*
X147420000Y-104080000D03*
X143910000Y-103600000D03*
X144920000Y-104090000D03*
X149920000Y-111060000D03*
D14*
X152400000Y-83570000D03*
D15*
X144660000Y-98960000D03*
X139970000Y-106470000D03*
X143420000Y-102090000D03*
X140700000Y-85980000D03*
D14*
X137670000Y-90870000D03*
D15*
X142920000Y-100590000D03*
X146910000Y-101100000D03*
X143410000Y-99600000D03*
X141770000Y-105850000D03*
X146740000Y-94550000D03*
X145160000Y-106240000D03*
X144130000Y-114750000D03*
X146910000Y-103100000D03*
X150160000Y-104170000D03*
X143040000Y-94560000D03*
X144910000Y-103100000D03*
X149020000Y-99350000D03*
X145900000Y-99610000D03*
X142920000Y-103090000D03*
X140710000Y-92250000D03*
X149000000Y-101350000D03*
X147900000Y-103110000D03*
X146160000Y-106230000D03*
D14*
X151140000Y-86450000D03*
%TO.N,+5V*%
X139220000Y-90330000D03*
X138940000Y-101250000D03*
X138950000Y-106300000D03*
X150760000Y-94720000D03*
X142800000Y-84710000D03*
X142800000Y-81870000D03*
D15*
%TO.N,+1V8*%
X145420000Y-101090000D03*
X146420000Y-101090000D03*
X144160000Y-97300000D03*
X144910000Y-100580000D03*
%TO.N,Net-(IC1-INIT_B_0)*%
X141180000Y-104530000D03*
X144930000Y-105590000D03*
%TO.N,TDO*%
X147270000Y-87210000D03*
X144420000Y-104600000D03*
%TO.N,M0_CONFIG*%
X147950000Y-114190000D03*
X146910000Y-104600000D03*
%TO.N,MOSI*%
X149310000Y-83710000D03*
X145410000Y-104600000D03*
X146920000Y-100610000D03*
X149700000Y-83700000D03*
%TO.N,M2_CONFIG*%
X142860000Y-114180000D03*
X146410000Y-104600000D03*
%TO.N,DIN*%
X147410000Y-100100000D03*
%TO.N,DONE*%
X149980000Y-105100000D03*
X146420000Y-105100000D03*
%TO.N,CS*%
X144900000Y-104610000D03*
X151550000Y-87050000D03*
%TO.N,CCLK*%
X145870000Y-98230000D03*
X145740000Y-82210000D03*
%TO.N,M1_CONFIG*%
X145410000Y-114200000D03*
X145910000Y-104100000D03*
%TO.N,+3V3*%
X150750000Y-93060000D03*
X143920000Y-102120000D03*
X144410000Y-101100000D03*
X146920000Y-101590000D03*
X144910000Y-105100000D03*
X146920000Y-102590000D03*
X139920000Y-88460000D03*
X140620000Y-106470000D03*
X145660000Y-106260000D03*
X142870000Y-124790000D03*
X144410000Y-105100000D03*
X148380000Y-97550000D03*
X146920000Y-103590000D03*
D14*
X141010000Y-106460000D03*
D15*
X144410000Y-102600000D03*
X148820000Y-96280000D03*
X140620000Y-102830000D03*
X147950000Y-124810000D03*
X147850000Y-96280000D03*
X145410000Y-124790000D03*
%TD*%
%TA.AperFunction,Conductor*%
%TO.N,GND*%
G36*
X152917826Y-78641674D02*
G01*
X152939500Y-78694000D01*
X152939500Y-80264820D01*
X152948233Y-80308722D01*
X152981496Y-80358504D01*
X153031278Y-80391767D01*
X153075180Y-80400500D01*
X153075181Y-80400500D01*
X153926000Y-80400500D01*
X153978326Y-80422174D01*
X154000000Y-80474500D01*
X154000000Y-80861679D01*
X153978326Y-80914005D01*
X153933254Y-80935323D01*
X153743866Y-80953976D01*
X153555268Y-81011187D01*
X153381463Y-81104089D01*
X153229117Y-81229117D01*
X153104089Y-81381463D01*
X153011187Y-81555268D01*
X152953976Y-81743866D01*
X152934659Y-81940000D01*
X152953976Y-82136133D01*
X153011187Y-82324731D01*
X153080300Y-82454030D01*
X153104090Y-82498538D01*
X153229117Y-82650883D01*
X153381462Y-82775910D01*
X153458426Y-82817048D01*
X153555268Y-82868812D01*
X153555270Y-82868812D01*
X153555273Y-82868814D01*
X153743868Y-82926024D01*
X153933254Y-82944676D01*
X153983203Y-82971375D01*
X154000000Y-83018320D01*
X154000000Y-83401679D01*
X153978326Y-83454005D01*
X153933254Y-83475323D01*
X153743866Y-83493976D01*
X153555268Y-83551187D01*
X153381463Y-83644089D01*
X153229117Y-83769117D01*
X153104089Y-83921463D01*
X153011187Y-84095268D01*
X152953976Y-84283866D01*
X152934659Y-84480000D01*
X152953976Y-84676133D01*
X153011187Y-84864731D01*
X153089103Y-85010499D01*
X153104090Y-85038538D01*
X153229117Y-85190883D01*
X153381462Y-85315910D01*
X153458426Y-85357048D01*
X153555268Y-85408812D01*
X153555270Y-85408812D01*
X153555273Y-85408814D01*
X153743868Y-85466024D01*
X153933254Y-85484676D01*
X153983203Y-85511375D01*
X154000000Y-85558320D01*
X154000000Y-85941679D01*
X153978326Y-85994005D01*
X153933254Y-86015323D01*
X153743866Y-86033976D01*
X153555268Y-86091187D01*
X153381463Y-86184089D01*
X153229117Y-86309117D01*
X153104089Y-86461463D01*
X153011187Y-86635268D01*
X152953976Y-86823866D01*
X152934659Y-87020000D01*
X152953976Y-87216133D01*
X153011187Y-87404731D01*
X153055429Y-87487500D01*
X153104090Y-87578538D01*
X153229117Y-87730883D01*
X153381462Y-87855910D01*
X153458426Y-87897048D01*
X153555268Y-87948812D01*
X153555270Y-87948812D01*
X153555273Y-87948814D01*
X153743868Y-88006024D01*
X153933254Y-88024676D01*
X153983203Y-88051375D01*
X154000000Y-88098320D01*
X154000000Y-88481679D01*
X153978326Y-88534005D01*
X153933254Y-88555323D01*
X153743866Y-88573976D01*
X153555268Y-88631187D01*
X153381463Y-88724089D01*
X153229117Y-88849117D01*
X153104089Y-89001463D01*
X153011187Y-89175268D01*
X152953976Y-89363866D01*
X152934659Y-89560000D01*
X152953976Y-89756133D01*
X153011187Y-89944731D01*
X153098776Y-90108597D01*
X153104090Y-90118538D01*
X153229117Y-90270883D01*
X153381462Y-90395910D01*
X153458426Y-90437048D01*
X153555268Y-90488812D01*
X153555270Y-90488812D01*
X153555273Y-90488814D01*
X153743868Y-90546024D01*
X153933254Y-90564676D01*
X153983203Y-90591375D01*
X154000000Y-90638320D01*
X154000000Y-91021679D01*
X153978326Y-91074005D01*
X153933254Y-91095323D01*
X153743866Y-91113976D01*
X153555268Y-91171187D01*
X153381463Y-91264089D01*
X153229117Y-91389117D01*
X153104089Y-91541463D01*
X153011187Y-91715268D01*
X152953976Y-91903866D01*
X152934659Y-92100000D01*
X152953976Y-92296133D01*
X153011187Y-92484731D01*
X153098776Y-92648597D01*
X153104090Y-92658538D01*
X153229117Y-92810883D01*
X153381462Y-92935910D01*
X153433313Y-92963625D01*
X153555268Y-93028812D01*
X153555270Y-93028812D01*
X153555273Y-93028814D01*
X153743868Y-93086024D01*
X153933254Y-93104676D01*
X153983203Y-93131375D01*
X154000000Y-93178320D01*
X154000000Y-93561679D01*
X153978326Y-93614005D01*
X153933254Y-93635323D01*
X153743866Y-93653976D01*
X153555268Y-93711187D01*
X153381463Y-93804089D01*
X153229117Y-93929117D01*
X153104089Y-94081463D01*
X153011187Y-94255268D01*
X152953976Y-94443866D01*
X152934659Y-94640000D01*
X152953976Y-94836133D01*
X153011187Y-95024731D01*
X153098776Y-95188597D01*
X153104090Y-95198538D01*
X153229117Y-95350883D01*
X153381462Y-95475910D01*
X153458426Y-95517048D01*
X153555268Y-95568812D01*
X153555270Y-95568812D01*
X153555273Y-95568814D01*
X153743868Y-95626024D01*
X153933254Y-95644676D01*
X153983203Y-95671375D01*
X154000000Y-95718320D01*
X154000000Y-96101679D01*
X153978326Y-96154005D01*
X153933254Y-96175323D01*
X153743866Y-96193976D01*
X153555268Y-96251187D01*
X153381463Y-96344089D01*
X153229117Y-96469117D01*
X153104089Y-96621463D01*
X153011187Y-96795268D01*
X152953976Y-96983866D01*
X152934659Y-97180000D01*
X152953976Y-97376133D01*
X153011187Y-97564731D01*
X153098776Y-97728597D01*
X153104090Y-97738538D01*
X153229117Y-97890883D01*
X153381462Y-98015910D01*
X153443135Y-98048875D01*
X153555268Y-98108812D01*
X153555270Y-98108812D01*
X153555273Y-98108814D01*
X153743868Y-98166024D01*
X153933254Y-98184676D01*
X153983203Y-98211375D01*
X154000000Y-98258320D01*
X154000000Y-101181679D01*
X153978326Y-101234005D01*
X153933254Y-101255323D01*
X153743866Y-101273976D01*
X153555268Y-101331187D01*
X153381463Y-101424089D01*
X153229117Y-101549117D01*
X153104089Y-101701463D01*
X153011187Y-101875268D01*
X152953976Y-102063866D01*
X152934659Y-102260000D01*
X152953976Y-102456133D01*
X153011187Y-102644731D01*
X153078747Y-102771125D01*
X153104090Y-102818538D01*
X153229117Y-102970883D01*
X153381462Y-103095910D01*
X153458426Y-103137048D01*
X153555268Y-103188812D01*
X153555270Y-103188812D01*
X153555273Y-103188814D01*
X153743868Y-103246024D01*
X153933254Y-103264676D01*
X153983203Y-103291375D01*
X154000000Y-103338320D01*
X154000000Y-103725500D01*
X153978326Y-103777826D01*
X153926000Y-103799500D01*
X153105180Y-103799500D01*
X153083229Y-103803866D01*
X153061277Y-103808233D01*
X153011496Y-103841495D01*
X153011495Y-103841496D01*
X152978233Y-103891277D01*
X152978233Y-103891278D01*
X152969500Y-103935180D01*
X152969500Y-105664820D01*
X152978233Y-105708722D01*
X153011496Y-105758504D01*
X153061278Y-105791767D01*
X153105180Y-105800500D01*
X153105181Y-105800500D01*
X153926000Y-105800500D01*
X153978326Y-105822174D01*
X154000000Y-105874500D01*
X154000000Y-106264634D01*
X153978326Y-106316960D01*
X153933254Y-106338278D01*
X153773866Y-106353976D01*
X153585268Y-106411187D01*
X153411463Y-106504089D01*
X153259117Y-106629117D01*
X153134089Y-106781463D01*
X153041187Y-106955268D01*
X152983976Y-107143866D01*
X152964659Y-107340000D01*
X152983976Y-107536133D01*
X153041187Y-107724731D01*
X153128776Y-107888597D01*
X153134090Y-107898538D01*
X153259117Y-108050883D01*
X153411462Y-108175910D01*
X153486297Y-108215910D01*
X153585268Y-108268812D01*
X153585270Y-108268812D01*
X153585273Y-108268814D01*
X153773868Y-108326024D01*
X153933254Y-108341721D01*
X153983203Y-108368420D01*
X154000000Y-108415365D01*
X154000000Y-108804634D01*
X153978326Y-108856960D01*
X153933254Y-108878278D01*
X153773866Y-108893976D01*
X153585268Y-108951187D01*
X153411463Y-109044089D01*
X153259117Y-109169117D01*
X153134089Y-109321463D01*
X153041187Y-109495268D01*
X152983976Y-109683866D01*
X152964659Y-109880000D01*
X152983976Y-110076133D01*
X153041187Y-110264731D01*
X153128776Y-110428597D01*
X153134090Y-110438538D01*
X153259117Y-110590883D01*
X153411462Y-110715910D01*
X153486297Y-110755910D01*
X153585268Y-110808812D01*
X153585270Y-110808812D01*
X153585273Y-110808814D01*
X153773868Y-110866024D01*
X153933254Y-110881721D01*
X153983203Y-110908420D01*
X154000000Y-110955365D01*
X154000000Y-111344634D01*
X153978326Y-111396960D01*
X153933254Y-111418278D01*
X153773866Y-111433976D01*
X153585268Y-111491187D01*
X153411463Y-111584089D01*
X153259117Y-111709117D01*
X153134089Y-111861463D01*
X153041187Y-112035268D01*
X152983976Y-112223866D01*
X152964659Y-112420000D01*
X152983976Y-112616133D01*
X153041187Y-112804731D01*
X153128776Y-112968597D01*
X153134090Y-112978538D01*
X153259117Y-113130883D01*
X153411462Y-113255910D01*
X153486297Y-113295910D01*
X153585268Y-113348812D01*
X153585270Y-113348812D01*
X153585273Y-113348814D01*
X153773868Y-113406024D01*
X153933254Y-113421721D01*
X153983203Y-113448420D01*
X154000000Y-113495365D01*
X154000000Y-113884634D01*
X153978326Y-113936960D01*
X153933254Y-113958278D01*
X153773866Y-113973976D01*
X153585268Y-114031187D01*
X153411463Y-114124089D01*
X153259117Y-114249117D01*
X153134089Y-114401463D01*
X153041187Y-114575268D01*
X152983976Y-114763866D01*
X152964659Y-114960000D01*
X152983976Y-115156133D01*
X153041187Y-115344731D01*
X153128776Y-115508597D01*
X153134090Y-115518538D01*
X153259117Y-115670883D01*
X153411462Y-115795910D01*
X153486297Y-115835910D01*
X153585268Y-115888812D01*
X153585270Y-115888812D01*
X153585273Y-115888814D01*
X153773868Y-115946024D01*
X153933254Y-115961721D01*
X153983203Y-115988420D01*
X154000000Y-116035365D01*
X154000000Y-116424634D01*
X153978326Y-116476960D01*
X153933254Y-116498278D01*
X153773866Y-116513976D01*
X153585268Y-116571187D01*
X153411463Y-116664089D01*
X153259117Y-116789117D01*
X153134089Y-116941463D01*
X153041187Y-117115268D01*
X152983976Y-117303866D01*
X152964659Y-117500000D01*
X152983976Y-117696133D01*
X153041187Y-117884731D01*
X153128776Y-118048597D01*
X153134090Y-118058538D01*
X153259117Y-118210883D01*
X153411462Y-118335910D01*
X153486297Y-118375910D01*
X153585268Y-118428812D01*
X153585270Y-118428812D01*
X153585273Y-118428814D01*
X153773868Y-118486024D01*
X153933254Y-118501721D01*
X153983203Y-118528420D01*
X154000000Y-118575365D01*
X154000000Y-118964634D01*
X153978326Y-119016960D01*
X153933254Y-119038278D01*
X153773866Y-119053976D01*
X153585268Y-119111187D01*
X153411463Y-119204089D01*
X153259117Y-119329117D01*
X153134089Y-119481463D01*
X153041187Y-119655268D01*
X152983976Y-119843866D01*
X152964659Y-120040000D01*
X152983976Y-120236133D01*
X153041187Y-120424731D01*
X153128776Y-120588597D01*
X153134090Y-120598538D01*
X153259117Y-120750883D01*
X153411462Y-120875910D01*
X153486297Y-120915910D01*
X153585268Y-120968812D01*
X153585270Y-120968812D01*
X153585273Y-120968814D01*
X153773868Y-121026024D01*
X153933254Y-121041721D01*
X153983203Y-121068420D01*
X154000000Y-121115365D01*
X154000000Y-121504634D01*
X153978326Y-121556960D01*
X153933254Y-121578278D01*
X153773866Y-121593976D01*
X153585268Y-121651187D01*
X153411463Y-121744089D01*
X153259117Y-121869117D01*
X153134089Y-122021463D01*
X153041187Y-122195268D01*
X152983976Y-122383866D01*
X152964659Y-122580000D01*
X152983976Y-122776133D01*
X153041187Y-122964731D01*
X153128776Y-123128597D01*
X153134090Y-123138538D01*
X153259117Y-123290883D01*
X153411462Y-123415910D01*
X153486297Y-123455910D01*
X153585268Y-123508812D01*
X153585270Y-123508812D01*
X153585273Y-123508814D01*
X153773868Y-123566024D01*
X153933254Y-123581721D01*
X153983203Y-123608420D01*
X154000000Y-123655365D01*
X154000000Y-124044634D01*
X153978326Y-124096960D01*
X153933254Y-124118278D01*
X153773866Y-124133976D01*
X153585268Y-124191187D01*
X153411463Y-124284089D01*
X153259117Y-124409117D01*
X153134089Y-124561463D01*
X153041187Y-124735268D01*
X152983976Y-124923866D01*
X152964659Y-125120000D01*
X152983976Y-125316133D01*
X153041187Y-125504731D01*
X153128776Y-125668597D01*
X153134090Y-125678538D01*
X153259117Y-125830883D01*
X153411462Y-125955910D01*
X153486297Y-125995910D01*
X153585268Y-126048812D01*
X153585270Y-126048812D01*
X153585273Y-126048814D01*
X153773868Y-126106024D01*
X153933254Y-126121721D01*
X153983203Y-126148420D01*
X154000000Y-126195365D01*
X154000000Y-126584634D01*
X153978326Y-126636960D01*
X153933254Y-126658278D01*
X153773866Y-126673976D01*
X153585268Y-126731187D01*
X153411463Y-126824089D01*
X153259117Y-126949117D01*
X153134089Y-127101463D01*
X153041187Y-127275268D01*
X152983976Y-127463866D01*
X152964659Y-127660000D01*
X152983976Y-127856133D01*
X153041187Y-128044731D01*
X153128776Y-128208597D01*
X153134090Y-128218538D01*
X153259117Y-128370883D01*
X153402795Y-128488797D01*
X153429494Y-128538747D01*
X153413053Y-128592945D01*
X153363103Y-128619644D01*
X153355850Y-128620000D01*
X137662890Y-128620000D01*
X137610564Y-128598326D01*
X137588890Y-128546000D01*
X137610564Y-128493674D01*
X137615944Y-128488798D01*
X137623724Y-128482412D01*
X137710883Y-128410883D01*
X137835910Y-128258538D01*
X137928814Y-128084727D01*
X137986024Y-127896132D01*
X138005341Y-127700000D01*
X137986024Y-127503868D01*
X137928814Y-127315273D01*
X137928812Y-127315270D01*
X137928812Y-127315268D01*
X137877048Y-127218426D01*
X137835910Y-127141462D01*
X137710883Y-126989117D01*
X137558538Y-126864090D01*
X137548597Y-126858776D01*
X137384731Y-126771187D01*
X137196133Y-126713976D01*
X137132513Y-126707710D01*
X137066746Y-126701232D01*
X137016797Y-126674534D01*
X137000000Y-126627589D01*
X137000000Y-126232410D01*
X137021674Y-126180084D01*
X137066744Y-126158767D01*
X137196132Y-126146024D01*
X137384727Y-126088814D01*
X137558538Y-125995910D01*
X137710883Y-125870883D01*
X137835910Y-125718538D01*
X137928814Y-125544727D01*
X137986024Y-125356132D01*
X138005341Y-125160000D01*
X137986024Y-124963868D01*
X137933281Y-124790000D01*
X142588219Y-124790000D01*
X142605211Y-124886373D01*
X142605211Y-124886374D01*
X142605212Y-124886375D01*
X142654143Y-124971125D01*
X142729109Y-125034030D01*
X142821067Y-125067499D01*
X142821067Y-125067500D01*
X142821069Y-125067500D01*
X142918933Y-125067500D01*
X142918932Y-125067499D01*
X143010891Y-125034030D01*
X143085857Y-124971125D01*
X143134788Y-124886375D01*
X143151781Y-124790000D01*
X145128219Y-124790000D01*
X145145211Y-124886373D01*
X145145211Y-124886374D01*
X145145212Y-124886375D01*
X145194143Y-124971125D01*
X145269109Y-125034030D01*
X145361067Y-125067499D01*
X145361067Y-125067500D01*
X145361069Y-125067500D01*
X145458933Y-125067500D01*
X145458932Y-125067499D01*
X145550891Y-125034030D01*
X145625857Y-124971125D01*
X145674788Y-124886375D01*
X145688255Y-124810000D01*
X147668219Y-124810000D01*
X147685211Y-124906373D01*
X147685211Y-124906374D01*
X147685212Y-124906375D01*
X147734143Y-124991125D01*
X147809109Y-125054030D01*
X147901067Y-125087499D01*
X147901067Y-125087500D01*
X147901069Y-125087500D01*
X147998933Y-125087500D01*
X147998932Y-125087499D01*
X148090891Y-125054030D01*
X148165857Y-124991125D01*
X148214788Y-124906375D01*
X148231781Y-124810000D01*
X148214788Y-124713625D01*
X148165857Y-124628875D01*
X148090891Y-124565970D01*
X148090890Y-124565969D01*
X147998932Y-124532500D01*
X147998931Y-124532500D01*
X147901069Y-124532500D01*
X147901067Y-124532500D01*
X147809109Y-124565970D01*
X147809107Y-124565971D01*
X147734143Y-124628873D01*
X147685211Y-124713626D01*
X147668219Y-124810000D01*
X145688255Y-124810000D01*
X145691781Y-124790000D01*
X145674788Y-124693625D01*
X145625857Y-124608875D01*
X145574726Y-124565970D01*
X145550890Y-124545969D01*
X145458932Y-124512500D01*
X145458931Y-124512500D01*
X145361069Y-124512500D01*
X145361067Y-124512500D01*
X145269109Y-124545970D01*
X145269107Y-124545971D01*
X145194143Y-124608873D01*
X145145211Y-124693626D01*
X145128219Y-124790000D01*
X143151781Y-124790000D01*
X143134788Y-124693625D01*
X143085857Y-124608875D01*
X143034726Y-124565970D01*
X143010890Y-124545969D01*
X142918932Y-124512500D01*
X142918931Y-124512500D01*
X142821069Y-124512500D01*
X142821067Y-124512500D01*
X142729109Y-124545970D01*
X142729107Y-124545971D01*
X142654143Y-124608873D01*
X142605211Y-124693626D01*
X142588219Y-124790000D01*
X137933281Y-124790000D01*
X137928814Y-124775273D01*
X137928812Y-124775270D01*
X137928812Y-124775268D01*
X137877048Y-124678426D01*
X137835910Y-124601462D01*
X137710883Y-124449117D01*
X137558538Y-124324090D01*
X137548597Y-124318776D01*
X137384731Y-124231187D01*
X137196133Y-124173976D01*
X137132513Y-124167710D01*
X137066746Y-124161232D01*
X137016797Y-124134534D01*
X137000000Y-124087589D01*
X137000000Y-123692410D01*
X137021674Y-123640084D01*
X137066744Y-123618767D01*
X137196132Y-123606024D01*
X137384727Y-123548814D01*
X137558538Y-123455910D01*
X137710883Y-123330883D01*
X137835910Y-123178538D01*
X137928814Y-123004727D01*
X137986024Y-122816132D01*
X138005341Y-122620000D01*
X137986024Y-122423868D01*
X137928814Y-122235273D01*
X137928812Y-122235270D01*
X137928812Y-122235268D01*
X137877048Y-122138426D01*
X137835910Y-122061462D01*
X137710883Y-121909117D01*
X137558538Y-121784090D01*
X137548597Y-121778776D01*
X137384731Y-121691187D01*
X137196133Y-121633976D01*
X137132513Y-121627710D01*
X137066746Y-121621232D01*
X137016797Y-121594534D01*
X137000000Y-121547589D01*
X137000000Y-121152410D01*
X137021674Y-121100084D01*
X137066744Y-121078767D01*
X137196132Y-121066024D01*
X137384727Y-121008814D01*
X137558538Y-120915910D01*
X137710883Y-120790883D01*
X137835910Y-120638538D01*
X137928814Y-120464727D01*
X137986024Y-120276132D01*
X138005341Y-120080000D01*
X137986024Y-119883868D01*
X137928814Y-119695273D01*
X137928812Y-119695270D01*
X137928812Y-119695268D01*
X137877048Y-119598426D01*
X137835910Y-119521462D01*
X137710883Y-119369117D01*
X137558538Y-119244090D01*
X137548597Y-119238776D01*
X137384731Y-119151187D01*
X137196133Y-119093976D01*
X137132513Y-119087710D01*
X137066746Y-119081232D01*
X137016797Y-119054534D01*
X137000000Y-119007589D01*
X137000000Y-118612410D01*
X137021674Y-118560084D01*
X137066744Y-118538767D01*
X137196132Y-118526024D01*
X137384727Y-118468814D01*
X137558538Y-118375910D01*
X137710883Y-118250883D01*
X137835910Y-118098538D01*
X137928814Y-117924727D01*
X137986024Y-117736132D01*
X138005341Y-117540000D01*
X137986024Y-117343868D01*
X137928814Y-117155273D01*
X137928812Y-117155270D01*
X137928812Y-117155268D01*
X137877048Y-117058426D01*
X137835910Y-116981462D01*
X137710883Y-116829117D01*
X137558538Y-116704090D01*
X137548597Y-116698776D01*
X137384731Y-116611187D01*
X137196133Y-116553976D01*
X137132513Y-116547710D01*
X137066746Y-116541232D01*
X137016797Y-116514534D01*
X137000000Y-116467589D01*
X137000000Y-116072410D01*
X137021674Y-116020084D01*
X137066744Y-115998767D01*
X137196132Y-115986024D01*
X137384727Y-115928814D01*
X137558538Y-115835910D01*
X137710883Y-115710883D01*
X137835910Y-115558538D01*
X137928814Y-115384727D01*
X137986024Y-115196132D01*
X138005341Y-115000000D01*
X137986024Y-114803868D01*
X137928814Y-114615273D01*
X137928812Y-114615270D01*
X137928812Y-114615268D01*
X137877048Y-114518426D01*
X137835910Y-114441462D01*
X137710883Y-114289117D01*
X137577924Y-114180000D01*
X142578219Y-114180000D01*
X142595211Y-114276373D01*
X142595211Y-114276374D01*
X142595212Y-114276375D01*
X142644143Y-114361125D01*
X142719109Y-114424030D01*
X142811067Y-114457499D01*
X142811067Y-114457500D01*
X142811069Y-114457500D01*
X142908933Y-114457500D01*
X142908932Y-114457499D01*
X143000891Y-114424030D01*
X143075857Y-114361125D01*
X143124788Y-114276375D01*
X143138255Y-114200000D01*
X145128219Y-114200000D01*
X145145211Y-114296373D01*
X145188368Y-114371124D01*
X145194143Y-114381125D01*
X145269109Y-114444030D01*
X145361067Y-114477499D01*
X145361067Y-114477500D01*
X145361069Y-114477500D01*
X145458933Y-114477500D01*
X145458932Y-114477499D01*
X145550891Y-114444030D01*
X145625857Y-114381125D01*
X145674788Y-114296375D01*
X145691781Y-114200000D01*
X145690018Y-114190000D01*
X147668219Y-114190000D01*
X147685211Y-114286373D01*
X147685211Y-114286374D01*
X147685212Y-114286375D01*
X147690986Y-114296375D01*
X147728368Y-114361124D01*
X147734143Y-114371125D01*
X147809109Y-114434030D01*
X147901067Y-114467499D01*
X147901067Y-114467500D01*
X147901069Y-114467500D01*
X147998933Y-114467500D01*
X147998932Y-114467499D01*
X148090891Y-114434030D01*
X148165857Y-114371125D01*
X148214788Y-114286375D01*
X148231781Y-114190000D01*
X148214788Y-114093625D01*
X148165857Y-114008875D01*
X148090891Y-113945970D01*
X148090890Y-113945969D01*
X147998932Y-113912500D01*
X147998931Y-113912500D01*
X147901069Y-113912500D01*
X147901067Y-113912500D01*
X147809109Y-113945970D01*
X147809107Y-113945971D01*
X147734143Y-114008873D01*
X147685211Y-114093626D01*
X147668219Y-114190000D01*
X145690018Y-114190000D01*
X145674788Y-114103625D01*
X145625857Y-114018875D01*
X145550891Y-113955970D01*
X145550890Y-113955969D01*
X145458932Y-113922500D01*
X145458931Y-113922500D01*
X145361069Y-113922500D01*
X145361067Y-113922500D01*
X145269109Y-113955970D01*
X145269107Y-113955971D01*
X145194143Y-114018873D01*
X145145211Y-114103626D01*
X145128219Y-114200000D01*
X143138255Y-114200000D01*
X143141781Y-114180000D01*
X143124788Y-114083625D01*
X143075857Y-113998875D01*
X143024726Y-113955970D01*
X143000890Y-113935969D01*
X142908932Y-113902500D01*
X142908931Y-113902500D01*
X142811069Y-113902500D01*
X142811067Y-113902500D01*
X142719109Y-113935970D01*
X142719107Y-113935971D01*
X142644143Y-113998873D01*
X142595211Y-114083626D01*
X142578219Y-114180000D01*
X137577924Y-114180000D01*
X137558538Y-114164090D01*
X137548597Y-114158776D01*
X137384731Y-114071187D01*
X137196133Y-114013976D01*
X137132513Y-114007710D01*
X137066746Y-114001232D01*
X137016797Y-113974534D01*
X137000000Y-113927589D01*
X137000000Y-113532410D01*
X137021674Y-113480084D01*
X137066744Y-113458767D01*
X137196132Y-113446024D01*
X137384727Y-113388814D01*
X137558538Y-113295910D01*
X137710883Y-113170883D01*
X137835910Y-113018538D01*
X137928814Y-112844727D01*
X137986024Y-112656132D01*
X138005341Y-112460000D01*
X137986024Y-112263868D01*
X137928814Y-112075273D01*
X137928812Y-112075270D01*
X137928812Y-112075268D01*
X137877048Y-111978426D01*
X137835910Y-111901462D01*
X137710883Y-111749117D01*
X137558538Y-111624090D01*
X137548597Y-111618776D01*
X137384731Y-111531187D01*
X137196133Y-111473976D01*
X137132513Y-111467710D01*
X137066746Y-111461232D01*
X137016797Y-111434534D01*
X137000000Y-111387589D01*
X137000000Y-110992410D01*
X137021674Y-110940084D01*
X137066744Y-110918767D01*
X137196132Y-110906024D01*
X137384727Y-110848814D01*
X137558538Y-110755910D01*
X137710883Y-110630883D01*
X137835910Y-110478538D01*
X137928814Y-110304727D01*
X137986024Y-110116132D01*
X138005341Y-109920000D01*
X137986024Y-109723868D01*
X137928814Y-109535273D01*
X137928812Y-109535270D01*
X137928812Y-109535268D01*
X137877048Y-109438426D01*
X137835910Y-109361462D01*
X137710883Y-109209117D01*
X137558538Y-109084090D01*
X137548597Y-109078776D01*
X137384731Y-108991187D01*
X137196133Y-108933976D01*
X137132513Y-108927710D01*
X137066746Y-108921232D01*
X137016797Y-108894534D01*
X137000000Y-108847589D01*
X137000000Y-108452410D01*
X137021674Y-108400084D01*
X137066744Y-108378767D01*
X137196132Y-108366024D01*
X137384727Y-108308814D01*
X137558538Y-108215910D01*
X137710883Y-108090883D01*
X137835910Y-107938538D01*
X137928814Y-107764727D01*
X137986024Y-107576132D01*
X138005341Y-107380000D01*
X137986024Y-107183868D01*
X137928814Y-106995273D01*
X137928812Y-106995270D01*
X137928812Y-106995268D01*
X137877048Y-106898426D01*
X137835910Y-106821462D01*
X137710883Y-106669117D01*
X137558538Y-106544090D01*
X137502300Y-106514030D01*
X137384731Y-106451187D01*
X137196133Y-106393976D01*
X137118936Y-106386373D01*
X137066746Y-106381232D01*
X137016797Y-106354534D01*
X137000000Y-106307589D01*
X137000000Y-106300000D01*
X138644864Y-106300000D01*
X138663265Y-106404362D01*
X138716252Y-106496139D01*
X138797429Y-106564254D01*
X138797432Y-106564256D01*
X138897011Y-106600499D01*
X138897012Y-106600500D01*
X138897014Y-106600500D01*
X139002988Y-106600500D01*
X139002988Y-106600499D01*
X139102568Y-106564256D01*
X139183748Y-106496138D01*
X139198839Y-106470000D01*
X140338219Y-106470000D01*
X140355211Y-106566373D01*
X140392400Y-106630787D01*
X140404143Y-106651125D01*
X140479109Y-106714030D01*
X140571067Y-106747499D01*
X140571067Y-106747500D01*
X140571069Y-106747500D01*
X140668933Y-106747500D01*
X140668932Y-106747499D01*
X140760891Y-106714030D01*
X140760894Y-106714027D01*
X140765983Y-106711089D01*
X140822135Y-106703692D01*
X140850556Y-106718486D01*
X140857432Y-106724256D01*
X140957011Y-106760499D01*
X140957012Y-106760500D01*
X140957014Y-106760500D01*
X141062988Y-106760500D01*
X141062988Y-106760499D01*
X141162568Y-106724256D01*
X141243748Y-106656138D01*
X141296734Y-106564363D01*
X141315136Y-106460000D01*
X141296734Y-106355637D01*
X141258839Y-106290000D01*
X142768219Y-106290000D01*
X142785211Y-106386373D01*
X142785211Y-106386374D01*
X142785212Y-106386375D01*
X142798323Y-106409083D01*
X142822631Y-106451187D01*
X142834143Y-106471125D01*
X142909109Y-106534030D01*
X143001067Y-106567499D01*
X143001067Y-106567500D01*
X143001069Y-106567500D01*
X143098933Y-106567500D01*
X143098932Y-106567499D01*
X143190891Y-106534030D01*
X143265857Y-106471125D01*
X143314788Y-106386375D01*
X143331781Y-106290000D01*
X143326491Y-106260000D01*
X145378219Y-106260000D01*
X145395211Y-106356373D01*
X145395211Y-106356374D01*
X145395212Y-106356375D01*
X145400986Y-106366375D01*
X145426857Y-106411186D01*
X145444143Y-106441125D01*
X145519109Y-106504030D01*
X145611067Y-106537499D01*
X145611067Y-106537500D01*
X145611069Y-106537500D01*
X145708933Y-106537500D01*
X145708932Y-106537499D01*
X145800891Y-106504030D01*
X145875857Y-106441125D01*
X145924788Y-106356375D01*
X145940018Y-106270000D01*
X147018219Y-106270000D01*
X147035211Y-106366373D01*
X147035211Y-106366374D01*
X147035212Y-106366375D01*
X147043790Y-106381233D01*
X147078368Y-106441124D01*
X147084143Y-106451125D01*
X147159109Y-106514030D01*
X147251067Y-106547499D01*
X147251067Y-106547500D01*
X147251069Y-106547500D01*
X147348933Y-106547500D01*
X147348932Y-106547499D01*
X147440891Y-106514030D01*
X147493363Y-106470000D01*
X149554344Y-106470000D01*
X149574710Y-106559231D01*
X149631776Y-106630788D01*
X149714237Y-106670500D01*
X149714238Y-106670500D01*
X149805762Y-106670500D01*
X149805763Y-106670500D01*
X149888224Y-106630788D01*
X149945290Y-106559231D01*
X149965656Y-106470000D01*
X149945290Y-106380769D01*
X149888224Y-106309212D01*
X149805763Y-106269500D01*
X149714237Y-106269500D01*
X149674009Y-106288873D01*
X149631775Y-106309212D01*
X149574711Y-106380767D01*
X149574710Y-106380768D01*
X149574710Y-106380769D01*
X149554344Y-106470000D01*
X147493363Y-106470000D01*
X147515857Y-106451125D01*
X147564788Y-106366375D01*
X147581781Y-106270000D01*
X147564788Y-106173625D01*
X147515857Y-106088875D01*
X147464726Y-106045970D01*
X147440890Y-106025969D01*
X147348932Y-105992500D01*
X147348931Y-105992500D01*
X147251069Y-105992500D01*
X147251067Y-105992500D01*
X147159109Y-106025970D01*
X147159107Y-106025971D01*
X147084143Y-106088873D01*
X147035211Y-106173626D01*
X147018219Y-106270000D01*
X145940018Y-106270000D01*
X145941781Y-106260000D01*
X145924788Y-106163625D01*
X145875857Y-106078875D01*
X145800891Y-106015970D01*
X145800890Y-106015969D01*
X145708932Y-105982500D01*
X145708931Y-105982500D01*
X145611069Y-105982500D01*
X145611067Y-105982500D01*
X145519109Y-106015970D01*
X145519107Y-106015971D01*
X145444143Y-106078873D01*
X145395211Y-106163626D01*
X145378219Y-106260000D01*
X143326491Y-106260000D01*
X143314788Y-106193625D01*
X143265857Y-106108875D01*
X143190891Y-106045970D01*
X143190890Y-106045969D01*
X143098932Y-106012500D01*
X143098931Y-106012500D01*
X143001069Y-106012500D01*
X143001067Y-106012500D01*
X142909109Y-106045970D01*
X142909107Y-106045971D01*
X142834143Y-106108873D01*
X142785211Y-106193626D01*
X142768219Y-106290000D01*
X141258839Y-106290000D01*
X141243748Y-106263862D01*
X141243747Y-106263860D01*
X141162570Y-106195745D01*
X141162567Y-106195743D01*
X141062988Y-106159500D01*
X141062986Y-106159500D01*
X140957014Y-106159500D01*
X140957011Y-106159500D01*
X140857433Y-106195743D01*
X140857432Y-106195743D01*
X140835826Y-106213872D01*
X140781809Y-106230901D01*
X140762953Y-106226720D01*
X140668933Y-106192500D01*
X140668931Y-106192500D01*
X140571069Y-106192500D01*
X140571067Y-106192500D01*
X140479109Y-106225970D01*
X140479107Y-106225971D01*
X140404143Y-106288873D01*
X140355211Y-106373626D01*
X140338219Y-106470000D01*
X139198839Y-106470000D01*
X139236734Y-106404363D01*
X139255136Y-106300000D01*
X139236734Y-106195637D01*
X139183748Y-106103862D01*
X139183747Y-106103860D01*
X139102570Y-106035745D01*
X139102567Y-106035743D01*
X139002988Y-105999500D01*
X139002986Y-105999500D01*
X138897014Y-105999500D01*
X138897011Y-105999500D01*
X138797432Y-106035743D01*
X138797429Y-106035745D01*
X138716252Y-106103860D01*
X138663265Y-106195637D01*
X138644864Y-106300000D01*
X137000000Y-106300000D01*
X137000000Y-105914500D01*
X137021674Y-105862174D01*
X137074000Y-105840500D01*
X137864819Y-105840500D01*
X137864820Y-105840500D01*
X137908722Y-105831767D01*
X137958504Y-105798504D01*
X137991767Y-105748722D01*
X138000500Y-105704820D01*
X138000500Y-105100000D01*
X144128219Y-105100000D01*
X144145211Y-105196373D01*
X144145211Y-105196374D01*
X144145212Y-105196375D01*
X144194143Y-105281125D01*
X144269109Y-105344030D01*
X144361067Y-105377499D01*
X144361067Y-105377500D01*
X144361069Y-105377500D01*
X144458933Y-105377500D01*
X144458932Y-105377499D01*
X144550891Y-105344030D01*
X144612433Y-105292388D01*
X144666448Y-105275356D01*
X144707566Y-105292389D01*
X144712711Y-105296706D01*
X144738861Y-105346943D01*
X144721827Y-105400959D01*
X144715343Y-105407443D01*
X144714144Y-105408872D01*
X144665211Y-105493626D01*
X144648219Y-105590000D01*
X144665211Y-105686373D01*
X144706855Y-105758503D01*
X144714143Y-105771125D01*
X144789109Y-105834030D01*
X144881067Y-105867499D01*
X144881067Y-105867500D01*
X144881069Y-105867500D01*
X144978933Y-105867500D01*
X144978932Y-105867499D01*
X145070891Y-105834030D01*
X145145857Y-105771125D01*
X145194788Y-105686375D01*
X145211781Y-105590000D01*
X145194788Y-105493625D01*
X145145857Y-105408875D01*
X145127290Y-105393295D01*
X145101139Y-105343057D01*
X145118170Y-105289041D01*
X145124657Y-105282555D01*
X145125855Y-105281127D01*
X145125855Y-105281126D01*
X145125857Y-105281125D01*
X145174788Y-105196375D01*
X145191781Y-105100000D01*
X145174788Y-105003625D01*
X145125857Y-104918875D01*
X145112290Y-104907491D01*
X145086139Y-104857254D01*
X145103169Y-104803238D01*
X145112286Y-104794121D01*
X145113388Y-104793196D01*
X145167402Y-104776161D01*
X145208524Y-104793192D01*
X145269109Y-104844030D01*
X145361067Y-104877499D01*
X145361067Y-104877500D01*
X145361069Y-104877500D01*
X145458933Y-104877500D01*
X145458932Y-104877499D01*
X145550891Y-104844030D01*
X145625857Y-104781125D01*
X145674788Y-104696375D01*
X145691781Y-104600000D01*
X146128219Y-104600000D01*
X146145211Y-104696373D01*
X146194142Y-104781124D01*
X146213667Y-104797508D01*
X146239818Y-104847746D01*
X146222787Y-104901762D01*
X146213669Y-104910880D01*
X146204143Y-104918873D01*
X146155211Y-105003626D01*
X146138219Y-105100000D01*
X146155211Y-105196373D01*
X146155211Y-105196374D01*
X146155212Y-105196375D01*
X146204143Y-105281125D01*
X146279109Y-105344030D01*
X146371067Y-105377499D01*
X146371067Y-105377500D01*
X146371069Y-105377500D01*
X146468933Y-105377500D01*
X146468932Y-105377499D01*
X146560891Y-105344030D01*
X146635857Y-105281125D01*
X146684788Y-105196375D01*
X146701781Y-105100000D01*
X149698219Y-105100000D01*
X149715211Y-105196373D01*
X149715211Y-105196374D01*
X149715212Y-105196375D01*
X149764143Y-105281125D01*
X149839109Y-105344030D01*
X149931067Y-105377499D01*
X149931067Y-105377500D01*
X149931069Y-105377500D01*
X150028933Y-105377500D01*
X150028932Y-105377499D01*
X150120891Y-105344030D01*
X150195857Y-105281125D01*
X150244788Y-105196375D01*
X150261781Y-105100000D01*
X150244788Y-105003625D01*
X150195857Y-104918875D01*
X150186329Y-104910880D01*
X150120890Y-104855969D01*
X150028932Y-104822500D01*
X150028931Y-104822500D01*
X149931069Y-104822500D01*
X149931067Y-104822500D01*
X149839109Y-104855970D01*
X149839107Y-104855971D01*
X149764143Y-104918873D01*
X149715211Y-105003626D01*
X149698219Y-105100000D01*
X146701781Y-105100000D01*
X146684788Y-105003625D01*
X146636661Y-104920267D01*
X146629268Y-104864114D01*
X146663747Y-104819181D01*
X146719900Y-104811788D01*
X146748313Y-104826580D01*
X146769109Y-104844030D01*
X146861067Y-104877499D01*
X146861067Y-104877500D01*
X146861069Y-104877500D01*
X146958933Y-104877500D01*
X146958932Y-104877499D01*
X147050891Y-104844030D01*
X147125857Y-104781125D01*
X147174788Y-104696375D01*
X147191781Y-104600000D01*
X147174788Y-104503625D01*
X147125857Y-104418875D01*
X147112432Y-104407610D01*
X147050890Y-104355969D01*
X146958932Y-104322500D01*
X146958931Y-104322500D01*
X146861069Y-104322500D01*
X146861067Y-104322500D01*
X146769110Y-104355969D01*
X146707566Y-104407611D01*
X146653550Y-104424641D01*
X146612434Y-104407610D01*
X146550893Y-104355971D01*
X146550890Y-104355969D01*
X146458932Y-104322500D01*
X146458931Y-104322500D01*
X146361069Y-104322500D01*
X146361067Y-104322500D01*
X146269109Y-104355970D01*
X146269107Y-104355971D01*
X146194143Y-104418873D01*
X146145211Y-104503626D01*
X146128219Y-104600000D01*
X145691781Y-104600000D01*
X145674788Y-104503625D01*
X145625857Y-104418875D01*
X145612290Y-104407491D01*
X145586139Y-104357254D01*
X145603169Y-104303238D01*
X145612286Y-104294121D01*
X145613388Y-104293196D01*
X145667402Y-104276161D01*
X145708524Y-104293192D01*
X145769109Y-104344030D01*
X145861067Y-104377499D01*
X145861067Y-104377500D01*
X145861069Y-104377500D01*
X145958933Y-104377500D01*
X145958932Y-104377499D01*
X146050891Y-104344030D01*
X146125857Y-104281125D01*
X146174788Y-104196375D01*
X146191781Y-104100000D01*
X146174788Y-104003625D01*
X146125857Y-103918875D01*
X146064632Y-103867500D01*
X146050890Y-103855969D01*
X145958932Y-103822500D01*
X145958931Y-103822500D01*
X145861069Y-103822500D01*
X145861067Y-103822500D01*
X145769109Y-103855970D01*
X145769107Y-103855971D01*
X145696607Y-103916806D01*
X145642591Y-103933837D01*
X145601474Y-103916806D01*
X145540890Y-103865969D01*
X145448932Y-103832500D01*
X145448931Y-103832500D01*
X145351069Y-103832500D01*
X145351067Y-103832500D01*
X145259109Y-103865970D01*
X145259107Y-103865971D01*
X145184143Y-103928873D01*
X145135211Y-104013626D01*
X145118219Y-104110000D01*
X145135211Y-104206373D01*
X145181166Y-104285970D01*
X145184143Y-104291125D01*
X145197708Y-104302508D01*
X145223860Y-104352745D01*
X145206830Y-104406761D01*
X145197713Y-104415878D01*
X145196612Y-104416802D01*
X145142597Y-104433838D01*
X145101474Y-104416806D01*
X145040890Y-104365969D01*
X144948932Y-104332500D01*
X144948931Y-104332500D01*
X144851069Y-104332500D01*
X144851067Y-104332500D01*
X144759109Y-104365970D01*
X144759107Y-104365971D01*
X144713524Y-104404220D01*
X144659508Y-104421251D01*
X144618391Y-104404219D01*
X144560893Y-104355971D01*
X144560890Y-104355969D01*
X144468932Y-104322500D01*
X144468931Y-104322500D01*
X144371069Y-104322500D01*
X144371067Y-104322500D01*
X144279109Y-104355970D01*
X144279107Y-104355971D01*
X144204143Y-104418873D01*
X144155211Y-104503626D01*
X144138219Y-104600000D01*
X144155211Y-104696373D01*
X144204142Y-104781125D01*
X144213667Y-104789117D01*
X144239818Y-104839355D01*
X144222787Y-104893371D01*
X144213668Y-104902490D01*
X144194143Y-104918874D01*
X144145211Y-105003626D01*
X144128219Y-105100000D01*
X138000500Y-105100000D01*
X138000500Y-104530000D01*
X140898219Y-104530000D01*
X140915211Y-104626373D01*
X140915211Y-104626374D01*
X140915212Y-104626375D01*
X140964143Y-104711125D01*
X141039109Y-104774030D01*
X141131067Y-104807499D01*
X141131067Y-104807500D01*
X141131069Y-104807500D01*
X141228933Y-104807500D01*
X141228932Y-104807499D01*
X141320891Y-104774030D01*
X141395857Y-104711125D01*
X141444788Y-104626375D01*
X141461781Y-104530000D01*
X141444788Y-104433625D01*
X141395857Y-104348875D01*
X141329499Y-104293193D01*
X141320890Y-104285969D01*
X141228932Y-104252500D01*
X141228931Y-104252500D01*
X141131069Y-104252500D01*
X141131067Y-104252500D01*
X141039109Y-104285970D01*
X141039107Y-104285971D01*
X140964143Y-104348873D01*
X140915211Y-104433626D01*
X140898219Y-104530000D01*
X138000500Y-104530000D01*
X138000500Y-103975180D01*
X137991767Y-103931278D01*
X137958504Y-103881496D01*
X137937557Y-103867500D01*
X137908722Y-103848233D01*
X137864820Y-103839500D01*
X137074000Y-103839500D01*
X137021674Y-103817826D01*
X137000000Y-103765500D01*
X137000000Y-103590000D01*
X144638219Y-103590000D01*
X144655211Y-103686373D01*
X144655211Y-103686374D01*
X144655212Y-103686375D01*
X144704143Y-103771125D01*
X144779109Y-103834030D01*
X144871067Y-103867499D01*
X144871067Y-103867500D01*
X144871069Y-103867500D01*
X144968933Y-103867500D01*
X144968932Y-103867499D01*
X145060891Y-103834030D01*
X145135857Y-103771125D01*
X145184788Y-103686375D01*
X145201781Y-103590000D01*
X146638219Y-103590000D01*
X146655211Y-103686373D01*
X146655211Y-103686374D01*
X146655212Y-103686375D01*
X146704143Y-103771125D01*
X146779109Y-103834030D01*
X146871067Y-103867499D01*
X146871067Y-103867500D01*
X146871069Y-103867500D01*
X146968933Y-103867500D01*
X146968932Y-103867499D01*
X147060891Y-103834030D01*
X147135857Y-103771125D01*
X147184788Y-103686375D01*
X147201781Y-103590000D01*
X147184788Y-103493625D01*
X147135857Y-103408875D01*
X147060891Y-103345970D01*
X147060890Y-103345969D01*
X146968932Y-103312500D01*
X146968931Y-103312500D01*
X146871069Y-103312500D01*
X146871067Y-103312500D01*
X146779109Y-103345970D01*
X146779107Y-103345971D01*
X146704143Y-103408873D01*
X146655211Y-103493626D01*
X146638219Y-103590000D01*
X145201781Y-103590000D01*
X145184788Y-103493625D01*
X145135857Y-103408875D01*
X145060891Y-103345970D01*
X145060890Y-103345969D01*
X144968932Y-103312500D01*
X144968931Y-103312500D01*
X144871069Y-103312500D01*
X144871067Y-103312500D01*
X144779109Y-103345970D01*
X144779107Y-103345971D01*
X144704143Y-103408873D01*
X144655211Y-103493626D01*
X144638219Y-103590000D01*
X137000000Y-103590000D01*
X137000000Y-103337410D01*
X137021674Y-103285084D01*
X137066744Y-103263767D01*
X137196132Y-103251024D01*
X137384727Y-103193814D01*
X137558538Y-103100910D01*
X137710883Y-102975883D01*
X137830607Y-102830000D01*
X140338219Y-102830000D01*
X140355211Y-102926373D01*
X140355211Y-102926374D01*
X140355212Y-102926375D01*
X140404143Y-103011125D01*
X140479109Y-103074030D01*
X140571067Y-103107499D01*
X140571067Y-103107500D01*
X140571069Y-103107500D01*
X140668933Y-103107500D01*
X140668932Y-103107499D01*
X140760891Y-103074030D01*
X140835857Y-103011125D01*
X140884788Y-102926375D01*
X140901781Y-102830000D01*
X140884788Y-102733625D01*
X140835857Y-102648875D01*
X140760891Y-102585970D01*
X140760890Y-102585969D01*
X140668932Y-102552500D01*
X140668931Y-102552500D01*
X140571069Y-102552500D01*
X140571067Y-102552500D01*
X140479109Y-102585970D01*
X140479107Y-102585971D01*
X140404143Y-102648873D01*
X140355211Y-102733626D01*
X140338219Y-102830000D01*
X137830607Y-102830000D01*
X137835910Y-102823538D01*
X137928814Y-102649727D01*
X137986024Y-102461132D01*
X138005341Y-102265000D01*
X137991060Y-102120000D01*
X143638219Y-102120000D01*
X143655211Y-102216373D01*
X143703856Y-102300629D01*
X143704143Y-102301125D01*
X143779109Y-102364030D01*
X143871067Y-102397499D01*
X143871067Y-102397500D01*
X143871069Y-102397500D01*
X143968933Y-102397500D01*
X143968932Y-102397499D01*
X144060891Y-102364030D01*
X144060893Y-102364028D01*
X144066500Y-102360792D01*
X144067629Y-102362748D01*
X144113291Y-102348342D01*
X144163533Y-102374486D01*
X144180574Y-102428499D01*
X144170940Y-102459061D01*
X144145211Y-102503624D01*
X144128219Y-102600000D01*
X144145211Y-102696373D01*
X144188368Y-102771124D01*
X144194143Y-102781125D01*
X144269109Y-102844030D01*
X144361067Y-102877499D01*
X144361067Y-102877500D01*
X144361069Y-102877500D01*
X144458933Y-102877500D01*
X144458932Y-102877499D01*
X144550891Y-102844030D01*
X144623391Y-102783193D01*
X144677406Y-102766161D01*
X144718524Y-102783192D01*
X144779109Y-102834030D01*
X144871067Y-102867499D01*
X144871067Y-102867500D01*
X144871069Y-102867500D01*
X144968933Y-102867500D01*
X144968932Y-102867499D01*
X145060891Y-102834030D01*
X145135857Y-102771125D01*
X145184788Y-102686375D01*
X145201781Y-102590000D01*
X146638219Y-102590000D01*
X146655211Y-102686373D01*
X146655211Y-102686374D01*
X146655212Y-102686375D01*
X146704143Y-102771125D01*
X146779109Y-102834030D01*
X146871067Y-102867499D01*
X146871067Y-102867500D01*
X146871069Y-102867500D01*
X146968933Y-102867500D01*
X146968932Y-102867499D01*
X147060891Y-102834030D01*
X147135857Y-102771125D01*
X147184788Y-102686375D01*
X147201781Y-102590000D01*
X147184788Y-102493625D01*
X147135857Y-102408875D01*
X147098465Y-102377499D01*
X147060890Y-102345969D01*
X146968932Y-102312500D01*
X146968931Y-102312500D01*
X146871069Y-102312500D01*
X146871067Y-102312500D01*
X146779109Y-102345970D01*
X146779107Y-102345971D01*
X146719833Y-102395707D01*
X146708221Y-102399367D01*
X146706755Y-102402907D01*
X146707380Y-102403268D01*
X146704641Y-102408010D01*
X146704423Y-102408539D01*
X146704146Y-102408868D01*
X146655211Y-102493626D01*
X146638219Y-102590000D01*
X145201781Y-102590000D01*
X145184788Y-102493625D01*
X145135857Y-102408875D01*
X145098465Y-102377499D01*
X145060890Y-102345969D01*
X144968932Y-102312500D01*
X144968931Y-102312500D01*
X144871069Y-102312500D01*
X144871067Y-102312500D01*
X144779109Y-102345970D01*
X144779107Y-102345971D01*
X144706607Y-102406806D01*
X144652591Y-102423837D01*
X144611474Y-102406806D01*
X144550890Y-102355969D01*
X144458932Y-102322500D01*
X144458931Y-102322500D01*
X144361069Y-102322500D01*
X144361067Y-102322500D01*
X144269109Y-102355970D01*
X144263501Y-102359208D01*
X144262375Y-102357258D01*
X144216675Y-102371655D01*
X144166444Y-102345489D01*
X144149427Y-102291469D01*
X144159058Y-102260940D01*
X144184788Y-102216375D01*
X144201781Y-102120000D01*
X144184788Y-102023625D01*
X144135857Y-101938875D01*
X144066013Y-101880268D01*
X144060890Y-101875969D01*
X143968932Y-101842500D01*
X143968931Y-101842500D01*
X143871069Y-101842500D01*
X143871067Y-101842500D01*
X143779109Y-101875970D01*
X143779107Y-101875971D01*
X143704143Y-101938873D01*
X143655211Y-102023626D01*
X143638219Y-102120000D01*
X137991060Y-102120000D01*
X137986024Y-102068868D01*
X137928814Y-101880273D01*
X137928812Y-101880270D01*
X137928812Y-101880268D01*
X137851510Y-101735648D01*
X137835910Y-101706462D01*
X137748538Y-101600000D01*
X145128219Y-101600000D01*
X145145211Y-101696373D01*
X145145211Y-101696374D01*
X145145212Y-101696375D01*
X145150986Y-101706375D01*
X145188368Y-101771124D01*
X145194143Y-101781125D01*
X145269109Y-101844030D01*
X145361067Y-101877499D01*
X145361067Y-101877500D01*
X145361069Y-101877500D01*
X145458933Y-101877500D01*
X145458932Y-101877499D01*
X145550891Y-101844030D01*
X145601474Y-101801584D01*
X145655489Y-101784552D01*
X145696612Y-101801588D01*
X145697713Y-101802512D01*
X145723861Y-101852751D01*
X145706825Y-101906766D01*
X145697715Y-101915877D01*
X145694143Y-101918874D01*
X145694142Y-101918875D01*
X145645211Y-102003626D01*
X145628219Y-102100000D01*
X145645211Y-102196373D01*
X145645211Y-102196374D01*
X145645212Y-102196375D01*
X145650986Y-102206375D01*
X145667886Y-102235648D01*
X145694143Y-102281125D01*
X145769109Y-102344030D01*
X145861067Y-102377499D01*
X145861067Y-102377500D01*
X145861069Y-102377500D01*
X145958933Y-102377500D01*
X145958932Y-102377499D01*
X146050891Y-102344030D01*
X146101474Y-102301584D01*
X146155489Y-102284552D01*
X146196606Y-102301583D01*
X146259109Y-102354030D01*
X146351067Y-102387499D01*
X146351067Y-102387500D01*
X146351069Y-102387500D01*
X146448933Y-102387500D01*
X146448932Y-102387499D01*
X146540891Y-102354030D01*
X146600163Y-102304293D01*
X146611783Y-102300629D01*
X146613247Y-102297094D01*
X146612620Y-102296732D01*
X146615376Y-102291958D01*
X146615590Y-102291442D01*
X146615849Y-102291131D01*
X146615857Y-102291125D01*
X146664788Y-102206375D01*
X146681781Y-102110000D01*
X146664788Y-102013625D01*
X146615857Y-101928875D01*
X146603940Y-101918875D01*
X146540890Y-101865969D01*
X146448932Y-101832500D01*
X146448931Y-101832500D01*
X146351069Y-101832500D01*
X146351067Y-101832500D01*
X146259110Y-101865969D01*
X146208524Y-101908416D01*
X146154508Y-101925446D01*
X146113387Y-101908411D01*
X146112286Y-101907487D01*
X146086138Y-101857248D01*
X146103174Y-101803233D01*
X146112289Y-101794118D01*
X146115857Y-101791125D01*
X146164788Y-101706375D01*
X146181781Y-101610000D01*
X146178255Y-101590000D01*
X146638219Y-101590000D01*
X146655211Y-101686373D01*
X146655211Y-101686374D01*
X146655212Y-101686375D01*
X146704143Y-101771125D01*
X146779109Y-101834030D01*
X146871067Y-101867499D01*
X146871067Y-101867500D01*
X146871069Y-101867500D01*
X146968933Y-101867500D01*
X146968932Y-101867499D01*
X147060891Y-101834030D01*
X147135857Y-101771125D01*
X147184788Y-101686375D01*
X147201781Y-101590000D01*
X147184788Y-101493625D01*
X147135857Y-101408875D01*
X147084726Y-101365970D01*
X147060890Y-101345969D01*
X146968932Y-101312500D01*
X146968931Y-101312500D01*
X146871069Y-101312500D01*
X146871067Y-101312500D01*
X146779109Y-101345970D01*
X146779107Y-101345971D01*
X146704143Y-101408873D01*
X146655211Y-101493626D01*
X146638219Y-101590000D01*
X146178255Y-101590000D01*
X146164788Y-101513625D01*
X146115857Y-101428875D01*
X146103940Y-101418875D01*
X146040890Y-101365969D01*
X145948932Y-101332500D01*
X145948931Y-101332500D01*
X145851069Y-101332500D01*
X145851067Y-101332500D01*
X145759110Y-101365969D01*
X145708524Y-101408416D01*
X145654508Y-101425446D01*
X145613396Y-101408419D01*
X145610377Y-101405885D01*
X145584222Y-101355651D01*
X145601249Y-101301634D01*
X145610373Y-101292509D01*
X145620374Y-101284117D01*
X145635857Y-101271125D01*
X145684788Y-101186375D01*
X145701781Y-101090000D01*
X146138219Y-101090000D01*
X146155211Y-101186373D01*
X146155211Y-101186374D01*
X146155212Y-101186375D01*
X146160986Y-101196375D01*
X146201318Y-101266233D01*
X146204143Y-101271125D01*
X146279109Y-101334030D01*
X146371067Y-101367499D01*
X146371067Y-101367500D01*
X146371069Y-101367500D01*
X146468933Y-101367500D01*
X146468932Y-101367499D01*
X146560891Y-101334030D01*
X146635857Y-101271125D01*
X146684788Y-101186375D01*
X146701781Y-101090000D01*
X146684788Y-100993625D01*
X146649661Y-100932785D01*
X146642269Y-100876634D01*
X146647025Y-100870435D01*
X146607098Y-100875692D01*
X146578685Y-100860900D01*
X146560893Y-100845971D01*
X146560890Y-100845969D01*
X146468932Y-100812500D01*
X146468931Y-100812500D01*
X146371069Y-100812500D01*
X146371067Y-100812500D01*
X146279109Y-100845970D01*
X146279107Y-100845971D01*
X146204143Y-100908873D01*
X146155211Y-100993626D01*
X146138219Y-101090000D01*
X145701781Y-101090000D01*
X145684788Y-100993625D01*
X145635857Y-100908875D01*
X145574632Y-100857500D01*
X145560890Y-100845969D01*
X145468932Y-100812500D01*
X145468931Y-100812500D01*
X145371069Y-100812500D01*
X145371067Y-100812500D01*
X145279109Y-100845970D01*
X145279107Y-100845971D01*
X145204143Y-100908873D01*
X145155211Y-100993626D01*
X145138219Y-101090000D01*
X145155211Y-101186373D01*
X145204143Y-101271126D01*
X145219625Y-101284117D01*
X145245777Y-101334355D01*
X145228746Y-101388370D01*
X145219627Y-101397490D01*
X145194143Y-101418874D01*
X145145211Y-101503626D01*
X145128219Y-101600000D01*
X137748538Y-101600000D01*
X137710883Y-101554117D01*
X137558538Y-101429090D01*
X137539425Y-101418874D01*
X137384731Y-101336187D01*
X137196133Y-101278976D01*
X137116408Y-101271124D01*
X137066746Y-101266232D01*
X137036378Y-101250000D01*
X138634864Y-101250000D01*
X138653265Y-101354362D01*
X138706252Y-101446139D01*
X138787429Y-101514254D01*
X138787432Y-101514256D01*
X138887011Y-101550499D01*
X138887012Y-101550500D01*
X138887014Y-101550500D01*
X138992988Y-101550500D01*
X138992988Y-101550499D01*
X139092568Y-101514256D01*
X139173748Y-101446138D01*
X139226734Y-101354363D01*
X139245136Y-101250000D01*
X139226734Y-101145637D01*
X139200386Y-101100000D01*
X144128219Y-101100000D01*
X144145211Y-101196373D01*
X144188368Y-101271124D01*
X144194143Y-101281125D01*
X144269109Y-101344030D01*
X144361067Y-101377499D01*
X144361067Y-101377500D01*
X144361069Y-101377500D01*
X144458933Y-101377500D01*
X144458932Y-101377499D01*
X144550891Y-101344030D01*
X144625857Y-101281125D01*
X144674788Y-101196375D01*
X144691781Y-101100000D01*
X144674788Y-101003625D01*
X144625857Y-100918875D01*
X144575517Y-100876634D01*
X144550890Y-100855969D01*
X144458932Y-100822500D01*
X144458931Y-100822500D01*
X144361069Y-100822500D01*
X144361067Y-100822500D01*
X144269109Y-100855970D01*
X144269107Y-100855971D01*
X144194143Y-100918873D01*
X144145211Y-101003626D01*
X144128219Y-101100000D01*
X139200386Y-101100000D01*
X139173748Y-101053862D01*
X139173747Y-101053860D01*
X139092570Y-100985745D01*
X139092567Y-100985743D01*
X138992988Y-100949500D01*
X138992986Y-100949500D01*
X138887014Y-100949500D01*
X138887011Y-100949500D01*
X138787432Y-100985743D01*
X138787429Y-100985745D01*
X138706252Y-101053860D01*
X138653265Y-101145637D01*
X138634864Y-101250000D01*
X137036378Y-101250000D01*
X137016797Y-101239534D01*
X137000000Y-101192589D01*
X137000000Y-100797410D01*
X137021674Y-100745084D01*
X137066744Y-100723767D01*
X137196132Y-100711024D01*
X137384727Y-100653814D01*
X137522823Y-100580000D01*
X144628219Y-100580000D01*
X144645211Y-100676373D01*
X144684881Y-100745084D01*
X144694143Y-100761125D01*
X144769109Y-100824030D01*
X144861067Y-100857499D01*
X144861067Y-100857500D01*
X144861069Y-100857500D01*
X144958933Y-100857500D01*
X144958932Y-100857499D01*
X145050891Y-100824030D01*
X145125857Y-100761125D01*
X145174788Y-100676375D01*
X145186491Y-100610000D01*
X146638219Y-100610000D01*
X146655211Y-100706373D01*
X146690337Y-100767213D01*
X146697730Y-100823366D01*
X146692974Y-100829563D01*
X146732900Y-100824307D01*
X146761314Y-100839099D01*
X146779106Y-100854028D01*
X146779109Y-100854030D01*
X146871067Y-100887499D01*
X146871067Y-100887500D01*
X146871069Y-100887500D01*
X146968933Y-100887500D01*
X146968932Y-100887499D01*
X147060891Y-100854030D01*
X147135857Y-100791125D01*
X147184788Y-100706375D01*
X147201781Y-100610000D01*
X147184788Y-100513625D01*
X147135857Y-100428875D01*
X147074632Y-100377500D01*
X147060890Y-100365969D01*
X146968932Y-100332500D01*
X146968931Y-100332500D01*
X146871069Y-100332500D01*
X146871067Y-100332500D01*
X146779109Y-100365970D01*
X146779107Y-100365971D01*
X146704143Y-100428873D01*
X146655211Y-100513626D01*
X146638219Y-100610000D01*
X145186491Y-100610000D01*
X145191781Y-100580000D01*
X145174788Y-100483625D01*
X145139661Y-100422785D01*
X145132269Y-100366634D01*
X145137025Y-100360435D01*
X145097098Y-100365692D01*
X145068685Y-100350900D01*
X145050893Y-100335971D01*
X145050890Y-100335969D01*
X144958932Y-100302500D01*
X144958931Y-100302500D01*
X144861069Y-100302500D01*
X144861067Y-100302500D01*
X144769109Y-100335970D01*
X144769107Y-100335971D01*
X144694143Y-100398873D01*
X144645211Y-100483626D01*
X144628219Y-100580000D01*
X137522823Y-100580000D01*
X137558538Y-100560910D01*
X137710883Y-100435883D01*
X137835910Y-100283538D01*
X137928814Y-100109727D01*
X137931765Y-100100000D01*
X145128219Y-100100000D01*
X145145211Y-100196373D01*
X145180337Y-100257213D01*
X145187730Y-100313366D01*
X145182974Y-100319563D01*
X145222900Y-100314307D01*
X145251314Y-100329099D01*
X145269106Y-100344028D01*
X145269109Y-100344030D01*
X145361067Y-100377499D01*
X145361067Y-100377500D01*
X145361069Y-100377500D01*
X145458933Y-100377500D01*
X145458932Y-100377499D01*
X145550891Y-100344030D01*
X145625857Y-100281125D01*
X145674788Y-100196375D01*
X145691781Y-100100000D01*
X146128219Y-100100000D01*
X146145211Y-100196373D01*
X146145211Y-100196374D01*
X146145212Y-100196375D01*
X146194143Y-100281125D01*
X146269109Y-100344030D01*
X146361067Y-100377499D01*
X146361067Y-100377500D01*
X146361069Y-100377500D01*
X146458933Y-100377500D01*
X146458932Y-100377499D01*
X146550891Y-100344030D01*
X146625857Y-100281125D01*
X146674788Y-100196375D01*
X146691781Y-100100000D01*
X147128219Y-100100000D01*
X147145211Y-100196373D01*
X147145211Y-100196374D01*
X147145212Y-100196375D01*
X147194143Y-100281125D01*
X147269109Y-100344030D01*
X147361067Y-100377499D01*
X147361067Y-100377500D01*
X147361069Y-100377500D01*
X147458933Y-100377500D01*
X147458932Y-100377499D01*
X147550891Y-100344030D01*
X147625857Y-100281125D01*
X147674788Y-100196375D01*
X147691781Y-100100000D01*
X147674788Y-100003625D01*
X147625857Y-99918875D01*
X147550891Y-99855970D01*
X147550890Y-99855969D01*
X147458932Y-99822500D01*
X147458931Y-99822500D01*
X147361069Y-99822500D01*
X147361067Y-99822500D01*
X147269109Y-99855970D01*
X147269107Y-99855971D01*
X147194143Y-99918873D01*
X147145211Y-100003626D01*
X147128219Y-100100000D01*
X146691781Y-100100000D01*
X146674788Y-100003625D01*
X146625857Y-99918875D01*
X146550891Y-99855970D01*
X146550890Y-99855969D01*
X146458932Y-99822500D01*
X146458931Y-99822500D01*
X146361069Y-99822500D01*
X146361067Y-99822500D01*
X146269109Y-99855970D01*
X146269107Y-99855971D01*
X146194143Y-99918873D01*
X146145211Y-100003626D01*
X146128219Y-100100000D01*
X145691781Y-100100000D01*
X145674788Y-100003625D01*
X145625857Y-99918875D01*
X145550891Y-99855970D01*
X145550890Y-99855969D01*
X145458932Y-99822500D01*
X145458931Y-99822500D01*
X145361069Y-99822500D01*
X145361067Y-99822500D01*
X145269109Y-99855970D01*
X145269107Y-99855971D01*
X145194143Y-99918873D01*
X145145211Y-100003626D01*
X145128219Y-100100000D01*
X137931765Y-100100000D01*
X137986024Y-99921132D01*
X138005341Y-99725000D01*
X137986024Y-99528868D01*
X137928814Y-99340273D01*
X137928812Y-99340270D01*
X137928812Y-99340268D01*
X137877048Y-99243426D01*
X137835910Y-99166462D01*
X137710883Y-99014117D01*
X137558538Y-98889090D01*
X137548597Y-98883776D01*
X137384731Y-98796187D01*
X137196133Y-98738976D01*
X137132513Y-98732710D01*
X137066746Y-98726232D01*
X137016797Y-98699534D01*
X137000000Y-98652589D01*
X137000000Y-98257410D01*
X137011354Y-98230000D01*
X145588219Y-98230000D01*
X145605211Y-98326373D01*
X145605211Y-98326374D01*
X145605212Y-98326375D01*
X145654143Y-98411125D01*
X145729109Y-98474030D01*
X145821067Y-98507499D01*
X145821067Y-98507500D01*
X145821069Y-98507500D01*
X145918933Y-98507500D01*
X145918932Y-98507499D01*
X146010891Y-98474030D01*
X146085857Y-98411125D01*
X146134788Y-98326375D01*
X146151781Y-98230000D01*
X146134788Y-98133625D01*
X146085857Y-98048875D01*
X146010891Y-97985970D01*
X146010890Y-97985969D01*
X145918932Y-97952500D01*
X145918931Y-97952500D01*
X145821069Y-97952500D01*
X145821067Y-97952500D01*
X145729109Y-97985970D01*
X145729107Y-97985971D01*
X145654143Y-98048873D01*
X145605211Y-98133626D01*
X145588219Y-98230000D01*
X137011354Y-98230000D01*
X137021674Y-98205084D01*
X137066744Y-98183767D01*
X137196132Y-98171024D01*
X137384727Y-98113814D01*
X137558538Y-98020910D01*
X137710883Y-97895883D01*
X137835910Y-97743538D01*
X137928814Y-97569727D01*
X137986024Y-97381132D01*
X137994015Y-97300000D01*
X143878219Y-97300000D01*
X143895211Y-97396373D01*
X143928265Y-97453625D01*
X143944143Y-97481125D01*
X144019109Y-97544030D01*
X144111067Y-97577499D01*
X144111067Y-97577500D01*
X144111069Y-97577500D01*
X144208933Y-97577500D01*
X144208932Y-97577499D01*
X144284488Y-97550000D01*
X148098219Y-97550000D01*
X148115211Y-97646373D01*
X148115211Y-97646374D01*
X148115212Y-97646375D01*
X148164143Y-97731125D01*
X148239109Y-97794030D01*
X148331067Y-97827499D01*
X148331067Y-97827500D01*
X148331069Y-97827500D01*
X148428933Y-97827500D01*
X148428932Y-97827499D01*
X148520891Y-97794030D01*
X148595857Y-97731125D01*
X148644788Y-97646375D01*
X148661781Y-97550000D01*
X148644788Y-97453625D01*
X148595857Y-97368875D01*
X148520891Y-97305970D01*
X148520890Y-97305969D01*
X148428932Y-97272500D01*
X148428931Y-97272500D01*
X148331069Y-97272500D01*
X148331067Y-97272500D01*
X148239109Y-97305970D01*
X148239107Y-97305971D01*
X148164143Y-97368873D01*
X148115211Y-97453626D01*
X148098219Y-97550000D01*
X144284488Y-97550000D01*
X144300891Y-97544030D01*
X144375857Y-97481125D01*
X144424788Y-97396375D01*
X144441781Y-97300000D01*
X144424788Y-97203625D01*
X144375857Y-97118875D01*
X144300891Y-97055970D01*
X144300890Y-97055969D01*
X144208932Y-97022500D01*
X144208931Y-97022500D01*
X144111069Y-97022500D01*
X144111067Y-97022500D01*
X144019109Y-97055970D01*
X144019107Y-97055971D01*
X143944143Y-97118873D01*
X143895211Y-97203626D01*
X143878219Y-97300000D01*
X137994015Y-97300000D01*
X138005341Y-97185000D01*
X137986024Y-96988868D01*
X137928814Y-96800273D01*
X137928812Y-96800270D01*
X137928812Y-96800268D01*
X137877048Y-96703426D01*
X137835910Y-96626462D01*
X137710883Y-96474117D01*
X137558538Y-96349090D01*
X137548597Y-96343776D01*
X137384731Y-96256187D01*
X137196133Y-96198976D01*
X137132513Y-96192710D01*
X137105000Y-96190000D01*
X140624864Y-96190000D01*
X140643265Y-96294362D01*
X140696252Y-96386139D01*
X140777429Y-96454254D01*
X140777432Y-96454256D01*
X140877011Y-96490499D01*
X140877012Y-96490500D01*
X140877014Y-96490500D01*
X140982988Y-96490500D01*
X140982988Y-96490499D01*
X141082568Y-96454256D01*
X141163748Y-96386138D01*
X141216734Y-96294363D01*
X141219267Y-96280000D01*
X147568219Y-96280000D01*
X147585211Y-96376373D01*
X147585211Y-96376374D01*
X147585212Y-96376375D01*
X147634143Y-96461125D01*
X147709109Y-96524030D01*
X147801067Y-96557499D01*
X147801067Y-96557500D01*
X147801069Y-96557500D01*
X147898933Y-96557500D01*
X147898932Y-96557499D01*
X147990891Y-96524030D01*
X148065857Y-96461125D01*
X148114788Y-96376375D01*
X148131781Y-96280000D01*
X148538219Y-96280000D01*
X148555211Y-96376373D01*
X148555211Y-96376374D01*
X148555212Y-96376375D01*
X148604143Y-96461125D01*
X148679109Y-96524030D01*
X148771067Y-96557499D01*
X148771067Y-96557500D01*
X148771069Y-96557500D01*
X148868933Y-96557500D01*
X148868932Y-96557499D01*
X148960891Y-96524030D01*
X149035857Y-96461125D01*
X149084788Y-96376375D01*
X149101781Y-96280000D01*
X149084788Y-96183625D01*
X149035857Y-96098875D01*
X148960891Y-96035970D01*
X148960890Y-96035969D01*
X148868932Y-96002500D01*
X148868931Y-96002500D01*
X148771069Y-96002500D01*
X148771067Y-96002500D01*
X148679109Y-96035970D01*
X148679107Y-96035971D01*
X148604143Y-96098873D01*
X148555211Y-96183626D01*
X148538219Y-96280000D01*
X148131781Y-96280000D01*
X148114788Y-96183625D01*
X148065857Y-96098875D01*
X147990891Y-96035970D01*
X147990890Y-96035969D01*
X147898932Y-96002500D01*
X147898931Y-96002500D01*
X147801069Y-96002500D01*
X147801067Y-96002500D01*
X147709109Y-96035970D01*
X147709107Y-96035971D01*
X147634143Y-96098873D01*
X147585211Y-96183626D01*
X147568219Y-96280000D01*
X141219267Y-96280000D01*
X141235136Y-96190000D01*
X141216734Y-96085637D01*
X141163747Y-95993860D01*
X141082570Y-95925745D01*
X141082567Y-95925743D01*
X140982988Y-95889500D01*
X140982986Y-95889500D01*
X140877014Y-95889500D01*
X140877011Y-95889500D01*
X140777432Y-95925743D01*
X140777429Y-95925745D01*
X140696252Y-95993860D01*
X140643265Y-96085637D01*
X140624864Y-96190000D01*
X137105000Y-96190000D01*
X137066746Y-96186232D01*
X137016797Y-96159534D01*
X137000000Y-96112589D01*
X137000000Y-95717410D01*
X137021674Y-95665084D01*
X137066744Y-95643767D01*
X137196132Y-95631024D01*
X137384727Y-95573814D01*
X137558538Y-95480910D01*
X137710883Y-95355883D01*
X137835910Y-95203538D01*
X137928814Y-95029727D01*
X137986024Y-94841132D01*
X137997954Y-94720000D01*
X150454864Y-94720000D01*
X150473265Y-94824362D01*
X150526252Y-94916139D01*
X150607429Y-94984254D01*
X150607432Y-94984256D01*
X150707011Y-95020499D01*
X150707012Y-95020500D01*
X150707014Y-95020500D01*
X150812988Y-95020500D01*
X150812988Y-95020499D01*
X150912568Y-94984256D01*
X150993748Y-94916138D01*
X151046734Y-94824363D01*
X151065136Y-94720000D01*
X151046734Y-94615637D01*
X150993748Y-94523862D01*
X150993747Y-94523860D01*
X150912570Y-94455745D01*
X150912567Y-94455743D01*
X150812988Y-94419500D01*
X150812986Y-94419500D01*
X150707014Y-94419500D01*
X150707011Y-94419500D01*
X150607432Y-94455743D01*
X150607429Y-94455745D01*
X150526252Y-94523860D01*
X150473265Y-94615637D01*
X150454864Y-94720000D01*
X137997954Y-94720000D01*
X138005341Y-94645000D01*
X137986024Y-94448868D01*
X137928814Y-94260273D01*
X137928812Y-94260270D01*
X137928812Y-94260268D01*
X137877048Y-94163426D01*
X137835910Y-94086462D01*
X137710883Y-93934117D01*
X137558538Y-93809090D01*
X137548597Y-93803776D01*
X137384731Y-93716187D01*
X137196133Y-93658976D01*
X137132513Y-93652710D01*
X137066746Y-93646232D01*
X137016797Y-93619534D01*
X137000000Y-93572589D01*
X137000000Y-93177410D01*
X137021674Y-93125084D01*
X137066744Y-93103767D01*
X137196132Y-93091024D01*
X137298404Y-93060000D01*
X150468219Y-93060000D01*
X150485211Y-93156373D01*
X150485211Y-93156374D01*
X150485212Y-93156375D01*
X150534143Y-93241125D01*
X150609109Y-93304030D01*
X150701067Y-93337499D01*
X150701067Y-93337500D01*
X150701069Y-93337500D01*
X150798933Y-93337500D01*
X150798932Y-93337499D01*
X150890891Y-93304030D01*
X150965857Y-93241125D01*
X151014788Y-93156375D01*
X151031781Y-93060000D01*
X151014788Y-92963625D01*
X150965857Y-92878875D01*
X150890891Y-92815970D01*
X150890890Y-92815969D01*
X150798932Y-92782500D01*
X150798931Y-92782500D01*
X150701069Y-92782500D01*
X150701067Y-92782500D01*
X150609109Y-92815970D01*
X150609107Y-92815971D01*
X150534143Y-92878873D01*
X150485211Y-92963626D01*
X150468219Y-93060000D01*
X137298404Y-93060000D01*
X137384727Y-93033814D01*
X137558538Y-92940910D01*
X137710883Y-92815883D01*
X137835910Y-92663538D01*
X137928814Y-92489727D01*
X137986024Y-92301132D01*
X138005341Y-92105000D01*
X137986024Y-91908868D01*
X137928814Y-91720273D01*
X137928812Y-91720270D01*
X137928812Y-91720268D01*
X137877048Y-91623426D01*
X137835910Y-91546462D01*
X137710883Y-91394117D01*
X137558538Y-91269090D01*
X137548597Y-91263776D01*
X137384731Y-91176187D01*
X137196133Y-91118976D01*
X137132513Y-91112710D01*
X137066746Y-91106232D01*
X137016797Y-91079534D01*
X137000000Y-91032589D01*
X137000000Y-90637410D01*
X137021674Y-90585084D01*
X137066744Y-90563767D01*
X137196132Y-90551024D01*
X137384727Y-90493814D01*
X137558538Y-90400910D01*
X137644942Y-90330000D01*
X138914864Y-90330000D01*
X138933265Y-90434362D01*
X138986252Y-90526139D01*
X139067429Y-90594254D01*
X139067432Y-90594256D01*
X139167011Y-90630499D01*
X139167012Y-90630500D01*
X139167014Y-90630500D01*
X139272988Y-90630500D01*
X139272988Y-90630499D01*
X139372568Y-90594256D01*
X139453748Y-90526138D01*
X139506734Y-90434363D01*
X139525136Y-90330000D01*
X139506734Y-90225637D01*
X139453748Y-90133862D01*
X139453747Y-90133860D01*
X139372570Y-90065745D01*
X139372567Y-90065743D01*
X139272988Y-90029500D01*
X139272986Y-90029500D01*
X139167014Y-90029500D01*
X139167011Y-90029500D01*
X139067432Y-90065743D01*
X139067429Y-90065745D01*
X138986252Y-90133860D01*
X138933265Y-90225637D01*
X138914864Y-90330000D01*
X137644942Y-90330000D01*
X137710883Y-90275883D01*
X137835910Y-90123538D01*
X137928814Y-89949727D01*
X137986024Y-89761132D01*
X138005341Y-89565000D01*
X137986024Y-89368868D01*
X137928814Y-89180273D01*
X137928812Y-89180270D01*
X137928812Y-89180268D01*
X137877048Y-89083426D01*
X137835910Y-89006462D01*
X137710883Y-88854117D01*
X137558538Y-88729090D01*
X137548597Y-88723776D01*
X137384731Y-88636187D01*
X137196133Y-88578976D01*
X137132513Y-88572710D01*
X137066746Y-88566232D01*
X137016797Y-88539534D01*
X137000000Y-88492589D01*
X137000000Y-88460000D01*
X139638219Y-88460000D01*
X139655211Y-88556373D01*
X139698404Y-88631186D01*
X139704143Y-88641125D01*
X139779109Y-88704030D01*
X139871067Y-88737499D01*
X139871067Y-88737500D01*
X139871069Y-88737500D01*
X139968933Y-88737500D01*
X139968932Y-88737499D01*
X140060891Y-88704030D01*
X140135857Y-88641125D01*
X140184788Y-88556375D01*
X140201781Y-88460000D01*
X140184788Y-88363625D01*
X140135857Y-88278875D01*
X140060891Y-88215970D01*
X140060890Y-88215969D01*
X139968932Y-88182500D01*
X139968931Y-88182500D01*
X139871069Y-88182500D01*
X139871067Y-88182500D01*
X139779109Y-88215970D01*
X139779107Y-88215971D01*
X139704143Y-88278873D01*
X139655211Y-88363626D01*
X139638219Y-88460000D01*
X137000000Y-88460000D01*
X137000000Y-88097410D01*
X137021674Y-88045084D01*
X137066744Y-88023767D01*
X137196132Y-88011024D01*
X137384727Y-87953814D01*
X137558538Y-87860910D01*
X137710883Y-87735883D01*
X137835910Y-87583538D01*
X137928814Y-87409727D01*
X137986024Y-87221132D01*
X137987120Y-87210000D01*
X146988219Y-87210000D01*
X147005211Y-87306373D01*
X147005211Y-87306374D01*
X147005212Y-87306375D01*
X147054143Y-87391125D01*
X147129109Y-87454030D01*
X147221067Y-87487499D01*
X147221067Y-87487500D01*
X147221069Y-87487500D01*
X147318933Y-87487500D01*
X147318932Y-87487499D01*
X147410891Y-87454030D01*
X147485857Y-87391125D01*
X147534788Y-87306375D01*
X147551781Y-87210000D01*
X147534788Y-87113625D01*
X147498054Y-87050000D01*
X151268219Y-87050000D01*
X151285211Y-87146373D01*
X151325486Y-87216132D01*
X151334143Y-87231125D01*
X151409109Y-87294030D01*
X151501067Y-87327499D01*
X151501067Y-87327500D01*
X151501069Y-87327500D01*
X151598933Y-87327500D01*
X151598932Y-87327499D01*
X151690891Y-87294030D01*
X151765857Y-87231125D01*
X151814788Y-87146375D01*
X151831781Y-87050000D01*
X151814788Y-86953625D01*
X151765857Y-86868875D01*
X151690891Y-86805970D01*
X151690890Y-86805969D01*
X151598932Y-86772500D01*
X151598931Y-86772500D01*
X151501069Y-86772500D01*
X151501067Y-86772500D01*
X151409109Y-86805970D01*
X151409107Y-86805971D01*
X151334143Y-86868873D01*
X151285211Y-86953626D01*
X151268219Y-87050000D01*
X147498054Y-87050000D01*
X147485857Y-87028875D01*
X147410891Y-86965970D01*
X147410890Y-86965969D01*
X147318932Y-86932500D01*
X147318931Y-86932500D01*
X147221069Y-86932500D01*
X147221067Y-86932500D01*
X147129109Y-86965970D01*
X147129107Y-86965971D01*
X147054143Y-87028873D01*
X147005211Y-87113626D01*
X146988219Y-87210000D01*
X137987120Y-87210000D01*
X138005341Y-87025000D01*
X137986024Y-86828868D01*
X137928814Y-86640273D01*
X137928812Y-86640270D01*
X137928812Y-86640268D01*
X137877048Y-86543426D01*
X137835910Y-86466462D01*
X137710883Y-86314117D01*
X137558538Y-86189090D01*
X137548597Y-86183776D01*
X137384731Y-86096187D01*
X137196133Y-86038976D01*
X137132513Y-86032710D01*
X137066746Y-86026232D01*
X137016797Y-85999534D01*
X137000000Y-85952589D01*
X137000000Y-85557410D01*
X137021674Y-85505084D01*
X137066744Y-85483767D01*
X137196132Y-85471024D01*
X137384727Y-85413814D01*
X137558538Y-85320910D01*
X137710883Y-85195883D01*
X137835910Y-85043538D01*
X137928814Y-84869727D01*
X137977267Y-84710000D01*
X142494864Y-84710000D01*
X142513265Y-84814362D01*
X142566252Y-84906139D01*
X142647429Y-84974254D01*
X142647432Y-84974256D01*
X142747011Y-85010499D01*
X142747012Y-85010500D01*
X142747014Y-85010500D01*
X142852988Y-85010500D01*
X142852988Y-85010499D01*
X142952568Y-84974256D01*
X143033748Y-84906138D01*
X143086734Y-84814363D01*
X143105136Y-84710000D01*
X143086734Y-84605637D01*
X143033748Y-84513862D01*
X143033747Y-84513860D01*
X142952570Y-84445745D01*
X142952567Y-84445743D01*
X142852988Y-84409500D01*
X142852986Y-84409500D01*
X142747014Y-84409500D01*
X142747011Y-84409500D01*
X142647432Y-84445743D01*
X142647429Y-84445745D01*
X142566252Y-84513860D01*
X142513265Y-84605637D01*
X142494864Y-84710000D01*
X137977267Y-84710000D01*
X137986024Y-84681132D01*
X138005341Y-84485000D01*
X137986024Y-84288868D01*
X137928814Y-84100273D01*
X137928812Y-84100270D01*
X137928812Y-84100268D01*
X137877048Y-84003426D01*
X137835910Y-83926462D01*
X137710883Y-83774117D01*
X137632757Y-83710000D01*
X149028219Y-83710000D01*
X149045211Y-83806373D01*
X149088368Y-83881124D01*
X149094143Y-83891125D01*
X149169109Y-83954030D01*
X149261067Y-83987499D01*
X149261067Y-83987500D01*
X149261069Y-83987500D01*
X149358933Y-83987500D01*
X149358932Y-83987499D01*
X149450891Y-83954030D01*
X149462808Y-83944030D01*
X149463390Y-83943542D01*
X149517405Y-83926508D01*
X149553189Y-83941330D01*
X149553500Y-83940792D01*
X149557589Y-83943152D01*
X149558524Y-83943540D01*
X149559106Y-83944028D01*
X149559109Y-83944030D01*
X149651067Y-83977499D01*
X149651067Y-83977500D01*
X149651069Y-83977500D01*
X149748933Y-83977500D01*
X149748932Y-83977499D01*
X149840891Y-83944030D01*
X149915857Y-83881125D01*
X149964788Y-83796375D01*
X149981781Y-83700000D01*
X149964788Y-83603625D01*
X149915857Y-83518875D01*
X149886184Y-83493976D01*
X149840890Y-83455969D01*
X149748932Y-83422500D01*
X149748931Y-83422500D01*
X149651069Y-83422500D01*
X149651067Y-83422500D01*
X149559109Y-83455969D01*
X149546603Y-83466463D01*
X149492586Y-83483490D01*
X149456810Y-83468670D01*
X149456500Y-83469208D01*
X149452413Y-83466848D01*
X149451475Y-83466460D01*
X149450890Y-83465969D01*
X149358932Y-83432500D01*
X149358931Y-83432500D01*
X149261069Y-83432500D01*
X149261067Y-83432500D01*
X149169109Y-83465970D01*
X149169107Y-83465971D01*
X149094143Y-83528873D01*
X149045211Y-83613626D01*
X149028219Y-83710000D01*
X137632757Y-83710000D01*
X137558538Y-83649090D01*
X137492188Y-83613625D01*
X137384731Y-83556187D01*
X137196133Y-83498976D01*
X137132513Y-83492710D01*
X137066746Y-83486232D01*
X137016797Y-83459534D01*
X137000000Y-83412589D01*
X137000000Y-83017410D01*
X137021674Y-82965084D01*
X137066744Y-82943767D01*
X137196132Y-82931024D01*
X137384727Y-82873814D01*
X137558538Y-82780910D01*
X137710883Y-82655883D01*
X137835910Y-82503538D01*
X137928814Y-82329727D01*
X137965133Y-82210000D01*
X145458219Y-82210000D01*
X145475211Y-82306373D01*
X145475211Y-82306374D01*
X145475212Y-82306375D01*
X145524143Y-82391125D01*
X145599109Y-82454030D01*
X145691067Y-82487499D01*
X145691067Y-82487500D01*
X145691069Y-82487500D01*
X145788933Y-82487500D01*
X145788932Y-82487499D01*
X145880891Y-82454030D01*
X145955857Y-82391125D01*
X146004788Y-82306375D01*
X146021781Y-82210000D01*
X146004788Y-82113625D01*
X145955857Y-82028875D01*
X145880891Y-81965970D01*
X145880890Y-81965969D01*
X145788932Y-81932500D01*
X145788931Y-81932500D01*
X145691069Y-81932500D01*
X145691067Y-81932500D01*
X145599109Y-81965970D01*
X145599107Y-81965971D01*
X145524143Y-82028873D01*
X145475211Y-82113626D01*
X145458219Y-82210000D01*
X137965133Y-82210000D01*
X137986024Y-82141132D01*
X138005341Y-81945000D01*
X137997954Y-81870000D01*
X142494864Y-81870000D01*
X142513265Y-81974362D01*
X142566252Y-82066139D01*
X142647429Y-82134254D01*
X142647432Y-82134256D01*
X142747011Y-82170499D01*
X142747012Y-82170500D01*
X142747014Y-82170500D01*
X142852988Y-82170500D01*
X142852988Y-82170499D01*
X142952568Y-82134256D01*
X143033748Y-82066138D01*
X143086734Y-81974363D01*
X143105136Y-81870000D01*
X143086734Y-81765637D01*
X143033747Y-81673860D01*
X142952570Y-81605745D01*
X142952567Y-81605743D01*
X142852988Y-81569500D01*
X142852986Y-81569500D01*
X142747014Y-81569500D01*
X142747011Y-81569500D01*
X142647432Y-81605743D01*
X142647429Y-81605745D01*
X142566252Y-81673860D01*
X142513265Y-81765637D01*
X142494864Y-81870000D01*
X137997954Y-81870000D01*
X137986024Y-81748868D01*
X137928814Y-81560273D01*
X137928812Y-81560270D01*
X137928812Y-81560268D01*
X137877048Y-81463426D01*
X137835910Y-81386462D01*
X137710883Y-81234117D01*
X137558538Y-81109090D01*
X137548597Y-81103776D01*
X137384731Y-81016187D01*
X137196133Y-80958976D01*
X137132513Y-80952710D01*
X137066746Y-80946232D01*
X137016797Y-80919534D01*
X137000000Y-80872589D01*
X137000000Y-80479500D01*
X137021674Y-80427174D01*
X137074000Y-80405500D01*
X137864819Y-80405500D01*
X137864820Y-80405500D01*
X137908722Y-80396767D01*
X137958504Y-80363504D01*
X137991767Y-80313722D01*
X138000500Y-80269820D01*
X138000500Y-78694000D01*
X138022174Y-78641674D01*
X138074500Y-78620000D01*
X152865500Y-78620000D01*
X152917826Y-78641674D01*
G37*
%TD.AperFunction*%
%TD*%
M02*
