M48
; DRILL file {KiCad 8.0.1} date 2024-10-17T14:11:03-0500
; FORMAT={-:-/ absolute / metric / decimal}
; #@! TF.CreationDate,2024-10-17T14:11:03-05:00
; #@! TF.GenerationSoftware,Kicad,Pcbnew,8.0.1
; #@! TF.FileFunction,Plated,1,2,Blind
FMAT,2
METRIC
; #@! TA.AperFunction,Plated,Buried,ViaDrill
T1C0.100
%
G90
G05
T1
X139.87Y-92.05
X140.71Y-92.25
X142.92Y-100.59
X142.92Y-103.09
X143.41Y-99.6
X143.42Y-102.09
X143.42Y-104.59
X143.91Y-101.1
X143.91Y-103.6
X144.32Y-92.11
X144.91Y-103.1
X144.92Y-100.09
X144.92Y-104.09
X145.42Y-100.59
X145.9Y-99.61
X145.9Y-103.11
X145.932Y-104.578
X146.42Y-100.59
X146.9Y-102.11
X146.91Y-101.1
X146.91Y-103.1
X147.42Y-104.08
X147.9Y-103.11
X147.92Y-100.59
X148.13Y-92.14
X148.41Y-102.1
X150.16Y-104.17
M30
