M48
; DRILL file {KiCad 8.0.1} date 2024-10-17T14:11:03-0500
; FORMAT={-:-/ absolute / metric / decimal}
; #@! TF.CreationDate,2024-10-17T14:11:03-05:00
; #@! TF.GenerationSoftware,Kicad,Pcbnew,8.0.1
; #@! TF.FileFunction,Plated,1,8,PTH
FMAT,2
METRIC
; #@! TA.AperFunction,Plated,PTH,ViaDrill
T1C0.100
; #@! TA.AperFunction,Plated,PTH,ComponentDrill
T2C1.000
%
G90
G05
T1
X137.67Y-90.87
X137.75Y-88.29
X138.94Y-101.25
X139.22Y-90.33
X140.7Y-85.98
X141.01Y-106.46
X141.77Y-101.85
X141.77Y-104.35
X141.77Y-105.85
X142.16Y-98.92
X142.8Y-81.87
X143.04Y-94.56
X143.92Y-102.12
X144.13Y-114.75
X144.16Y-106.24
X144.41Y-105.1
X144.66Y-98.96
X144.91Y-100.58
X144.92Y-102.59
X145.16Y-106.24
X145.41Y-104.6
X145.66Y-106.26
X146.16Y-106.23
X146.4Y-102.11
X146.74Y-94.55
X146.76Y-114.75
X146.92Y-101.59
X147.16Y-98.93
X147.88Y-82.87
X148.38Y-97.55
X148.69Y-87.96
X148.69Y-89.72
X149.0Y-101.35
X149.02Y-99.35
X149.04Y-103.85
X149.06Y-105.85
X149.24Y-114.75
X149.76Y-106.47
X149.92Y-111.06
X150.4Y-106.5
X150.53Y-95.3
X150.76Y-94.72
X151.14Y-86.45
X152.4Y-83.57
T2
X137.0Y-79.405
X137.0Y-81.945
X137.0Y-84.485
X137.0Y-87.025
X137.0Y-89.565
X137.0Y-92.105
X137.0Y-94.645
X137.0Y-97.185
X137.0Y-99.725
X137.0Y-102.265
X137.0Y-104.84
X137.0Y-107.38
X137.0Y-109.92
X137.0Y-112.46
X137.0Y-115.0
X137.0Y-117.54
X137.0Y-120.08
X137.0Y-122.62
X137.0Y-125.16
X137.0Y-127.7
X153.94Y-79.4
X153.94Y-81.94
X153.94Y-84.48
X153.94Y-87.02
X153.94Y-89.56
X153.94Y-92.1
X153.94Y-94.64
X153.94Y-97.18
X153.94Y-99.72
X153.94Y-102.26
X153.97Y-104.8
X153.97Y-107.34
X153.97Y-109.88
X153.97Y-112.42
X153.97Y-114.96
X153.97Y-117.5
X153.97Y-120.04
X153.97Y-122.58
X153.97Y-125.12
X153.97Y-127.66
M30
