%TF.GenerationSoftware,KiCad,Pcbnew,8.0.1*%
%TF.CreationDate,2024-10-17T14:11:07-05:00*%
%TF.ProjectId,sip-board,7369702d-626f-4617-9264-2e6b69636164,rev?*%
%TF.SameCoordinates,Original*%
%TF.FileFunction,Copper,L4,Inr*%
%TF.FilePolarity,Positive*%
%FSLAX46Y46*%
G04 Gerber Fmt 4.6, Leading zero omitted, Abs format (unit mm)*
G04 Created by KiCad (PCBNEW 8.0.1) date 2024-10-17 14:11:07*
%MOMM*%
%LPD*%
G01*
G04 APERTURE LIST*
%TA.AperFunction,CastellatedPad*%
%ADD10R,1.700000X1.700000*%
%TD*%
%TA.AperFunction,CastellatedPad*%
%ADD11O,1.700000X1.700000*%
%TD*%
%TA.AperFunction,ComponentPad*%
%ADD12R,1.700000X1.700000*%
%TD*%
%TA.AperFunction,ComponentPad*%
%ADD13O,1.700000X1.700000*%
%TD*%
%TA.AperFunction,ViaPad*%
%ADD14C,0.300000*%
%TD*%
%TA.AperFunction,ViaPad*%
%ADD15C,0.254000*%
%TD*%
%TA.AperFunction,Conductor*%
%ADD16C,0.100000*%
%TD*%
%TA.AperFunction,Conductor*%
%ADD17C,0.400000*%
%TD*%
G04 APERTURE END LIST*
D10*
%TO.N,A1_5V*%
%TO.C,J5*%
X153970000Y-104800000D03*
D11*
%TO.N,A2_5V*%
X153970000Y-107340000D03*
%TO.N,A3_5V*%
X153970000Y-109880000D03*
%TO.N,A4_5V*%
X153970000Y-112420000D03*
%TO.N,A5_5V*%
X153970000Y-114960000D03*
%TO.N,A6_5V*%
X153970000Y-117500000D03*
%TO.N,A7_5V*%
X153970000Y-120040000D03*
%TO.N,A8_5V*%
X153970000Y-122580000D03*
%TO.N,A9_5V*%
X153970000Y-125120000D03*
%TO.N,A10_5V*%
X153970000Y-127660000D03*
%TD*%
D10*
%TO.N,+5V*%
%TO.C,J3*%
X137000000Y-104840000D03*
D11*
%TO.N,D2_5V*%
X137000000Y-107380000D03*
%TO.N,D7_5V*%
X137000000Y-109920000D03*
%TO.N,D0_5V*%
X137000000Y-112460000D03*
%TO.N,D1_5V*%
X137000000Y-115000000D03*
%TO.N,INT_5V*%
X137000000Y-117540000D03*
%TO.N,NMI_5V*%
X137000000Y-120080000D03*
%TO.N,HALT_5V*%
X137000000Y-122620000D03*
%TO.N,MREQ_5V*%
X137000000Y-125160000D03*
%TO.N,IORQ_5V*%
X137000000Y-127700000D03*
%TD*%
D10*
%TO.N,A11_5V*%
%TO.C,J2*%
X137000000Y-79405000D03*
D11*
%TO.N,A12_5V*%
X137000000Y-81945000D03*
%TO.N,A13_5V*%
X137000000Y-84485000D03*
%TO.N,A14_5V*%
X137000000Y-87025000D03*
%TO.N,A15_5V*%
X137000000Y-89565000D03*
%TO.N,CLK_5V*%
X137000000Y-92105000D03*
%TO.N,D4_5V*%
X137000000Y-94645000D03*
%TO.N,D3_5V*%
X137000000Y-97185000D03*
%TO.N,D5_5V*%
X137000000Y-99725000D03*
%TO.N,D6_5V*%
X137000000Y-102265000D03*
%TD*%
D12*
%TO.N,RD_5V*%
%TO.C,J4*%
X153940000Y-79400000D03*
D13*
%TO.N,WR_5V*%
X153940000Y-81940000D03*
%TO.N,BUSAK_5V*%
X153940000Y-84480000D03*
%TO.N,WAIT_5V*%
X153940000Y-87020000D03*
%TO.N,BUSRQ_5V*%
X153940000Y-89560000D03*
%TO.N,RESET_5V*%
X153940000Y-92100000D03*
%TO.N,M1_5V*%
X153940000Y-94640000D03*
%TO.N,RFSH_5V*%
X153940000Y-97180000D03*
%TO.N,GND*%
X153940000Y-99720000D03*
%TO.N,A0_5V*%
X153940000Y-102260000D03*
%TD*%
D14*
%TO.N,+1V0*%
X140930000Y-96190000D03*
D15*
X143050000Y-106290000D03*
X144920000Y-103590000D03*
X145410000Y-100100000D03*
X147300000Y-106270000D03*
X145400000Y-104110000D03*
X146400000Y-102110000D03*
X145900000Y-101610000D03*
X146410000Y-100100000D03*
X145410000Y-101600000D03*
X144920000Y-102590000D03*
X145910000Y-102100000D03*
X141440000Y-97080000D03*
%TO.N,GND*%
X150400000Y-106500000D03*
X150530000Y-95300000D03*
D14*
X148410000Y-104600000D03*
D15*
X146760000Y-114750000D03*
X141770000Y-101850000D03*
X147160000Y-98930000D03*
X149060000Y-105850000D03*
X142160000Y-98920000D03*
X149040000Y-103850000D03*
X149240000Y-114750000D03*
X141770000Y-104350000D03*
X144160000Y-106240000D03*
X149920000Y-111060000D03*
X144660000Y-98960000D03*
X139970000Y-106470000D03*
X140700000Y-85980000D03*
X141770000Y-105850000D03*
X146740000Y-94550000D03*
X145160000Y-106240000D03*
X144130000Y-114750000D03*
X143040000Y-94560000D03*
X149020000Y-99350000D03*
X149000000Y-101350000D03*
X146160000Y-106230000D03*
D14*
%TO.N,+5V*%
X139220000Y-90330000D03*
X138940000Y-101250000D03*
X138950000Y-106300000D03*
X150760000Y-94720000D03*
X142800000Y-84710000D03*
X142800000Y-81870000D03*
X150090000Y-125500000D03*
X139590000Y-122720000D03*
X150830000Y-114740000D03*
X139590000Y-111660000D03*
D15*
%TO.N,+1V8*%
X145420000Y-101090000D03*
X146420000Y-101090000D03*
X144160000Y-97300000D03*
X144910000Y-100580000D03*
%TO.N,Net-(IC1-INIT_B_0)*%
X141180000Y-104530000D03*
X144930000Y-105590000D03*
%TO.N,TDO*%
X147270000Y-87210000D03*
X144420000Y-104600000D03*
%TO.N,M0_CONFIG*%
X147950000Y-114190000D03*
X146910000Y-104600000D03*
%TO.N,MOSI*%
X149310000Y-83710000D03*
X145410000Y-104600000D03*
X146920000Y-100610000D03*
X149700000Y-83700000D03*
%TO.N,M2_CONFIG*%
X142860000Y-114180000D03*
X146410000Y-104600000D03*
%TO.N,DIN*%
X147410000Y-100100000D03*
%TO.N,DONE*%
X149980000Y-105100000D03*
X146420000Y-105100000D03*
%TO.N,CS*%
X144900000Y-104610000D03*
X151550000Y-87050000D03*
%TO.N,CCLK*%
X145870000Y-98230000D03*
X145740000Y-82210000D03*
X144150000Y-91030000D03*
%TO.N,M1_CONFIG*%
X145410000Y-114200000D03*
X145910000Y-104100000D03*
D14*
%TO.N,A6_5V*%
X152000000Y-112970000D03*
D15*
%TO.N,+3V3*%
X143920000Y-102120000D03*
X146920000Y-101590000D03*
X145660000Y-106260000D03*
X144410000Y-105100000D03*
X148380000Y-97550000D03*
D14*
X141010000Y-106460000D03*
X139470000Y-128130000D03*
X149410000Y-79090000D03*
X140530000Y-116070000D03*
X140660000Y-91640000D03*
D15*
X145250000Y-91020000D03*
D14*
X140240000Y-111370000D03*
X148900000Y-86210000D03*
X141800000Y-83130000D03*
X151390000Y-109400000D03*
X151060000Y-95700000D03*
X151590000Y-101730000D03*
D15*
X144350000Y-88480000D03*
D14*
X150090000Y-125010000D03*
X151000000Y-119670000D03*
X139520000Y-96990000D03*
X140280000Y-122250000D03*
X140910000Y-102340000D03*
X151800000Y-89520000D03*
X150840000Y-115670000D03*
X139390000Y-86030000D03*
%TD*%
D16*
%TO.N,+5V*%
X142370000Y-125500000D02*
X139590000Y-122720000D01*
D17*
X139590000Y-119540000D02*
X139590000Y-122720000D01*
D16*
X146030000Y-119540000D02*
X139590000Y-119540000D01*
D17*
X139590000Y-106940000D02*
X139590000Y-111660000D01*
X139610000Y-122740000D02*
X139590000Y-122720000D01*
D16*
X150090000Y-125500000D02*
X142370000Y-125500000D01*
D17*
X138950000Y-106300000D02*
X139590000Y-106940000D01*
D16*
X150830000Y-114740000D02*
X146030000Y-119540000D01*
D17*
X139590000Y-111660000D02*
X139590000Y-119540000D01*
D16*
%TO.N,Net-(IC1-INIT_B_0)*%
X142240000Y-105590000D02*
X141180000Y-104530000D01*
X144930000Y-105590000D02*
X142240000Y-105590000D01*
%TO.N,M0_CONFIG*%
X146930000Y-104620000D02*
X146930000Y-113170000D01*
X146930000Y-113170000D02*
X147950000Y-114190000D01*
X146910000Y-104600000D02*
X146930000Y-104620000D01*
%TO.N,CCLK*%
X145870000Y-98230000D02*
X145870000Y-90190000D01*
X145870000Y-90190000D02*
X145870000Y-82340000D01*
X145870000Y-90190000D02*
X144990000Y-90190000D01*
X144990000Y-90190000D02*
X144150000Y-91030000D01*
X145870000Y-82340000D02*
X145740000Y-82210000D01*
%TO.N,M1_CONFIG*%
X145910000Y-113700000D02*
X145410000Y-114200000D01*
X145910000Y-104100000D02*
X145910000Y-113700000D01*
%TO.N,A6_5V*%
X152000000Y-115530000D02*
X153970000Y-117500000D01*
X152000000Y-112970000D02*
X152000000Y-115530000D01*
%TD*%
%TA.AperFunction,Conductor*%
%TO.N,+1V0*%
G36*
X142597546Y-95251871D02*
G01*
X142619678Y-95304005D01*
X142619680Y-95304969D01*
X142609999Y-97580000D01*
X142610000Y-97580000D01*
X145645500Y-97580000D01*
X145697826Y-97601674D01*
X145719500Y-97654000D01*
X145719500Y-98023302D01*
X145707029Y-98064414D01*
X145655700Y-98141233D01*
X145655700Y-98141234D01*
X145638043Y-98230000D01*
X145655700Y-98318766D01*
X145705982Y-98394018D01*
X145781234Y-98444300D01*
X145852342Y-98458444D01*
X145869999Y-98461957D01*
X145870000Y-98461957D01*
X145870001Y-98461957D01*
X145884728Y-98459027D01*
X145958766Y-98444300D01*
X146034018Y-98394018D01*
X146084300Y-98318766D01*
X146101957Y-98230000D01*
X146084300Y-98141234D01*
X146067930Y-98116735D01*
X146032971Y-98064414D01*
X146020500Y-98023302D01*
X146020500Y-97654000D01*
X146042174Y-97601674D01*
X146094500Y-97580000D01*
X148093280Y-97580000D01*
X148145606Y-97601674D01*
X148162029Y-97632398D01*
X148162911Y-97632033D01*
X148165700Y-97638766D01*
X148215982Y-97714018D01*
X148291234Y-97764300D01*
X148362342Y-97778444D01*
X148379999Y-97781957D01*
X148380000Y-97781957D01*
X148380001Y-97781957D01*
X148394728Y-97779027D01*
X148468766Y-97764300D01*
X148544018Y-97714018D01*
X148594300Y-97638766D01*
X148594300Y-97638761D01*
X148597089Y-97632033D01*
X148598720Y-97632708D01*
X148625613Y-97592468D01*
X148666720Y-97580000D01*
X150386000Y-97580000D01*
X150438326Y-97601674D01*
X150460000Y-97654000D01*
X150460000Y-106195377D01*
X150438326Y-106247703D01*
X150400438Y-106267955D01*
X150311233Y-106285700D01*
X150235983Y-106335981D01*
X150235981Y-106335983D01*
X150185700Y-106411233D01*
X150170081Y-106489756D01*
X150168043Y-106500000D01*
X150185700Y-106588766D01*
X150235982Y-106664018D01*
X150311234Y-106714300D01*
X150400000Y-106731957D01*
X150400001Y-106731956D01*
X150400436Y-106732043D01*
X150447529Y-106763509D01*
X150460000Y-106804621D01*
X150460000Y-107506000D01*
X150438326Y-107558326D01*
X150386000Y-107580000D01*
X147154500Y-107580000D01*
X147102174Y-107558326D01*
X147080500Y-107506000D01*
X147080500Y-106470000D01*
X149604191Y-106470000D01*
X149625065Y-106547905D01*
X149682095Y-106604935D01*
X149760000Y-106625809D01*
X149837905Y-106604935D01*
X149894935Y-106547905D01*
X149915809Y-106470000D01*
X149894935Y-106392096D01*
X149837905Y-106335065D01*
X149760000Y-106314191D01*
X149682095Y-106335065D01*
X149625065Y-106392095D01*
X149612999Y-106437127D01*
X149604191Y-106470000D01*
X147080500Y-106470000D01*
X147080500Y-105850000D01*
X148828043Y-105850000D01*
X148845700Y-105938766D01*
X148895982Y-106014018D01*
X148971234Y-106064300D01*
X149042342Y-106078444D01*
X149059999Y-106081957D01*
X149060000Y-106081957D01*
X149060001Y-106081957D01*
X149074728Y-106079027D01*
X149148766Y-106064300D01*
X149224018Y-106014018D01*
X149274300Y-105938766D01*
X149291957Y-105850000D01*
X149274300Y-105761234D01*
X149224018Y-105685982D01*
X149148766Y-105635700D01*
X149060001Y-105618043D01*
X149059999Y-105618043D01*
X148971233Y-105635700D01*
X148895983Y-105685981D01*
X148895981Y-105685983D01*
X148845700Y-105761233D01*
X148837134Y-105804299D01*
X148828043Y-105850000D01*
X147080500Y-105850000D01*
X147080500Y-105100000D01*
X149748043Y-105100000D01*
X149765700Y-105188766D01*
X149815982Y-105264018D01*
X149891234Y-105314300D01*
X149962342Y-105328444D01*
X149979999Y-105331957D01*
X149980000Y-105331957D01*
X149980001Y-105331957D01*
X149994728Y-105329027D01*
X150068766Y-105314300D01*
X150144018Y-105264018D01*
X150194300Y-105188766D01*
X150211957Y-105100000D01*
X150194300Y-105011234D01*
X150144018Y-104935982D01*
X150068766Y-104885700D01*
X149980001Y-104868043D01*
X149979999Y-104868043D01*
X149891233Y-104885700D01*
X149815983Y-104935981D01*
X149815981Y-104935983D01*
X149765700Y-105011233D01*
X149764361Y-105017967D01*
X149748043Y-105100000D01*
X147080500Y-105100000D01*
X147080500Y-104776764D01*
X147092972Y-104735651D01*
X147098773Y-104726969D01*
X147124300Y-104688766D01*
X147141957Y-104600000D01*
X148154592Y-104600000D01*
X148174034Y-104697740D01*
X148224999Y-104774017D01*
X148229399Y-104780601D01*
X148312260Y-104835966D01*
X148410000Y-104855408D01*
X148507740Y-104835966D01*
X148590601Y-104780601D01*
X148645966Y-104697740D01*
X148665408Y-104600000D01*
X148645966Y-104502260D01*
X148590601Y-104419399D01*
X148555132Y-104395700D01*
X148507740Y-104364034D01*
X148410000Y-104344592D01*
X148312259Y-104364034D01*
X148229399Y-104419398D01*
X148229398Y-104419399D01*
X148174034Y-104502259D01*
X148154592Y-104600000D01*
X147141957Y-104600000D01*
X147124300Y-104511234D01*
X147074018Y-104435982D01*
X146998766Y-104385700D01*
X146910001Y-104368043D01*
X146909999Y-104368043D01*
X146821233Y-104385700D01*
X146745983Y-104435981D01*
X146745981Y-104435983D01*
X146721528Y-104472580D01*
X146674436Y-104504045D01*
X146618887Y-104492995D01*
X146598472Y-104472580D01*
X146580700Y-104445983D01*
X146574018Y-104435982D01*
X146498766Y-104385700D01*
X146410001Y-104368043D01*
X146409999Y-104368043D01*
X146321233Y-104385700D01*
X146245983Y-104435981D01*
X146245981Y-104435983D01*
X146196028Y-104510742D01*
X146148936Y-104542207D01*
X146093387Y-104531157D01*
X146061922Y-104484065D01*
X146060500Y-104469629D01*
X146060500Y-104306696D01*
X146072971Y-104265583D01*
X146074015Y-104264019D01*
X146074018Y-104264018D01*
X146124300Y-104188766D01*
X146141957Y-104100000D01*
X146124300Y-104011234D01*
X146074018Y-103935982D01*
X145998766Y-103885700D01*
X145910001Y-103868043D01*
X145909999Y-103868043D01*
X145821233Y-103885700D01*
X145745983Y-103935981D01*
X145745981Y-103935983D01*
X145695700Y-104011233D01*
X145678043Y-104099999D01*
X145678043Y-104100000D01*
X145695699Y-104188764D01*
X145695699Y-104188765D01*
X145695700Y-104188766D01*
X145745982Y-104264018D01*
X145745984Y-104264019D01*
X145747029Y-104265583D01*
X145759500Y-104306696D01*
X145759500Y-104469629D01*
X145737826Y-104521955D01*
X145685500Y-104543629D01*
X145633174Y-104521955D01*
X145623972Y-104510742D01*
X145580700Y-104445983D01*
X145574018Y-104435982D01*
X145498766Y-104385700D01*
X145410001Y-104368043D01*
X145409999Y-104368043D01*
X145321233Y-104385700D01*
X145245983Y-104435981D01*
X145245981Y-104435983D01*
X145213187Y-104485063D01*
X145166095Y-104516528D01*
X145110546Y-104505478D01*
X145090131Y-104485063D01*
X145079818Y-104469629D01*
X145064018Y-104445982D01*
X144988766Y-104395700D01*
X144938494Y-104385700D01*
X144900001Y-104378043D01*
X144899999Y-104378043D01*
X144811233Y-104395700D01*
X144735983Y-104445981D01*
X144735981Y-104445983D01*
X144724867Y-104462616D01*
X144677774Y-104494080D01*
X144622225Y-104483028D01*
X144601814Y-104462616D01*
X144584018Y-104435982D01*
X144508766Y-104385700D01*
X144420001Y-104368043D01*
X144419999Y-104368043D01*
X144331233Y-104385700D01*
X144255983Y-104435981D01*
X144255981Y-104435983D01*
X144205700Y-104511233D01*
X144195145Y-104564299D01*
X144188043Y-104600000D01*
X144205700Y-104688766D01*
X144255982Y-104764018D01*
X144287580Y-104785131D01*
X144319045Y-104832223D01*
X144307995Y-104887772D01*
X144287580Y-104908186D01*
X144285527Y-104909558D01*
X144245983Y-104935981D01*
X144245981Y-104935983D01*
X144195700Y-105011233D01*
X144194361Y-105017967D01*
X144178043Y-105100000D01*
X144195700Y-105188766D01*
X144245982Y-105264018D01*
X144299196Y-105299574D01*
X144305777Y-105303972D01*
X144337242Y-105351064D01*
X144326192Y-105406613D01*
X144279100Y-105438078D01*
X144264664Y-105439500D01*
X142332991Y-105439500D01*
X142280665Y-105417826D01*
X141432576Y-104569736D01*
X141412324Y-104531847D01*
X141411957Y-104530000D01*
X141394300Y-104441234D01*
X141344018Y-104365982D01*
X141320099Y-104350000D01*
X141538043Y-104350000D01*
X141555700Y-104438766D01*
X141605982Y-104514018D01*
X141681234Y-104564300D01*
X141752342Y-104578444D01*
X141769999Y-104581957D01*
X141770000Y-104581957D01*
X141770001Y-104581957D01*
X141784728Y-104579027D01*
X141858766Y-104564300D01*
X141934018Y-104514018D01*
X141984300Y-104438766D01*
X142001957Y-104350000D01*
X141984300Y-104261234D01*
X141934018Y-104185982D01*
X141858766Y-104135700D01*
X141770001Y-104118043D01*
X141769999Y-104118043D01*
X141681233Y-104135700D01*
X141605983Y-104185981D01*
X141605981Y-104185983D01*
X141555700Y-104261233D01*
X141553350Y-104273050D01*
X141538043Y-104350000D01*
X141320099Y-104350000D01*
X141268766Y-104315700D01*
X141223501Y-104306696D01*
X141180001Y-104298043D01*
X141179999Y-104298043D01*
X141091233Y-104315700D01*
X141015983Y-104365981D01*
X141015981Y-104365983D01*
X140965700Y-104441233D01*
X140964756Y-104445982D01*
X140948043Y-104530000D01*
X140965700Y-104618766D01*
X141015982Y-104694018D01*
X141091234Y-104744300D01*
X141180000Y-104761957D01*
X141180001Y-104761956D01*
X141181847Y-104762324D01*
X141219736Y-104782576D01*
X141972706Y-105535546D01*
X141994380Y-105587870D01*
X141972706Y-105640196D01*
X141920380Y-105661870D01*
X141879268Y-105649399D01*
X141858766Y-105635700D01*
X141770001Y-105618043D01*
X141769999Y-105618043D01*
X141681233Y-105635700D01*
X141605983Y-105685981D01*
X141605981Y-105685983D01*
X141555700Y-105761233D01*
X141547134Y-105804299D01*
X141538043Y-105850000D01*
X141555700Y-105938766D01*
X141605982Y-106014018D01*
X141681234Y-106064300D01*
X141752342Y-106078444D01*
X141769999Y-106081957D01*
X141770000Y-106081957D01*
X141770001Y-106081957D01*
X141784728Y-106079027D01*
X141858766Y-106064300D01*
X141934018Y-106014018D01*
X141984300Y-105938766D01*
X142001957Y-105850000D01*
X141984300Y-105761234D01*
X141970599Y-105740730D01*
X141959551Y-105685183D01*
X141991017Y-105638090D01*
X142046565Y-105627041D01*
X142084452Y-105647291D01*
X142154748Y-105717587D01*
X142170950Y-105724297D01*
X142170951Y-105724297D01*
X142210064Y-105740500D01*
X144723303Y-105740500D01*
X144764415Y-105752971D01*
X144765982Y-105754018D01*
X144841234Y-105804300D01*
X144915271Y-105819027D01*
X144929999Y-105821957D01*
X144930000Y-105821957D01*
X144930001Y-105821957D01*
X144944728Y-105819027D01*
X145018766Y-105804300D01*
X145094018Y-105754018D01*
X145144300Y-105678766D01*
X145161957Y-105590000D01*
X145144300Y-105501234D01*
X145094018Y-105425982D01*
X145018766Y-105375700D01*
X144930001Y-105358043D01*
X144929999Y-105358043D01*
X144841234Y-105375700D01*
X144764415Y-105427029D01*
X144723303Y-105439500D01*
X144555336Y-105439500D01*
X144503010Y-105417826D01*
X144481336Y-105365500D01*
X144503010Y-105313174D01*
X144514223Y-105303972D01*
X144517704Y-105301645D01*
X144574018Y-105264018D01*
X144624300Y-105188766D01*
X144641957Y-105100000D01*
X144624300Y-105011234D01*
X144574018Y-104935982D01*
X144542419Y-104914868D01*
X144510954Y-104867776D01*
X144522004Y-104812227D01*
X144542416Y-104791815D01*
X144584018Y-104764018D01*
X144595132Y-104747384D01*
X144642222Y-104715920D01*
X144697771Y-104726969D01*
X144718184Y-104747382D01*
X144735982Y-104774018D01*
X144811234Y-104824300D01*
X144882342Y-104838444D01*
X144899999Y-104841957D01*
X144900000Y-104841957D01*
X144900001Y-104841957D01*
X144915353Y-104838903D01*
X144988766Y-104824300D01*
X145064018Y-104774018D01*
X145096813Y-104724936D01*
X145143902Y-104693471D01*
X145199451Y-104704520D01*
X145219868Y-104724936D01*
X145221528Y-104727420D01*
X145245982Y-104764018D01*
X145321234Y-104814300D01*
X145392342Y-104828444D01*
X145409999Y-104831957D01*
X145410000Y-104831957D01*
X145410001Y-104831957D01*
X145424728Y-104829027D01*
X145498766Y-104814300D01*
X145574018Y-104764018D01*
X145623972Y-104689257D01*
X145671064Y-104657792D01*
X145726613Y-104668842D01*
X145758078Y-104715934D01*
X145759500Y-104730370D01*
X145759500Y-105957665D01*
X145737826Y-106009991D01*
X145685500Y-106031665D01*
X145671065Y-106030243D01*
X145660004Y-106028043D01*
X145659999Y-106028043D01*
X145571233Y-106045700D01*
X145495983Y-106095981D01*
X145495982Y-106095982D01*
X145478209Y-106122581D01*
X145431116Y-106154046D01*
X145375567Y-106142995D01*
X145355155Y-106122582D01*
X145324018Y-106075982D01*
X145248766Y-106025700D01*
X145190028Y-106014016D01*
X145160001Y-106008043D01*
X145159999Y-106008043D01*
X145071233Y-106025700D01*
X144995983Y-106075981D01*
X144995981Y-106075983D01*
X144945700Y-106151233D01*
X144941722Y-106171234D01*
X144928043Y-106240000D01*
X144945700Y-106328766D01*
X144995982Y-106404018D01*
X145071234Y-106454300D01*
X145142342Y-106468444D01*
X145159999Y-106471957D01*
X145160000Y-106471957D01*
X145160001Y-106471957D01*
X145174728Y-106469027D01*
X145248766Y-106454300D01*
X145324018Y-106404018D01*
X145341791Y-106377418D01*
X145388881Y-106345954D01*
X145444430Y-106357003D01*
X145464844Y-106377417D01*
X145495982Y-106424018D01*
X145571234Y-106474300D01*
X145660000Y-106491957D01*
X145671062Y-106489756D01*
X145726610Y-106500804D01*
X145758078Y-106547895D01*
X145759500Y-106562334D01*
X145759500Y-107506000D01*
X145737826Y-107558326D01*
X145685500Y-107580000D01*
X140434000Y-107580000D01*
X140381674Y-107558326D01*
X140360000Y-107506000D01*
X140360000Y-106460000D01*
X140754592Y-106460000D01*
X140774034Y-106557740D01*
X140794764Y-106588766D01*
X140829399Y-106640601D01*
X140912260Y-106695966D01*
X141010000Y-106715408D01*
X141107740Y-106695966D01*
X141190601Y-106640601D01*
X141245966Y-106557740D01*
X141265408Y-106460000D01*
X141245966Y-106362260D01*
X141190601Y-106279399D01*
X141173605Y-106268043D01*
X141131635Y-106240000D01*
X143928043Y-106240000D01*
X143945700Y-106328766D01*
X143995982Y-106404018D01*
X144071234Y-106454300D01*
X144142342Y-106468444D01*
X144159999Y-106471957D01*
X144160000Y-106471957D01*
X144160001Y-106471957D01*
X144174728Y-106469027D01*
X144248766Y-106454300D01*
X144324018Y-106404018D01*
X144374300Y-106328766D01*
X144391957Y-106240000D01*
X144374300Y-106151234D01*
X144324018Y-106075982D01*
X144248766Y-106025700D01*
X144190028Y-106014016D01*
X144160001Y-106008043D01*
X144159999Y-106008043D01*
X144071233Y-106025700D01*
X143995983Y-106075981D01*
X143995981Y-106075983D01*
X143945700Y-106151233D01*
X143941722Y-106171234D01*
X143928043Y-106240000D01*
X141131635Y-106240000D01*
X141107740Y-106224034D01*
X141010000Y-106204592D01*
X140912259Y-106224034D01*
X140829399Y-106279398D01*
X140829398Y-106279399D01*
X140774034Y-106362259D01*
X140754592Y-106460000D01*
X140360000Y-106460000D01*
X140360000Y-103850000D01*
X148808043Y-103850000D01*
X148825700Y-103938766D01*
X148875982Y-104014018D01*
X148951234Y-104064300D01*
X149022342Y-104078444D01*
X149039999Y-104081957D01*
X149040000Y-104081957D01*
X149040001Y-104081957D01*
X149054728Y-104079027D01*
X149128766Y-104064300D01*
X149204018Y-104014018D01*
X149254300Y-103938766D01*
X149271957Y-103850000D01*
X149254300Y-103761234D01*
X149204018Y-103685982D01*
X149128766Y-103635700D01*
X149040001Y-103618043D01*
X149039999Y-103618043D01*
X148951233Y-103635700D01*
X148875983Y-103685981D01*
X148875981Y-103685983D01*
X148825700Y-103761233D01*
X148825700Y-103761234D01*
X148808043Y-103850000D01*
X140360000Y-103850000D01*
X140360000Y-102340000D01*
X140654592Y-102340000D01*
X140674034Y-102437740D01*
X140729399Y-102520601D01*
X140812260Y-102575966D01*
X140910000Y-102595408D01*
X141007740Y-102575966D01*
X141090601Y-102520601D01*
X141145966Y-102437740D01*
X141165408Y-102340000D01*
X141145966Y-102242260D01*
X141090601Y-102159399D01*
X141031635Y-102120000D01*
X143688043Y-102120000D01*
X143705700Y-102208766D01*
X143755982Y-102284018D01*
X143831234Y-102334300D01*
X143902342Y-102348444D01*
X143919999Y-102351957D01*
X143920000Y-102351957D01*
X143920001Y-102351957D01*
X143934728Y-102349027D01*
X144008766Y-102334300D01*
X144084018Y-102284018D01*
X144134300Y-102208766D01*
X144151957Y-102120000D01*
X144134300Y-102031234D01*
X144084018Y-101955982D01*
X144008766Y-101905700D01*
X143920001Y-101888043D01*
X143919999Y-101888043D01*
X143831233Y-101905700D01*
X143755983Y-101955981D01*
X143755981Y-101955983D01*
X143705700Y-102031233D01*
X143699123Y-102064300D01*
X143688043Y-102120000D01*
X141031635Y-102120000D01*
X141007740Y-102104034D01*
X140910000Y-102084592D01*
X140812259Y-102104034D01*
X140729399Y-102159398D01*
X140729398Y-102159399D01*
X140674034Y-102242259D01*
X140674034Y-102242260D01*
X140654592Y-102340000D01*
X140360000Y-102340000D01*
X140360000Y-101850000D01*
X141538043Y-101850000D01*
X141555700Y-101938766D01*
X141605982Y-102014018D01*
X141681234Y-102064300D01*
X141752342Y-102078444D01*
X141769999Y-102081957D01*
X141770000Y-102081957D01*
X141770001Y-102081957D01*
X141784728Y-102079027D01*
X141858766Y-102064300D01*
X141934018Y-102014018D01*
X141984300Y-101938766D01*
X142001957Y-101850000D01*
X141984300Y-101761234D01*
X141934018Y-101685982D01*
X141858766Y-101635700D01*
X141770001Y-101618043D01*
X141769999Y-101618043D01*
X141681233Y-101635700D01*
X141605983Y-101685981D01*
X141605981Y-101685983D01*
X141555700Y-101761233D01*
X141547134Y-101804299D01*
X141538043Y-101850000D01*
X140360000Y-101850000D01*
X140360000Y-101590000D01*
X146688043Y-101590000D01*
X146705700Y-101678766D01*
X146755982Y-101754018D01*
X146831234Y-101804300D01*
X146902342Y-101818444D01*
X146919999Y-101821957D01*
X146920000Y-101821957D01*
X146920001Y-101821957D01*
X146934728Y-101819027D01*
X147008766Y-101804300D01*
X147084018Y-101754018D01*
X147134300Y-101678766D01*
X147151957Y-101590000D01*
X147134300Y-101501234D01*
X147084018Y-101425982D01*
X147008766Y-101375700D01*
X146920001Y-101358043D01*
X146919999Y-101358043D01*
X146831233Y-101375700D01*
X146755983Y-101425981D01*
X146755981Y-101425983D01*
X146705700Y-101501233D01*
X146705700Y-101501234D01*
X146688043Y-101590000D01*
X140360000Y-101590000D01*
X140360000Y-101350000D01*
X148768043Y-101350000D01*
X148785700Y-101438766D01*
X148835982Y-101514018D01*
X148911234Y-101564300D01*
X148982342Y-101578444D01*
X148999999Y-101581957D01*
X149000000Y-101581957D01*
X149000001Y-101581957D01*
X149014728Y-101579027D01*
X149088766Y-101564300D01*
X149164018Y-101514018D01*
X149214300Y-101438766D01*
X149231957Y-101350000D01*
X149214300Y-101261234D01*
X149164018Y-101185982D01*
X149088766Y-101135700D01*
X149000001Y-101118043D01*
X148999999Y-101118043D01*
X148911233Y-101135700D01*
X148835983Y-101185981D01*
X148835981Y-101185983D01*
X148785700Y-101261233D01*
X148777134Y-101304299D01*
X148768043Y-101350000D01*
X140360000Y-101350000D01*
X140360000Y-101090000D01*
X145188043Y-101090000D01*
X145205700Y-101178766D01*
X145255982Y-101254018D01*
X145331234Y-101304300D01*
X145402342Y-101318444D01*
X145419999Y-101321957D01*
X145420000Y-101321957D01*
X145420001Y-101321957D01*
X145434728Y-101319027D01*
X145508766Y-101304300D01*
X145584018Y-101254018D01*
X145634300Y-101178766D01*
X145651957Y-101090000D01*
X146188043Y-101090000D01*
X146205700Y-101178766D01*
X146255982Y-101254018D01*
X146331234Y-101304300D01*
X146402342Y-101318444D01*
X146419999Y-101321957D01*
X146420000Y-101321957D01*
X146420001Y-101321957D01*
X146434728Y-101319027D01*
X146508766Y-101304300D01*
X146584018Y-101254018D01*
X146634300Y-101178766D01*
X146651957Y-101090000D01*
X146634300Y-101001234D01*
X146584018Y-100925982D01*
X146508766Y-100875700D01*
X146420001Y-100858043D01*
X146419999Y-100858043D01*
X146331233Y-100875700D01*
X146255983Y-100925981D01*
X146255981Y-100925983D01*
X146205700Y-101001233D01*
X146205700Y-101001234D01*
X146188043Y-101090000D01*
X145651957Y-101090000D01*
X145634300Y-101001234D01*
X145584018Y-100925982D01*
X145508766Y-100875700D01*
X145420001Y-100858043D01*
X145419999Y-100858043D01*
X145331233Y-100875700D01*
X145255983Y-100925981D01*
X145255981Y-100925983D01*
X145205700Y-101001233D01*
X145205700Y-101001234D01*
X145188043Y-101090000D01*
X140360000Y-101090000D01*
X140360000Y-100580000D01*
X144678043Y-100580000D01*
X144695700Y-100668766D01*
X144745982Y-100744018D01*
X144821234Y-100794300D01*
X144892342Y-100808444D01*
X144909999Y-100811957D01*
X144910000Y-100811957D01*
X144910001Y-100811957D01*
X144924728Y-100809027D01*
X144998766Y-100794300D01*
X145074018Y-100744018D01*
X145124300Y-100668766D01*
X145135990Y-100610000D01*
X146688043Y-100610000D01*
X146705700Y-100698766D01*
X146755982Y-100774018D01*
X146831234Y-100824300D01*
X146902342Y-100838444D01*
X146919999Y-100841957D01*
X146920000Y-100841957D01*
X146920001Y-100841957D01*
X146934728Y-100839027D01*
X147008766Y-100824300D01*
X147084018Y-100774018D01*
X147134300Y-100698766D01*
X147151957Y-100610000D01*
X147134300Y-100521234D01*
X147084018Y-100445982D01*
X147008766Y-100395700D01*
X146920001Y-100378043D01*
X146919999Y-100378043D01*
X146831233Y-100395700D01*
X146755983Y-100445981D01*
X146755981Y-100445983D01*
X146705700Y-100521233D01*
X146694011Y-100579999D01*
X146688043Y-100610000D01*
X145135990Y-100610000D01*
X145141957Y-100580000D01*
X145124300Y-100491234D01*
X145074018Y-100415982D01*
X144998766Y-100365700D01*
X144910001Y-100348043D01*
X144909999Y-100348043D01*
X144821233Y-100365700D01*
X144745983Y-100415981D01*
X144745981Y-100415983D01*
X144695700Y-100491233D01*
X144689733Y-100521234D01*
X144678043Y-100580000D01*
X140360000Y-100580000D01*
X140360000Y-100100000D01*
X147178043Y-100100000D01*
X147195700Y-100188766D01*
X147245982Y-100264018D01*
X147321234Y-100314300D01*
X147392342Y-100328444D01*
X147409999Y-100331957D01*
X147410000Y-100331957D01*
X147410001Y-100331957D01*
X147424728Y-100329027D01*
X147498766Y-100314300D01*
X147574018Y-100264018D01*
X147624300Y-100188766D01*
X147641957Y-100100000D01*
X147624300Y-100011234D01*
X147574018Y-99935982D01*
X147498766Y-99885700D01*
X147410001Y-99868043D01*
X147409999Y-99868043D01*
X147321233Y-99885700D01*
X147245983Y-99935981D01*
X147245981Y-99935983D01*
X147195700Y-100011233D01*
X147195700Y-100011234D01*
X147178043Y-100100000D01*
X140360000Y-100100000D01*
X140360000Y-99350000D01*
X148788043Y-99350000D01*
X148805700Y-99438766D01*
X148855982Y-99514018D01*
X148931234Y-99564300D01*
X149002342Y-99578444D01*
X149019999Y-99581957D01*
X149020000Y-99581957D01*
X149020001Y-99581957D01*
X149034728Y-99579027D01*
X149108766Y-99564300D01*
X149184018Y-99514018D01*
X149234300Y-99438766D01*
X149251957Y-99350000D01*
X149234300Y-99261234D01*
X149184018Y-99185982D01*
X149108766Y-99135700D01*
X149050028Y-99124016D01*
X149020001Y-99118043D01*
X149019999Y-99118043D01*
X148931233Y-99135700D01*
X148855983Y-99185981D01*
X148855981Y-99185983D01*
X148805700Y-99261233D01*
X148805700Y-99261234D01*
X148788043Y-99350000D01*
X140360000Y-99350000D01*
X140360000Y-98920000D01*
X141928043Y-98920000D01*
X141945700Y-99008766D01*
X141995982Y-99084018D01*
X142071234Y-99134300D01*
X142142342Y-99148444D01*
X142159999Y-99151957D01*
X142160000Y-99151957D01*
X142160001Y-99151957D01*
X142174728Y-99149027D01*
X142248766Y-99134300D01*
X142324018Y-99084018D01*
X142374300Y-99008766D01*
X142384000Y-98960000D01*
X144428043Y-98960000D01*
X144445700Y-99048766D01*
X144495982Y-99124018D01*
X144571234Y-99174300D01*
X144642342Y-99188444D01*
X144659999Y-99191957D01*
X144660000Y-99191957D01*
X144660001Y-99191957D01*
X144674728Y-99189027D01*
X144748766Y-99174300D01*
X144824018Y-99124018D01*
X144874300Y-99048766D01*
X144891957Y-98960000D01*
X144885990Y-98930000D01*
X146928043Y-98930000D01*
X146945700Y-99018766D01*
X146995982Y-99094018D01*
X147071234Y-99144300D01*
X147142342Y-99158444D01*
X147159999Y-99161957D01*
X147160000Y-99161957D01*
X147160001Y-99161957D01*
X147174728Y-99159027D01*
X147248766Y-99144300D01*
X147324018Y-99094018D01*
X147374300Y-99018766D01*
X147391957Y-98930000D01*
X147374300Y-98841234D01*
X147324018Y-98765982D01*
X147248766Y-98715700D01*
X147198494Y-98705700D01*
X147160001Y-98698043D01*
X147159999Y-98698043D01*
X147071233Y-98715700D01*
X146995983Y-98765981D01*
X146995981Y-98765983D01*
X146945700Y-98841233D01*
X146939733Y-98871234D01*
X146928043Y-98930000D01*
X144885990Y-98930000D01*
X144874300Y-98871234D01*
X144824018Y-98795982D01*
X144748766Y-98745700D01*
X144660001Y-98728043D01*
X144659999Y-98728043D01*
X144571233Y-98745700D01*
X144495983Y-98795981D01*
X144495981Y-98795983D01*
X144445700Y-98871233D01*
X144434011Y-98929999D01*
X144428043Y-98960000D01*
X142384000Y-98960000D01*
X142391957Y-98920000D01*
X142374300Y-98831234D01*
X142324018Y-98755982D01*
X142248766Y-98705700D01*
X142160001Y-98688043D01*
X142159999Y-98688043D01*
X142071233Y-98705700D01*
X141995983Y-98755981D01*
X141995981Y-98755983D01*
X141945700Y-98831233D01*
X141937744Y-98871233D01*
X141928043Y-98920000D01*
X140360000Y-98920000D01*
X140360000Y-97000244D01*
X140360001Y-96999824D01*
X140369582Y-95313580D01*
X140391553Y-95261378D01*
X140443581Y-95240000D01*
X141480018Y-95240000D01*
X141697861Y-95238088D01*
X142545033Y-95230657D01*
X142597546Y-95251871D01*
G37*
%TD.AperFunction*%
%TD*%
M02*
