%TF.GenerationSoftware,KiCad,Pcbnew,8.0.1*%
%TF.CreationDate,2024-10-17T14:11:07-05:00*%
%TF.ProjectId,sip-board,7369702d-626f-4617-9264-2e6b69636164,rev?*%
%TF.SameCoordinates,Original*%
%TF.FileFunction,Copper,L8,Bot*%
%TF.FilePolarity,Positive*%
%FSLAX46Y46*%
G04 Gerber Fmt 4.6, Leading zero omitted, Abs format (unit mm)*
G04 Created by KiCad (PCBNEW 8.0.1) date 2024-10-17 14:11:07*
%MOMM*%
%LPD*%
G01*
G04 APERTURE LIST*
G04 Aperture macros list*
%AMRoundRect*
0 Rectangle with rounded corners*
0 $1 Rounding radius*
0 $2 $3 $4 $5 $6 $7 $8 $9 X,Y pos of 4 corners*
0 Add a 4 corners polygon primitive as box body*
4,1,4,$2,$3,$4,$5,$6,$7,$8,$9,$2,$3,0*
0 Add four circle primitives for the rounded corners*
1,1,$1+$1,$2,$3*
1,1,$1+$1,$4,$5*
1,1,$1+$1,$6,$7*
1,1,$1+$1,$8,$9*
0 Add four rect primitives between the rounded corners*
20,1,$1+$1,$2,$3,$4,$5,0*
20,1,$1+$1,$4,$5,$6,$7,0*
20,1,$1+$1,$6,$7,$8,$9,0*
20,1,$1+$1,$8,$9,$2,$3,0*%
G04 Aperture macros list end*
%TA.AperFunction,CastellatedPad*%
%ADD10R,1.700000X1.700000*%
%TD*%
%TA.AperFunction,CastellatedPad*%
%ADD11O,1.700000X1.700000*%
%TD*%
%TA.AperFunction,ComponentPad*%
%ADD12R,1.700000X1.700000*%
%TD*%
%TA.AperFunction,ComponentPad*%
%ADD13O,1.700000X1.700000*%
%TD*%
%TA.AperFunction,SMDPad,CuDef*%
%ADD14RoundRect,0.100000X-0.100000X0.130000X-0.100000X-0.130000X0.100000X-0.130000X0.100000X0.130000X0*%
%TD*%
%TA.AperFunction,SMDPad,CuDef*%
%ADD15RoundRect,0.100000X0.100000X-0.130000X0.100000X0.130000X-0.100000X0.130000X-0.100000X-0.130000X0*%
%TD*%
%TA.AperFunction,SMDPad,CuDef*%
%ADD16RoundRect,0.100000X-0.130000X-0.100000X0.130000X-0.100000X0.130000X0.100000X-0.130000X0.100000X0*%
%TD*%
%TA.AperFunction,SMDPad,CuDef*%
%ADD17RoundRect,0.100000X0.130000X0.100000X-0.130000X0.100000X-0.130000X-0.100000X0.130000X-0.100000X0*%
%TD*%
%TA.AperFunction,SMDPad,CuDef*%
%ADD18R,0.500000X0.200000*%
%TD*%
%TA.AperFunction,SMDPad,CuDef*%
%ADD19R,0.199200X0.303200*%
%TD*%
%TA.AperFunction,SMDPad,CuDef*%
%ADD20R,0.252400X0.500000*%
%TD*%
%TA.AperFunction,SMDPad,CuDef*%
%ADD21RoundRect,0.150000X0.825000X0.150000X-0.825000X0.150000X-0.825000X-0.150000X0.825000X-0.150000X0*%
%TD*%
%TA.AperFunction,ViaPad*%
%ADD22C,0.254000*%
%TD*%
%TA.AperFunction,ViaPad*%
%ADD23C,0.300000*%
%TD*%
%TA.AperFunction,Conductor*%
%ADD24C,0.100000*%
%TD*%
%TA.AperFunction,Conductor*%
%ADD25C,0.300000*%
%TD*%
G04 APERTURE END LIST*
D10*
%TO.P,J5,1,Pin_1*%
%TO.N,A1_5V*%
X153970000Y-104800000D03*
D11*
%TO.P,J5,2,Pin_2*%
%TO.N,A2_5V*%
X153970000Y-107340000D03*
%TO.P,J5,3,Pin_3*%
%TO.N,A3_5V*%
X153970000Y-109880000D03*
%TO.P,J5,4,Pin_4*%
%TO.N,A4_5V*%
X153970000Y-112420000D03*
%TO.P,J5,5,Pin_5*%
%TO.N,A5_5V*%
X153970000Y-114960000D03*
%TO.P,J5,6,Pin_6*%
%TO.N,A6_5V*%
X153970000Y-117500000D03*
%TO.P,J5,7,Pin_7*%
%TO.N,A7_5V*%
X153970000Y-120040000D03*
%TO.P,J5,8,Pin_8*%
%TO.N,A8_5V*%
X153970000Y-122580000D03*
%TO.P,J5,9,Pin_9*%
%TO.N,A9_5V*%
X153970000Y-125120000D03*
%TO.P,J5,10,Pin_10*%
%TO.N,A10_5V*%
X153970000Y-127660000D03*
%TD*%
D10*
%TO.P,J3,1,Pin_1*%
%TO.N,+5V*%
X137000000Y-104840000D03*
D11*
%TO.P,J3,2,Pin_2*%
%TO.N,D2_5V*%
X137000000Y-107380000D03*
%TO.P,J3,3,Pin_3*%
%TO.N,D7_5V*%
X137000000Y-109920000D03*
%TO.P,J3,4,Pin_4*%
%TO.N,D0_5V*%
X137000000Y-112460000D03*
%TO.P,J3,5,Pin_5*%
%TO.N,D1_5V*%
X137000000Y-115000000D03*
%TO.P,J3,6,Pin_6*%
%TO.N,INT_5V*%
X137000000Y-117540000D03*
%TO.P,J3,7,Pin_7*%
%TO.N,NMI_5V*%
X137000000Y-120080000D03*
%TO.P,J3,8,Pin_8*%
%TO.N,HALT_5V*%
X137000000Y-122620000D03*
%TO.P,J3,9,Pin_9*%
%TO.N,MREQ_5V*%
X137000000Y-125160000D03*
%TO.P,J3,10,Pin_10*%
%TO.N,IORQ_5V*%
X137000000Y-127700000D03*
%TD*%
D10*
%TO.P,J2,1,Pin_1*%
%TO.N,A11_5V*%
X137000000Y-79405000D03*
D11*
%TO.P,J2,2,Pin_2*%
%TO.N,A12_5V*%
X137000000Y-81945000D03*
%TO.P,J2,3,Pin_3*%
%TO.N,A13_5V*%
X137000000Y-84485000D03*
%TO.P,J2,4,Pin_4*%
%TO.N,A14_5V*%
X137000000Y-87025000D03*
%TO.P,J2,5,Pin_5*%
%TO.N,A15_5V*%
X137000000Y-89565000D03*
%TO.P,J2,6,Pin_6*%
%TO.N,CLK_5V*%
X137000000Y-92105000D03*
%TO.P,J2,7,Pin_7*%
%TO.N,D4_5V*%
X137000000Y-94645000D03*
%TO.P,J2,8,Pin_8*%
%TO.N,D3_5V*%
X137000000Y-97185000D03*
%TO.P,J2,9,Pin_9*%
%TO.N,D5_5V*%
X137000000Y-99725000D03*
%TO.P,J2,10,Pin_10*%
%TO.N,D6_5V*%
X137000000Y-102265000D03*
%TD*%
D12*
%TO.P,J4,1,Pin_1*%
%TO.N,RD_5V*%
X153940000Y-79400000D03*
D13*
%TO.P,J4,2,Pin_2*%
%TO.N,WR_5V*%
X153940000Y-81940000D03*
%TO.P,J4,3,Pin_3*%
%TO.N,BUSAK_5V*%
X153940000Y-84480000D03*
%TO.P,J4,4,Pin_4*%
%TO.N,WAIT_5V*%
X153940000Y-87020000D03*
%TO.P,J4,5,Pin_5*%
%TO.N,BUSRQ_5V*%
X153940000Y-89560000D03*
%TO.P,J4,6,Pin_6*%
%TO.N,RESET_5V*%
X153940000Y-92100000D03*
%TO.P,J4,7,Pin_7*%
%TO.N,M1_5V*%
X153940000Y-94640000D03*
%TO.P,J4,8,Pin_8*%
%TO.N,RFSH_5V*%
X153940000Y-97180000D03*
%TO.P,J4,9,Pin_9*%
%TO.N,GND*%
X153940000Y-99720000D03*
%TO.P,J4,10,Pin_10*%
%TO.N,A0_5V*%
X153940000Y-102260000D03*
%TD*%
D14*
%TO.P,R13,1*%
%TO.N,+3V3*%
X151390000Y-120415000D03*
%TO.P,R13,2*%
%TO.N,Net-(U14-OE)*%
X151390000Y-121055000D03*
%TD*%
D15*
%TO.P,R4,1*%
%TO.N,+3V3*%
X139990000Y-86035000D03*
%TO.P,R4,2*%
%TO.N,Net-(U5-OE)*%
X139990000Y-85395000D03*
%TD*%
D16*
%TO.P,C21,1*%
%TO.N,+3V3*%
X147710000Y-100820000D03*
%TO.P,C21,2*%
%TO.N,GND*%
X148350000Y-100820000D03*
%TD*%
D15*
%TO.P,R7,1*%
%TO.N,+3V3*%
X139530000Y-116050000D03*
%TO.P,R7,2*%
%TO.N,Net-(U8-OE)*%
X139530000Y-115410000D03*
%TD*%
D17*
%TO.P,C32,1*%
%TO.N,+3V3*%
X143050000Y-101560000D03*
%TO.P,C32,2*%
%TO.N,GND*%
X142410000Y-101560000D03*
%TD*%
D14*
%TO.P,C9,1*%
%TO.N,+1V0*%
X144640000Y-102920000D03*
%TO.P,C9,2*%
%TO.N,GND*%
X144640000Y-103560000D03*
%TD*%
D17*
%TO.P,C8,1*%
%TO.N,+3V3*%
X144065000Y-104570000D03*
%TO.P,C8,2*%
%TO.N,GND*%
X143425000Y-104570000D03*
%TD*%
D18*
%TO.P,U11,1,VCC_A*%
%TO.N,+3V3*%
X150117000Y-94185400D03*
D19*
X150267400Y-94237000D03*
D18*
%TO.P,U11,2,A1*%
%TO.N,BUSRQ_FPGA*%
X150117000Y-93779000D03*
%TO.P,U11,3,A2*%
%TO.N,RESET_FPGA*%
X150117000Y-93372600D03*
%TO.P,U11,4,A3*%
%TO.N,M1_FPGA*%
X150117000Y-92966200D03*
%TO.P,U11,5,A4*%
%TO.N,RFSH_FPGA*%
X150117000Y-92559800D03*
D20*
%TO.P,U11,6,GND*%
%TO.N,GND*%
X150750800Y-92610600D03*
D18*
%TO.P,U11,7,OE*%
%TO.N,Net-(U11-OE)*%
X151334200Y-92559800D03*
%TO.P,U11,8,B4*%
%TO.N,RFSH_5V*%
X151334200Y-92966200D03*
%TO.P,U11,9,B3*%
%TO.N,M1_5V*%
X151334200Y-93372600D03*
%TO.P,U11,10,B2*%
%TO.N,RESET_5V*%
X151334200Y-93779000D03*
%TO.P,U11,11,B1*%
%TO.N,BUSRQ_5V*%
X151334200Y-94185400D03*
D20*
%TO.P,U11,12,VCC_B*%
%TO.N,+5V*%
X150750000Y-94160000D03*
%TD*%
D16*
%TO.P,C13,1*%
%TO.N,+3V3*%
X146050000Y-107070000D03*
%TO.P,C13,2*%
%TO.N,GND*%
X146690000Y-107070000D03*
%TD*%
D18*
%TO.P,U12,1,VCC_A*%
%TO.N,+3V3*%
X150033550Y-105838200D03*
D19*
X150183950Y-105889800D03*
D18*
%TO.P,U12,2,A1*%
%TO.N,unconnected-(U12-A1-Pad2)*%
X150033550Y-105431800D03*
%TO.P,U12,3,A2*%
%TO.N,A0_FPGA*%
X150033550Y-105025400D03*
%TO.P,U12,4,A3*%
%TO.N,A1_FPGA*%
X150033550Y-104619000D03*
%TO.P,U12,5,A4*%
%TO.N,A2_FPGA*%
X150033550Y-104212600D03*
D20*
%TO.P,U12,6,GND*%
%TO.N,GND*%
X150667350Y-104263400D03*
D18*
%TO.P,U12,7,OE*%
%TO.N,Net-(U12-OE)*%
X151250750Y-104212600D03*
%TO.P,U12,8,B4*%
%TO.N,A2_5V*%
X151250750Y-104619000D03*
%TO.P,U12,9,B3*%
%TO.N,A1_5V*%
X151250750Y-105025400D03*
%TO.P,U12,10,B2*%
%TO.N,A0_5V*%
X151250750Y-105431800D03*
%TO.P,U12,11,B1*%
%TO.N,unconnected-(U12-B1-Pad11)*%
X151250750Y-105838200D03*
D20*
%TO.P,U12,12,VCC_B*%
%TO.N,+5V*%
X150666550Y-105812800D03*
%TD*%
D17*
%TO.P,C7,1*%
%TO.N,+3V3*%
X144050000Y-105350000D03*
%TO.P,C7,2*%
%TO.N,GND*%
X143410000Y-105350000D03*
%TD*%
D18*
%TO.P,U6,1,VCC_A*%
%TO.N,+3V3*%
X140516450Y-93121800D03*
D19*
X140366050Y-93070200D03*
D18*
%TO.P,U6,2,A1*%
%TO.N,A15_FPGA*%
X140516450Y-93528200D03*
%TO.P,U6,3,A2*%
%TO.N,CLK*%
X140516450Y-93934600D03*
%TO.P,U6,4,A3*%
%TO.N,D4_FPGA*%
X140516450Y-94341000D03*
%TO.P,U6,5,A4*%
%TO.N,D3_FPGA*%
X140516450Y-94747400D03*
D20*
%TO.P,U6,6,GND*%
%TO.N,GND*%
X139882650Y-94696600D03*
D18*
%TO.P,U6,7,OE*%
%TO.N,Net-(U6-OE)*%
X139299250Y-94747400D03*
%TO.P,U6,8,B4*%
%TO.N,D3_5V*%
X139299250Y-94341000D03*
%TO.P,U6,9,B3*%
%TO.N,D4_5V*%
X139299250Y-93934600D03*
%TO.P,U6,10,B2*%
%TO.N,CLK_5V*%
X139299250Y-93528200D03*
%TO.P,U6,11,B1*%
%TO.N,A15_5V*%
X139299250Y-93121800D03*
D20*
%TO.P,U6,12,VCC_B*%
%TO.N,+5V*%
X139883450Y-93147200D03*
%TD*%
D15*
%TO.P,C25,1*%
%TO.N,+3V3*%
X146770000Y-100020000D03*
%TO.P,C25,2*%
%TO.N,GND*%
X146770000Y-99380000D03*
%TD*%
D16*
%TO.P,C20,1*%
%TO.N,+3V3*%
X147710000Y-101590000D03*
%TO.P,C20,2*%
%TO.N,GND*%
X148350000Y-101590000D03*
%TD*%
D14*
%TO.P,C14,1*%
%TO.N,+1V0*%
X140930000Y-97080000D03*
%TO.P,C14,2*%
%TO.N,GND*%
X140930000Y-97720000D03*
%TD*%
D18*
%TO.P,U7,1,VCC_A*%
%TO.N,+3V3*%
X140910000Y-103074400D03*
D19*
X140759600Y-103022800D03*
D18*
%TO.P,U7,2,A1*%
%TO.N,D5_FPGA*%
X140910000Y-103480800D03*
%TO.P,U7,3,A2*%
%TO.N,D6_FPGA*%
X140910000Y-103887200D03*
%TO.P,U7,4,A3*%
%TO.N,unconnected-(U7-A3-Pad4)*%
X140910000Y-104293600D03*
%TO.P,U7,5,A4*%
%TO.N,D2_FPGA*%
X140910000Y-104700000D03*
D20*
%TO.P,U7,6,GND*%
%TO.N,GND*%
X140276200Y-104649200D03*
D18*
%TO.P,U7,7,OE*%
%TO.N,Net-(U7-OE)*%
X139692800Y-104700000D03*
%TO.P,U7,8,B4*%
%TO.N,D2_5V*%
X139692800Y-104293600D03*
%TO.P,U7,9,B3*%
%TO.N,unconnected-(U7-B3-Pad9)*%
X139692800Y-103887200D03*
%TO.P,U7,10,B2*%
%TO.N,D6_5V*%
X139692800Y-103480800D03*
%TO.P,U7,11,B1*%
%TO.N,D5_5V*%
X139692800Y-103074400D03*
D20*
%TO.P,U7,12,VCC_B*%
%TO.N,+5V*%
X140277000Y-103099800D03*
%TD*%
D14*
%TO.P,C34,1*%
%TO.N,+3V3*%
X146680000Y-104680000D03*
%TO.P,C34,2*%
%TO.N,GND*%
X146680000Y-105320000D03*
%TD*%
D21*
%TO.P,U4,1,~{S}*%
%TO.N,CS*%
X147165000Y-88490000D03*
%TO.P,U4,2,Q*%
%TO.N,DIN*%
X147165000Y-89760000D03*
%TO.P,U4,3,~{W}*%
%TO.N,+3V3*%
X147165000Y-91030000D03*
%TO.P,U4,4,VSS*%
%TO.N,GND*%
X147165000Y-92300000D03*
%TO.P,U4,5,D*%
%TO.N,MOSI*%
X142215000Y-92300000D03*
%TO.P,U4,6,C*%
%TO.N,CCLK*%
X142215000Y-91030000D03*
%TO.P,U4,7,~{HOLD}*%
%TO.N,+3V3*%
X142215000Y-89760000D03*
%TO.P,U4,8,VCC*%
X142215000Y-88490000D03*
%TD*%
D15*
%TO.P,R6,1*%
%TO.N,+3V3*%
X139700000Y-106250000D03*
%TO.P,R6,2*%
%TO.N,Net-(U7-OE)*%
X139700000Y-105610000D03*
%TD*%
D18*
%TO.P,U13,1,VCC_A*%
%TO.N,+3V3*%
X150183550Y-114108200D03*
D19*
X150333950Y-114159800D03*
D18*
%TO.P,U13,2,A1*%
%TO.N,A3_FPGA*%
X150183550Y-113701800D03*
%TO.P,U13,3,A2*%
%TO.N,A4_FPGA*%
X150183550Y-113295400D03*
%TO.P,U13,4,A3*%
%TO.N,A5_FPGA*%
X150183550Y-112889000D03*
%TO.P,U13,5,A4*%
%TO.N,A6_FPGA*%
X150183550Y-112482600D03*
D20*
%TO.P,U13,6,GND*%
%TO.N,GND*%
X150817350Y-112533400D03*
D18*
%TO.P,U13,7,OE*%
%TO.N,Net-(U13-OE)*%
X151400750Y-112482600D03*
%TO.P,U13,8,B4*%
%TO.N,A6_5V*%
X151400750Y-112889000D03*
%TO.P,U13,9,B3*%
%TO.N,A5_5V*%
X151400750Y-113295400D03*
%TO.P,U13,10,B2*%
%TO.N,A4_5V*%
X151400750Y-113701800D03*
%TO.P,U13,11,B1*%
%TO.N,A3_5V*%
X151400750Y-114108200D03*
D20*
%TO.P,U13,12,VCC_B*%
%TO.N,+5V*%
X150816550Y-114082800D03*
%TD*%
D18*
%TO.P,U9,1,VCC_A*%
%TO.N,+3V3*%
X140666450Y-123661800D03*
D19*
X140516050Y-123610200D03*
D18*
%TO.P,U9,2,A1*%
%TO.N,NMI_FPGA*%
X140666450Y-124068200D03*
%TO.P,U9,3,A2*%
%TO.N,HALT_FPGA*%
X140666450Y-124474600D03*
%TO.P,U9,4,A3*%
%TO.N,MREQ_FPGA*%
X140666450Y-124881000D03*
%TO.P,U9,5,A4*%
%TO.N,IORQ_FPGA*%
X140666450Y-125287400D03*
D20*
%TO.P,U9,6,GND*%
%TO.N,GND*%
X140032650Y-125236600D03*
D18*
%TO.P,U9,7,OE*%
%TO.N,Net-(U9-OE)*%
X139449250Y-125287400D03*
%TO.P,U9,8,B4*%
%TO.N,IORQ_5V*%
X139449250Y-124881000D03*
%TO.P,U9,9,B3*%
%TO.N,MREQ_5V*%
X139449250Y-124474600D03*
%TO.P,U9,10,B2*%
%TO.N,HALT_5V*%
X139449250Y-124068200D03*
%TO.P,U9,11,B1*%
%TO.N,NMI_5V*%
X139449250Y-123661800D03*
D20*
%TO.P,U9,12,VCC_B*%
%TO.N,+5V*%
X140033450Y-123687200D03*
%TD*%
D18*
%TO.P,U10,1,VCC_A*%
%TO.N,+3V3*%
X149793550Y-83098200D03*
D19*
X149943950Y-83149800D03*
D18*
%TO.P,U10,2,A1*%
%TO.N,RD_FPGA*%
X149793550Y-82691800D03*
%TO.P,U10,3,A2*%
%TO.N,WR_FPGA*%
X149793550Y-82285400D03*
%TO.P,U10,4,A3*%
%TO.N,BUSAK_FPGA*%
X149793550Y-81879000D03*
%TO.P,U10,5,A4*%
%TO.N,WAIT_FPGA*%
X149793550Y-81472600D03*
D20*
%TO.P,U10,6,GND*%
%TO.N,GND*%
X150427350Y-81523400D03*
D18*
%TO.P,U10,7,OE*%
%TO.N,Net-(U10-OE)*%
X151010750Y-81472600D03*
%TO.P,U10,8,B4*%
%TO.N,WAIT_5V*%
X151010750Y-81879000D03*
%TO.P,U10,9,B3*%
%TO.N,BUSAK_5V*%
X151010750Y-82285400D03*
%TO.P,U10,10,B2*%
%TO.N,WR_5V*%
X151010750Y-82691800D03*
%TO.P,U10,11,B1*%
%TO.N,RD_5V*%
X151010750Y-83098200D03*
D20*
%TO.P,U10,12,VCC_B*%
%TO.N,+5V*%
X150426550Y-83072800D03*
%TD*%
D18*
%TO.P,U5,1,VCC_A*%
%TO.N,+3V3*%
X141180800Y-83125600D03*
D19*
X141030400Y-83074000D03*
D18*
%TO.P,U5,2,A1*%
%TO.N,A11_FPGA*%
X141180800Y-83532000D03*
%TO.P,U5,3,A2*%
%TO.N,A12_FPGA*%
X141180800Y-83938400D03*
%TO.P,U5,4,A3*%
%TO.N,A13_FPGA*%
X141180800Y-84344800D03*
%TO.P,U5,5,A4*%
%TO.N,A14_FPGA*%
X141180800Y-84751200D03*
D20*
%TO.P,U5,6,GND*%
%TO.N,GND*%
X140547000Y-84700400D03*
D18*
%TO.P,U5,7,OE*%
%TO.N,Net-(U5-OE)*%
X139963600Y-84751200D03*
%TO.P,U5,8,B4*%
%TO.N,A14_5V*%
X139963600Y-84344800D03*
%TO.P,U5,9,B3*%
%TO.N,A13_5V*%
X139963600Y-83938400D03*
%TO.P,U5,10,B2*%
%TO.N,A12_5V*%
X139963600Y-83532000D03*
%TO.P,U5,11,B1*%
%TO.N,A11_5V*%
X139963600Y-83125600D03*
D20*
%TO.P,U5,12,VCC_B*%
%TO.N,+5V*%
X140547800Y-83151000D03*
%TD*%
D14*
%TO.P,R9,1*%
%TO.N,+3V3*%
X151070000Y-79645000D03*
%TO.P,R9,2*%
%TO.N,Net-(U10-OE)*%
X151070000Y-80285000D03*
%TD*%
%TO.P,R10,1*%
%TO.N,+3V3*%
X151350000Y-90265000D03*
%TO.P,R10,2*%
%TO.N,Net-(U11-OE)*%
X151350000Y-90905000D03*
%TD*%
D17*
%TO.P,C10,1*%
%TO.N,+3V3*%
X144550000Y-107070000D03*
%TO.P,C10,2*%
%TO.N,GND*%
X143910000Y-107070000D03*
%TD*%
%TO.P,C28,1*%
%TO.N,+1V8*%
X143620000Y-99840000D03*
%TO.P,C28,2*%
%TO.N,GND*%
X142980000Y-99840000D03*
%TD*%
D18*
%TO.P,U8,1,VCC_A*%
%TO.N,+3V3*%
X140746450Y-112841800D03*
D19*
X140596050Y-112790200D03*
D18*
%TO.P,U8,2,A1*%
%TO.N,D7_FPGA*%
X140746450Y-113248200D03*
%TO.P,U8,3,A2*%
%TO.N,D0_FPGA*%
X140746450Y-113654600D03*
%TO.P,U8,4,A3*%
%TO.N,D1_FPGA*%
X140746450Y-114061000D03*
%TO.P,U8,5,A4*%
%TO.N,INT_FPGA*%
X140746450Y-114467400D03*
D20*
%TO.P,U8,6,GND*%
%TO.N,GND*%
X140112650Y-114416600D03*
D18*
%TO.P,U8,7,OE*%
%TO.N,Net-(U8-OE)*%
X139529250Y-114467400D03*
%TO.P,U8,8,B4*%
%TO.N,INT_5V*%
X139529250Y-114061000D03*
%TO.P,U8,9,B3*%
%TO.N,D1_5V*%
X139529250Y-113654600D03*
%TO.P,U8,10,B2*%
%TO.N,D0_5V*%
X139529250Y-113248200D03*
%TO.P,U8,11,B1*%
%TO.N,D7_5V*%
X139529250Y-112841800D03*
D20*
%TO.P,U8,12,VCC_B*%
%TO.N,+5V*%
X140113450Y-112867200D03*
%TD*%
D17*
%TO.P,C30,1*%
%TO.N,+1V8*%
X143620000Y-99040000D03*
%TO.P,C30,2*%
%TO.N,GND*%
X142980000Y-99040000D03*
%TD*%
D15*
%TO.P,R8,1*%
%TO.N,+3V3*%
X139480000Y-127220000D03*
%TO.P,R8,2*%
%TO.N,Net-(U9-OE)*%
X139480000Y-126580000D03*
%TD*%
D18*
%TO.P,U14,1,VCC_A*%
%TO.N,+3V3*%
X150183550Y-124268200D03*
D19*
X150333950Y-124319800D03*
D18*
%TO.P,U14,2,A1*%
%TO.N,A7_FPGA*%
X150183550Y-123861800D03*
%TO.P,U14,3,A2*%
%TO.N,A8_FPGA*%
X150183550Y-123455400D03*
%TO.P,U14,4,A3*%
%TO.N,A9_FPGA*%
X150183550Y-123049000D03*
%TO.P,U14,5,A4*%
%TO.N,A10_FPGA*%
X150183550Y-122642600D03*
D20*
%TO.P,U14,6,GND*%
%TO.N,GND*%
X150817350Y-122693400D03*
D18*
%TO.P,U14,7,OE*%
%TO.N,Net-(U14-OE)*%
X151400750Y-122642600D03*
%TO.P,U14,8,B4*%
%TO.N,A10_5V*%
X151400750Y-123049000D03*
%TO.P,U14,9,B3*%
%TO.N,A9_5V*%
X151400750Y-123455400D03*
%TO.P,U14,10,B2*%
%TO.N,A8_5V*%
X151400750Y-123861800D03*
%TO.P,U14,11,B1*%
%TO.N,A7_5V*%
X151400750Y-124268200D03*
D20*
%TO.P,U14,12,VCC_B*%
%TO.N,+5V*%
X150816550Y-124242800D03*
%TD*%
D17*
%TO.P,C31,1*%
%TO.N,+3V3*%
X143045000Y-102350000D03*
%TO.P,C31,2*%
%TO.N,GND*%
X142405000Y-102350000D03*
%TD*%
D15*
%TO.P,R5,1*%
%TO.N,+3V3*%
X139300000Y-96125000D03*
%TO.P,R5,2*%
%TO.N,Net-(U6-OE)*%
X139300000Y-95485000D03*
%TD*%
D16*
%TO.P,C24,1*%
%TO.N,+1V8*%
X145225000Y-97460000D03*
%TO.P,C24,2*%
%TO.N,GND*%
X145865000Y-97460000D03*
%TD*%
D14*
%TO.P,R11,1*%
%TO.N,+3V3*%
X151280000Y-102265000D03*
%TO.P,R11,2*%
%TO.N,Net-(U12-OE)*%
X151280000Y-102905000D03*
%TD*%
D16*
%TO.P,C12,1*%
%TO.N,+1V0*%
X146800000Y-102350000D03*
%TO.P,C12,2*%
%TO.N,GND*%
X147440000Y-102350000D03*
%TD*%
%TO.P,C22,1*%
%TO.N,+3V3*%
X147720000Y-100030000D03*
%TO.P,C22,2*%
%TO.N,GND*%
X148360000Y-100030000D03*
%TD*%
D14*
%TO.P,C15,1*%
%TO.N,+3V3*%
X147600000Y-104680000D03*
%TO.P,C15,2*%
%TO.N,GND*%
X147600000Y-105320000D03*
%TD*%
D17*
%TO.P,C33,1*%
%TO.N,+3V3*%
X143050000Y-100780000D03*
%TO.P,C33,2*%
%TO.N,GND*%
X142410000Y-100780000D03*
%TD*%
%TO.P,C35,1*%
%TO.N,+3V3*%
X147420000Y-98050000D03*
%TO.P,C35,2*%
%TO.N,GND*%
X146780000Y-98050000D03*
%TD*%
D16*
%TO.P,C23,1*%
%TO.N,+3V3*%
X145040000Y-105370000D03*
%TO.P,C23,2*%
%TO.N,GND*%
X145680000Y-105370000D03*
%TD*%
D14*
%TO.P,R12,1*%
%TO.N,+3V3*%
X151390000Y-110050000D03*
%TO.P,R12,2*%
%TO.N,Net-(U13-OE)*%
X151390000Y-110690000D03*
%TD*%
D22*
%TO.N,+1V0*%
X146400000Y-102110000D03*
X144920000Y-102590000D03*
X141440000Y-97080000D03*
%TO.N,GND*%
X150400000Y-106500000D03*
X150530000Y-95300000D03*
X146760000Y-114750000D03*
X141770000Y-101850000D03*
X147160000Y-98930000D03*
X149060000Y-105850000D03*
X142160000Y-98920000D03*
X149040000Y-103850000D03*
D23*
X148690000Y-87960000D03*
D22*
X149240000Y-114750000D03*
X141770000Y-104350000D03*
D23*
X137750000Y-88290000D03*
D22*
X144160000Y-106240000D03*
D23*
X147880000Y-82870000D03*
X148690000Y-89720000D03*
D22*
X149920000Y-111060000D03*
D23*
X152400000Y-83570000D03*
D22*
X144660000Y-98960000D03*
X140700000Y-85980000D03*
D23*
X137670000Y-90870000D03*
D22*
X141770000Y-105850000D03*
X146740000Y-94550000D03*
X145160000Y-106240000D03*
X144130000Y-114750000D03*
X143040000Y-94560000D03*
X149020000Y-99350000D03*
X149000000Y-101350000D03*
X146160000Y-106230000D03*
D23*
X151140000Y-86450000D03*
%TO.N,+5V*%
X139220000Y-90330000D03*
X138940000Y-101250000D03*
X150760000Y-94720000D03*
X142800000Y-81870000D03*
X150090000Y-125500000D03*
X139590000Y-122720000D03*
X150830000Y-114740000D03*
X139590000Y-111660000D03*
X149300000Y-110440000D03*
X150430000Y-83100000D03*
D22*
%TO.N,+1V8*%
X144910000Y-100580000D03*
%TO.N,MOSI*%
X145410000Y-104600000D03*
X150150000Y-83680000D03*
X149960000Y-101600000D03*
%TO.N,DIN*%
X147165000Y-89760000D03*
%TO.N,CS*%
X151100000Y-87050000D03*
%TO.N,CCLK*%
X144150000Y-91030000D03*
D23*
%TO.N,WAIT_5V*%
X151830000Y-81760000D03*
%TO.N,RFSH_5V*%
X152110000Y-93040000D03*
%TO.N,BUSAK_5V*%
X152370000Y-81790000D03*
%TO.N,RD_5V*%
X152670000Y-82820000D03*
%TO.N,M1_5V*%
X152470000Y-93450000D03*
%TO.N,BUSRQ_5V*%
X152740000Y-94150000D03*
%TO.N,A2_5V*%
X152257022Y-104550000D03*
%TO.N,A10_5V*%
X152160000Y-122810000D03*
%TO.N,A3_5V*%
X152880000Y-113960000D03*
%TO.N,A6_5V*%
X152000000Y-112970000D03*
%TO.N,A9_5V*%
X152420000Y-123260000D03*
%TO.N,A5_5V*%
X152420000Y-113230000D03*
%TO.N,A1_5V*%
X151930000Y-105020000D03*
%TO.N,A7_5V*%
X152670000Y-123990000D03*
D22*
%TO.N,+3V3*%
X143920000Y-102120000D03*
X146920000Y-101590000D03*
D23*
X149760000Y-106470000D03*
D22*
X145660000Y-106260000D03*
X144410000Y-105100000D03*
X148380000Y-97550000D03*
D23*
X141010000Y-106460000D03*
X139470000Y-128130000D03*
X149410000Y-79090000D03*
X140530000Y-116070000D03*
X140660000Y-91640000D03*
D22*
X145250000Y-91020000D03*
D23*
X140240000Y-111370000D03*
X148900000Y-86210000D03*
X141800000Y-83130000D03*
X151390000Y-109400000D03*
X151060000Y-95700000D03*
X151590000Y-101730000D03*
D22*
X144350000Y-88480000D03*
D23*
X150090000Y-125010000D03*
X151000000Y-119670000D03*
X139520000Y-96990000D03*
X140280000Y-122250000D03*
X140910000Y-102340000D03*
X151800000Y-89520000D03*
X150840000Y-115670000D03*
X139390000Y-86030000D03*
%TD*%
D24*
%TO.N,+1V0*%
X144640000Y-102870000D02*
X144920000Y-102590000D01*
X144640000Y-102920000D02*
X144640000Y-102870000D01*
X146400000Y-102110000D02*
X146560000Y-102110000D01*
X140930000Y-97080000D02*
X141440000Y-97080000D01*
X146560000Y-102110000D02*
X146800000Y-102350000D01*
%TO.N,GND*%
X147600000Y-105320000D02*
X148530000Y-105320000D01*
X148530000Y-105320000D02*
X149060000Y-105850000D01*
%TO.N,+5V*%
X140113450Y-112183450D02*
X139590000Y-111660000D01*
X139883450Y-93147200D02*
X139883450Y-90993450D01*
X141240000Y-81870000D02*
X142800000Y-81870000D01*
X140033450Y-123163450D02*
X139590000Y-122720000D01*
X150750000Y-94160000D02*
X150750000Y-94710000D01*
X150666550Y-109073450D02*
X149300000Y-110440000D01*
X150666550Y-105812800D02*
X150666550Y-109073450D01*
X150750000Y-94710000D02*
X150760000Y-94720000D01*
X140113450Y-112867200D02*
X140113450Y-112183450D01*
X140547800Y-83151000D02*
X140547800Y-82562200D01*
X140547800Y-82562200D02*
X141240000Y-81870000D01*
X140277000Y-102587000D02*
X138940000Y-101250000D01*
X150426550Y-83096550D02*
X150430000Y-83100000D01*
X140277000Y-103099800D02*
X140277000Y-102587000D01*
X150816550Y-124773450D02*
X150090000Y-125500000D01*
X150816550Y-124242800D02*
X150816550Y-124773450D01*
X150426550Y-83072800D02*
X150426550Y-83096550D01*
X140033450Y-123687200D02*
X140033450Y-123163450D01*
X139883450Y-90993450D02*
X139220000Y-90330000D01*
X150816550Y-114726550D02*
X150830000Y-114740000D01*
X150816550Y-114082800D02*
X150816550Y-114726550D01*
%TO.N,+1V8*%
X143620000Y-99840000D02*
X143620000Y-99040000D01*
X144910000Y-100580000D02*
X144170000Y-99840000D01*
X144170000Y-99840000D02*
X143620000Y-99840000D01*
X145225000Y-97460000D02*
X145200000Y-97460000D01*
X145200000Y-97460000D02*
X143620000Y-99040000D01*
%TO.N,MOSI*%
X146980000Y-103030000D02*
X149760000Y-103030000D01*
X152930000Y-86860000D02*
X152930000Y-84920000D01*
X149960000Y-102830000D02*
X149960000Y-102140000D01*
X148070000Y-91720000D02*
X152930000Y-86860000D01*
X149760000Y-103030000D02*
X149960000Y-102830000D01*
X152930000Y-84920000D02*
X151690000Y-83680000D01*
X142795000Y-91720000D02*
X148070000Y-91720000D01*
X149960000Y-102140000D02*
X149960000Y-101600000D01*
X145410000Y-104600000D02*
X146980000Y-103030000D01*
X151690000Y-83680000D02*
X150150000Y-83680000D01*
X142215000Y-92300000D02*
X142795000Y-91720000D01*
%TO.N,CS*%
X147165000Y-88490000D02*
X149660000Y-88490000D01*
X149660000Y-88490000D02*
X151100000Y-87050000D01*
%TO.N,CCLK*%
X142215000Y-91030000D02*
X144150000Y-91030000D01*
%TO.N,A12_5V*%
X139963600Y-83532000D02*
X138587000Y-83532000D01*
X138587000Y-83532000D02*
X137000000Y-81945000D01*
%TO.N,A15_5V*%
X139299250Y-93121800D02*
X139299250Y-91864250D01*
X139299250Y-91864250D02*
X137000000Y-89565000D01*
%TO.N,A11_5V*%
X139963600Y-83125600D02*
X139963600Y-82368600D01*
X139963600Y-82368600D02*
X137000000Y-79405000D01*
%TO.N,D5_5V*%
X139692800Y-103074400D02*
X139692800Y-102367800D01*
X139692800Y-102367800D02*
X137050000Y-99725000D01*
%TO.N,D6_5V*%
X138215800Y-103480800D02*
X139692800Y-103480800D01*
X137000000Y-102265000D02*
X138215800Y-103480800D01*
%TO.N,CLK_5V*%
X137000000Y-92185350D02*
X138342850Y-93528200D01*
X137000000Y-92105000D02*
X137000000Y-92185350D01*
X138342850Y-93528200D02*
X139299250Y-93528200D01*
%TO.N,A14_5V*%
X139963600Y-84344800D02*
X139680200Y-84344800D01*
X139680200Y-84344800D02*
X137000000Y-87025000D01*
%TO.N,D4_5V*%
X137000000Y-94645000D02*
X137710400Y-93934600D01*
X137710400Y-93934600D02*
X139299250Y-93934600D01*
%TO.N,D3_5V*%
X137540000Y-96645000D02*
X137000000Y-97185000D01*
X139149250Y-94341000D02*
X137540000Y-95950250D01*
X139299250Y-94341000D02*
X139149250Y-94341000D01*
X137540000Y-95950250D02*
X137540000Y-96645000D01*
%TO.N,A13_5V*%
X137546600Y-83938400D02*
X137000000Y-84485000D01*
X139963600Y-83938400D02*
X137546600Y-83938400D01*
%TO.N,HALT_5V*%
X138448200Y-124068200D02*
X137000000Y-122620000D01*
X139449250Y-124068200D02*
X138448200Y-124068200D01*
%TO.N,NMI_5V*%
X137000000Y-120483554D02*
X137000000Y-120080000D01*
X139449250Y-123661800D02*
X139449250Y-122932804D01*
X139449250Y-122932804D02*
X137000000Y-120483554D01*
%TO.N,D0_5V*%
X139529250Y-113248200D02*
X137788200Y-113248200D01*
X137788200Y-113248200D02*
X137000000Y-112460000D01*
%TO.N,D7_5V*%
X139529250Y-112841800D02*
X139529250Y-112449250D01*
X139529250Y-112449250D02*
X137000000Y-109920000D01*
%TO.N,INT_5V*%
X139529250Y-114061000D02*
X139385650Y-114061000D01*
X139385650Y-114061000D02*
X138510000Y-114936650D01*
X138510000Y-115470000D02*
X137050000Y-116930000D01*
X138510000Y-114936650D02*
X138510000Y-115470000D01*
X137050000Y-116930000D02*
X137050000Y-117540000D01*
%TO.N,IORQ_5V*%
X139449250Y-124881000D02*
X138749000Y-124881000D01*
X138370000Y-125260000D02*
X138370000Y-126330000D01*
X138749000Y-124881000D02*
X138370000Y-125260000D01*
X138370000Y-126330000D02*
X137000000Y-127700000D01*
%TO.N,MREQ_5V*%
X137685400Y-124474600D02*
X137000000Y-125160000D01*
X139449250Y-124474600D02*
X137685400Y-124474600D01*
%TO.N,D1_5V*%
X139529250Y-113654600D02*
X138345400Y-113654600D01*
X138345400Y-113654600D02*
X137000000Y-115000000D01*
%TO.N,D2_5V*%
X139542800Y-104293600D02*
X138470000Y-105366400D01*
X138470000Y-105366400D02*
X138470000Y-105910000D01*
X139692800Y-104293600D02*
X139542800Y-104293600D01*
X138470000Y-105910000D02*
X137000000Y-107380000D01*
%TO.N,WAIT_5V*%
X151711000Y-81879000D02*
X151830000Y-81760000D01*
X151010750Y-81879000D02*
X151711000Y-81879000D01*
%TO.N,RFSH_5V*%
X152036200Y-92966200D02*
X152110000Y-93040000D01*
X151334200Y-92966200D02*
X152036200Y-92966200D01*
%TO.N,WR_5V*%
X151010750Y-82691800D02*
X152258200Y-82691800D01*
X152258200Y-82691800D02*
X153010000Y-81940000D01*
X153010000Y-81940000D02*
X153940000Y-81940000D01*
%TO.N,BUSAK_5V*%
X151874600Y-82285400D02*
X152370000Y-81790000D01*
X151010750Y-82285400D02*
X151874600Y-82285400D01*
%TO.N,A0_5V*%
X152630000Y-103570000D02*
X153940000Y-102260000D01*
X151250750Y-105431800D02*
X152308200Y-105431800D01*
X152308200Y-105431800D02*
X152630000Y-105110000D01*
X152630000Y-105110000D02*
X152630000Y-103570000D01*
%TO.N,RD_5V*%
X151010750Y-83098200D02*
X152391800Y-83098200D01*
X152391800Y-83098200D02*
X152670000Y-82820000D01*
%TO.N,M1_5V*%
X152392600Y-93372600D02*
X152470000Y-93450000D01*
X151334200Y-93372600D02*
X152392600Y-93372600D01*
%TO.N,RESET_5V*%
X153940000Y-92650000D02*
X153940000Y-92100000D01*
X152811000Y-93779000D02*
X153940000Y-92650000D01*
X151334200Y-93779000D02*
X152811000Y-93779000D01*
%TO.N,BUSRQ_5V*%
X152704600Y-94185400D02*
X152740000Y-94150000D01*
X151334200Y-94185400D02*
X152704600Y-94185400D01*
%TO.N,A4_5V*%
X152688200Y-113701800D02*
X153970000Y-112420000D01*
X151400750Y-113701800D02*
X152688200Y-113701800D01*
%TO.N,A2_5V*%
X151250750Y-104619000D02*
X152188022Y-104619000D01*
X152188022Y-104619000D02*
X152257022Y-104550000D01*
%TO.N,A10_5V*%
X151400750Y-123049000D02*
X151921000Y-123049000D01*
X151921000Y-123049000D02*
X152160000Y-122810000D01*
%TO.N,A3_5V*%
X152731800Y-114108200D02*
X152880000Y-113960000D01*
X151400750Y-114108200D02*
X152731800Y-114108200D01*
%TO.N,A6_5V*%
X151919000Y-112889000D02*
X152000000Y-112970000D01*
X151400750Y-112889000D02*
X151919000Y-112889000D01*
%TO.N,A9_5V*%
X151400750Y-123455400D02*
X152224600Y-123455400D01*
X152224600Y-123455400D02*
X152420000Y-123260000D01*
%TO.N,A8_5V*%
X151400750Y-123861800D02*
X152288200Y-123861800D01*
X152288200Y-123861800D02*
X153570000Y-122580000D01*
X153570000Y-122580000D02*
X153970000Y-122580000D01*
%TO.N,A5_5V*%
X151400750Y-113295400D02*
X152354600Y-113295400D01*
X152354600Y-113295400D02*
X152420000Y-113230000D01*
%TO.N,A1_5V*%
X151924600Y-105025400D02*
X151930000Y-105020000D01*
X151250750Y-105025400D02*
X151924600Y-105025400D01*
%TO.N,A7_5V*%
X151400750Y-124268200D02*
X152391800Y-124268200D01*
X152391800Y-124268200D02*
X152670000Y-123990000D01*
D25*
%TO.N,+3V3*%
X147920000Y-97550000D02*
X148380000Y-97550000D01*
D24*
X140596050Y-112790200D02*
X140596050Y-111726050D01*
X140596050Y-111726050D02*
X140240000Y-111370000D01*
X139990000Y-86035000D02*
X139395000Y-86035000D01*
X139395000Y-86035000D02*
X139390000Y-86030000D01*
X150360000Y-95700000D02*
X151060000Y-95700000D01*
X150980000Y-79100000D02*
X149420000Y-79100000D01*
X140910000Y-103074400D02*
X140910000Y-102340000D01*
X147710000Y-100020000D02*
X147720000Y-100030000D01*
X150333950Y-115163950D02*
X150840000Y-115670000D01*
X144300000Y-105100000D02*
X144050000Y-105350000D01*
X149760000Y-106111750D02*
X150033550Y-105838200D01*
X144850000Y-107070000D02*
X144550000Y-107070000D01*
X147165000Y-91030000D02*
X145260000Y-91030000D01*
X150333950Y-124319800D02*
X150333950Y-124766050D01*
X139700000Y-106250000D02*
X140800000Y-106250000D01*
X150117000Y-95457000D02*
X150360000Y-95700000D01*
X151350000Y-90265000D02*
X151350000Y-89970000D01*
X149760000Y-106470000D02*
X149760000Y-106111750D01*
X147710000Y-101590000D02*
X147710000Y-100820000D01*
X150333950Y-114159800D02*
X150333950Y-115163950D01*
X146770000Y-100020000D02*
X147710000Y-100020000D01*
X144410000Y-105100000D02*
X144300000Y-105100000D01*
X140516050Y-122486050D02*
X140280000Y-122250000D01*
X140366050Y-93070200D02*
X140366050Y-91933950D01*
X139300000Y-96770000D02*
X139520000Y-96990000D01*
X142215000Y-89760000D02*
X142215000Y-88490000D01*
X139530000Y-116050000D02*
X140510000Y-116050000D01*
X147720000Y-100810000D02*
X147710000Y-100820000D01*
X143275000Y-102120000D02*
X143045000Y-102350000D01*
X145660000Y-106260000D02*
X144850000Y-107070000D01*
X145040000Y-105370000D02*
X144070000Y-105370000D01*
X144065000Y-104755000D02*
X144410000Y-105100000D01*
X140516050Y-123610200D02*
X140516050Y-122486050D01*
X146680000Y-104680000D02*
X145730000Y-104680000D01*
X147720000Y-100030000D02*
X147720000Y-100810000D01*
X140800000Y-106250000D02*
X141010000Y-106460000D01*
X140366050Y-91933950D02*
X140660000Y-91640000D01*
X144065000Y-104570000D02*
X144065000Y-104755000D01*
X149943950Y-83149800D02*
X148900000Y-84193750D01*
X151390000Y-120415000D02*
X151390000Y-120060000D01*
X144070000Y-105370000D02*
X144050000Y-105350000D01*
X139480000Y-127220000D02*
X139480000Y-128120000D01*
X141180800Y-83125600D02*
X141795600Y-83125600D01*
X151390000Y-120060000D02*
X151000000Y-119670000D01*
X143050000Y-100780000D02*
X143050000Y-101560000D01*
X151280000Y-102040000D02*
X151590000Y-101730000D01*
X146050000Y-106650000D02*
X145660000Y-106260000D01*
X148900000Y-84193750D02*
X148900000Y-86210000D01*
X150333950Y-124766050D02*
X150090000Y-125010000D01*
X142215000Y-88490000D02*
X144340000Y-88490000D01*
X151390000Y-110050000D02*
X151390000Y-109400000D01*
X141795600Y-83125600D02*
X141800000Y-83130000D01*
X150117000Y-94185400D02*
X150117000Y-95457000D01*
X151280000Y-102265000D02*
X151280000Y-102040000D01*
X146920000Y-101590000D02*
X147710000Y-101590000D01*
X143050000Y-101560000D02*
X143050000Y-102345000D01*
X139480000Y-128120000D02*
X139470000Y-128130000D01*
X151070000Y-79645000D02*
X151070000Y-79190000D01*
X151350000Y-89970000D02*
X151800000Y-89520000D01*
D25*
X147420000Y-98050000D02*
X147920000Y-97550000D01*
D24*
X139300000Y-96125000D02*
X139300000Y-96770000D01*
X146050000Y-107070000D02*
X146050000Y-106650000D01*
X140510000Y-116050000D02*
X140530000Y-116070000D01*
X145260000Y-91030000D02*
X145250000Y-91020000D01*
X147600000Y-104680000D02*
X146680000Y-104680000D01*
X143050000Y-102345000D02*
X143045000Y-102350000D01*
X149420000Y-79100000D02*
X149410000Y-79090000D01*
X144340000Y-88490000D02*
X144350000Y-88480000D01*
X151070000Y-79190000D02*
X150980000Y-79100000D01*
X145730000Y-104680000D02*
X145040000Y-105370000D01*
X143920000Y-102120000D02*
X143275000Y-102120000D01*
%TO.N,Net-(U5-OE)*%
X139963600Y-84751200D02*
X139963600Y-85368600D01*
X139963600Y-85368600D02*
X139990000Y-85395000D01*
%TO.N,Net-(U6-OE)*%
X139299250Y-94747400D02*
X139299250Y-95484250D01*
X139299250Y-95484250D02*
X139300000Y-95485000D01*
%TO.N,Net-(U7-OE)*%
X139700000Y-105610000D02*
X139700000Y-104707200D01*
X139700000Y-104707200D02*
X139692800Y-104700000D01*
%TO.N,Net-(U8-OE)*%
X139530000Y-115410000D02*
X139530000Y-114468150D01*
X139530000Y-114468150D02*
X139529250Y-114467400D01*
%TO.N,Net-(U9-OE)*%
X139449250Y-126549250D02*
X139480000Y-126580000D01*
X139449250Y-125287400D02*
X139449250Y-126549250D01*
%TO.N,Net-(U10-OE)*%
X151070000Y-81413350D02*
X151010750Y-81472600D01*
X151070000Y-80285000D02*
X151070000Y-81413350D01*
%TO.N,Net-(U11-OE)*%
X151334200Y-90920800D02*
X151350000Y-90905000D01*
X151334200Y-92559800D02*
X151334200Y-90920800D01*
%TO.N,Net-(U12-OE)*%
X151280000Y-102905000D02*
X151280000Y-104183350D01*
X151280000Y-104183350D02*
X151250750Y-104212600D01*
%TO.N,Net-(U13-OE)*%
X151390000Y-110690000D02*
X151390000Y-112471850D01*
X151390000Y-112471850D02*
X151400750Y-112482600D01*
%TO.N,Net-(U14-OE)*%
X151390000Y-121055000D02*
X151390000Y-122631850D01*
X151390000Y-122631850D02*
X151400750Y-122642600D01*
%TD*%
%TA.AperFunction,Conductor*%
%TO.N,GND*%
G36*
X152917826Y-78641674D02*
G01*
X152939500Y-78694000D01*
X152939500Y-80264820D01*
X152948233Y-80308722D01*
X152981496Y-80358504D01*
X153031278Y-80391767D01*
X153075180Y-80400500D01*
X153075181Y-80400500D01*
X153926000Y-80400500D01*
X153978326Y-80422174D01*
X154000000Y-80474500D01*
X154000000Y-80861679D01*
X153978326Y-80914005D01*
X153933254Y-80935323D01*
X153743866Y-80953976D01*
X153555268Y-81011187D01*
X153381463Y-81104089D01*
X153229117Y-81229117D01*
X153104089Y-81381463D01*
X153011187Y-81555270D01*
X153011185Y-81555273D01*
X152963330Y-81713026D01*
X152927400Y-81756807D01*
X152920839Y-81759910D01*
X152896429Y-81770021D01*
X152797996Y-81868454D01*
X152745670Y-81890128D01*
X152693344Y-81868454D01*
X152671670Y-81816128D01*
X152672795Y-81803276D01*
X152675136Y-81790001D01*
X152656734Y-81685637D01*
X152603747Y-81593860D01*
X152522570Y-81525745D01*
X152522567Y-81525743D01*
X152422988Y-81489500D01*
X152422986Y-81489500D01*
X152317014Y-81489500D01*
X152317011Y-81489500D01*
X152217432Y-81525743D01*
X152165164Y-81569601D01*
X152111148Y-81586631D01*
X152070738Y-81565602D01*
X152068708Y-81568023D01*
X151982570Y-81495745D01*
X151982567Y-81495743D01*
X151882988Y-81459500D01*
X151882986Y-81459500D01*
X151777014Y-81459500D01*
X151777011Y-81459500D01*
X151677432Y-81495743D01*
X151677429Y-81495745D01*
X151596252Y-81563860D01*
X151551428Y-81641500D01*
X151506495Y-81675978D01*
X151487342Y-81678500D01*
X151483302Y-81678500D01*
X151430976Y-81656826D01*
X151409302Y-81604500D01*
X151410724Y-81590062D01*
X151411250Y-81587420D01*
X151411250Y-81357780D01*
X151402517Y-81313878D01*
X151369254Y-81264096D01*
X151319472Y-81230833D01*
X151319471Y-81230832D01*
X151319470Y-81230832D01*
X151316182Y-81229470D01*
X151313664Y-81226953D01*
X151313412Y-81226784D01*
X151313445Y-81226733D01*
X151276133Y-81189422D01*
X151270500Y-81161103D01*
X151270500Y-80688675D01*
X151292174Y-80636349D01*
X151303382Y-80627150D01*
X151350601Y-80595601D01*
X151405966Y-80512740D01*
X151420500Y-80439674D01*
X151420500Y-80130326D01*
X151405966Y-80057260D01*
X151371789Y-80006110D01*
X151360741Y-79950563D01*
X151371790Y-79923889D01*
X151405966Y-79872740D01*
X151420500Y-79799674D01*
X151420500Y-79490326D01*
X151405966Y-79417260D01*
X151350601Y-79334399D01*
X151332305Y-79322174D01*
X151303388Y-79302852D01*
X151271922Y-79255760D01*
X151270500Y-79241323D01*
X151270500Y-79150118D01*
X151270499Y-79150116D01*
X151239977Y-79076428D01*
X151239975Y-79076425D01*
X151093575Y-78930025D01*
X151093571Y-78930022D01*
X151019882Y-78899500D01*
X149677401Y-78899500D01*
X149629835Y-78882187D01*
X149562570Y-78825745D01*
X149562567Y-78825743D01*
X149462988Y-78789500D01*
X149462986Y-78789500D01*
X149357014Y-78789500D01*
X149357011Y-78789500D01*
X149257432Y-78825743D01*
X149257429Y-78825745D01*
X149176252Y-78893860D01*
X149123265Y-78985637D01*
X149104864Y-79090000D01*
X149123265Y-79194362D01*
X149176252Y-79286139D01*
X149257429Y-79354254D01*
X149257432Y-79354256D01*
X149357011Y-79390499D01*
X149357012Y-79390500D01*
X149357014Y-79390500D01*
X149462988Y-79390500D01*
X149462988Y-79390499D01*
X149562568Y-79354256D01*
X149606000Y-79317812D01*
X149653565Y-79300500D01*
X150673606Y-79300500D01*
X150725932Y-79322174D01*
X150747606Y-79374500D01*
X150736694Y-79410472D01*
X150736823Y-79410526D01*
X150736281Y-79411832D01*
X150735136Y-79415610D01*
X150734034Y-79417258D01*
X150719500Y-79490327D01*
X150719500Y-79799672D01*
X150734034Y-79872741D01*
X150768209Y-79923889D01*
X150779258Y-79979438D01*
X150768209Y-80006111D01*
X150734034Y-80057258D01*
X150734034Y-80057260D01*
X150719500Y-80130326D01*
X150719500Y-80439674D01*
X150734034Y-80512740D01*
X150789399Y-80595601D01*
X150836612Y-80627146D01*
X150868078Y-80674237D01*
X150869500Y-80688675D01*
X150869500Y-81148100D01*
X150847826Y-81200426D01*
X150795500Y-81222100D01*
X150745930Y-81222100D01*
X150723979Y-81226466D01*
X150702027Y-81230833D01*
X150652246Y-81264095D01*
X150652245Y-81264096D01*
X150618983Y-81313877D01*
X150618983Y-81313878D01*
X150610250Y-81357780D01*
X150610250Y-81587420D01*
X150618983Y-81631322D01*
X150618984Y-81631323D01*
X150621233Y-81634689D01*
X150632281Y-81690238D01*
X150621233Y-81716909D01*
X150618983Y-81720278D01*
X150610250Y-81764180D01*
X150610250Y-81993820D01*
X150618983Y-82037722D01*
X150618984Y-82037723D01*
X150621233Y-82041089D01*
X150632281Y-82096638D01*
X150621233Y-82123309D01*
X150618983Y-82126678D01*
X150610250Y-82170580D01*
X150610250Y-82400220D01*
X150618983Y-82444122D01*
X150618984Y-82444123D01*
X150621233Y-82447489D01*
X150632281Y-82503038D01*
X150621233Y-82529711D01*
X150618983Y-82533078D01*
X150610250Y-82576980D01*
X150610250Y-82598300D01*
X150588576Y-82650626D01*
X150536250Y-82672300D01*
X150285530Y-82672300D01*
X150282482Y-82672906D01*
X150226934Y-82661853D01*
X150195471Y-82614759D01*
X150194050Y-82600327D01*
X150194050Y-82576980D01*
X150189826Y-82555745D01*
X150185317Y-82533078D01*
X150185316Y-82533076D01*
X150183070Y-82529714D01*
X150172018Y-82474166D01*
X150183070Y-82447486D01*
X150185316Y-82444123D01*
X150185315Y-82444123D01*
X150185317Y-82444122D01*
X150194050Y-82400220D01*
X150194050Y-82170580D01*
X150185317Y-82126678D01*
X150185316Y-82126676D01*
X150183070Y-82123314D01*
X150172018Y-82067766D01*
X150183070Y-82041086D01*
X150185316Y-82037723D01*
X150185315Y-82037723D01*
X150185317Y-82037722D01*
X150194050Y-81993820D01*
X150194050Y-81764180D01*
X150185317Y-81720278D01*
X150185316Y-81720276D01*
X150183070Y-81716914D01*
X150172018Y-81661366D01*
X150183070Y-81634686D01*
X150185316Y-81631323D01*
X150185315Y-81631323D01*
X150185317Y-81631322D01*
X150194050Y-81587420D01*
X150194050Y-81357780D01*
X150185317Y-81313878D01*
X150152054Y-81264096D01*
X150102272Y-81230833D01*
X150058370Y-81222100D01*
X149528730Y-81222100D01*
X149506779Y-81226466D01*
X149484827Y-81230833D01*
X149435046Y-81264095D01*
X149435045Y-81264096D01*
X149401783Y-81313877D01*
X149401783Y-81313878D01*
X149393050Y-81357780D01*
X149393050Y-81587420D01*
X149401783Y-81631322D01*
X149401784Y-81631323D01*
X149404033Y-81634689D01*
X149415081Y-81690238D01*
X149404033Y-81716909D01*
X149401783Y-81720278D01*
X149393050Y-81764180D01*
X149393050Y-81993820D01*
X149401783Y-82037722D01*
X149401784Y-82037723D01*
X149404033Y-82041089D01*
X149415081Y-82096638D01*
X149404033Y-82123309D01*
X149401783Y-82126678D01*
X149393050Y-82170580D01*
X149393050Y-82400220D01*
X149401783Y-82444122D01*
X149401784Y-82444123D01*
X149404033Y-82447489D01*
X149415081Y-82503038D01*
X149404033Y-82529709D01*
X149401783Y-82533078D01*
X149393050Y-82576980D01*
X149393050Y-82806620D01*
X149401783Y-82850522D01*
X149404033Y-82853889D01*
X149415081Y-82909438D01*
X149404033Y-82936111D01*
X149401783Y-82939478D01*
X149393050Y-82983380D01*
X149393050Y-83213019D01*
X149401783Y-83256922D01*
X149428723Y-83297241D01*
X149439772Y-83352790D01*
X149419520Y-83390679D01*
X148786426Y-84023774D01*
X148730022Y-84080178D01*
X148699500Y-84153866D01*
X148699500Y-85951456D01*
X148677826Y-86003782D01*
X148673070Y-86008140D01*
X148666252Y-86013861D01*
X148613265Y-86105638D01*
X148594864Y-86210000D01*
X148613265Y-86314362D01*
X148666252Y-86406139D01*
X148747429Y-86474254D01*
X148747432Y-86474256D01*
X148847011Y-86510499D01*
X148847012Y-86510500D01*
X148847014Y-86510500D01*
X148952988Y-86510500D01*
X148952988Y-86510499D01*
X149052568Y-86474256D01*
X149133748Y-86406138D01*
X149186734Y-86314363D01*
X149205136Y-86210000D01*
X149186734Y-86105637D01*
X149133748Y-86013862D01*
X149133747Y-86013861D01*
X149126930Y-86008140D01*
X149100781Y-85957900D01*
X149100500Y-85951456D01*
X149100500Y-84307452D01*
X149122174Y-84255126D01*
X149419801Y-83957499D01*
X149742082Y-83635217D01*
X149794407Y-83613544D01*
X149846733Y-83635218D01*
X149867283Y-83674694D01*
X149885211Y-83776373D01*
X149885211Y-83776374D01*
X149885212Y-83776375D01*
X149934143Y-83861125D01*
X150009109Y-83924030D01*
X150101067Y-83957499D01*
X150101067Y-83957500D01*
X150101069Y-83957500D01*
X150198933Y-83957500D01*
X150198932Y-83957499D01*
X150290891Y-83924030D01*
X150312912Y-83905551D01*
X150322135Y-83897813D01*
X150369702Y-83880500D01*
X151576298Y-83880500D01*
X151628624Y-83902174D01*
X152707826Y-84981376D01*
X152729500Y-85033702D01*
X152729500Y-86746297D01*
X152707826Y-86798623D01*
X148416825Y-91089624D01*
X148364499Y-91111298D01*
X148312173Y-91089624D01*
X148290499Y-91037298D01*
X148290499Y-90835136D01*
X148289266Y-90824503D01*
X148287585Y-90810009D01*
X148242206Y-90707235D01*
X148162765Y-90627794D01*
X148059991Y-90582415D01*
X148059990Y-90582414D01*
X148059988Y-90582414D01*
X148038659Y-90579940D01*
X148034865Y-90579500D01*
X148034864Y-90579500D01*
X146295136Y-90579500D01*
X146270013Y-90582414D01*
X146270007Y-90582415D01*
X146167234Y-90627794D01*
X146087794Y-90707234D01*
X146087794Y-90707235D01*
X146053284Y-90785391D01*
X146012323Y-90824503D01*
X145985591Y-90829500D01*
X145481619Y-90829500D01*
X145434052Y-90812187D01*
X145390890Y-90775969D01*
X145298932Y-90742500D01*
X145298931Y-90742500D01*
X145201069Y-90742500D01*
X145201067Y-90742500D01*
X145109109Y-90775970D01*
X145109107Y-90775971D01*
X145034143Y-90838873D01*
X144985211Y-90923626D01*
X144968219Y-91020000D01*
X144985211Y-91116373D01*
X144985211Y-91116374D01*
X144985212Y-91116375D01*
X144990986Y-91126375D01*
X145016857Y-91171186D01*
X145034143Y-91201125D01*
X145109109Y-91264030D01*
X145201067Y-91297499D01*
X145201067Y-91297500D01*
X145201069Y-91297500D01*
X145298933Y-91297500D01*
X145298932Y-91297499D01*
X145390891Y-91264030D01*
X145410217Y-91247812D01*
X145457784Y-91230500D01*
X145985591Y-91230500D01*
X146037917Y-91252174D01*
X146053284Y-91274607D01*
X146081937Y-91339500D01*
X146087794Y-91352765D01*
X146128203Y-91393174D01*
X146149877Y-91445500D01*
X146128203Y-91497826D01*
X146075877Y-91519500D01*
X143304123Y-91519500D01*
X143251797Y-91497826D01*
X143230123Y-91445500D01*
X143251797Y-91393174D01*
X143269228Y-91375743D01*
X143292206Y-91352765D01*
X143326715Y-91274608D01*
X143367677Y-91235497D01*
X143394409Y-91230500D01*
X143930298Y-91230500D01*
X143977865Y-91247813D01*
X144008548Y-91273559D01*
X144009109Y-91274030D01*
X144101067Y-91307499D01*
X144101067Y-91307500D01*
X144101069Y-91307500D01*
X144198933Y-91307500D01*
X144198932Y-91307499D01*
X144290891Y-91274030D01*
X144365857Y-91211125D01*
X144414788Y-91126375D01*
X144431781Y-91030000D01*
X144414788Y-90933625D01*
X144365857Y-90848875D01*
X144319544Y-90810013D01*
X144290890Y-90785969D01*
X144198932Y-90752500D01*
X144198931Y-90752500D01*
X144101069Y-90752500D01*
X144101067Y-90752500D01*
X144009110Y-90785969D01*
X143983063Y-90807826D01*
X143980462Y-90810009D01*
X143977866Y-90812187D01*
X143930299Y-90829500D01*
X143394409Y-90829500D01*
X143342083Y-90807826D01*
X143326715Y-90785392D01*
X143292206Y-90707235D01*
X143212765Y-90627794D01*
X143109991Y-90582415D01*
X143109990Y-90582414D01*
X143109988Y-90582414D01*
X143088659Y-90579940D01*
X143084865Y-90579500D01*
X143084864Y-90579500D01*
X141345136Y-90579500D01*
X141320013Y-90582414D01*
X141320007Y-90582415D01*
X141217234Y-90627794D01*
X141137794Y-90707234D01*
X141092414Y-90810011D01*
X141089500Y-90835135D01*
X141089500Y-91224863D01*
X141092414Y-91249986D01*
X141092415Y-91249992D01*
X141122988Y-91319233D01*
X141137794Y-91352765D01*
X141217235Y-91432206D01*
X141320009Y-91477585D01*
X141345135Y-91480500D01*
X142572298Y-91480499D01*
X142624624Y-91502173D01*
X142646298Y-91554499D01*
X142624624Y-91606825D01*
X142403623Y-91827826D01*
X142351297Y-91849500D01*
X141345136Y-91849500D01*
X141320013Y-91852414D01*
X141320007Y-91852415D01*
X141217234Y-91897794D01*
X141137794Y-91977234D01*
X141092414Y-92080011D01*
X141089500Y-92105135D01*
X141089500Y-92494863D01*
X141092414Y-92519986D01*
X141092415Y-92519991D01*
X141137794Y-92622765D01*
X141217235Y-92702206D01*
X141320009Y-92747585D01*
X141345135Y-92750500D01*
X143084864Y-92750499D01*
X143109991Y-92747585D01*
X143212765Y-92702206D01*
X143292206Y-92622765D01*
X143337585Y-92519991D01*
X143340500Y-92494865D01*
X143340499Y-92105136D01*
X143337585Y-92080009D01*
X143313027Y-92024390D01*
X143311719Y-91967768D01*
X143350832Y-91926805D01*
X143380722Y-91920500D01*
X148109881Y-91920500D01*
X148109882Y-91920500D01*
X148183574Y-91889976D01*
X152844202Y-87229346D01*
X152896527Y-87207673D01*
X152948853Y-87229347D01*
X152967340Y-87260191D01*
X153011185Y-87404726D01*
X153011187Y-87404729D01*
X153013861Y-87409731D01*
X153104090Y-87578538D01*
X153229117Y-87730883D01*
X153381462Y-87855910D01*
X153458426Y-87897048D01*
X153555268Y-87948812D01*
X153555270Y-87948812D01*
X153555273Y-87948814D01*
X153743868Y-88006024D01*
X153933254Y-88024676D01*
X153983203Y-88051375D01*
X154000000Y-88098320D01*
X154000000Y-88481679D01*
X153978326Y-88534005D01*
X153933254Y-88555323D01*
X153743866Y-88573976D01*
X153555268Y-88631187D01*
X153381463Y-88724089D01*
X153229117Y-88849117D01*
X153104089Y-89001463D01*
X153011187Y-89175268D01*
X152953976Y-89363866D01*
X152934659Y-89560000D01*
X152953976Y-89756133D01*
X153011187Y-89944731D01*
X153084969Y-90082765D01*
X153104090Y-90118538D01*
X153229117Y-90270883D01*
X153381462Y-90395910D01*
X153458426Y-90437048D01*
X153555268Y-90488812D01*
X153555270Y-90488812D01*
X153555273Y-90488814D01*
X153743868Y-90546024D01*
X153933254Y-90564676D01*
X153983203Y-90591375D01*
X154000000Y-90638320D01*
X154000000Y-91021679D01*
X153978326Y-91074005D01*
X153933254Y-91095323D01*
X153743866Y-91113976D01*
X153555268Y-91171187D01*
X153381463Y-91264089D01*
X153229117Y-91389117D01*
X153104089Y-91541463D01*
X153011187Y-91715268D01*
X152953976Y-91903866D01*
X152934659Y-92100000D01*
X152953976Y-92296133D01*
X153011187Y-92484731D01*
X153084969Y-92622765D01*
X153104090Y-92658538D01*
X153228471Y-92810096D01*
X153229119Y-92810885D01*
X153237031Y-92817378D01*
X153312349Y-92879190D01*
X153339048Y-92929138D01*
X153322607Y-92983337D01*
X153317730Y-92988718D01*
X152887841Y-93418607D01*
X152835515Y-93440281D01*
X152783189Y-93418607D01*
X152762639Y-93379130D01*
X152756734Y-93345637D01*
X152703748Y-93253862D01*
X152703747Y-93253860D01*
X152622570Y-93185745D01*
X152622567Y-93185743D01*
X152522988Y-93149500D01*
X152522986Y-93149500D01*
X152484018Y-93149500D01*
X152431692Y-93127826D01*
X152410018Y-93075500D01*
X152411142Y-93062650D01*
X152415136Y-93040000D01*
X152396734Y-92935637D01*
X152392982Y-92929138D01*
X152343747Y-92843860D01*
X152262570Y-92775745D01*
X152262567Y-92775743D01*
X152162988Y-92739500D01*
X152162986Y-92739500D01*
X152057014Y-92739500D01*
X152057012Y-92739500D01*
X151997290Y-92761237D01*
X151971981Y-92765700D01*
X151806752Y-92765700D01*
X151754426Y-92744026D01*
X151732752Y-92691700D01*
X151734174Y-92677262D01*
X151734700Y-92674620D01*
X151734700Y-92444980D01*
X151725967Y-92401078D01*
X151692704Y-92351296D01*
X151642922Y-92318033D01*
X151599020Y-92309300D01*
X151599019Y-92309300D01*
X151595455Y-92308591D01*
X151595858Y-92306563D01*
X151551474Y-92282812D01*
X151534700Y-92235895D01*
X151534700Y-91319233D01*
X151556374Y-91266907D01*
X151567588Y-91257704D01*
X151630601Y-91215601D01*
X151685966Y-91132740D01*
X151700500Y-91059674D01*
X151700500Y-90750326D01*
X151685966Y-90677260D01*
X151651789Y-90626110D01*
X151640741Y-90570563D01*
X151651790Y-90543889D01*
X151685966Y-90492740D01*
X151700500Y-90419674D01*
X151700500Y-90110326D01*
X151685966Y-90037260D01*
X151671768Y-90016011D01*
X151660720Y-89960465D01*
X151680971Y-89922577D01*
X151761377Y-89842173D01*
X151813702Y-89820500D01*
X151852988Y-89820500D01*
X151852988Y-89820499D01*
X151952568Y-89784256D01*
X152033748Y-89716138D01*
X152086734Y-89624363D01*
X152105136Y-89520000D01*
X152086734Y-89415637D01*
X152033748Y-89323862D01*
X152033747Y-89323860D01*
X151952570Y-89255745D01*
X151952567Y-89255743D01*
X151852988Y-89219500D01*
X151852986Y-89219500D01*
X151747014Y-89219500D01*
X151747011Y-89219500D01*
X151647432Y-89255743D01*
X151647429Y-89255745D01*
X151566252Y-89323860D01*
X151513265Y-89415638D01*
X151494294Y-89523228D01*
X151473744Y-89562704D01*
X151236426Y-89800024D01*
X151236425Y-89800023D01*
X151180025Y-89856424D01*
X151180021Y-89856429D01*
X151174834Y-89868953D01*
X151147580Y-89902160D01*
X151069399Y-89954398D01*
X151069398Y-89954399D01*
X151014034Y-90037259D01*
X151014034Y-90037260D01*
X150999500Y-90110326D01*
X150999500Y-90419674D01*
X151001342Y-90428932D01*
X151014034Y-90492741D01*
X151048209Y-90543889D01*
X151059258Y-90599438D01*
X151048209Y-90626111D01*
X151014034Y-90677258D01*
X151014034Y-90677260D01*
X150999500Y-90750326D01*
X150999500Y-91059674D01*
X151005458Y-91089624D01*
X151014034Y-91132740D01*
X151066407Y-91211124D01*
X151069399Y-91215601D01*
X151100810Y-91236588D01*
X151132278Y-91283679D01*
X151133700Y-91298118D01*
X151133700Y-92235895D01*
X151112026Y-92288221D01*
X151072604Y-92306877D01*
X151072945Y-92308591D01*
X151069381Y-92309300D01*
X151069380Y-92309300D01*
X151052465Y-92312664D01*
X151025477Y-92318033D01*
X150975696Y-92351295D01*
X150975695Y-92351296D01*
X150942433Y-92401077D01*
X150942433Y-92401078D01*
X150933700Y-92444980D01*
X150933700Y-92674620D01*
X150942433Y-92718522D01*
X150942434Y-92718523D01*
X150944683Y-92721889D01*
X150955731Y-92777438D01*
X150944683Y-92804109D01*
X150942433Y-92807478D01*
X150933700Y-92851380D01*
X150933700Y-93081020D01*
X150942433Y-93124922D01*
X150944681Y-93128286D01*
X150944683Y-93128289D01*
X150955731Y-93183838D01*
X150944683Y-93210509D01*
X150942433Y-93213878D01*
X150933700Y-93257780D01*
X150933700Y-93487420D01*
X150942433Y-93531322D01*
X150942434Y-93531323D01*
X150944683Y-93534689D01*
X150955731Y-93590238D01*
X150944683Y-93616911D01*
X150942433Y-93620278D01*
X150933700Y-93664180D01*
X150933700Y-93685500D01*
X150912026Y-93737826D01*
X150859700Y-93759500D01*
X150608980Y-93759500D01*
X150605932Y-93760106D01*
X150550384Y-93749053D01*
X150518921Y-93701959D01*
X150517500Y-93687527D01*
X150517500Y-93664180D01*
X150513291Y-93643020D01*
X150508767Y-93620278D01*
X150508270Y-93619534D01*
X150506520Y-93616914D01*
X150495468Y-93561366D01*
X150506520Y-93534686D01*
X150508766Y-93531323D01*
X150508765Y-93531323D01*
X150508767Y-93531322D01*
X150517500Y-93487420D01*
X150517500Y-93257780D01*
X150508767Y-93213878D01*
X150508766Y-93213876D01*
X150506520Y-93210514D01*
X150495468Y-93154966D01*
X150506520Y-93128286D01*
X150508113Y-93125900D01*
X150508767Y-93124922D01*
X150517500Y-93081020D01*
X150517500Y-92851380D01*
X150508767Y-92807478D01*
X150508766Y-92807476D01*
X150506520Y-92804114D01*
X150495468Y-92748566D01*
X150506520Y-92721886D01*
X150508766Y-92718523D01*
X150508765Y-92718523D01*
X150508767Y-92718522D01*
X150517500Y-92674620D01*
X150517500Y-92444980D01*
X150508767Y-92401078D01*
X150475504Y-92351296D01*
X150425722Y-92318033D01*
X150381820Y-92309300D01*
X149852180Y-92309300D01*
X149830229Y-92313666D01*
X149808277Y-92318033D01*
X149758496Y-92351295D01*
X149758495Y-92351296D01*
X149725233Y-92401077D01*
X149725233Y-92401078D01*
X149716500Y-92444980D01*
X149716500Y-92674620D01*
X149725233Y-92718522D01*
X149725234Y-92718523D01*
X149727483Y-92721889D01*
X149738531Y-92777438D01*
X149727483Y-92804109D01*
X149725233Y-92807478D01*
X149716500Y-92851380D01*
X149716500Y-93081020D01*
X149725233Y-93124922D01*
X149727481Y-93128286D01*
X149727483Y-93128289D01*
X149738531Y-93183838D01*
X149727483Y-93210509D01*
X149725233Y-93213878D01*
X149716500Y-93257780D01*
X149716500Y-93487420D01*
X149725233Y-93531322D01*
X149725234Y-93531323D01*
X149727483Y-93534689D01*
X149738531Y-93590238D01*
X149727483Y-93616909D01*
X149725233Y-93620278D01*
X149716500Y-93664180D01*
X149716500Y-93893820D01*
X149725233Y-93937722D01*
X149727483Y-93941089D01*
X149738531Y-93996638D01*
X149727483Y-94023309D01*
X149725233Y-94026678D01*
X149716500Y-94070580D01*
X149716500Y-94300220D01*
X149725233Y-94344122D01*
X149758496Y-94393904D01*
X149808278Y-94427167D01*
X149852180Y-94435900D01*
X149852181Y-94435900D01*
X149855745Y-94436609D01*
X149855338Y-94438653D01*
X149899687Y-94462340D01*
X149916500Y-94509304D01*
X149916500Y-95496883D01*
X149947022Y-95570571D01*
X149947023Y-95570573D01*
X149947024Y-95570574D01*
X150246426Y-95869976D01*
X150320118Y-95900500D01*
X150399882Y-95900500D01*
X150804517Y-95900500D01*
X150852082Y-95917812D01*
X150907430Y-95964254D01*
X150907432Y-95964256D01*
X151007011Y-96000499D01*
X151007012Y-96000500D01*
X151007014Y-96000500D01*
X151112988Y-96000500D01*
X151112988Y-96000499D01*
X151212568Y-95964256D01*
X151293748Y-95896138D01*
X151346734Y-95804363D01*
X151365136Y-95700000D01*
X151346734Y-95595637D01*
X151293748Y-95503862D01*
X151293747Y-95503860D01*
X151212570Y-95435745D01*
X151212567Y-95435743D01*
X151112988Y-95399500D01*
X151112986Y-95399500D01*
X151007014Y-95399500D01*
X151007011Y-95399500D01*
X150907432Y-95435743D01*
X150877589Y-95460784D01*
X150852082Y-95482187D01*
X150804517Y-95499500D01*
X150473702Y-95499500D01*
X150421376Y-95477826D01*
X150339174Y-95395624D01*
X150317500Y-95343298D01*
X150317500Y-94786795D01*
X150339174Y-94734469D01*
X150391500Y-94712795D01*
X150443826Y-94734469D01*
X150464376Y-94773945D01*
X150473265Y-94824362D01*
X150526252Y-94916139D01*
X150607429Y-94984254D01*
X150607432Y-94984256D01*
X150707011Y-95020499D01*
X150707012Y-95020500D01*
X150707014Y-95020500D01*
X150812988Y-95020500D01*
X150812988Y-95020499D01*
X150912568Y-94984256D01*
X150993748Y-94916138D01*
X151046734Y-94824363D01*
X151065136Y-94720000D01*
X151046734Y-94615637D01*
X151010902Y-94553575D01*
X151003510Y-94497425D01*
X151013464Y-94475460D01*
X151017930Y-94468778D01*
X151065027Y-94437320D01*
X151079452Y-94435900D01*
X151599019Y-94435900D01*
X151599020Y-94435900D01*
X151642922Y-94427167D01*
X151677073Y-94404347D01*
X151686019Y-94398371D01*
X151727131Y-94385900D01*
X152526705Y-94385900D01*
X152574272Y-94403214D01*
X152587429Y-94414254D01*
X152587432Y-94414256D01*
X152687011Y-94450499D01*
X152687012Y-94450500D01*
X152687014Y-94450500D01*
X152792987Y-94450500D01*
X152825536Y-94438653D01*
X152848807Y-94430183D01*
X152905391Y-94432653D01*
X152943654Y-94474410D01*
X152947760Y-94506972D01*
X152945958Y-94525278D01*
X152937059Y-94615637D01*
X152934659Y-94640000D01*
X152941829Y-94712795D01*
X152953976Y-94836133D01*
X153011187Y-95024731D01*
X153074057Y-95142351D01*
X153104090Y-95198538D01*
X153229117Y-95350883D01*
X153381462Y-95475910D01*
X153458426Y-95517048D01*
X153555268Y-95568812D01*
X153555270Y-95568812D01*
X153555273Y-95568814D01*
X153743868Y-95626024D01*
X153933254Y-95644676D01*
X153983203Y-95671375D01*
X154000000Y-95718320D01*
X154000000Y-96101679D01*
X153978326Y-96154005D01*
X153933254Y-96175323D01*
X153743866Y-96193976D01*
X153555268Y-96251187D01*
X153381463Y-96344089D01*
X153229117Y-96469117D01*
X153104089Y-96621463D01*
X153011187Y-96795268D01*
X152953976Y-96983866D01*
X152934659Y-97180000D01*
X152953976Y-97376133D01*
X153011187Y-97564731D01*
X153083224Y-97699500D01*
X153104090Y-97738538D01*
X153229117Y-97890883D01*
X153381462Y-98015910D01*
X153458426Y-98057048D01*
X153555268Y-98108812D01*
X153555270Y-98108812D01*
X153555273Y-98108814D01*
X153743868Y-98166024D01*
X153933254Y-98184676D01*
X153983203Y-98211375D01*
X154000000Y-98258320D01*
X154000000Y-101181679D01*
X153978326Y-101234005D01*
X153933254Y-101255323D01*
X153743866Y-101273976D01*
X153555268Y-101331187D01*
X153381463Y-101424089D01*
X153229117Y-101549117D01*
X153104089Y-101701463D01*
X153011187Y-101875268D01*
X152953976Y-102063866D01*
X152934659Y-102260000D01*
X152953976Y-102456133D01*
X153011187Y-102644731D01*
X153076066Y-102766109D01*
X153081618Y-102822473D01*
X153063130Y-102853318D01*
X152516426Y-103400024D01*
X152460022Y-103456428D01*
X152429500Y-103530116D01*
X152429500Y-104187308D01*
X152407826Y-104239634D01*
X152355500Y-104261308D01*
X152330191Y-104256846D01*
X152310008Y-104249500D01*
X152204036Y-104249500D01*
X152204033Y-104249500D01*
X152104454Y-104285743D01*
X152104451Y-104285745D01*
X152023274Y-104353860D01*
X152007317Y-104381500D01*
X151962384Y-104415979D01*
X151943231Y-104418500D01*
X151723302Y-104418500D01*
X151670976Y-104396826D01*
X151649302Y-104344500D01*
X151650724Y-104330062D01*
X151651250Y-104327420D01*
X151651250Y-104097780D01*
X151642517Y-104053878D01*
X151609254Y-104004096D01*
X151559472Y-103970833D01*
X151540061Y-103966971D01*
X151492971Y-103935505D01*
X151480500Y-103894394D01*
X151480500Y-103308675D01*
X151502174Y-103256349D01*
X151513382Y-103247150D01*
X151560601Y-103215601D01*
X151615966Y-103132740D01*
X151630500Y-103059674D01*
X151630500Y-102750326D01*
X151615966Y-102677260D01*
X151581789Y-102626110D01*
X151570741Y-102570563D01*
X151581790Y-102543889D01*
X151615966Y-102492740D01*
X151630500Y-102419674D01*
X151630500Y-102110326D01*
X151628921Y-102102387D01*
X151639971Y-102046839D01*
X151676187Y-102018415D01*
X151742568Y-101994256D01*
X151742569Y-101994254D01*
X151742571Y-101994254D01*
X151823747Y-101926139D01*
X151823847Y-101925966D01*
X151876734Y-101834363D01*
X151895136Y-101730000D01*
X151876734Y-101625637D01*
X151835442Y-101554117D01*
X151823747Y-101533860D01*
X151742570Y-101465745D01*
X151742567Y-101465743D01*
X151642988Y-101429500D01*
X151642986Y-101429500D01*
X151537014Y-101429500D01*
X151537011Y-101429500D01*
X151437432Y-101465743D01*
X151437429Y-101465745D01*
X151356252Y-101533860D01*
X151303265Y-101625638D01*
X151284294Y-101733228D01*
X151263744Y-101772704D01*
X151166984Y-101869465D01*
X151129096Y-101889717D01*
X151082259Y-101899034D01*
X150999399Y-101954398D01*
X150999398Y-101954399D01*
X150944034Y-102037259D01*
X150938742Y-102063866D01*
X150929500Y-102110326D01*
X150929500Y-102419674D01*
X150936752Y-102456132D01*
X150944034Y-102492741D01*
X150978209Y-102543889D01*
X150989258Y-102599438D01*
X150978209Y-102626111D01*
X150944034Y-102677258D01*
X150944034Y-102677260D01*
X150929500Y-102750326D01*
X150929500Y-103059674D01*
X150940544Y-103115194D01*
X150944034Y-103132740D01*
X150988959Y-103199977D01*
X150999399Y-103215601D01*
X151046612Y-103247146D01*
X151078078Y-103294237D01*
X151079500Y-103308675D01*
X151079500Y-103888100D01*
X151057826Y-103940426D01*
X151005500Y-103962100D01*
X150985930Y-103962100D01*
X150963979Y-103966466D01*
X150942027Y-103970833D01*
X150892246Y-104004095D01*
X150892245Y-104004096D01*
X150858983Y-104053877D01*
X150858983Y-104053878D01*
X150850250Y-104097780D01*
X150850250Y-104327420D01*
X150858983Y-104371322D01*
X150859610Y-104372260D01*
X150861233Y-104374689D01*
X150872281Y-104430238D01*
X150861233Y-104456909D01*
X150858983Y-104460278D01*
X150850250Y-104504180D01*
X150850250Y-104733820D01*
X150858983Y-104777722D01*
X150858984Y-104777723D01*
X150861233Y-104781089D01*
X150872281Y-104836638D01*
X150861233Y-104863309D01*
X150858983Y-104866678D01*
X150850250Y-104910580D01*
X150850250Y-105140220D01*
X150858983Y-105184122D01*
X150858984Y-105184123D01*
X150861233Y-105187489D01*
X150872281Y-105243038D01*
X150861233Y-105269711D01*
X150858983Y-105273078D01*
X150850250Y-105316980D01*
X150850250Y-105338300D01*
X150828576Y-105390626D01*
X150776250Y-105412300D01*
X150525530Y-105412300D01*
X150522482Y-105412906D01*
X150466934Y-105401853D01*
X150435471Y-105354759D01*
X150434050Y-105340327D01*
X150434050Y-105316980D01*
X150425317Y-105273078D01*
X150425298Y-105273049D01*
X150423070Y-105269714D01*
X150412018Y-105214166D01*
X150423070Y-105187486D01*
X150425316Y-105184123D01*
X150425315Y-105184123D01*
X150425317Y-105184122D01*
X150434050Y-105140220D01*
X150434050Y-104910580D01*
X150425317Y-104866678D01*
X150425316Y-104866676D01*
X150423070Y-104863314D01*
X150412018Y-104807766D01*
X150423070Y-104781086D01*
X150425316Y-104777723D01*
X150425315Y-104777723D01*
X150425317Y-104777722D01*
X150434050Y-104733820D01*
X150434050Y-104504180D01*
X150425317Y-104460278D01*
X150423679Y-104457826D01*
X150423070Y-104456914D01*
X150412018Y-104401366D01*
X150423070Y-104374686D01*
X150425316Y-104371323D01*
X150425315Y-104371323D01*
X150425317Y-104371322D01*
X150434050Y-104327420D01*
X150434050Y-104097780D01*
X150425317Y-104053878D01*
X150392054Y-104004096D01*
X150342272Y-103970833D01*
X150298370Y-103962100D01*
X149768730Y-103962100D01*
X149746779Y-103966466D01*
X149724827Y-103970833D01*
X149675046Y-104004095D01*
X149675045Y-104004096D01*
X149641783Y-104053877D01*
X149641783Y-104053878D01*
X149633050Y-104097780D01*
X149633050Y-104327420D01*
X149641783Y-104371322D01*
X149642410Y-104372260D01*
X149644033Y-104374689D01*
X149655081Y-104430238D01*
X149644033Y-104456909D01*
X149641783Y-104460278D01*
X149633050Y-104504180D01*
X149633050Y-104733820D01*
X149641783Y-104777722D01*
X149641784Y-104777723D01*
X149644033Y-104781089D01*
X149655081Y-104836638D01*
X149644033Y-104863309D01*
X149641783Y-104866678D01*
X149633050Y-104910580D01*
X149633050Y-105140220D01*
X149641783Y-105184122D01*
X149641784Y-105184123D01*
X149644033Y-105187489D01*
X149655081Y-105243038D01*
X149644033Y-105269709D01*
X149641783Y-105273078D01*
X149633050Y-105316980D01*
X149633050Y-105546620D01*
X149641783Y-105590522D01*
X149642887Y-105592174D01*
X149644033Y-105593889D01*
X149655081Y-105649438D01*
X149644033Y-105676111D01*
X149641783Y-105679478D01*
X149633050Y-105723380D01*
X149633050Y-105924497D01*
X149611377Y-105976822D01*
X149590025Y-105998174D01*
X149590022Y-105998178D01*
X149559500Y-106071866D01*
X149559500Y-106211456D01*
X149537826Y-106263782D01*
X149533070Y-106268140D01*
X149526252Y-106273861D01*
X149473265Y-106365638D01*
X149454864Y-106470000D01*
X149473265Y-106574362D01*
X149526252Y-106666139D01*
X149607429Y-106734254D01*
X149607432Y-106734256D01*
X149707011Y-106770499D01*
X149707012Y-106770500D01*
X149707014Y-106770500D01*
X149812988Y-106770500D01*
X149812988Y-106770499D01*
X149912568Y-106734256D01*
X149993748Y-106666138D01*
X150046734Y-106574363D01*
X150065136Y-106470000D01*
X150046734Y-106365637D01*
X150010513Y-106302900D01*
X150003121Y-106246747D01*
X150037599Y-106201814D01*
X150074599Y-106191900D01*
X150298369Y-106191900D01*
X150298370Y-106191900D01*
X150342272Y-106183167D01*
X150350937Y-106177376D01*
X150406485Y-106166327D01*
X150453578Y-106197792D01*
X150466050Y-106238905D01*
X150466050Y-108959748D01*
X150444376Y-109012074D01*
X149338624Y-110117826D01*
X149286298Y-110139500D01*
X149247011Y-110139500D01*
X149147432Y-110175743D01*
X149147429Y-110175745D01*
X149066252Y-110243860D01*
X149013265Y-110335637D01*
X148994864Y-110440000D01*
X149013265Y-110544362D01*
X149066252Y-110636139D01*
X149147429Y-110704254D01*
X149147432Y-110704256D01*
X149247011Y-110740499D01*
X149247012Y-110740500D01*
X149247014Y-110740500D01*
X149352988Y-110740500D01*
X149352988Y-110740499D01*
X149452568Y-110704256D01*
X149533748Y-110636138D01*
X149586734Y-110544363D01*
X149605136Y-110440000D01*
X149605135Y-110439998D01*
X149605705Y-110436770D01*
X149626253Y-110397295D01*
X150836526Y-109187024D01*
X150867050Y-109113332D01*
X150867050Y-109033567D01*
X150867050Y-106233712D01*
X150888724Y-106181386D01*
X150899941Y-106172181D01*
X150901254Y-106171304D01*
X150934473Y-106121588D01*
X150981565Y-106090122D01*
X150996002Y-106088700D01*
X151515569Y-106088700D01*
X151515570Y-106088700D01*
X151559472Y-106079967D01*
X151609254Y-106046704D01*
X151642517Y-105996922D01*
X151651250Y-105953020D01*
X151651250Y-105723380D01*
X151650724Y-105720736D01*
X151650901Y-105719843D01*
X151650894Y-105719764D01*
X151650918Y-105719761D01*
X151661772Y-105665189D01*
X151708864Y-105633722D01*
X151723302Y-105632300D01*
X152348081Y-105632300D01*
X152348082Y-105632300D01*
X152421774Y-105601776D01*
X152799976Y-105223574D01*
X152827133Y-105158011D01*
X152867181Y-105117962D01*
X152923818Y-105117962D01*
X152963867Y-105158010D01*
X152969500Y-105186329D01*
X152969500Y-105664820D01*
X152978233Y-105708722D01*
X153011496Y-105758504D01*
X153061278Y-105791767D01*
X153105180Y-105800500D01*
X153105181Y-105800500D01*
X153926000Y-105800500D01*
X153978326Y-105822174D01*
X154000000Y-105874500D01*
X154000000Y-106264634D01*
X153978326Y-106316960D01*
X153933254Y-106338278D01*
X153773866Y-106353976D01*
X153585268Y-106411187D01*
X153411463Y-106504089D01*
X153259117Y-106629117D01*
X153134089Y-106781463D01*
X153041187Y-106955268D01*
X152983976Y-107143866D01*
X152964659Y-107340000D01*
X152983976Y-107536133D01*
X153041187Y-107724731D01*
X153128776Y-107888597D01*
X153134090Y-107898538D01*
X153259117Y-108050883D01*
X153411462Y-108175910D01*
X153486297Y-108215910D01*
X153585268Y-108268812D01*
X153585270Y-108268812D01*
X153585273Y-108268814D01*
X153773868Y-108326024D01*
X153933254Y-108341721D01*
X153983203Y-108368420D01*
X154000000Y-108415365D01*
X154000000Y-108804634D01*
X153978326Y-108856960D01*
X153933254Y-108878278D01*
X153773866Y-108893976D01*
X153585268Y-108951187D01*
X153411463Y-109044089D01*
X153259117Y-109169117D01*
X153134089Y-109321463D01*
X153041187Y-109495268D01*
X152983976Y-109683866D01*
X152964659Y-109880000D01*
X152983976Y-110076133D01*
X153041187Y-110264731D01*
X153105173Y-110384438D01*
X153134090Y-110438538D01*
X153259117Y-110590883D01*
X153411462Y-110715910D01*
X153457465Y-110740499D01*
X153585268Y-110808812D01*
X153585270Y-110808812D01*
X153585273Y-110808814D01*
X153773868Y-110866024D01*
X153933254Y-110881721D01*
X153983203Y-110908420D01*
X154000000Y-110955365D01*
X154000000Y-111344634D01*
X153978326Y-111396960D01*
X153933254Y-111418278D01*
X153773866Y-111433976D01*
X153585268Y-111491187D01*
X153411463Y-111584089D01*
X153259117Y-111709117D01*
X153134089Y-111861463D01*
X153041187Y-112035268D01*
X152983976Y-112223866D01*
X152964659Y-112420000D01*
X152983976Y-112616133D01*
X153041187Y-112804731D01*
X153106066Y-112926109D01*
X153111618Y-112982473D01*
X153093130Y-113013318D01*
X152848334Y-113258114D01*
X152796008Y-113279788D01*
X152743682Y-113258114D01*
X152723132Y-113218637D01*
X152708087Y-113133314D01*
X152706734Y-113125637D01*
X152660916Y-113046278D01*
X152653747Y-113033860D01*
X152572570Y-112965745D01*
X152572567Y-112965743D01*
X152472988Y-112929500D01*
X152472986Y-112929500D01*
X152367014Y-112929500D01*
X152360540Y-112929500D01*
X152360540Y-112925709D01*
X152317626Y-112916173D01*
X152289255Y-112871611D01*
X152288950Y-112871723D01*
X152288448Y-112870344D01*
X152287226Y-112868425D01*
X152286734Y-112865638D01*
X152286734Y-112865637D01*
X152233748Y-112773862D01*
X152233747Y-112773860D01*
X152152570Y-112705745D01*
X152152567Y-112705743D01*
X152052988Y-112669500D01*
X152052986Y-112669500D01*
X151947014Y-112669500D01*
X151947013Y-112669500D01*
X151924701Y-112677620D01*
X151907072Y-112684037D01*
X151881764Y-112688500D01*
X151873302Y-112688500D01*
X151820976Y-112666826D01*
X151799302Y-112614500D01*
X151800724Y-112600062D01*
X151800759Y-112599888D01*
X151801250Y-112597420D01*
X151801250Y-112367780D01*
X151792517Y-112323878D01*
X151759254Y-112274096D01*
X151709472Y-112240833D01*
X151665570Y-112232100D01*
X151665569Y-112232100D01*
X151664500Y-112232100D01*
X151664165Y-112231961D01*
X151661950Y-112231743D01*
X151662016Y-112231071D01*
X151612174Y-112210426D01*
X151590500Y-112158100D01*
X151590500Y-111093675D01*
X151612174Y-111041349D01*
X151623382Y-111032150D01*
X151670601Y-111000601D01*
X151725966Y-110917740D01*
X151740500Y-110844674D01*
X151740500Y-110535326D01*
X151725966Y-110462260D01*
X151691789Y-110411110D01*
X151680741Y-110355563D01*
X151691790Y-110328889D01*
X151725966Y-110277740D01*
X151740500Y-110204674D01*
X151740500Y-109895326D01*
X151725966Y-109822260D01*
X151670601Y-109739399D01*
X151670600Y-109739398D01*
X151631495Y-109713269D01*
X151600029Y-109666177D01*
X151611078Y-109610628D01*
X151619607Y-109601115D01*
X151619587Y-109601098D01*
X151623746Y-109596140D01*
X151623746Y-109596139D01*
X151623748Y-109596138D01*
X151676734Y-109504363D01*
X151695136Y-109400000D01*
X151676734Y-109295637D01*
X151623748Y-109203862D01*
X151623747Y-109203860D01*
X151542570Y-109135745D01*
X151542567Y-109135743D01*
X151442988Y-109099500D01*
X151442986Y-109099500D01*
X151337014Y-109099500D01*
X151337011Y-109099500D01*
X151237432Y-109135743D01*
X151237429Y-109135745D01*
X151156252Y-109203860D01*
X151103265Y-109295637D01*
X151084864Y-109400000D01*
X151103265Y-109504362D01*
X151156253Y-109596140D01*
X151160413Y-109601098D01*
X151158806Y-109602446D01*
X151181110Y-109645289D01*
X151164080Y-109699305D01*
X151148505Y-109713268D01*
X151109400Y-109739397D01*
X151109398Y-109739399D01*
X151054034Y-109822259D01*
X151039500Y-109895327D01*
X151039500Y-110204672D01*
X151054034Y-110277741D01*
X151088209Y-110328889D01*
X151099258Y-110384438D01*
X151088209Y-110411111D01*
X151054034Y-110462258D01*
X151054034Y-110462260D01*
X151039500Y-110535326D01*
X151039500Y-110844674D01*
X151052180Y-110908420D01*
X151054034Y-110917740D01*
X151068963Y-110940084D01*
X151109399Y-111000601D01*
X151156612Y-111032146D01*
X151188078Y-111079237D01*
X151189500Y-111093675D01*
X151189500Y-112160714D01*
X151167826Y-112213040D01*
X151129938Y-112233292D01*
X151092027Y-112240833D01*
X151042246Y-112274095D01*
X151042245Y-112274096D01*
X151008983Y-112323877D01*
X151008983Y-112323878D01*
X151000250Y-112367780D01*
X151000250Y-112597420D01*
X151008983Y-112641322D01*
X151008984Y-112641323D01*
X151011233Y-112644689D01*
X151022281Y-112700238D01*
X151011233Y-112726909D01*
X151008983Y-112730278D01*
X151000250Y-112774180D01*
X151000250Y-113003820D01*
X151008983Y-113047722D01*
X151008984Y-113047723D01*
X151011233Y-113051089D01*
X151022281Y-113106638D01*
X151011233Y-113133309D01*
X151008983Y-113136678D01*
X151000250Y-113180580D01*
X151000250Y-113410220D01*
X151008983Y-113454122D01*
X151008984Y-113454123D01*
X151011233Y-113457489D01*
X151022281Y-113513038D01*
X151011233Y-113539711D01*
X151008983Y-113543078D01*
X151000250Y-113586980D01*
X151000250Y-113608300D01*
X150978576Y-113660626D01*
X150926250Y-113682300D01*
X150675530Y-113682300D01*
X150672482Y-113682906D01*
X150616934Y-113671853D01*
X150585471Y-113624759D01*
X150584050Y-113610327D01*
X150584050Y-113586980D01*
X150581672Y-113575026D01*
X150575317Y-113543078D01*
X150575316Y-113543076D01*
X150573070Y-113539714D01*
X150562018Y-113484166D01*
X150573070Y-113457486D01*
X150575316Y-113454123D01*
X150575315Y-113454123D01*
X150575317Y-113454122D01*
X150584050Y-113410220D01*
X150584050Y-113180580D01*
X150575317Y-113136678D01*
X150575316Y-113136676D01*
X150573070Y-113133314D01*
X150562018Y-113077766D01*
X150573070Y-113051086D01*
X150575316Y-113047723D01*
X150575315Y-113047723D01*
X150575317Y-113047722D01*
X150584050Y-113003820D01*
X150584050Y-112774180D01*
X150575317Y-112730278D01*
X150575316Y-112730276D01*
X150573070Y-112726914D01*
X150562018Y-112671366D01*
X150573070Y-112644686D01*
X150575316Y-112641323D01*
X150575315Y-112641323D01*
X150575317Y-112641322D01*
X150584050Y-112597420D01*
X150584050Y-112367780D01*
X150575317Y-112323878D01*
X150542054Y-112274096D01*
X150492272Y-112240833D01*
X150448370Y-112232100D01*
X149918730Y-112232100D01*
X149912738Y-112233292D01*
X149874827Y-112240833D01*
X149825046Y-112274095D01*
X149825045Y-112274096D01*
X149791783Y-112323877D01*
X149791783Y-112323878D01*
X149783050Y-112367780D01*
X149783050Y-112597420D01*
X149791783Y-112641322D01*
X149791784Y-112641323D01*
X149794033Y-112644689D01*
X149805081Y-112700238D01*
X149794033Y-112726909D01*
X149791783Y-112730278D01*
X149783050Y-112774180D01*
X149783050Y-113003820D01*
X149791783Y-113047722D01*
X149791784Y-113047723D01*
X149794033Y-113051089D01*
X149805081Y-113106638D01*
X149794033Y-113133309D01*
X149791783Y-113136678D01*
X149783050Y-113180580D01*
X149783050Y-113410220D01*
X149791783Y-113454122D01*
X149791784Y-113454123D01*
X149794033Y-113457489D01*
X149805081Y-113513038D01*
X149794033Y-113539709D01*
X149791783Y-113543078D01*
X149783050Y-113586980D01*
X149783050Y-113816620D01*
X149791783Y-113860522D01*
X149794033Y-113863889D01*
X149805081Y-113919438D01*
X149794033Y-113946109D01*
X149791783Y-113949478D01*
X149783050Y-113993380D01*
X149783050Y-114223020D01*
X149783296Y-114224256D01*
X149791783Y-114266922D01*
X149817435Y-114305314D01*
X149825046Y-114316704D01*
X149874828Y-114349967D01*
X149918730Y-114358700D01*
X150045397Y-114358700D01*
X150097723Y-114380374D01*
X150106925Y-114391587D01*
X150120978Y-114412618D01*
X150133450Y-114453731D01*
X150133450Y-115203833D01*
X150163972Y-115277521D01*
X150163975Y-115277525D01*
X150513744Y-115627294D01*
X150534294Y-115666770D01*
X150553265Y-115774361D01*
X150606252Y-115866139D01*
X150687429Y-115934254D01*
X150687432Y-115934256D01*
X150787011Y-115970499D01*
X150787012Y-115970500D01*
X150787014Y-115970500D01*
X150892988Y-115970500D01*
X150892988Y-115970499D01*
X150992568Y-115934256D01*
X151073748Y-115866138D01*
X151126734Y-115774363D01*
X151145136Y-115670000D01*
X151126734Y-115565637D01*
X151094544Y-115509882D01*
X151073747Y-115473860D01*
X150992570Y-115405745D01*
X150992567Y-115405743D01*
X150892988Y-115369500D01*
X150892986Y-115369500D01*
X150853702Y-115369500D01*
X150801376Y-115347826D01*
X150556124Y-115102574D01*
X150534450Y-115050248D01*
X150534450Y-115042973D01*
X150556124Y-114990647D01*
X150608450Y-114968973D01*
X150656017Y-114986287D01*
X150677429Y-115004254D01*
X150677432Y-115004256D01*
X150777011Y-115040499D01*
X150777012Y-115040500D01*
X150777014Y-115040500D01*
X150882988Y-115040500D01*
X150882988Y-115040499D01*
X150982568Y-115004256D01*
X151063748Y-114936138D01*
X151116734Y-114844363D01*
X151135136Y-114740000D01*
X151116734Y-114635637D01*
X151085894Y-114582220D01*
X151063749Y-114543863D01*
X151063748Y-114543862D01*
X151062652Y-114542942D01*
X151062122Y-114541924D01*
X151059589Y-114538906D01*
X151060258Y-114538344D01*
X151036499Y-114492708D01*
X151048689Y-114445142D01*
X151062159Y-114424984D01*
X151077875Y-114401463D01*
X151084474Y-114391587D01*
X151131566Y-114360122D01*
X151146002Y-114358700D01*
X151665569Y-114358700D01*
X151665570Y-114358700D01*
X151709472Y-114349967D01*
X151752569Y-114321171D01*
X151793681Y-114308700D01*
X152771681Y-114308700D01*
X152771682Y-114308700D01*
X152845374Y-114278176D01*
X152845377Y-114278172D01*
X152851435Y-114274126D01*
X152853466Y-114277166D01*
X152893702Y-114260500D01*
X152932988Y-114260500D01*
X152932988Y-114260499D01*
X153032568Y-114224256D01*
X153113748Y-114156138D01*
X153166734Y-114064363D01*
X153185136Y-113960000D01*
X153166734Y-113855637D01*
X153113748Y-113763862D01*
X153064653Y-113722666D01*
X153038502Y-113672430D01*
X153055532Y-113618414D01*
X153059883Y-113613665D01*
X153376681Y-113296867D01*
X153429006Y-113275194D01*
X153463887Y-113283931D01*
X153585273Y-113348814D01*
X153773868Y-113406024D01*
X153933254Y-113421721D01*
X153983203Y-113448420D01*
X154000000Y-113495365D01*
X154000000Y-113884634D01*
X153978326Y-113936960D01*
X153933254Y-113958278D01*
X153773866Y-113973976D01*
X153585268Y-114031187D01*
X153411463Y-114124089D01*
X153259117Y-114249117D01*
X153134089Y-114401463D01*
X153041187Y-114575268D01*
X152983976Y-114763866D01*
X152964659Y-114960000D01*
X152983976Y-115156133D01*
X153041187Y-115344731D01*
X153086828Y-115430118D01*
X153134090Y-115518538D01*
X153259117Y-115670883D01*
X153411462Y-115795910D01*
X153486297Y-115835910D01*
X153585268Y-115888812D01*
X153585270Y-115888812D01*
X153585273Y-115888814D01*
X153773868Y-115946024D01*
X153933254Y-115961721D01*
X153983203Y-115988420D01*
X154000000Y-116035365D01*
X154000000Y-116424634D01*
X153978326Y-116476960D01*
X153933254Y-116498278D01*
X153773866Y-116513976D01*
X153585268Y-116571187D01*
X153411463Y-116664089D01*
X153259117Y-116789117D01*
X153134089Y-116941463D01*
X153041187Y-117115268D01*
X152983976Y-117303866D01*
X152964659Y-117500000D01*
X152983976Y-117696133D01*
X153041187Y-117884731D01*
X153128776Y-118048597D01*
X153134090Y-118058538D01*
X153259117Y-118210883D01*
X153411462Y-118335910D01*
X153486297Y-118375910D01*
X153585268Y-118428812D01*
X153585270Y-118428812D01*
X153585273Y-118428814D01*
X153773868Y-118486024D01*
X153933254Y-118501721D01*
X153983203Y-118528420D01*
X154000000Y-118575365D01*
X154000000Y-118964634D01*
X153978326Y-119016960D01*
X153933254Y-119038278D01*
X153773866Y-119053976D01*
X153585268Y-119111187D01*
X153411463Y-119204089D01*
X153259117Y-119329117D01*
X153134089Y-119481463D01*
X153041187Y-119655268D01*
X152983976Y-119843866D01*
X152964659Y-120040000D01*
X152983976Y-120236133D01*
X153041187Y-120424731D01*
X153118661Y-120569672D01*
X153134090Y-120598538D01*
X153259117Y-120750883D01*
X153411462Y-120875910D01*
X153486297Y-120915910D01*
X153585268Y-120968812D01*
X153585270Y-120968812D01*
X153585273Y-120968814D01*
X153773868Y-121026024D01*
X153933254Y-121041721D01*
X153983203Y-121068420D01*
X154000000Y-121115365D01*
X154000000Y-121504634D01*
X153978326Y-121556960D01*
X153933254Y-121578278D01*
X153773866Y-121593976D01*
X153585268Y-121651187D01*
X153411463Y-121744089D01*
X153259117Y-121869117D01*
X153134089Y-122021463D01*
X153041187Y-122195268D01*
X152983976Y-122383866D01*
X152964659Y-122580000D01*
X152982653Y-122762705D01*
X152983976Y-122776132D01*
X152994249Y-122809999D01*
X152995851Y-122815278D01*
X152990299Y-122871643D01*
X152977363Y-122889085D01*
X152776419Y-123090029D01*
X152724093Y-123111703D01*
X152671767Y-123090029D01*
X152660007Y-123074702D01*
X152653748Y-123063861D01*
X152572570Y-122995745D01*
X152572568Y-122995744D01*
X152499186Y-122969035D01*
X152457429Y-122930772D01*
X152451620Y-122886650D01*
X152465136Y-122810000D01*
X152446734Y-122705637D01*
X152393748Y-122613862D01*
X152393747Y-122613860D01*
X152312570Y-122545745D01*
X152312567Y-122545743D01*
X152212988Y-122509500D01*
X152212986Y-122509500D01*
X152107014Y-122509500D01*
X152107011Y-122509500D01*
X152007432Y-122545743D01*
X152007429Y-122545745D01*
X151922816Y-122616744D01*
X151868800Y-122633775D01*
X151818563Y-122607623D01*
X151801250Y-122560057D01*
X151801250Y-122527780D01*
X151798128Y-122512085D01*
X151792517Y-122483878D01*
X151759254Y-122434096D01*
X151737409Y-122419500D01*
X151709472Y-122400833D01*
X151665570Y-122392100D01*
X151665569Y-122392100D01*
X151664500Y-122392100D01*
X151664165Y-122391961D01*
X151661950Y-122391743D01*
X151662016Y-122391071D01*
X151612174Y-122370426D01*
X151590500Y-122318100D01*
X151590500Y-121458675D01*
X151612174Y-121406349D01*
X151623382Y-121397150D01*
X151670601Y-121365601D01*
X151725966Y-121282740D01*
X151740500Y-121209674D01*
X151740500Y-120900326D01*
X151725966Y-120827260D01*
X151691789Y-120776110D01*
X151680741Y-120720563D01*
X151691790Y-120693889D01*
X151725966Y-120642740D01*
X151740500Y-120569674D01*
X151740500Y-120260326D01*
X151725966Y-120187260D01*
X151670601Y-120104399D01*
X151647456Y-120088934D01*
X151623042Y-120072621D01*
X151591576Y-120025529D01*
X151591576Y-120025528D01*
X151590500Y-120020122D01*
X151590500Y-120020118D01*
X151559976Y-119946426D01*
X151503574Y-119890024D01*
X151326255Y-119712705D01*
X151305705Y-119673229D01*
X151286734Y-119565637D01*
X151233747Y-119473860D01*
X151152570Y-119405745D01*
X151152567Y-119405743D01*
X151052988Y-119369500D01*
X151052986Y-119369500D01*
X150947014Y-119369500D01*
X150947011Y-119369500D01*
X150847432Y-119405743D01*
X150847429Y-119405745D01*
X150766252Y-119473860D01*
X150713265Y-119565637D01*
X150694864Y-119670000D01*
X150713265Y-119774362D01*
X150766252Y-119866139D01*
X150847429Y-119934254D01*
X150847432Y-119934256D01*
X150947011Y-119970499D01*
X150947012Y-119970500D01*
X150947014Y-119970500D01*
X150986298Y-119970500D01*
X151038624Y-119992174D01*
X151083058Y-120036608D01*
X151104732Y-120088934D01*
X151092262Y-120130045D01*
X151054035Y-120187259D01*
X151054034Y-120187260D01*
X151044313Y-120236133D01*
X151039500Y-120260327D01*
X151039500Y-120569672D01*
X151054034Y-120642741D01*
X151088209Y-120693889D01*
X151099258Y-120749438D01*
X151088209Y-120776111D01*
X151054034Y-120827258D01*
X151044357Y-120875910D01*
X151039500Y-120900326D01*
X151039500Y-121209674D01*
X151054034Y-121282740D01*
X151109399Y-121365601D01*
X151156612Y-121397146D01*
X151188078Y-121444237D01*
X151189500Y-121458675D01*
X151189500Y-122320714D01*
X151167826Y-122373040D01*
X151129938Y-122393292D01*
X151092027Y-122400833D01*
X151042246Y-122434095D01*
X151042245Y-122434096D01*
X151008983Y-122483877D01*
X151008983Y-122483878D01*
X151000250Y-122527780D01*
X151000250Y-122757420D01*
X151008983Y-122801322D01*
X151008984Y-122801323D01*
X151011233Y-122804689D01*
X151022281Y-122860238D01*
X151011233Y-122886909D01*
X151008983Y-122890278D01*
X151000250Y-122934180D01*
X151000250Y-123163820D01*
X151008983Y-123207722D01*
X151008984Y-123207723D01*
X151011233Y-123211089D01*
X151022281Y-123266638D01*
X151011233Y-123293309D01*
X151008983Y-123296678D01*
X151000250Y-123340580D01*
X151000250Y-123570220D01*
X151008983Y-123614122D01*
X151008984Y-123614123D01*
X151011233Y-123617489D01*
X151022281Y-123673038D01*
X151011233Y-123699711D01*
X151008983Y-123703078D01*
X151000250Y-123746980D01*
X151000250Y-123768300D01*
X150978576Y-123820626D01*
X150926250Y-123842300D01*
X150675530Y-123842300D01*
X150672482Y-123842906D01*
X150616934Y-123831853D01*
X150585471Y-123784759D01*
X150584050Y-123770327D01*
X150584050Y-123746980D01*
X150575317Y-123703078D01*
X150575316Y-123703076D01*
X150573070Y-123699714D01*
X150562018Y-123644166D01*
X150573070Y-123617486D01*
X150575316Y-123614123D01*
X150575315Y-123614123D01*
X150575317Y-123614122D01*
X150584050Y-123570220D01*
X150584050Y-123340580D01*
X150575317Y-123296678D01*
X150575316Y-123296676D01*
X150573070Y-123293314D01*
X150562018Y-123237766D01*
X150573070Y-123211086D01*
X150575316Y-123207723D01*
X150575315Y-123207723D01*
X150575317Y-123207722D01*
X150584050Y-123163820D01*
X150584050Y-122934180D01*
X150575317Y-122890278D01*
X150574520Y-122889085D01*
X150573070Y-122886914D01*
X150562018Y-122831366D01*
X150573070Y-122804686D01*
X150575316Y-122801323D01*
X150575315Y-122801323D01*
X150575317Y-122801322D01*
X150584050Y-122757420D01*
X150584050Y-122527780D01*
X150575317Y-122483878D01*
X150542054Y-122434096D01*
X150520209Y-122419500D01*
X150492272Y-122400833D01*
X150448370Y-122392100D01*
X149918730Y-122392100D01*
X149912738Y-122393292D01*
X149874827Y-122400833D01*
X149825046Y-122434095D01*
X149825045Y-122434096D01*
X149791783Y-122483877D01*
X149791783Y-122483878D01*
X149783050Y-122527780D01*
X149783050Y-122757420D01*
X149791783Y-122801322D01*
X149791784Y-122801323D01*
X149794033Y-122804689D01*
X149805081Y-122860238D01*
X149794033Y-122886909D01*
X149791783Y-122890278D01*
X149783050Y-122934180D01*
X149783050Y-123163820D01*
X149791783Y-123207722D01*
X149791784Y-123207723D01*
X149794033Y-123211089D01*
X149805081Y-123266638D01*
X149794033Y-123293309D01*
X149791783Y-123296678D01*
X149783050Y-123340580D01*
X149783050Y-123570220D01*
X149791783Y-123614122D01*
X149791784Y-123614123D01*
X149794033Y-123617489D01*
X149805081Y-123673038D01*
X149794033Y-123699709D01*
X149791783Y-123703078D01*
X149783050Y-123746980D01*
X149783050Y-123976620D01*
X149791783Y-124020522D01*
X149794033Y-124023889D01*
X149805081Y-124079438D01*
X149794033Y-124106109D01*
X149791783Y-124109478D01*
X149783050Y-124153380D01*
X149783050Y-124383020D01*
X149791783Y-124426922D01*
X149825046Y-124476704D01*
X149874828Y-124509967D01*
X149918730Y-124518700D01*
X150045397Y-124518700D01*
X150097723Y-124540374D01*
X150106925Y-124551587D01*
X150120978Y-124572618D01*
X150133450Y-124613731D01*
X150133450Y-124635500D01*
X150111776Y-124687826D01*
X150059450Y-124709500D01*
X150037011Y-124709500D01*
X149937432Y-124745743D01*
X149937429Y-124745745D01*
X149856252Y-124813860D01*
X149803265Y-124905637D01*
X149784864Y-125010000D01*
X149803265Y-125114362D01*
X149856253Y-125206140D01*
X149857341Y-125207437D01*
X149857748Y-125208731D01*
X149859489Y-125211745D01*
X149858820Y-125212130D01*
X149874369Y-125261453D01*
X149859195Y-125298085D01*
X149859489Y-125298255D01*
X149858202Y-125300483D01*
X149857341Y-125302563D01*
X149856253Y-125303859D01*
X149803265Y-125395637D01*
X149784864Y-125500000D01*
X149803265Y-125604362D01*
X149856252Y-125696139D01*
X149937429Y-125764254D01*
X149937432Y-125764256D01*
X150037011Y-125800499D01*
X150037012Y-125800500D01*
X150037014Y-125800500D01*
X150142988Y-125800500D01*
X150142988Y-125800499D01*
X150242568Y-125764256D01*
X150323748Y-125696138D01*
X150376734Y-125604363D01*
X150395136Y-125500000D01*
X150395135Y-125499998D01*
X150395705Y-125496770D01*
X150416253Y-125457295D01*
X150986526Y-124887024D01*
X151017050Y-124813332D01*
X151017050Y-124733568D01*
X151017050Y-124663712D01*
X151038724Y-124611386D01*
X151049941Y-124602181D01*
X151051254Y-124601304D01*
X151084474Y-124551587D01*
X151131565Y-124520122D01*
X151146002Y-124518700D01*
X151665569Y-124518700D01*
X151665570Y-124518700D01*
X151709472Y-124509967D01*
X151752569Y-124481171D01*
X151793681Y-124468700D01*
X152431681Y-124468700D01*
X152431682Y-124468700D01*
X152505374Y-124438176D01*
X152631376Y-124312174D01*
X152683702Y-124290500D01*
X152722988Y-124290500D01*
X152722988Y-124290499D01*
X152822568Y-124254256D01*
X152903748Y-124186138D01*
X152956734Y-124094363D01*
X152975136Y-123990000D01*
X152956734Y-123885637D01*
X152944819Y-123865000D01*
X152903747Y-123793860D01*
X152822030Y-123725291D01*
X152795878Y-123675053D01*
X152812909Y-123621038D01*
X152817259Y-123616289D01*
X153148894Y-123284654D01*
X153201219Y-123262981D01*
X153253545Y-123284655D01*
X153258416Y-123290029D01*
X153259117Y-123290883D01*
X153411462Y-123415910D01*
X153419176Y-123420033D01*
X153585268Y-123508812D01*
X153585270Y-123508812D01*
X153585273Y-123508814D01*
X153773868Y-123566024D01*
X153933254Y-123581721D01*
X153983203Y-123608420D01*
X154000000Y-123655365D01*
X154000000Y-124044634D01*
X153978326Y-124096960D01*
X153933254Y-124118278D01*
X153773866Y-124133976D01*
X153585268Y-124191187D01*
X153411463Y-124284089D01*
X153259117Y-124409117D01*
X153134089Y-124561463D01*
X153041187Y-124735268D01*
X152983976Y-124923866D01*
X152964659Y-125120000D01*
X152983976Y-125316133D01*
X153041187Y-125504731D01*
X153128776Y-125668597D01*
X153134090Y-125678538D01*
X153259117Y-125830883D01*
X153411462Y-125955910D01*
X153486297Y-125995910D01*
X153585268Y-126048812D01*
X153585270Y-126048812D01*
X153585273Y-126048814D01*
X153773868Y-126106024D01*
X153933254Y-126121721D01*
X153983203Y-126148420D01*
X154000000Y-126195365D01*
X154000000Y-126584634D01*
X153978326Y-126636960D01*
X153933254Y-126658278D01*
X153773866Y-126673976D01*
X153585268Y-126731187D01*
X153411463Y-126824089D01*
X153259117Y-126949117D01*
X153134089Y-127101463D01*
X153041187Y-127275268D01*
X152983976Y-127463866D01*
X152964659Y-127660000D01*
X152983976Y-127856133D01*
X153041187Y-128044731D01*
X153086765Y-128130000D01*
X153134090Y-128218538D01*
X153259117Y-128370883D01*
X153402795Y-128488797D01*
X153429494Y-128538747D01*
X153413053Y-128592945D01*
X153363103Y-128619644D01*
X153355850Y-128620000D01*
X137662890Y-128620000D01*
X137610564Y-128598326D01*
X137588890Y-128546000D01*
X137610564Y-128493674D01*
X137615944Y-128488798D01*
X137623724Y-128482412D01*
X137710883Y-128410883D01*
X137835910Y-128258538D01*
X137928814Y-128084727D01*
X137986024Y-127896132D01*
X138005341Y-127700000D01*
X137986024Y-127503868D01*
X137928814Y-127315273D01*
X137863931Y-127193888D01*
X137858380Y-127137525D01*
X137876866Y-127106682D01*
X138539976Y-126443574D01*
X138570500Y-126369882D01*
X138570500Y-126290117D01*
X138570500Y-125373702D01*
X138592174Y-125321376D01*
X138810376Y-125103174D01*
X138862702Y-125081500D01*
X138976698Y-125081500D01*
X139029024Y-125103174D01*
X139050698Y-125155500D01*
X139049276Y-125169933D01*
X139048750Y-125172580D01*
X139048750Y-125402220D01*
X139057483Y-125446122D01*
X139090746Y-125495904D01*
X139140528Y-125529167D01*
X139184430Y-125537900D01*
X139184431Y-125537900D01*
X139187995Y-125538609D01*
X139187588Y-125540653D01*
X139231937Y-125564340D01*
X139248750Y-125611304D01*
X139248750Y-126196869D01*
X139227076Y-126249195D01*
X139215863Y-126258397D01*
X139199400Y-126269397D01*
X139199398Y-126269399D01*
X139144034Y-126352259D01*
X139129500Y-126425327D01*
X139129500Y-126734672D01*
X139144034Y-126807741D01*
X139178209Y-126858889D01*
X139189258Y-126914438D01*
X139178209Y-126941111D01*
X139144034Y-126992258D01*
X139129500Y-127065327D01*
X139129500Y-127374672D01*
X139144034Y-127447740D01*
X139181535Y-127503866D01*
X139199399Y-127530601D01*
X139246612Y-127562146D01*
X139278078Y-127609237D01*
X139279500Y-127623675D01*
X139279500Y-127863065D01*
X139257826Y-127915391D01*
X139253068Y-127919750D01*
X139236253Y-127933859D01*
X139236251Y-127933862D01*
X139183265Y-128025637D01*
X139164864Y-128130000D01*
X139183265Y-128234362D01*
X139236252Y-128326139D01*
X139317429Y-128394254D01*
X139317432Y-128394256D01*
X139417011Y-128430499D01*
X139417012Y-128430500D01*
X139417014Y-128430500D01*
X139522988Y-128430500D01*
X139522988Y-128430499D01*
X139622568Y-128394256D01*
X139703748Y-128326138D01*
X139756734Y-128234363D01*
X139775136Y-128130000D01*
X139756734Y-128025637D01*
X139703748Y-127933862D01*
X139703746Y-127933860D01*
X139699587Y-127928903D01*
X139701933Y-127926934D01*
X139680781Y-127886287D01*
X139680500Y-127879848D01*
X139680500Y-127623675D01*
X139702174Y-127571349D01*
X139713382Y-127562150D01*
X139760601Y-127530601D01*
X139815966Y-127447740D01*
X139830500Y-127374674D01*
X139830500Y-127065326D01*
X139815966Y-126992260D01*
X139781789Y-126941110D01*
X139770741Y-126885563D01*
X139781790Y-126858889D01*
X139815966Y-126807740D01*
X139830500Y-126734674D01*
X139830500Y-126425326D01*
X139815966Y-126352260D01*
X139760601Y-126269399D01*
X139760600Y-126269398D01*
X139682638Y-126217306D01*
X139651172Y-126170214D01*
X139649750Y-126155777D01*
X139649750Y-125611304D01*
X139671424Y-125558978D01*
X139710849Y-125540339D01*
X139710505Y-125538609D01*
X139714069Y-125537900D01*
X139714070Y-125537900D01*
X139757972Y-125529167D01*
X139807754Y-125495904D01*
X139841017Y-125446122D01*
X139849750Y-125402220D01*
X139849750Y-125172580D01*
X139841017Y-125128678D01*
X139841016Y-125128676D01*
X139838770Y-125125314D01*
X139827718Y-125069766D01*
X139838770Y-125043086D01*
X139841016Y-125039723D01*
X139841015Y-125039723D01*
X139841017Y-125039722D01*
X139849750Y-124995820D01*
X139849750Y-124766180D01*
X139841017Y-124722278D01*
X139840003Y-124720760D01*
X139838770Y-124718914D01*
X139827718Y-124663366D01*
X139838770Y-124636686D01*
X139841016Y-124633323D01*
X139841015Y-124633323D01*
X139841017Y-124633322D01*
X139849750Y-124589420D01*
X139849750Y-124359780D01*
X139841017Y-124315878D01*
X139841016Y-124315876D01*
X139838770Y-124312514D01*
X139827718Y-124256966D01*
X139838770Y-124230286D01*
X139841016Y-124226923D01*
X139841015Y-124226923D01*
X139841017Y-124226922D01*
X139849750Y-124183020D01*
X139849750Y-124161700D01*
X139871424Y-124109374D01*
X139923750Y-124087700D01*
X140174467Y-124087700D01*
X140174470Y-124087700D01*
X140177509Y-124087095D01*
X140233057Y-124098140D01*
X140264527Y-124145229D01*
X140265950Y-124159672D01*
X140265950Y-124183020D01*
X140274683Y-124226922D01*
X140274684Y-124226923D01*
X140276933Y-124230289D01*
X140287981Y-124285838D01*
X140276933Y-124312509D01*
X140274683Y-124315878D01*
X140265950Y-124359780D01*
X140265950Y-124589420D01*
X140274683Y-124633322D01*
X140276931Y-124636686D01*
X140276933Y-124636689D01*
X140287981Y-124692238D01*
X140276933Y-124718909D01*
X140274683Y-124722278D01*
X140265950Y-124766180D01*
X140265950Y-124995820D01*
X140274683Y-125039722D01*
X140274684Y-125039723D01*
X140276933Y-125043089D01*
X140287981Y-125098638D01*
X140276933Y-125125309D01*
X140274683Y-125128678D01*
X140265950Y-125172580D01*
X140265950Y-125402220D01*
X140274683Y-125446122D01*
X140307946Y-125495904D01*
X140357728Y-125529167D01*
X140401630Y-125537900D01*
X140401631Y-125537900D01*
X140931269Y-125537900D01*
X140931270Y-125537900D01*
X140975172Y-125529167D01*
X141024954Y-125495904D01*
X141058217Y-125446122D01*
X141066950Y-125402220D01*
X141066950Y-125172580D01*
X141058217Y-125128678D01*
X141058216Y-125128676D01*
X141055970Y-125125314D01*
X141044918Y-125069766D01*
X141055970Y-125043086D01*
X141058216Y-125039723D01*
X141058215Y-125039723D01*
X141058217Y-125039722D01*
X141066950Y-124995820D01*
X141066950Y-124766180D01*
X141058217Y-124722278D01*
X141057203Y-124720760D01*
X141055970Y-124718914D01*
X141044918Y-124663366D01*
X141055970Y-124636686D01*
X141058216Y-124633323D01*
X141058215Y-124633323D01*
X141058217Y-124633322D01*
X141066950Y-124589420D01*
X141066950Y-124359780D01*
X141058217Y-124315878D01*
X141058216Y-124315876D01*
X141055970Y-124312514D01*
X141044918Y-124256966D01*
X141055970Y-124230286D01*
X141058216Y-124226923D01*
X141058215Y-124226923D01*
X141058217Y-124226922D01*
X141066950Y-124183020D01*
X141066950Y-123953380D01*
X141058217Y-123909478D01*
X141058216Y-123909476D01*
X141055970Y-123906114D01*
X141044918Y-123850566D01*
X141055970Y-123823886D01*
X141057563Y-123821500D01*
X141058217Y-123820522D01*
X141066950Y-123776620D01*
X141066950Y-123546980D01*
X141058217Y-123503078D01*
X141024954Y-123453296D01*
X140975172Y-123420033D01*
X140931270Y-123411300D01*
X140931269Y-123411300D01*
X140804603Y-123411300D01*
X140752277Y-123389626D01*
X140743073Y-123378411D01*
X140729020Y-123357378D01*
X140716550Y-123316267D01*
X140716550Y-122446168D01*
X140716549Y-122446166D01*
X140716537Y-122446138D01*
X140694648Y-122393292D01*
X140686027Y-122372478D01*
X140686025Y-122372475D01*
X140606255Y-122292705D01*
X140585705Y-122253229D01*
X140566734Y-122145637D01*
X140513747Y-122053860D01*
X140432570Y-121985745D01*
X140432567Y-121985743D01*
X140332988Y-121949500D01*
X140332986Y-121949500D01*
X140227014Y-121949500D01*
X140227011Y-121949500D01*
X140127432Y-121985743D01*
X140127429Y-121985745D01*
X140046252Y-122053860D01*
X139993265Y-122145637D01*
X139974864Y-122250000D01*
X139993265Y-122354362D01*
X140046252Y-122446139D01*
X140127429Y-122514254D01*
X140127432Y-122514256D01*
X140227011Y-122550499D01*
X140227012Y-122550500D01*
X140227014Y-122550500D01*
X140241550Y-122550500D01*
X140293876Y-122572174D01*
X140315550Y-122624500D01*
X140315550Y-122983348D01*
X140293876Y-123035674D01*
X140241550Y-123057348D01*
X140189224Y-123035674D01*
X139916255Y-122762705D01*
X139895705Y-122723229D01*
X139876734Y-122615637D01*
X139823747Y-122523860D01*
X139742570Y-122455745D01*
X139742567Y-122455743D01*
X139642988Y-122419500D01*
X139642986Y-122419500D01*
X139537014Y-122419500D01*
X139537011Y-122419500D01*
X139437432Y-122455743D01*
X139437429Y-122455745D01*
X139390580Y-122495055D01*
X139336564Y-122512085D01*
X139290689Y-122490693D01*
X137702704Y-120902708D01*
X137681030Y-120850382D01*
X137702704Y-120798056D01*
X137708080Y-120793183D01*
X137710883Y-120790883D01*
X137835910Y-120638538D01*
X137928814Y-120464727D01*
X137986024Y-120276132D01*
X138005341Y-120080000D01*
X137986024Y-119883868D01*
X137928814Y-119695273D01*
X137928812Y-119695270D01*
X137928812Y-119695268D01*
X137859522Y-119565637D01*
X137835910Y-119521462D01*
X137710883Y-119369117D01*
X137558538Y-119244090D01*
X137548597Y-119238776D01*
X137384731Y-119151187D01*
X137196133Y-119093976D01*
X137132513Y-119087710D01*
X137066746Y-119081232D01*
X137016797Y-119054534D01*
X137000000Y-119007589D01*
X137000000Y-118612410D01*
X137021674Y-118560084D01*
X137066744Y-118538767D01*
X137196132Y-118526024D01*
X137384727Y-118468814D01*
X137558538Y-118375910D01*
X137710883Y-118250883D01*
X137835910Y-118098538D01*
X137928814Y-117924727D01*
X137986024Y-117736132D01*
X138005341Y-117540000D01*
X137986024Y-117343868D01*
X137928814Y-117155273D01*
X137928812Y-117155270D01*
X137928812Y-117155268D01*
X137877048Y-117058426D01*
X137835910Y-116981462D01*
X137710883Y-116829117D01*
X137622156Y-116756300D01*
X137595458Y-116706351D01*
X137611900Y-116652152D01*
X137616765Y-116646783D01*
X138679976Y-115583574D01*
X138710500Y-115509882D01*
X138710500Y-115430118D01*
X138710500Y-115050351D01*
X138732173Y-114998026D01*
X139060343Y-114669855D01*
X139112668Y-114648182D01*
X139164994Y-114669856D01*
X139166352Y-114671510D01*
X139170745Y-114675903D01*
X139170746Y-114675904D01*
X139220528Y-114709167D01*
X139264430Y-114717900D01*
X139264431Y-114717900D01*
X139267995Y-114718609D01*
X139267647Y-114720353D01*
X139312696Y-114744425D01*
X139329500Y-114791378D01*
X139329500Y-115006323D01*
X139307826Y-115058649D01*
X139296612Y-115067852D01*
X139249399Y-115099398D01*
X139249398Y-115099399D01*
X139194034Y-115182259D01*
X139179500Y-115255327D01*
X139179500Y-115564672D01*
X139194034Y-115637741D01*
X139228209Y-115688889D01*
X139239258Y-115744438D01*
X139228209Y-115771111D01*
X139194034Y-115822258D01*
X139185306Y-115866138D01*
X139179500Y-115895326D01*
X139179500Y-116204674D01*
X139194034Y-116277740D01*
X139249399Y-116360601D01*
X139332260Y-116415966D01*
X139405326Y-116430500D01*
X139405328Y-116430500D01*
X139654672Y-116430500D01*
X139654674Y-116430500D01*
X139727740Y-116415966D01*
X139810601Y-116360601D01*
X139862192Y-116283387D01*
X139909284Y-116251922D01*
X139923721Y-116250500D01*
X140250682Y-116250500D01*
X140298247Y-116267812D01*
X140310079Y-116277740D01*
X140377432Y-116334256D01*
X140477011Y-116370499D01*
X140477012Y-116370500D01*
X140477014Y-116370500D01*
X140582988Y-116370500D01*
X140582988Y-116370499D01*
X140682568Y-116334256D01*
X140763748Y-116266138D01*
X140816734Y-116174363D01*
X140835136Y-116070000D01*
X140816734Y-115965637D01*
X140814473Y-115961721D01*
X140763747Y-115873860D01*
X140682570Y-115805745D01*
X140682567Y-115805743D01*
X140582988Y-115769500D01*
X140582986Y-115769500D01*
X140477014Y-115769500D01*
X140477011Y-115769500D01*
X140377432Y-115805743D01*
X140345919Y-115832187D01*
X140298352Y-115849500D01*
X139923721Y-115849500D01*
X139871395Y-115827826D01*
X139862192Y-115816612D01*
X139854931Y-115805745D01*
X139831789Y-115771110D01*
X139820741Y-115715563D01*
X139831790Y-115688889D01*
X139865966Y-115637740D01*
X139880500Y-115564674D01*
X139880500Y-115255326D01*
X139865966Y-115182260D01*
X139810601Y-115099399D01*
X139810600Y-115099398D01*
X139763388Y-115067852D01*
X139731922Y-115020760D01*
X139730500Y-115006323D01*
X139730500Y-114791230D01*
X139752174Y-114738904D01*
X139790903Y-114720614D01*
X139790505Y-114718609D01*
X139794069Y-114717900D01*
X139794070Y-114717900D01*
X139837972Y-114709167D01*
X139887754Y-114675904D01*
X139921017Y-114626122D01*
X139929750Y-114582220D01*
X139929750Y-114352580D01*
X139921017Y-114308678D01*
X139921016Y-114308676D01*
X139918770Y-114305314D01*
X139907718Y-114249766D01*
X139918770Y-114223086D01*
X139921016Y-114219723D01*
X139921015Y-114219723D01*
X139921017Y-114219722D01*
X139929750Y-114175820D01*
X139929750Y-113946180D01*
X139921017Y-113902278D01*
X139921016Y-113902276D01*
X139918770Y-113898914D01*
X139907718Y-113843366D01*
X139918770Y-113816686D01*
X139921016Y-113813323D01*
X139921015Y-113813323D01*
X139921017Y-113813322D01*
X139929750Y-113769420D01*
X139929750Y-113539780D01*
X139921017Y-113495878D01*
X139921016Y-113495876D01*
X139918770Y-113492514D01*
X139907718Y-113436966D01*
X139918770Y-113410286D01*
X139921016Y-113406923D01*
X139921015Y-113406923D01*
X139921017Y-113406922D01*
X139929750Y-113363020D01*
X139929750Y-113341700D01*
X139951424Y-113289374D01*
X140003750Y-113267700D01*
X140254467Y-113267700D01*
X140254470Y-113267700D01*
X140257509Y-113267095D01*
X140313057Y-113278140D01*
X140344527Y-113325229D01*
X140345950Y-113339672D01*
X140345950Y-113363020D01*
X140354683Y-113406922D01*
X140354684Y-113406923D01*
X140356933Y-113410289D01*
X140367981Y-113465838D01*
X140356933Y-113492509D01*
X140354683Y-113495878D01*
X140345950Y-113539780D01*
X140345950Y-113769420D01*
X140354683Y-113813322D01*
X140354684Y-113813323D01*
X140356933Y-113816689D01*
X140367981Y-113872238D01*
X140356933Y-113898909D01*
X140354683Y-113902278D01*
X140345950Y-113946180D01*
X140345950Y-114175820D01*
X140354683Y-114219722D01*
X140354684Y-114219723D01*
X140356933Y-114223089D01*
X140367981Y-114278638D01*
X140356933Y-114305309D01*
X140354683Y-114308678D01*
X140345950Y-114352580D01*
X140345950Y-114582220D01*
X140354683Y-114626122D01*
X140387946Y-114675904D01*
X140437728Y-114709167D01*
X140481630Y-114717900D01*
X140481631Y-114717900D01*
X141011269Y-114717900D01*
X141011270Y-114717900D01*
X141055172Y-114709167D01*
X141104954Y-114675904D01*
X141138217Y-114626122D01*
X141146950Y-114582220D01*
X141146950Y-114352580D01*
X141138217Y-114308678D01*
X141138216Y-114308676D01*
X141135970Y-114305314D01*
X141124918Y-114249766D01*
X141135970Y-114223086D01*
X141138216Y-114219723D01*
X141138215Y-114219723D01*
X141138217Y-114219722D01*
X141146950Y-114175820D01*
X141146950Y-113946180D01*
X141138217Y-113902278D01*
X141138216Y-113902276D01*
X141135970Y-113898914D01*
X141124918Y-113843366D01*
X141135970Y-113816686D01*
X141138216Y-113813323D01*
X141138215Y-113813323D01*
X141138217Y-113813322D01*
X141146950Y-113769420D01*
X141146950Y-113539780D01*
X141138217Y-113495878D01*
X141138216Y-113495876D01*
X141135970Y-113492514D01*
X141124918Y-113436966D01*
X141135970Y-113410286D01*
X141138216Y-113406923D01*
X141138215Y-113406923D01*
X141138217Y-113406922D01*
X141146950Y-113363020D01*
X141146950Y-113133380D01*
X141138217Y-113089478D01*
X141138216Y-113089476D01*
X141135970Y-113086114D01*
X141124918Y-113030566D01*
X141135970Y-113003886D01*
X141138216Y-113000523D01*
X141138215Y-113000523D01*
X141138217Y-113000522D01*
X141146950Y-112956620D01*
X141146950Y-112726980D01*
X141138217Y-112683078D01*
X141104954Y-112633296D01*
X141055172Y-112600033D01*
X141011270Y-112591300D01*
X141011269Y-112591300D01*
X140884603Y-112591300D01*
X140832277Y-112569626D01*
X140823073Y-112558411D01*
X140809020Y-112537378D01*
X140796550Y-112496267D01*
X140796550Y-111686168D01*
X140796549Y-111686166D01*
X140766027Y-111612478D01*
X140766025Y-111612475D01*
X140566255Y-111412705D01*
X140545705Y-111373229D01*
X140543284Y-111359500D01*
X140526734Y-111265637D01*
X140473748Y-111173862D01*
X140473747Y-111173860D01*
X140392570Y-111105745D01*
X140392567Y-111105743D01*
X140292988Y-111069500D01*
X140292986Y-111069500D01*
X140187014Y-111069500D01*
X140187011Y-111069500D01*
X140087432Y-111105743D01*
X140087429Y-111105745D01*
X140006252Y-111173860D01*
X139953265Y-111265637D01*
X139934864Y-111370000D01*
X139938278Y-111389364D01*
X139926018Y-111444659D01*
X139878251Y-111475089D01*
X139822956Y-111462829D01*
X139817836Y-111458900D01*
X139742570Y-111395745D01*
X139742567Y-111395743D01*
X139642988Y-111359500D01*
X139642986Y-111359500D01*
X139537014Y-111359500D01*
X139537011Y-111359500D01*
X139437432Y-111395743D01*
X139437429Y-111395745D01*
X139356252Y-111463860D01*
X139303265Y-111555637D01*
X139284864Y-111660000D01*
X139300049Y-111746122D01*
X139287790Y-111801416D01*
X139240022Y-111831847D01*
X139184728Y-111819588D01*
X139174847Y-111811297D01*
X137876868Y-110513318D01*
X137855194Y-110460992D01*
X137863930Y-110426113D01*
X137928814Y-110304727D01*
X137986024Y-110116132D01*
X138005341Y-109920000D01*
X137986024Y-109723868D01*
X137928814Y-109535273D01*
X137928812Y-109535270D01*
X137928812Y-109535268D01*
X137856509Y-109400000D01*
X137835910Y-109361462D01*
X137710883Y-109209117D01*
X137558538Y-109084090D01*
X137548597Y-109078776D01*
X137384731Y-108991187D01*
X137196133Y-108933976D01*
X137132513Y-108927710D01*
X137066746Y-108921232D01*
X137016797Y-108894534D01*
X137000000Y-108847589D01*
X137000000Y-108452410D01*
X137021674Y-108400084D01*
X137066744Y-108378767D01*
X137196132Y-108366024D01*
X137384727Y-108308814D01*
X137558538Y-108215910D01*
X137710883Y-108090883D01*
X137835910Y-107938538D01*
X137928814Y-107764727D01*
X137986024Y-107576132D01*
X138005341Y-107380000D01*
X137987088Y-107194672D01*
X144169500Y-107194672D01*
X144184034Y-107267740D01*
X144232315Y-107340000D01*
X144239399Y-107350601D01*
X144322260Y-107405966D01*
X144395326Y-107420500D01*
X144395328Y-107420500D01*
X144704672Y-107420500D01*
X144704674Y-107420500D01*
X144777740Y-107405966D01*
X144860601Y-107350601D01*
X144910928Y-107275278D01*
X144944136Y-107248026D01*
X144963574Y-107239976D01*
X145607674Y-106595876D01*
X145660000Y-106574202D01*
X145712326Y-106595876D01*
X145775419Y-106658969D01*
X145797093Y-106711295D01*
X145775419Y-106763621D01*
X145764205Y-106772824D01*
X145739399Y-106789398D01*
X145739398Y-106789399D01*
X145684034Y-106872259D01*
X145669500Y-106945327D01*
X145669500Y-107194672D01*
X145684034Y-107267740D01*
X145732315Y-107340000D01*
X145739399Y-107350601D01*
X145822260Y-107405966D01*
X145895326Y-107420500D01*
X145895328Y-107420500D01*
X146204672Y-107420500D01*
X146204674Y-107420500D01*
X146277740Y-107405966D01*
X146360601Y-107350601D01*
X146415966Y-107267740D01*
X146430500Y-107194674D01*
X146430500Y-106945326D01*
X146415966Y-106872260D01*
X146360601Y-106789399D01*
X146356532Y-106786680D01*
X146283388Y-106737807D01*
X146251922Y-106690715D01*
X146250500Y-106676278D01*
X146250500Y-106610118D01*
X146250499Y-106610116D01*
X146219977Y-106536428D01*
X146219975Y-106536425D01*
X145957900Y-106274350D01*
X145937350Y-106234873D01*
X145937145Y-106233712D01*
X145924788Y-106163625D01*
X145875857Y-106078875D01*
X145809953Y-106023574D01*
X145800890Y-106015969D01*
X145708932Y-105982500D01*
X145708931Y-105982500D01*
X145611069Y-105982500D01*
X145611067Y-105982500D01*
X145519109Y-106015970D01*
X145519107Y-106015971D01*
X145444143Y-106078873D01*
X145395214Y-106163620D01*
X145395212Y-106163623D01*
X145395212Y-106163625D01*
X145389548Y-106195745D01*
X145382648Y-106234875D01*
X145362098Y-106274350D01*
X144895420Y-106741028D01*
X144843094Y-106762702D01*
X144801983Y-106750232D01*
X144795943Y-106746196D01*
X144777740Y-106734034D01*
X144704674Y-106719500D01*
X144395326Y-106719500D01*
X144349503Y-106728615D01*
X144322259Y-106734034D01*
X144239399Y-106789398D01*
X144239398Y-106789399D01*
X144184034Y-106872259D01*
X144169500Y-106945327D01*
X144169500Y-107194672D01*
X137987088Y-107194672D01*
X137986024Y-107183868D01*
X137928814Y-106995273D01*
X137863931Y-106873888D01*
X137858380Y-106817525D01*
X137876866Y-106786682D01*
X138639976Y-106023574D01*
X138670500Y-105949882D01*
X138670500Y-105870118D01*
X138670500Y-105480101D01*
X138692173Y-105427776D01*
X139221330Y-104898618D01*
X139273655Y-104876945D01*
X139325981Y-104898619D01*
X139333166Y-104907374D01*
X139334295Y-104908503D01*
X139334296Y-104908504D01*
X139384078Y-104941767D01*
X139427980Y-104950500D01*
X139427984Y-104950500D01*
X139431600Y-104950857D01*
X139431394Y-104952941D01*
X139477826Y-104972174D01*
X139499500Y-105024500D01*
X139499500Y-105206323D01*
X139477826Y-105258649D01*
X139466612Y-105267852D01*
X139419399Y-105299398D01*
X139419398Y-105299399D01*
X139364034Y-105382259D01*
X139349500Y-105455327D01*
X139349500Y-105764672D01*
X139364034Y-105837741D01*
X139398209Y-105888889D01*
X139409258Y-105944438D01*
X139398209Y-105971111D01*
X139364034Y-106022258D01*
X139354344Y-106070970D01*
X139349500Y-106095326D01*
X139349500Y-106404674D01*
X139360505Y-106460000D01*
X139364034Y-106477740D01*
X139395480Y-106524804D01*
X139419399Y-106560601D01*
X139502260Y-106615966D01*
X139575326Y-106630500D01*
X139575328Y-106630500D01*
X139824672Y-106630500D01*
X139824674Y-106630500D01*
X139897740Y-106615966D01*
X139980601Y-106560601D01*
X140032192Y-106483387D01*
X140079284Y-106451922D01*
X140093721Y-106450500D01*
X140641095Y-106450500D01*
X140693421Y-106472174D01*
X140713971Y-106511650D01*
X140723265Y-106564361D01*
X140723265Y-106564362D01*
X140723266Y-106564363D01*
X140734462Y-106583755D01*
X140776252Y-106656139D01*
X140857429Y-106724254D01*
X140857432Y-106724256D01*
X140957011Y-106760499D01*
X140957012Y-106760500D01*
X140957014Y-106760500D01*
X141062988Y-106760500D01*
X141062988Y-106760499D01*
X141162568Y-106724256D01*
X141231829Y-106666139D01*
X141243747Y-106656139D01*
X141266941Y-106615966D01*
X141296734Y-106564363D01*
X141315136Y-106460000D01*
X141296734Y-106355637D01*
X141268994Y-106307589D01*
X141243747Y-106263860D01*
X141162570Y-106195745D01*
X141162567Y-106195743D01*
X141062988Y-106159500D01*
X141062986Y-106159500D01*
X141023702Y-106159500D01*
X140971376Y-106137826D01*
X140913575Y-106080025D01*
X140913571Y-106080022D01*
X140839882Y-106049500D01*
X140093721Y-106049500D01*
X140041395Y-106027826D01*
X140032192Y-106016612D01*
X140031763Y-106015970D01*
X140001789Y-105971110D01*
X139990741Y-105915563D01*
X140001790Y-105888889D01*
X140035966Y-105837740D01*
X140050500Y-105764674D01*
X140050500Y-105474674D01*
X143669500Y-105474674D01*
X143683811Y-105546619D01*
X143684034Y-105547740D01*
X143712619Y-105590522D01*
X143739399Y-105630601D01*
X143822260Y-105685966D01*
X143895326Y-105700500D01*
X143895328Y-105700500D01*
X144204672Y-105700500D01*
X144204674Y-105700500D01*
X144277740Y-105685966D01*
X144360601Y-105630601D01*
X144378784Y-105603387D01*
X144425876Y-105571922D01*
X144440313Y-105570500D01*
X144636324Y-105570500D01*
X144688650Y-105592174D01*
X144697853Y-105603389D01*
X144729396Y-105650598D01*
X144729398Y-105650600D01*
X144729399Y-105650601D01*
X144812260Y-105705966D01*
X144885326Y-105720500D01*
X144885328Y-105720500D01*
X145194672Y-105720500D01*
X145194674Y-105720500D01*
X145267740Y-105705966D01*
X145350601Y-105650601D01*
X145405966Y-105567740D01*
X145420500Y-105494674D01*
X145420500Y-105303701D01*
X145442174Y-105251375D01*
X145791375Y-104902174D01*
X145843701Y-104880500D01*
X146286279Y-104880500D01*
X146338605Y-104902174D01*
X146347808Y-104913388D01*
X146387086Y-104972174D01*
X146399399Y-104990601D01*
X146482260Y-105045966D01*
X146555326Y-105060500D01*
X146555328Y-105060500D01*
X146804672Y-105060500D01*
X146804674Y-105060500D01*
X146877740Y-105045966D01*
X146960601Y-104990601D01*
X147012192Y-104913387D01*
X147059284Y-104881922D01*
X147073721Y-104880500D01*
X147206279Y-104880500D01*
X147258605Y-104902174D01*
X147267808Y-104913388D01*
X147307086Y-104972174D01*
X147319399Y-104990601D01*
X147402260Y-105045966D01*
X147475326Y-105060500D01*
X147475328Y-105060500D01*
X147724672Y-105060500D01*
X147724674Y-105060500D01*
X147797740Y-105045966D01*
X147880601Y-104990601D01*
X147935966Y-104907740D01*
X147950500Y-104834674D01*
X147950500Y-104525326D01*
X147935966Y-104452260D01*
X147880601Y-104369399D01*
X147860504Y-104355971D01*
X147797740Y-104314034D01*
X147724674Y-104299500D01*
X147475326Y-104299500D01*
X147426615Y-104309189D01*
X147402259Y-104314034D01*
X147319399Y-104369398D01*
X147319398Y-104369399D01*
X147286591Y-104418500D01*
X147268667Y-104445327D01*
X147267808Y-104446612D01*
X147220716Y-104478078D01*
X147206279Y-104479500D01*
X147073721Y-104479500D01*
X147021395Y-104457826D01*
X147012192Y-104446612D01*
X147011333Y-104445327D01*
X146960601Y-104369399D01*
X146940504Y-104355971D01*
X146877740Y-104314034D01*
X146804674Y-104299500D01*
X146555326Y-104299500D01*
X146506615Y-104309189D01*
X146482259Y-104314034D01*
X146399399Y-104369398D01*
X146399398Y-104369399D01*
X146366591Y-104418500D01*
X146348667Y-104445327D01*
X146347808Y-104446612D01*
X146300716Y-104478078D01*
X146286279Y-104479500D01*
X145992702Y-104479500D01*
X145940376Y-104457826D01*
X145918702Y-104405500D01*
X145940376Y-104353174D01*
X147041376Y-103252174D01*
X147093702Y-103230500D01*
X149799881Y-103230500D01*
X149799882Y-103230500D01*
X149873574Y-103199976D01*
X150129976Y-102943574D01*
X150160500Y-102869882D01*
X150160500Y-102790118D01*
X150160500Y-102100118D01*
X150160500Y-101826361D01*
X150174523Y-101787831D01*
X150172620Y-101786732D01*
X150194780Y-101748350D01*
X150224788Y-101696375D01*
X150241781Y-101600000D01*
X150224788Y-101503625D01*
X150175857Y-101418875D01*
X150100891Y-101355970D01*
X150100890Y-101355969D01*
X150008932Y-101322500D01*
X150008931Y-101322500D01*
X149911069Y-101322500D01*
X149911067Y-101322500D01*
X149819109Y-101355970D01*
X149819107Y-101355971D01*
X149744143Y-101418873D01*
X149695211Y-101503626D01*
X149678219Y-101600000D01*
X149695211Y-101696373D01*
X149747380Y-101786732D01*
X149745476Y-101787831D01*
X149759500Y-101826361D01*
X149759500Y-102716298D01*
X149737826Y-102768624D01*
X149698624Y-102807826D01*
X149646298Y-102829500D01*
X147053241Y-102829500D01*
X147000915Y-102807826D01*
X146979241Y-102755500D01*
X147000915Y-102703174D01*
X147024923Y-102687133D01*
X147027736Y-102685966D01*
X147027740Y-102685966D01*
X147110601Y-102630601D01*
X147165966Y-102547740D01*
X147180500Y-102474674D01*
X147180500Y-102225326D01*
X147165966Y-102152260D01*
X147110601Y-102069399D01*
X147109806Y-102068868D01*
X147027740Y-102014034D01*
X147025684Y-102013625D01*
X146988892Y-102006306D01*
X146941801Y-101974841D01*
X146930752Y-101919292D01*
X146962218Y-101872200D01*
X146978021Y-101864192D01*
X147042831Y-101840603D01*
X147060891Y-101834030D01*
X147082912Y-101815551D01*
X147092135Y-101807813D01*
X147139702Y-101790500D01*
X147306324Y-101790500D01*
X147358650Y-101812174D01*
X147367853Y-101823389D01*
X147399396Y-101870598D01*
X147399398Y-101870600D01*
X147399399Y-101870601D01*
X147482260Y-101925966D01*
X147555326Y-101940500D01*
X147555328Y-101940500D01*
X147864672Y-101940500D01*
X147864674Y-101940500D01*
X147937740Y-101925966D01*
X148020601Y-101870601D01*
X148075966Y-101787740D01*
X148090500Y-101714674D01*
X148090500Y-101465326D01*
X148075966Y-101392260D01*
X148020601Y-101309399D01*
X148020600Y-101309398D01*
X148020598Y-101309396D01*
X147956441Y-101266529D01*
X147924974Y-101219438D01*
X147936023Y-101163889D01*
X147956441Y-101143471D01*
X148020598Y-101100603D01*
X148020597Y-101100603D01*
X148020601Y-101100601D01*
X148075966Y-101017740D01*
X148090500Y-100944674D01*
X148090500Y-100695326D01*
X148075966Y-100622260D01*
X148020601Y-100539399D01*
X147960736Y-100499399D01*
X147953388Y-100494489D01*
X147921922Y-100447397D01*
X147920500Y-100432960D01*
X147920500Y-100423721D01*
X147942174Y-100371395D01*
X147953388Y-100362192D01*
X147956474Y-100360130D01*
X148030601Y-100310601D01*
X148085966Y-100227740D01*
X148100500Y-100154674D01*
X148100500Y-99905326D01*
X148085966Y-99832260D01*
X148030601Y-99749399D01*
X147947740Y-99694034D01*
X147874674Y-99679500D01*
X147565326Y-99679500D01*
X147516615Y-99689189D01*
X147492259Y-99694034D01*
X147409399Y-99749398D01*
X147409396Y-99749401D01*
X147384535Y-99786611D01*
X147337444Y-99818078D01*
X147323006Y-99819500D01*
X147163721Y-99819500D01*
X147111395Y-99797826D01*
X147102192Y-99786612D01*
X147102191Y-99786611D01*
X147050601Y-99709399D01*
X147027605Y-99694034D01*
X146967740Y-99654034D01*
X146894674Y-99639500D01*
X146645326Y-99639500D01*
X146596615Y-99649189D01*
X146572259Y-99654034D01*
X146489399Y-99709398D01*
X146489398Y-99709399D01*
X146434034Y-99792259D01*
X146426767Y-99828793D01*
X146419500Y-99865326D01*
X146419500Y-100174674D01*
X146430056Y-100227740D01*
X146434034Y-100247740D01*
X146476035Y-100310601D01*
X146489399Y-100330601D01*
X146572260Y-100385966D01*
X146645326Y-100400500D01*
X146645328Y-100400500D01*
X146894672Y-100400500D01*
X146894674Y-100400500D01*
X146967740Y-100385966D01*
X147050601Y-100330601D01*
X147102192Y-100253387D01*
X147149284Y-100221922D01*
X147163721Y-100220500D01*
X147309643Y-100220500D01*
X147361969Y-100242174D01*
X147371166Y-100253381D01*
X147403986Y-100302500D01*
X147409399Y-100310601D01*
X147483526Y-100360130D01*
X147514992Y-100407222D01*
X147503943Y-100462771D01*
X147483526Y-100483188D01*
X147399399Y-100539398D01*
X147399398Y-100539399D01*
X147344034Y-100622259D01*
X147344034Y-100622260D01*
X147329500Y-100695326D01*
X147329500Y-100944674D01*
X147337670Y-100985745D01*
X147344034Y-101017740D01*
X147399398Y-101100600D01*
X147399399Y-101100601D01*
X147463559Y-101143471D01*
X147495025Y-101190563D01*
X147483976Y-101246112D01*
X147463559Y-101266529D01*
X147399399Y-101309398D01*
X147399396Y-101309401D01*
X147367853Y-101356611D01*
X147320762Y-101388078D01*
X147306324Y-101389500D01*
X147139702Y-101389500D01*
X147092135Y-101372187D01*
X147060890Y-101345969D01*
X146968932Y-101312500D01*
X146968931Y-101312500D01*
X146871069Y-101312500D01*
X146871067Y-101312500D01*
X146779109Y-101345970D01*
X146779107Y-101345971D01*
X146704143Y-101408873D01*
X146655211Y-101493626D01*
X146638219Y-101590000D01*
X146655211Y-101686373D01*
X146655211Y-101686374D01*
X146655212Y-101686375D01*
X146660986Y-101696375D01*
X146690993Y-101748350D01*
X146704143Y-101771125D01*
X146766428Y-101823389D01*
X146779109Y-101834030D01*
X146839369Y-101855963D01*
X146881127Y-101894226D01*
X146883597Y-101950809D01*
X146845334Y-101992567D01*
X146814060Y-101999500D01*
X146763702Y-101999500D01*
X146711376Y-101977826D01*
X146673575Y-101940025D01*
X146673571Y-101940022D01*
X146596355Y-101908039D01*
X146577106Y-101896359D01*
X146574564Y-101894226D01*
X146551255Y-101874667D01*
X146540890Y-101865969D01*
X146448932Y-101832500D01*
X146448931Y-101832500D01*
X146351069Y-101832500D01*
X146351067Y-101832500D01*
X146259109Y-101865970D01*
X146259107Y-101865971D01*
X146184143Y-101928873D01*
X146135211Y-102013626D01*
X146118219Y-102110000D01*
X146135211Y-102206373D01*
X146135211Y-102206374D01*
X146135212Y-102206375D01*
X146146154Y-102225327D01*
X146169059Y-102265000D01*
X146184143Y-102291125D01*
X146259109Y-102354030D01*
X146351069Y-102387500D01*
X146351073Y-102387500D01*
X146357443Y-102388624D01*
X146356814Y-102392186D01*
X146397826Y-102409174D01*
X146419500Y-102461500D01*
X146419500Y-102474674D01*
X146421922Y-102486850D01*
X146434034Y-102547740D01*
X146486399Y-102626112D01*
X146489399Y-102630601D01*
X146572260Y-102685966D01*
X146645326Y-102700500D01*
X146645328Y-102700500D01*
X146879528Y-102700500D01*
X146931854Y-102722174D01*
X146953528Y-102774500D01*
X146931854Y-102826826D01*
X146907847Y-102842867D01*
X146866426Y-102860023D01*
X146866425Y-102860025D01*
X145425624Y-104300826D01*
X145373298Y-104322500D01*
X145361067Y-104322500D01*
X145269109Y-104355970D01*
X145269107Y-104355971D01*
X145194143Y-104418873D01*
X145145211Y-104503626D01*
X145128219Y-104600000D01*
X145145211Y-104696373D01*
X145192178Y-104777723D01*
X145194143Y-104781125D01*
X145214483Y-104798193D01*
X145240635Y-104848430D01*
X145223605Y-104902446D01*
X145219243Y-104907206D01*
X145128624Y-104997826D01*
X145076298Y-105019500D01*
X144885326Y-105019500D01*
X144860190Y-105024500D01*
X144812258Y-105034034D01*
X144788367Y-105049997D01*
X144732818Y-105061045D01*
X144685727Y-105029577D01*
X144677656Y-105009473D01*
X144677004Y-105009711D01*
X144674789Y-105003628D01*
X144674788Y-105003626D01*
X144674788Y-105003625D01*
X144625857Y-104918875D01*
X144550891Y-104855970D01*
X144550890Y-104855969D01*
X144482350Y-104831023D01*
X144440592Y-104792760D01*
X144435081Y-104747051D01*
X144445500Y-104694674D01*
X144445500Y-104445326D01*
X144430966Y-104372260D01*
X144375601Y-104289399D01*
X144370132Y-104285745D01*
X144292740Y-104234034D01*
X144271947Y-104229898D01*
X144219674Y-104219500D01*
X143910326Y-104219500D01*
X143861615Y-104229189D01*
X143837259Y-104234034D01*
X143754399Y-104289398D01*
X143754398Y-104289399D01*
X143699034Y-104372259D01*
X143699034Y-104372260D01*
X143684500Y-104445326D01*
X143684500Y-104694674D01*
X143692287Y-104733819D01*
X143699034Y-104767740D01*
X143754398Y-104850600D01*
X143754399Y-104850601D01*
X143818542Y-104893459D01*
X143850008Y-104940550D01*
X143838959Y-104996100D01*
X143818542Y-105016517D01*
X143739399Y-105069398D01*
X143739398Y-105069399D01*
X143684034Y-105152259D01*
X143684034Y-105152260D01*
X143669500Y-105225326D01*
X143669500Y-105474674D01*
X140050500Y-105474674D01*
X140050500Y-105455326D01*
X140035966Y-105382260D01*
X139980601Y-105299399D01*
X139980600Y-105299398D01*
X139933388Y-105267852D01*
X139901922Y-105220760D01*
X139900500Y-105206323D01*
X139900500Y-105022591D01*
X139922174Y-104970265D01*
X139960061Y-104950014D01*
X140001522Y-104941767D01*
X140051304Y-104908504D01*
X140084567Y-104858722D01*
X140093300Y-104814820D01*
X140093300Y-104585180D01*
X140084567Y-104541278D01*
X140084566Y-104541276D01*
X140082320Y-104537914D01*
X140071268Y-104482366D01*
X140082320Y-104455686D01*
X140084566Y-104452323D01*
X140084565Y-104452323D01*
X140084567Y-104452322D01*
X140093300Y-104408420D01*
X140093300Y-104178780D01*
X140084567Y-104134878D01*
X140084566Y-104134876D01*
X140082320Y-104131514D01*
X140071268Y-104075966D01*
X140082320Y-104049286D01*
X140084566Y-104045923D01*
X140084565Y-104045923D01*
X140084567Y-104045922D01*
X140093300Y-104002020D01*
X140093300Y-103772380D01*
X140084567Y-103728478D01*
X140084566Y-103728476D01*
X140082320Y-103725114D01*
X140071268Y-103669566D01*
X140082320Y-103642886D01*
X140084566Y-103639523D01*
X140084565Y-103639523D01*
X140084567Y-103639522D01*
X140093300Y-103595620D01*
X140093300Y-103574300D01*
X140114974Y-103521974D01*
X140167300Y-103500300D01*
X140418017Y-103500300D01*
X140418020Y-103500300D01*
X140421059Y-103499695D01*
X140476607Y-103510740D01*
X140508077Y-103557829D01*
X140509500Y-103572272D01*
X140509500Y-103595620D01*
X140518233Y-103639522D01*
X140518234Y-103639523D01*
X140520483Y-103642889D01*
X140531531Y-103698438D01*
X140520483Y-103725109D01*
X140518233Y-103728478D01*
X140509500Y-103772380D01*
X140509500Y-104002020D01*
X140518233Y-104045922D01*
X140518234Y-104045923D01*
X140520483Y-104049289D01*
X140531531Y-104104838D01*
X140520483Y-104131509D01*
X140518233Y-104134878D01*
X140509500Y-104178780D01*
X140509500Y-104408420D01*
X140518233Y-104452322D01*
X140518234Y-104452323D01*
X140520483Y-104455689D01*
X140531531Y-104511238D01*
X140520483Y-104537909D01*
X140518233Y-104541278D01*
X140509500Y-104585180D01*
X140509500Y-104814820D01*
X140516617Y-104850600D01*
X140518233Y-104858722D01*
X140550985Y-104907740D01*
X140551496Y-104908504D01*
X140601278Y-104941767D01*
X140645180Y-104950500D01*
X140645181Y-104950500D01*
X141174819Y-104950500D01*
X141174820Y-104950500D01*
X141218722Y-104941767D01*
X141268504Y-104908504D01*
X141301767Y-104858722D01*
X141310500Y-104814820D01*
X141310500Y-104585180D01*
X141301767Y-104541278D01*
X141301766Y-104541276D01*
X141299520Y-104537914D01*
X141288468Y-104482366D01*
X141299520Y-104455686D01*
X141301766Y-104452323D01*
X141301765Y-104452323D01*
X141301767Y-104452322D01*
X141310500Y-104408420D01*
X141310500Y-104178780D01*
X141301767Y-104134878D01*
X141301766Y-104134876D01*
X141299520Y-104131514D01*
X141288468Y-104075966D01*
X141299520Y-104049286D01*
X141301766Y-104045923D01*
X141301765Y-104045923D01*
X141301767Y-104045922D01*
X141310500Y-104002020D01*
X141310500Y-103772380D01*
X141301767Y-103728478D01*
X141301766Y-103728476D01*
X141299520Y-103725114D01*
X141288468Y-103669566D01*
X141299520Y-103642886D01*
X141301766Y-103639523D01*
X141301765Y-103639523D01*
X141301767Y-103639522D01*
X141310500Y-103595620D01*
X141310500Y-103365980D01*
X141301767Y-103322078D01*
X141301766Y-103322076D01*
X141299520Y-103318714D01*
X141288468Y-103263166D01*
X141299520Y-103236486D01*
X141301766Y-103233123D01*
X141301765Y-103233123D01*
X141301767Y-103233122D01*
X141310500Y-103189220D01*
X141310500Y-103074674D01*
X144289500Y-103074674D01*
X144299298Y-103123932D01*
X144304034Y-103147740D01*
X144359331Y-103230500D01*
X144359399Y-103230601D01*
X144442260Y-103285966D01*
X144515326Y-103300500D01*
X144515328Y-103300500D01*
X144764672Y-103300500D01*
X144764674Y-103300500D01*
X144837740Y-103285966D01*
X144920601Y-103230601D01*
X144975966Y-103147740D01*
X144990500Y-103074674D01*
X144990500Y-102911465D01*
X145012174Y-102859139D01*
X145039190Y-102841927D01*
X145060891Y-102834030D01*
X145135857Y-102771125D01*
X145184788Y-102686375D01*
X145201781Y-102590000D01*
X145184788Y-102493625D01*
X145135857Y-102408875D01*
X145082414Y-102364030D01*
X145060890Y-102345969D01*
X144968932Y-102312500D01*
X144968931Y-102312500D01*
X144871069Y-102312500D01*
X144871067Y-102312500D01*
X144779109Y-102345970D01*
X144779107Y-102345971D01*
X144704143Y-102408873D01*
X144666874Y-102473426D01*
X144655723Y-102492741D01*
X144651975Y-102499232D01*
X144649717Y-102497928D01*
X144617963Y-102532571D01*
X144586699Y-102539500D01*
X144515326Y-102539500D01*
X144466615Y-102549189D01*
X144442259Y-102554034D01*
X144359399Y-102609398D01*
X144359398Y-102609399D01*
X144304034Y-102692259D01*
X144304034Y-102692260D01*
X144289500Y-102765326D01*
X144289500Y-103074674D01*
X141310500Y-103074674D01*
X141310500Y-102959580D01*
X141301767Y-102915678D01*
X141268504Y-102865896D01*
X141259717Y-102860025D01*
X141218722Y-102832633D01*
X141189529Y-102826826D01*
X141174820Y-102823900D01*
X141174819Y-102823900D01*
X141171255Y-102823191D01*
X141171658Y-102821163D01*
X141127274Y-102797412D01*
X141110500Y-102750495D01*
X141110500Y-102598543D01*
X141132174Y-102546217D01*
X141136925Y-102541862D01*
X141143748Y-102536138D01*
X141179234Y-102474674D01*
X142664500Y-102474674D01*
X142666922Y-102486850D01*
X142679034Y-102547740D01*
X142731399Y-102626112D01*
X142734399Y-102630601D01*
X142817260Y-102685966D01*
X142890326Y-102700500D01*
X142890328Y-102700500D01*
X143199672Y-102700500D01*
X143199674Y-102700500D01*
X143272740Y-102685966D01*
X143355601Y-102630601D01*
X143410966Y-102547740D01*
X143425500Y-102474674D01*
X143425500Y-102394500D01*
X143447174Y-102342174D01*
X143499500Y-102320500D01*
X143700298Y-102320500D01*
X143747865Y-102337813D01*
X143767192Y-102354030D01*
X143779109Y-102364030D01*
X143871067Y-102397499D01*
X143871067Y-102397500D01*
X143871069Y-102397500D01*
X143968933Y-102397500D01*
X143968932Y-102397499D01*
X144060891Y-102364030D01*
X144135857Y-102301125D01*
X144184788Y-102216375D01*
X144201781Y-102120000D01*
X144184788Y-102023625D01*
X144135857Y-101938875D01*
X144060891Y-101875970D01*
X144060890Y-101875969D01*
X143968932Y-101842500D01*
X143968931Y-101842500D01*
X143871069Y-101842500D01*
X143871067Y-101842500D01*
X143779110Y-101875969D01*
X143747866Y-101902187D01*
X143700299Y-101919500D01*
X143446326Y-101919500D01*
X143394000Y-101897826D01*
X143372326Y-101845500D01*
X143384797Y-101804388D01*
X143415966Y-101757740D01*
X143430500Y-101684674D01*
X143430500Y-101435326D01*
X143415966Y-101362260D01*
X143360601Y-101279399D01*
X143341339Y-101266529D01*
X143288957Y-101231529D01*
X143257491Y-101184437D01*
X143268540Y-101128888D01*
X143288957Y-101108471D01*
X143360601Y-101060601D01*
X143415966Y-100977740D01*
X143430500Y-100904674D01*
X143430500Y-100655326D01*
X143415966Y-100582260D01*
X143360601Y-100499399D01*
X143337605Y-100484034D01*
X143277740Y-100444034D01*
X143204674Y-100429500D01*
X142895326Y-100429500D01*
X142846615Y-100439189D01*
X142822259Y-100444034D01*
X142739399Y-100499398D01*
X142739398Y-100499399D01*
X142684034Y-100582259D01*
X142669500Y-100655327D01*
X142669500Y-100904672D01*
X142684034Y-100977740D01*
X142739398Y-101060600D01*
X142739399Y-101060601D01*
X142811042Y-101108471D01*
X142842508Y-101155563D01*
X142831459Y-101211112D01*
X142811042Y-101231529D01*
X142739399Y-101279398D01*
X142739398Y-101279399D01*
X142684034Y-101362259D01*
X142676767Y-101398793D01*
X142669500Y-101435326D01*
X142669500Y-101684674D01*
X142678516Y-101730000D01*
X142684034Y-101757740D01*
X142739398Y-101840600D01*
X142739401Y-101840603D01*
X142816025Y-101891800D01*
X142847492Y-101938891D01*
X142836443Y-101994440D01*
X142816026Y-102014858D01*
X142734399Y-102069398D01*
X142734398Y-102069399D01*
X142679034Y-102152259D01*
X142679034Y-102152260D01*
X142664500Y-102225326D01*
X142664500Y-102474674D01*
X141179234Y-102474674D01*
X141196734Y-102444363D01*
X141215136Y-102340000D01*
X141196734Y-102235637D01*
X141143748Y-102143862D01*
X141143747Y-102143860D01*
X141062570Y-102075745D01*
X141062567Y-102075743D01*
X140962988Y-102039500D01*
X140962986Y-102039500D01*
X140857014Y-102039500D01*
X140857011Y-102039500D01*
X140757432Y-102075743D01*
X140757429Y-102075745D01*
X140676252Y-102143860D01*
X140623265Y-102235637D01*
X140604864Y-102340000D01*
X140623265Y-102444362D01*
X140654944Y-102499232D01*
X140676252Y-102536138D01*
X140683065Y-102541855D01*
X140709218Y-102592091D01*
X140709500Y-102598543D01*
X140709500Y-102647295D01*
X140687826Y-102699621D01*
X140648404Y-102718277D01*
X140648745Y-102719991D01*
X140645181Y-102720700D01*
X140645180Y-102720700D01*
X140637770Y-102722174D01*
X140601276Y-102729433D01*
X140592610Y-102735224D01*
X140537061Y-102746272D01*
X140489970Y-102714804D01*
X140477500Y-102673694D01*
X140477500Y-102547118D01*
X140477499Y-102547116D01*
X140476162Y-102543889D01*
X140455343Y-102493625D01*
X140446977Y-102473428D01*
X140446975Y-102473425D01*
X139266255Y-101292705D01*
X139245705Y-101253229D01*
X139244891Y-101248615D01*
X139226734Y-101145637D01*
X139173748Y-101053862D01*
X139173747Y-101053860D01*
X139092570Y-100985745D01*
X139092567Y-100985743D01*
X138992988Y-100949500D01*
X138992986Y-100949500D01*
X138887014Y-100949500D01*
X138887011Y-100949500D01*
X138787432Y-100985743D01*
X138734358Y-101030278D01*
X138680342Y-101047308D01*
X138634466Y-101025916D01*
X137894285Y-100285735D01*
X137872611Y-100233409D01*
X137881348Y-100198528D01*
X137928814Y-100109727D01*
X137972816Y-99964674D01*
X143239500Y-99964674D01*
X143254034Y-100037740D01*
X143309399Y-100120601D01*
X143392260Y-100175966D01*
X143465326Y-100190500D01*
X143465328Y-100190500D01*
X143774672Y-100190500D01*
X143774674Y-100190500D01*
X143847740Y-100175966D01*
X143930601Y-100120601D01*
X143962147Y-100073389D01*
X144009238Y-100041922D01*
X144023676Y-100040500D01*
X144056298Y-100040500D01*
X144108624Y-100062174D01*
X144612098Y-100565648D01*
X144632648Y-100605124D01*
X144645211Y-100676373D01*
X144645211Y-100676374D01*
X144645212Y-100676375D01*
X144656154Y-100695327D01*
X144684881Y-100745084D01*
X144694143Y-100761125D01*
X144769109Y-100824030D01*
X144861067Y-100857499D01*
X144861067Y-100857500D01*
X144861069Y-100857500D01*
X144958933Y-100857500D01*
X144958932Y-100857499D01*
X145050891Y-100824030D01*
X145125857Y-100761125D01*
X145174788Y-100676375D01*
X145191781Y-100580000D01*
X145174788Y-100483625D01*
X145125857Y-100398875D01*
X145050891Y-100335970D01*
X145050890Y-100335969D01*
X144958932Y-100302500D01*
X144958931Y-100302500D01*
X144946702Y-100302500D01*
X144894376Y-100280826D01*
X144283575Y-99670025D01*
X144283571Y-99670022D01*
X144209882Y-99639500D01*
X144023676Y-99639500D01*
X143971350Y-99617826D01*
X143962147Y-99606611D01*
X143930603Y-99559401D01*
X143930600Y-99559398D01*
X143853388Y-99507807D01*
X143821922Y-99460715D01*
X143820500Y-99446278D01*
X143820500Y-99433721D01*
X143842174Y-99381395D01*
X143853388Y-99372192D01*
X143901159Y-99340273D01*
X143930601Y-99320601D01*
X143985966Y-99237740D01*
X144000500Y-99164674D01*
X144000500Y-98973701D01*
X144022174Y-98921375D01*
X144768875Y-98174674D01*
X147039500Y-98174674D01*
X147054034Y-98247740D01*
X147109399Y-98330601D01*
X147192260Y-98385966D01*
X147265326Y-98400500D01*
X147265328Y-98400500D01*
X147574672Y-98400500D01*
X147574674Y-98400500D01*
X147647740Y-98385966D01*
X147730601Y-98330601D01*
X147785966Y-98247740D01*
X147800500Y-98174674D01*
X147800500Y-98125123D01*
X147822174Y-98072797D01*
X148022797Y-97872174D01*
X148075123Y-97850500D01*
X148419564Y-97850500D01*
X148419564Y-97850499D01*
X148495989Y-97830021D01*
X148564511Y-97790460D01*
X148620460Y-97734511D01*
X148660021Y-97665989D01*
X148680499Y-97589564D01*
X148680500Y-97589564D01*
X148680500Y-97510436D01*
X148680499Y-97510435D01*
X148660022Y-97434014D01*
X148660020Y-97434009D01*
X148626605Y-97376133D01*
X148620460Y-97365489D01*
X148564511Y-97309540D01*
X148531531Y-97290499D01*
X148495990Y-97269979D01*
X148495985Y-97269977D01*
X148419564Y-97249500D01*
X148419562Y-97249500D01*
X147959562Y-97249500D01*
X147880438Y-97249500D01*
X147804012Y-97269978D01*
X147804011Y-97269978D01*
X147804009Y-97269979D01*
X147804007Y-97269980D01*
X147735492Y-97309537D01*
X147367203Y-97677826D01*
X147314877Y-97699500D01*
X147265326Y-97699500D01*
X147216615Y-97709189D01*
X147192259Y-97714034D01*
X147109399Y-97769398D01*
X147109398Y-97769399D01*
X147054034Y-97852259D01*
X147054034Y-97852260D01*
X147039500Y-97925326D01*
X147039500Y-98174674D01*
X144768875Y-98174674D01*
X145111375Y-97832174D01*
X145163701Y-97810500D01*
X145379672Y-97810500D01*
X145379674Y-97810500D01*
X145452740Y-97795966D01*
X145535601Y-97740601D01*
X145590966Y-97657740D01*
X145605500Y-97584674D01*
X145605500Y-97335326D01*
X145590966Y-97262260D01*
X145535601Y-97179399D01*
X145531075Y-97176375D01*
X145452740Y-97124034D01*
X145379674Y-97109500D01*
X145070326Y-97109500D01*
X145021615Y-97119189D01*
X144997259Y-97124034D01*
X144914399Y-97179398D01*
X144914398Y-97179399D01*
X144859034Y-97262259D01*
X144844500Y-97335327D01*
X144844500Y-97501298D01*
X144822826Y-97553624D01*
X143708624Y-98667826D01*
X143656298Y-98689500D01*
X143465326Y-98689500D01*
X143416615Y-98699189D01*
X143392259Y-98704034D01*
X143309399Y-98759398D01*
X143309398Y-98759399D01*
X143254034Y-98842259D01*
X143239500Y-98915327D01*
X143239500Y-99164672D01*
X143254034Y-99237740D01*
X143309398Y-99320600D01*
X143309399Y-99320601D01*
X143386612Y-99372192D01*
X143418078Y-99419284D01*
X143419500Y-99433721D01*
X143419500Y-99446278D01*
X143397826Y-99498604D01*
X143386612Y-99507807D01*
X143309399Y-99559398D01*
X143309398Y-99559399D01*
X143254034Y-99642259D01*
X143254034Y-99642260D01*
X143239500Y-99715326D01*
X143239500Y-99964674D01*
X137972816Y-99964674D01*
X137986024Y-99921132D01*
X138005341Y-99725000D01*
X137986024Y-99528868D01*
X137928814Y-99340273D01*
X137928812Y-99340270D01*
X137928812Y-99340268D01*
X137874009Y-99237740D01*
X137835910Y-99166462D01*
X137710883Y-99014117D01*
X137558538Y-98889090D01*
X137548597Y-98883776D01*
X137384731Y-98796187D01*
X137196133Y-98738976D01*
X137132513Y-98732710D01*
X137066746Y-98726232D01*
X137016797Y-98699534D01*
X137000000Y-98652589D01*
X137000000Y-98257410D01*
X137021674Y-98205084D01*
X137066744Y-98183767D01*
X137196132Y-98171024D01*
X137384727Y-98113814D01*
X137558538Y-98020910D01*
X137710883Y-97895883D01*
X137835910Y-97743538D01*
X137928814Y-97569727D01*
X137986024Y-97381132D01*
X138005341Y-97185000D01*
X137986024Y-96988868D01*
X137928814Y-96800273D01*
X137928812Y-96800270D01*
X137928812Y-96800268D01*
X137874950Y-96699500D01*
X137835910Y-96626462D01*
X137757297Y-96530672D01*
X137740500Y-96483727D01*
X137740500Y-96063951D01*
X137762173Y-96011626D01*
X138827780Y-94946018D01*
X138880105Y-94924345D01*
X138932431Y-94946019D01*
X138939616Y-94954774D01*
X138940745Y-94955903D01*
X138940746Y-94955904D01*
X138990528Y-94989167D01*
X139034430Y-94997900D01*
X139034431Y-94997900D01*
X139037995Y-94998609D01*
X139037588Y-95000653D01*
X139081937Y-95024340D01*
X139098750Y-95071304D01*
X139098750Y-95081824D01*
X139077076Y-95134150D01*
X139065862Y-95143353D01*
X139019399Y-95174398D01*
X139019398Y-95174399D01*
X138964034Y-95257259D01*
X138964034Y-95257260D01*
X138949500Y-95330326D01*
X138949500Y-95639674D01*
X138955806Y-95671375D01*
X138964034Y-95712741D01*
X138998209Y-95763889D01*
X139009258Y-95819438D01*
X138998209Y-95846111D01*
X138964034Y-95897258D01*
X138954344Y-95945970D01*
X138949500Y-95970326D01*
X138949500Y-96279674D01*
X138964034Y-96352740D01*
X139019399Y-96435601D01*
X139066612Y-96467146D01*
X139098078Y-96514237D01*
X139099500Y-96528675D01*
X139099500Y-96809883D01*
X139130022Y-96883571D01*
X139130025Y-96883575D01*
X139193744Y-96947294D01*
X139214294Y-96986770D01*
X139233265Y-97094361D01*
X139286252Y-97186139D01*
X139367429Y-97254254D01*
X139367432Y-97254256D01*
X139467011Y-97290499D01*
X139467012Y-97290500D01*
X139467014Y-97290500D01*
X139572988Y-97290500D01*
X139572988Y-97290499D01*
X139672568Y-97254256D01*
X139695905Y-97234674D01*
X140579500Y-97234674D01*
X140590605Y-97290500D01*
X140594034Y-97307740D01*
X140643072Y-97381133D01*
X140649399Y-97390601D01*
X140732260Y-97445966D01*
X140805326Y-97460500D01*
X140805328Y-97460500D01*
X141054672Y-97460500D01*
X141054674Y-97460500D01*
X141127740Y-97445966D01*
X141210601Y-97390601D01*
X141231430Y-97359427D01*
X141278520Y-97327962D01*
X141318267Y-97331003D01*
X141330145Y-97335326D01*
X141391067Y-97357499D01*
X141391067Y-97357500D01*
X141391069Y-97357500D01*
X141488933Y-97357500D01*
X141488932Y-97357499D01*
X141580891Y-97324030D01*
X141655857Y-97261125D01*
X141704788Y-97176375D01*
X141721781Y-97080000D01*
X141704788Y-96983625D01*
X141655857Y-96898875D01*
X141640081Y-96885637D01*
X141580890Y-96835969D01*
X141488932Y-96802500D01*
X141488931Y-96802500D01*
X141391069Y-96802500D01*
X141391066Y-96802500D01*
X141318267Y-96828996D01*
X141261684Y-96826525D01*
X141231429Y-96800570D01*
X141210603Y-96769401D01*
X141210600Y-96769398D01*
X141127740Y-96714034D01*
X141054674Y-96699500D01*
X140805326Y-96699500D01*
X140756615Y-96709189D01*
X140732259Y-96714034D01*
X140649399Y-96769398D01*
X140649398Y-96769399D01*
X140594034Y-96852259D01*
X140594034Y-96852260D01*
X140579500Y-96925326D01*
X140579500Y-97234674D01*
X139695905Y-97234674D01*
X139753748Y-97186138D01*
X139806734Y-97094363D01*
X139825136Y-96990000D01*
X139806734Y-96885637D01*
X139757621Y-96800570D01*
X139753747Y-96793860D01*
X139672570Y-96725745D01*
X139672567Y-96725743D01*
X139572988Y-96689500D01*
X139566612Y-96688376D01*
X139566964Y-96686378D01*
X139522174Y-96667826D01*
X139500500Y-96615500D01*
X139500500Y-96528675D01*
X139522174Y-96476349D01*
X139533382Y-96467150D01*
X139580601Y-96435601D01*
X139635966Y-96352740D01*
X139650500Y-96279674D01*
X139650500Y-95970326D01*
X139635966Y-95897260D01*
X139601789Y-95846110D01*
X139590741Y-95790563D01*
X139601790Y-95763889D01*
X139635966Y-95712740D01*
X139650500Y-95639674D01*
X139650500Y-95330326D01*
X139635966Y-95257260D01*
X139580601Y-95174399D01*
X139580600Y-95174398D01*
X139532638Y-95142351D01*
X139501172Y-95095259D01*
X139499750Y-95080822D01*
X139499750Y-95071304D01*
X139521424Y-95018978D01*
X139560849Y-95000339D01*
X139560505Y-94998609D01*
X139564069Y-94997900D01*
X139564070Y-94997900D01*
X139607972Y-94989167D01*
X139657754Y-94955904D01*
X139691017Y-94906122D01*
X139699750Y-94862220D01*
X139699750Y-94632580D01*
X139691017Y-94588678D01*
X139691016Y-94588676D01*
X139688770Y-94585314D01*
X139677718Y-94529766D01*
X139688770Y-94503086D01*
X139691016Y-94499723D01*
X139691015Y-94499723D01*
X139691017Y-94499722D01*
X139699750Y-94455820D01*
X139699750Y-94226180D01*
X139691017Y-94182278D01*
X139691016Y-94182276D01*
X139688770Y-94178914D01*
X139677718Y-94123366D01*
X139688770Y-94096686D01*
X139691016Y-94093323D01*
X139691015Y-94093323D01*
X139691017Y-94093322D01*
X139699750Y-94049420D01*
X139699750Y-93819780D01*
X139691017Y-93775878D01*
X139691016Y-93775876D01*
X139688770Y-93772514D01*
X139677718Y-93716966D01*
X139688770Y-93690286D01*
X139691016Y-93686923D01*
X139691015Y-93686923D01*
X139691017Y-93686922D01*
X139699750Y-93643020D01*
X139699750Y-93621700D01*
X139721424Y-93569374D01*
X139773750Y-93547700D01*
X140024467Y-93547700D01*
X140024470Y-93547700D01*
X140027509Y-93547095D01*
X140083057Y-93558140D01*
X140114527Y-93605229D01*
X140115950Y-93619672D01*
X140115950Y-93643020D01*
X140124683Y-93686922D01*
X140126931Y-93690286D01*
X140126933Y-93690289D01*
X140137981Y-93745838D01*
X140126933Y-93772509D01*
X140124683Y-93775878D01*
X140115950Y-93819780D01*
X140115950Y-94049420D01*
X140124683Y-94093322D01*
X140124684Y-94093323D01*
X140126933Y-94096689D01*
X140137981Y-94152238D01*
X140126933Y-94178909D01*
X140124683Y-94182278D01*
X140115950Y-94226180D01*
X140115950Y-94455820D01*
X140124683Y-94499722D01*
X140124684Y-94499723D01*
X140126933Y-94503089D01*
X140137981Y-94558638D01*
X140126933Y-94585309D01*
X140124683Y-94588678D01*
X140115950Y-94632580D01*
X140115950Y-94862220D01*
X140124683Y-94906122D01*
X140157946Y-94955904D01*
X140207728Y-94989167D01*
X140251630Y-94997900D01*
X140251631Y-94997900D01*
X140781269Y-94997900D01*
X140781270Y-94997900D01*
X140825172Y-94989167D01*
X140874954Y-94955904D01*
X140908217Y-94906122D01*
X140916950Y-94862220D01*
X140916950Y-94632580D01*
X140908217Y-94588678D01*
X140908216Y-94588676D01*
X140905970Y-94585314D01*
X140894918Y-94529766D01*
X140905970Y-94503086D01*
X140908216Y-94499723D01*
X140908215Y-94499723D01*
X140908217Y-94499722D01*
X140916950Y-94455820D01*
X140916950Y-94226180D01*
X140908217Y-94182278D01*
X140908216Y-94182276D01*
X140905970Y-94178914D01*
X140894918Y-94123366D01*
X140905970Y-94096686D01*
X140908216Y-94093323D01*
X140908215Y-94093323D01*
X140908217Y-94093322D01*
X140916950Y-94049420D01*
X140916950Y-93819780D01*
X140908217Y-93775878D01*
X140908216Y-93775876D01*
X140905970Y-93772514D01*
X140894918Y-93716966D01*
X140905970Y-93690286D01*
X140908216Y-93686923D01*
X140908215Y-93686923D01*
X140908217Y-93686922D01*
X140916950Y-93643020D01*
X140916950Y-93413380D01*
X140908217Y-93369478D01*
X140908216Y-93369476D01*
X140905970Y-93366114D01*
X140894918Y-93310566D01*
X140905970Y-93283886D01*
X140908216Y-93280523D01*
X140908215Y-93280523D01*
X140908217Y-93280522D01*
X140916950Y-93236620D01*
X140916950Y-93006980D01*
X140908217Y-92963078D01*
X140874954Y-92913296D01*
X140825172Y-92880033D01*
X140781270Y-92871300D01*
X140781269Y-92871300D01*
X140654603Y-92871300D01*
X140602277Y-92849626D01*
X140593073Y-92838411D01*
X140579020Y-92817378D01*
X140566550Y-92776267D01*
X140566550Y-92047652D01*
X140588224Y-91995326D01*
X140621376Y-91962174D01*
X140673702Y-91940500D01*
X140712988Y-91940500D01*
X140712988Y-91940499D01*
X140812568Y-91904256D01*
X140893748Y-91836138D01*
X140946734Y-91744363D01*
X140965136Y-91640000D01*
X140946734Y-91535637D01*
X140893748Y-91443862D01*
X140893747Y-91443860D01*
X140812570Y-91375745D01*
X140812567Y-91375743D01*
X140712988Y-91339500D01*
X140712986Y-91339500D01*
X140607014Y-91339500D01*
X140607011Y-91339500D01*
X140507432Y-91375743D01*
X140507429Y-91375745D01*
X140426252Y-91443860D01*
X140373265Y-91535638D01*
X140354294Y-91643228D01*
X140333745Y-91682703D01*
X140252477Y-91763973D01*
X140210276Y-91806174D01*
X140157950Y-91827848D01*
X140105624Y-91806174D01*
X140083950Y-91753848D01*
X140083950Y-90953568D01*
X140083949Y-90953566D01*
X140053427Y-90879878D01*
X140053425Y-90879875D01*
X139546255Y-90372705D01*
X139525705Y-90333229D01*
X139506734Y-90225637D01*
X139453747Y-90133860D01*
X139372570Y-90065745D01*
X139372567Y-90065743D01*
X139272988Y-90029500D01*
X139272986Y-90029500D01*
X139167014Y-90029500D01*
X139167011Y-90029500D01*
X139067432Y-90065743D01*
X139067429Y-90065745D01*
X138986252Y-90133860D01*
X138933265Y-90225637D01*
X138914864Y-90330000D01*
X138933265Y-90434362D01*
X138986252Y-90526139D01*
X139067429Y-90594254D01*
X139067432Y-90594256D01*
X139167011Y-90630499D01*
X139167012Y-90630500D01*
X139167014Y-90630500D01*
X139206298Y-90630500D01*
X139258624Y-90652174D01*
X139661276Y-91054826D01*
X139682950Y-91107152D01*
X139682950Y-92726287D01*
X139661276Y-92778613D01*
X139650067Y-92787812D01*
X139648749Y-92788692D01*
X139648744Y-92788697D01*
X139635278Y-92808851D01*
X139588186Y-92840316D01*
X139532637Y-92829266D01*
X139501172Y-92782174D01*
X139499750Y-92767738D01*
X139499750Y-91824368D01*
X139499749Y-91824366D01*
X139469227Y-91750678D01*
X139469225Y-91750675D01*
X137876868Y-90158318D01*
X137855194Y-90105992D01*
X137863930Y-90071113D01*
X137926069Y-89954863D01*
X141089500Y-89954863D01*
X141092414Y-89979986D01*
X141092415Y-89979992D01*
X141137794Y-90082765D01*
X141217235Y-90162206D01*
X141320009Y-90207585D01*
X141345135Y-90210500D01*
X143084864Y-90210499D01*
X143109991Y-90207585D01*
X143212765Y-90162206D01*
X143292206Y-90082765D01*
X143337585Y-89979991D01*
X143340500Y-89954865D01*
X143340500Y-89954863D01*
X146039500Y-89954863D01*
X146042414Y-89979986D01*
X146042415Y-89979992D01*
X146087794Y-90082765D01*
X146167235Y-90162206D01*
X146270009Y-90207585D01*
X146295135Y-90210500D01*
X148034864Y-90210499D01*
X148059991Y-90207585D01*
X148162765Y-90162206D01*
X148242206Y-90082765D01*
X148287585Y-89979991D01*
X148290500Y-89954865D01*
X148290499Y-89565136D01*
X148287585Y-89540009D01*
X148242206Y-89437235D01*
X148162765Y-89357794D01*
X148059991Y-89312415D01*
X148059990Y-89312414D01*
X148059988Y-89312414D01*
X148038659Y-89309940D01*
X148034865Y-89309500D01*
X148034864Y-89309500D01*
X146295136Y-89309500D01*
X146270013Y-89312414D01*
X146270007Y-89312415D01*
X146167234Y-89357794D01*
X146087794Y-89437234D01*
X146042414Y-89540011D01*
X146039500Y-89565135D01*
X146039500Y-89954863D01*
X143340500Y-89954863D01*
X143340499Y-89565136D01*
X143337585Y-89540009D01*
X143292206Y-89437235D01*
X143212765Y-89357794D01*
X143109991Y-89312415D01*
X143109990Y-89312414D01*
X143109988Y-89312414D01*
X143084865Y-89309500D01*
X142489500Y-89309500D01*
X142437174Y-89287826D01*
X142415500Y-89235500D01*
X142415500Y-89014499D01*
X142437174Y-88962173D01*
X142489500Y-88940499D01*
X143084863Y-88940499D01*
X143084864Y-88940499D01*
X143109991Y-88937585D01*
X143212765Y-88892206D01*
X143292206Y-88812765D01*
X143326715Y-88734608D01*
X143367677Y-88695497D01*
X143394409Y-88690500D01*
X144142216Y-88690500D01*
X144189782Y-88707812D01*
X144209109Y-88724030D01*
X144301067Y-88757499D01*
X144301067Y-88757500D01*
X144301069Y-88757500D01*
X144398933Y-88757500D01*
X144398932Y-88757499D01*
X144490891Y-88724030D01*
X144537568Y-88684863D01*
X146039500Y-88684863D01*
X146042414Y-88709986D01*
X146042415Y-88709992D01*
X146050848Y-88729090D01*
X146087794Y-88812765D01*
X146167235Y-88892206D01*
X146270009Y-88937585D01*
X146295135Y-88940500D01*
X148034864Y-88940499D01*
X148059991Y-88937585D01*
X148162765Y-88892206D01*
X148242206Y-88812765D01*
X148276715Y-88734608D01*
X148317677Y-88695497D01*
X148344409Y-88690500D01*
X149699881Y-88690500D01*
X149699882Y-88690500D01*
X149773574Y-88659976D01*
X151084376Y-87349174D01*
X151136702Y-87327500D01*
X151148933Y-87327500D01*
X151148932Y-87327499D01*
X151240891Y-87294030D01*
X151315857Y-87231125D01*
X151364788Y-87146375D01*
X151381781Y-87050000D01*
X151364788Y-86953625D01*
X151315857Y-86868875D01*
X151240891Y-86805970D01*
X151240890Y-86805969D01*
X151148932Y-86772500D01*
X151148931Y-86772500D01*
X151051069Y-86772500D01*
X151051067Y-86772500D01*
X150959109Y-86805970D01*
X150959107Y-86805971D01*
X150884143Y-86868873D01*
X150835214Y-86953620D01*
X150835212Y-86953623D01*
X150835212Y-86953625D01*
X150835212Y-86953626D01*
X150822648Y-87024875D01*
X150802098Y-87064350D01*
X149598624Y-88267826D01*
X149546298Y-88289500D01*
X148344409Y-88289500D01*
X148292083Y-88267826D01*
X148276715Y-88245392D01*
X148242206Y-88167235D01*
X148162765Y-88087794D01*
X148059991Y-88042415D01*
X148059990Y-88042414D01*
X148059988Y-88042414D01*
X148038659Y-88039940D01*
X148034865Y-88039500D01*
X148034864Y-88039500D01*
X146295136Y-88039500D01*
X146270013Y-88042414D01*
X146270007Y-88042415D01*
X146167234Y-88087794D01*
X146087794Y-88167234D01*
X146042414Y-88270011D01*
X146039500Y-88295135D01*
X146039500Y-88684863D01*
X144537568Y-88684863D01*
X144565857Y-88661125D01*
X144614788Y-88576375D01*
X144631781Y-88480000D01*
X144614788Y-88383625D01*
X144565857Y-88298875D01*
X144561400Y-88295135D01*
X144490890Y-88235969D01*
X144398932Y-88202500D01*
X144398931Y-88202500D01*
X144301069Y-88202500D01*
X144301067Y-88202500D01*
X144209110Y-88235969D01*
X144175840Y-88263886D01*
X144168545Y-88270009D01*
X144165949Y-88272187D01*
X144118382Y-88289500D01*
X143394409Y-88289500D01*
X143342083Y-88267826D01*
X143326715Y-88245392D01*
X143292206Y-88167235D01*
X143212765Y-88087794D01*
X143109991Y-88042415D01*
X143109990Y-88042414D01*
X143109988Y-88042414D01*
X143088659Y-88039940D01*
X143084865Y-88039500D01*
X143084864Y-88039500D01*
X141345136Y-88039500D01*
X141320013Y-88042414D01*
X141320007Y-88042415D01*
X141217234Y-88087794D01*
X141137794Y-88167234D01*
X141092414Y-88270011D01*
X141089500Y-88295135D01*
X141089500Y-88684863D01*
X141092414Y-88709986D01*
X141092415Y-88709992D01*
X141100848Y-88729090D01*
X141137794Y-88812765D01*
X141217235Y-88892206D01*
X141320009Y-88937585D01*
X141345135Y-88940500D01*
X141940500Y-88940499D01*
X141992826Y-88962173D01*
X142014500Y-89014499D01*
X142014500Y-89235500D01*
X141992826Y-89287826D01*
X141940500Y-89309500D01*
X141345136Y-89309500D01*
X141320013Y-89312414D01*
X141320007Y-89312415D01*
X141217234Y-89357794D01*
X141137794Y-89437234D01*
X141092414Y-89540011D01*
X141089500Y-89565135D01*
X141089500Y-89954863D01*
X137926069Y-89954863D01*
X137928814Y-89949727D01*
X137986024Y-89761132D01*
X138005341Y-89565000D01*
X137986024Y-89368868D01*
X137928814Y-89180273D01*
X137928812Y-89180270D01*
X137928812Y-89180268D01*
X137877048Y-89083426D01*
X137835910Y-89006462D01*
X137710883Y-88854117D01*
X137558538Y-88729090D01*
X137548597Y-88723776D01*
X137384731Y-88636187D01*
X137196133Y-88578976D01*
X137132513Y-88572710D01*
X137066746Y-88566232D01*
X137016797Y-88539534D01*
X137000000Y-88492589D01*
X137000000Y-88097410D01*
X137021674Y-88045084D01*
X137066744Y-88023767D01*
X137196132Y-88011024D01*
X137384727Y-87953814D01*
X137558538Y-87860910D01*
X137710883Y-87735883D01*
X137835910Y-87583538D01*
X137928814Y-87409727D01*
X137986024Y-87221132D01*
X138005341Y-87025000D01*
X137986024Y-86828868D01*
X137928814Y-86640273D01*
X137863931Y-86518888D01*
X137858380Y-86462525D01*
X137876866Y-86431682D01*
X139445202Y-84863347D01*
X139497527Y-84841674D01*
X139549853Y-84863348D01*
X139570104Y-84901234D01*
X139571833Y-84909922D01*
X139605096Y-84959704D01*
X139654878Y-84992967D01*
X139654879Y-84992967D01*
X139661611Y-84995756D01*
X139660056Y-84999509D01*
X139695402Y-85023129D01*
X139706448Y-85078678D01*
X139695400Y-85105350D01*
X139654034Y-85167259D01*
X139639500Y-85240327D01*
X139639500Y-85549672D01*
X139654034Y-85622741D01*
X139688209Y-85673889D01*
X139699258Y-85729438D01*
X139688209Y-85756112D01*
X139677625Y-85771952D01*
X139630533Y-85803418D01*
X139574984Y-85792369D01*
X139568531Y-85787528D01*
X139542570Y-85765745D01*
X139542567Y-85765743D01*
X139442988Y-85729500D01*
X139442986Y-85729500D01*
X139337014Y-85729500D01*
X139337011Y-85729500D01*
X139237432Y-85765743D01*
X139237429Y-85765745D01*
X139156252Y-85833860D01*
X139103265Y-85925637D01*
X139084864Y-86030000D01*
X139103265Y-86134362D01*
X139156252Y-86226139D01*
X139237429Y-86294254D01*
X139237432Y-86294256D01*
X139337011Y-86330499D01*
X139337012Y-86330500D01*
X139337014Y-86330500D01*
X139442988Y-86330500D01*
X139442988Y-86330499D01*
X139542568Y-86294256D01*
X139564248Y-86276064D01*
X139618262Y-86259032D01*
X139668500Y-86285183D01*
X139673343Y-86291639D01*
X139699308Y-86330499D01*
X139709399Y-86345601D01*
X139792260Y-86400966D01*
X139865326Y-86415500D01*
X139865328Y-86415500D01*
X140114672Y-86415500D01*
X140114674Y-86415500D01*
X140187740Y-86400966D01*
X140270601Y-86345601D01*
X140325966Y-86262740D01*
X140340500Y-86189674D01*
X140340500Y-85880326D01*
X140325966Y-85807260D01*
X140291789Y-85756110D01*
X140280741Y-85700563D01*
X140291790Y-85673889D01*
X140325966Y-85622740D01*
X140340500Y-85549674D01*
X140340500Y-85240326D01*
X140325966Y-85167260D01*
X140270601Y-85084399D01*
X140270008Y-85083511D01*
X140258959Y-85027962D01*
X140290423Y-84980871D01*
X140322104Y-84959704D01*
X140355367Y-84909922D01*
X140364100Y-84866020D01*
X140364100Y-84636380D01*
X140355367Y-84592478D01*
X140355366Y-84592476D01*
X140353120Y-84589114D01*
X140342068Y-84533566D01*
X140353120Y-84506886D01*
X140355366Y-84503523D01*
X140355365Y-84503523D01*
X140355367Y-84503522D01*
X140364100Y-84459620D01*
X140364100Y-84229980D01*
X140355367Y-84186078D01*
X140355366Y-84186076D01*
X140353120Y-84182714D01*
X140342068Y-84127166D01*
X140353120Y-84100486D01*
X140355366Y-84097123D01*
X140355365Y-84097123D01*
X140355367Y-84097122D01*
X140364100Y-84053220D01*
X140364100Y-83823580D01*
X140355367Y-83779678D01*
X140355366Y-83779676D01*
X140353120Y-83776314D01*
X140342068Y-83720766D01*
X140353120Y-83694086D01*
X140355366Y-83690723D01*
X140355365Y-83690723D01*
X140355367Y-83690722D01*
X140364100Y-83646820D01*
X140364100Y-83625500D01*
X140385774Y-83573174D01*
X140438100Y-83551500D01*
X140688817Y-83551500D01*
X140688820Y-83551500D01*
X140691859Y-83550895D01*
X140747407Y-83561940D01*
X140778877Y-83609029D01*
X140780300Y-83623472D01*
X140780300Y-83646820D01*
X140789033Y-83690722D01*
X140789034Y-83690723D01*
X140791283Y-83694089D01*
X140802331Y-83749638D01*
X140791283Y-83776309D01*
X140789033Y-83779678D01*
X140780300Y-83823580D01*
X140780300Y-84053220D01*
X140789033Y-84097122D01*
X140791281Y-84100486D01*
X140791283Y-84100489D01*
X140802331Y-84156038D01*
X140791283Y-84182709D01*
X140789033Y-84186078D01*
X140780300Y-84229980D01*
X140780300Y-84459620D01*
X140789033Y-84503522D01*
X140789034Y-84503523D01*
X140791283Y-84506889D01*
X140802331Y-84562438D01*
X140791283Y-84589109D01*
X140789033Y-84592478D01*
X140780300Y-84636380D01*
X140780300Y-84866020D01*
X140789033Y-84909922D01*
X140822296Y-84959704D01*
X140872078Y-84992967D01*
X140915980Y-85001700D01*
X140915981Y-85001700D01*
X141445619Y-85001700D01*
X141445620Y-85001700D01*
X141489522Y-84992967D01*
X141539304Y-84959704D01*
X141572567Y-84909922D01*
X141581300Y-84866020D01*
X141581300Y-84636380D01*
X141572567Y-84592478D01*
X141572566Y-84592476D01*
X141570320Y-84589114D01*
X141559268Y-84533566D01*
X141570320Y-84506886D01*
X141572566Y-84503523D01*
X141572565Y-84503523D01*
X141572567Y-84503522D01*
X141581300Y-84459620D01*
X141581300Y-84229980D01*
X141572567Y-84186078D01*
X141572566Y-84186076D01*
X141570320Y-84182714D01*
X141559268Y-84127166D01*
X141570320Y-84100486D01*
X141572566Y-84097123D01*
X141572565Y-84097123D01*
X141572567Y-84097122D01*
X141581300Y-84053220D01*
X141581300Y-83823580D01*
X141572567Y-83779678D01*
X141572566Y-83779676D01*
X141570320Y-83776314D01*
X141559268Y-83720766D01*
X141570320Y-83694086D01*
X141572566Y-83690723D01*
X141572565Y-83690723D01*
X141572567Y-83690722D01*
X141581300Y-83646820D01*
X141581300Y-83475868D01*
X141602974Y-83423542D01*
X141655300Y-83401868D01*
X141680607Y-83406330D01*
X141710417Y-83417180D01*
X141747013Y-83430500D01*
X141747014Y-83430500D01*
X141852988Y-83430500D01*
X141852988Y-83430499D01*
X141952568Y-83394256D01*
X142027358Y-83331500D01*
X142033747Y-83326139D01*
X142042389Y-83311171D01*
X142086734Y-83234363D01*
X142105136Y-83130000D01*
X142086734Y-83025637D01*
X142040375Y-82945341D01*
X142033747Y-82933860D01*
X141952570Y-82865745D01*
X141952567Y-82865743D01*
X141852988Y-82829500D01*
X141852986Y-82829500D01*
X141747014Y-82829500D01*
X141747011Y-82829500D01*
X141647432Y-82865743D01*
X141607952Y-82898871D01*
X141553936Y-82915901D01*
X141519275Y-82903712D01*
X141489523Y-82883833D01*
X141467571Y-82879466D01*
X141445620Y-82875100D01*
X141445619Y-82875100D01*
X141318953Y-82875100D01*
X141266627Y-82853426D01*
X141257424Y-82842212D01*
X141238504Y-82813896D01*
X141238503Y-82813895D01*
X141188722Y-82780633D01*
X141144820Y-82771900D01*
X140915980Y-82771900D01*
X140901346Y-82774811D01*
X140872076Y-82780633D01*
X140863410Y-82786424D01*
X140807861Y-82797472D01*
X140760770Y-82766004D01*
X140748300Y-82724894D01*
X140748300Y-82675902D01*
X140769974Y-82623576D01*
X141301376Y-82092174D01*
X141353702Y-82070500D01*
X142544517Y-82070500D01*
X142592082Y-82087812D01*
X142638401Y-82126678D01*
X142647432Y-82134256D01*
X142747011Y-82170499D01*
X142747012Y-82170500D01*
X142747014Y-82170500D01*
X142852988Y-82170500D01*
X142852988Y-82170499D01*
X142952568Y-82134256D01*
X143033748Y-82066138D01*
X143086734Y-81974363D01*
X143105136Y-81870000D01*
X143086734Y-81765637D01*
X143081636Y-81756807D01*
X143033747Y-81673860D01*
X142952570Y-81605745D01*
X142952567Y-81605743D01*
X142852988Y-81569500D01*
X142852986Y-81569500D01*
X142747014Y-81569500D01*
X142747011Y-81569500D01*
X142647432Y-81605743D01*
X142617589Y-81630784D01*
X142592082Y-81652187D01*
X142544517Y-81669500D01*
X141200118Y-81669500D01*
X141126428Y-81700022D01*
X140377822Y-82448628D01*
X140347300Y-82522316D01*
X140347300Y-82730087D01*
X140325626Y-82782413D01*
X140314417Y-82791612D01*
X140313099Y-82792492D01*
X140313094Y-82792497D01*
X140299628Y-82812651D01*
X140252536Y-82844116D01*
X140196987Y-82833066D01*
X140165522Y-82785974D01*
X140164100Y-82771538D01*
X140164100Y-82328718D01*
X140164099Y-82328716D01*
X140164039Y-82328572D01*
X140133576Y-82255026D01*
X140077174Y-82198624D01*
X138022174Y-80143624D01*
X138000500Y-80091298D01*
X138000500Y-78694000D01*
X138022174Y-78641674D01*
X138074500Y-78620000D01*
X152865500Y-78620000D01*
X152917826Y-78641674D01*
G37*
%TD.AperFunction*%
%TA.AperFunction,Conductor*%
G36*
X137593318Y-90441868D02*
G01*
X139077076Y-91925626D01*
X139098750Y-91977952D01*
X139098750Y-92797895D01*
X139077076Y-92850221D01*
X139037654Y-92868877D01*
X139037995Y-92870591D01*
X139034431Y-92871300D01*
X139034430Y-92871300D01*
X139017515Y-92874664D01*
X138990527Y-92880033D01*
X138940746Y-92913295D01*
X138940745Y-92913296D01*
X138907483Y-92963077D01*
X138907483Y-92963078D01*
X138898750Y-93006980D01*
X138898750Y-93236620D01*
X138899276Y-93239262D01*
X138899098Y-93240156D01*
X138899106Y-93240236D01*
X138899081Y-93240238D01*
X138888228Y-93294811D01*
X138841136Y-93326278D01*
X138826698Y-93327700D01*
X138456552Y-93327700D01*
X138404226Y-93306026D01*
X137848881Y-92750681D01*
X137827207Y-92698355D01*
X137835944Y-92663473D01*
X137928814Y-92489727D01*
X137986024Y-92301132D01*
X138005341Y-92105000D01*
X137986024Y-91908868D01*
X137928814Y-91720273D01*
X137928812Y-91720270D01*
X137928812Y-91720268D01*
X137868175Y-91606825D01*
X137835910Y-91546462D01*
X137710883Y-91394117D01*
X137558538Y-91269090D01*
X137537236Y-91257704D01*
X137384731Y-91176187D01*
X137196133Y-91118976D01*
X137132513Y-91112710D01*
X137066746Y-91106232D01*
X137016797Y-91079534D01*
X137000000Y-91032589D01*
X137000000Y-90637410D01*
X137021674Y-90585084D01*
X137066744Y-90563767D01*
X137196132Y-90551024D01*
X137384727Y-90493814D01*
X137506111Y-90428931D01*
X137562472Y-90423380D01*
X137593318Y-90441868D01*
G37*
%TD.AperFunction*%
%TA.AperFunction,Conductor*%
G36*
X153009628Y-82328572D02*
G01*
X153022564Y-82346014D01*
X153078738Y-82451107D01*
X153104090Y-82498538D01*
X153229117Y-82650883D01*
X153381462Y-82775910D01*
X153443242Y-82808932D01*
X153555268Y-82868812D01*
X153555270Y-82868812D01*
X153555273Y-82868814D01*
X153743868Y-82926024D01*
X153933254Y-82944676D01*
X153983203Y-82971375D01*
X154000000Y-83018320D01*
X154000000Y-83401679D01*
X153978326Y-83454005D01*
X153933254Y-83475323D01*
X153743866Y-83493976D01*
X153555268Y-83551187D01*
X153381463Y-83644089D01*
X153229117Y-83769117D01*
X153104089Y-83921463D01*
X153011187Y-84095268D01*
X152953976Y-84283866D01*
X152935549Y-84470957D01*
X152908850Y-84520906D01*
X152854651Y-84537347D01*
X152809579Y-84516029D01*
X151803575Y-83510025D01*
X151803571Y-83510022D01*
X151729882Y-83479500D01*
X151354591Y-83479500D01*
X151302265Y-83457826D01*
X151280591Y-83405500D01*
X151302265Y-83353174D01*
X151313480Y-83343971D01*
X151362570Y-83311171D01*
X151403681Y-83298700D01*
X152431681Y-83298700D01*
X152431682Y-83298700D01*
X152505374Y-83268176D01*
X152631376Y-83142174D01*
X152683702Y-83120500D01*
X152722988Y-83120500D01*
X152722988Y-83120499D01*
X152822568Y-83084256D01*
X152903748Y-83016138D01*
X152956734Y-82924363D01*
X152975136Y-82820000D01*
X152956734Y-82715637D01*
X152955109Y-82712823D01*
X152903747Y-82623860D01*
X152822570Y-82555745D01*
X152816963Y-82552508D01*
X152818308Y-82550176D01*
X152783825Y-82518570D01*
X152781362Y-82461987D01*
X152798568Y-82434980D01*
X152904978Y-82328571D01*
X152957302Y-82306898D01*
X153009628Y-82328572D01*
G37*
%TD.AperFunction*%
%TD*%
M02*
