%TF.GenerationSoftware,KiCad,Pcbnew,8.0.1*%
%TF.CreationDate,2024-10-17T14:11:07-05:00*%
%TF.ProjectId,sip-board,7369702d-626f-4617-9264-2e6b69636164,rev?*%
%TF.SameCoordinates,Original*%
%TF.FileFunction,Copper,L5,Inr*%
%TF.FilePolarity,Positive*%
%FSLAX46Y46*%
G04 Gerber Fmt 4.6, Leading zero omitted, Abs format (unit mm)*
G04 Created by KiCad (PCBNEW 8.0.1) date 2024-10-17 14:11:07*
%MOMM*%
%LPD*%
G01*
G04 APERTURE LIST*
%TA.AperFunction,CastellatedPad*%
%ADD10R,1.700000X1.700000*%
%TD*%
%TA.AperFunction,CastellatedPad*%
%ADD11O,1.700000X1.700000*%
%TD*%
%TA.AperFunction,ComponentPad*%
%ADD12R,1.700000X1.700000*%
%TD*%
%TA.AperFunction,ComponentPad*%
%ADD13O,1.700000X1.700000*%
%TD*%
%TA.AperFunction,ViaPad*%
%ADD14C,0.254000*%
%TD*%
%TA.AperFunction,ViaPad*%
%ADD15C,0.300000*%
%TD*%
%TA.AperFunction,Conductor*%
%ADD16C,0.100000*%
%TD*%
G04 APERTURE END LIST*
D10*
%TO.N,A1_5V*%
%TO.C,J5*%
X153970000Y-104800000D03*
D11*
%TO.N,A2_5V*%
X153970000Y-107340000D03*
%TO.N,A3_5V*%
X153970000Y-109880000D03*
%TO.N,A4_5V*%
X153970000Y-112420000D03*
%TO.N,A5_5V*%
X153970000Y-114960000D03*
%TO.N,A6_5V*%
X153970000Y-117500000D03*
%TO.N,A7_5V*%
X153970000Y-120040000D03*
%TO.N,A8_5V*%
X153970000Y-122580000D03*
%TO.N,A9_5V*%
X153970000Y-125120000D03*
%TO.N,A10_5V*%
X153970000Y-127660000D03*
%TD*%
D10*
%TO.N,+5V*%
%TO.C,J3*%
X137000000Y-104840000D03*
D11*
%TO.N,D2_5V*%
X137000000Y-107380000D03*
%TO.N,D7_5V*%
X137000000Y-109920000D03*
%TO.N,D0_5V*%
X137000000Y-112460000D03*
%TO.N,D1_5V*%
X137000000Y-115000000D03*
%TO.N,INT_5V*%
X137000000Y-117540000D03*
%TO.N,NMI_5V*%
X137000000Y-120080000D03*
%TO.N,HALT_5V*%
X137000000Y-122620000D03*
%TO.N,MREQ_5V*%
X137000000Y-125160000D03*
%TO.N,IORQ_5V*%
X137000000Y-127700000D03*
%TD*%
D10*
%TO.N,A11_5V*%
%TO.C,J2*%
X137000000Y-79405000D03*
D11*
%TO.N,A12_5V*%
X137000000Y-81945000D03*
%TO.N,A13_5V*%
X137000000Y-84485000D03*
%TO.N,A14_5V*%
X137000000Y-87025000D03*
%TO.N,A15_5V*%
X137000000Y-89565000D03*
%TO.N,CLK_5V*%
X137000000Y-92105000D03*
%TO.N,D4_5V*%
X137000000Y-94645000D03*
%TO.N,D3_5V*%
X137000000Y-97185000D03*
%TO.N,D5_5V*%
X137000000Y-99725000D03*
%TO.N,D6_5V*%
X137000000Y-102265000D03*
%TD*%
D12*
%TO.N,RD_5V*%
%TO.C,J4*%
X153940000Y-79400000D03*
D13*
%TO.N,WR_5V*%
X153940000Y-81940000D03*
%TO.N,BUSAK_5V*%
X153940000Y-84480000D03*
%TO.N,WAIT_5V*%
X153940000Y-87020000D03*
%TO.N,BUSRQ_5V*%
X153940000Y-89560000D03*
%TO.N,RESET_5V*%
X153940000Y-92100000D03*
%TO.N,M1_5V*%
X153940000Y-94640000D03*
%TO.N,RFSH_5V*%
X153940000Y-97180000D03*
%TO.N,GND*%
X153940000Y-99720000D03*
%TO.N,A0_5V*%
X153940000Y-102260000D03*
%TD*%
D14*
%TO.N,+1V0*%
X146400000Y-102110000D03*
X144920000Y-102590000D03*
X141440000Y-97080000D03*
%TO.N,GND*%
X150400000Y-106500000D03*
X150530000Y-95300000D03*
D15*
X148410000Y-104600000D03*
D14*
X146760000Y-114750000D03*
X141770000Y-101850000D03*
X147160000Y-98930000D03*
X149060000Y-105850000D03*
X142160000Y-98920000D03*
X149040000Y-103850000D03*
D15*
X148690000Y-87960000D03*
D14*
X149240000Y-114750000D03*
X141770000Y-104350000D03*
D15*
X137750000Y-88290000D03*
D14*
X144160000Y-106240000D03*
D15*
X147880000Y-82870000D03*
X148690000Y-89720000D03*
D14*
X149920000Y-111060000D03*
D15*
X152400000Y-83570000D03*
D14*
X144660000Y-98960000D03*
X139970000Y-106470000D03*
X140700000Y-85980000D03*
D15*
X137670000Y-90870000D03*
D14*
X141770000Y-105850000D03*
X146740000Y-94550000D03*
X145160000Y-106240000D03*
X144130000Y-114750000D03*
X143040000Y-94560000D03*
X149020000Y-99350000D03*
X149000000Y-101350000D03*
X146160000Y-106230000D03*
D15*
X151140000Y-86450000D03*
%TO.N,+5V*%
X139220000Y-90330000D03*
X138940000Y-101250000D03*
X150760000Y-94720000D03*
X142800000Y-84710000D03*
X142800000Y-81870000D03*
X150090000Y-125500000D03*
X139590000Y-122720000D03*
X150830000Y-114740000D03*
X139590000Y-111660000D03*
D14*
%TO.N,+1V8*%
X145420000Y-101090000D03*
X146420000Y-101090000D03*
X144160000Y-97300000D03*
X144910000Y-100580000D03*
%TO.N,TDO*%
X147270000Y-87210000D03*
X144420000Y-104600000D03*
X147270000Y-97580000D03*
%TO.N,MOSI*%
X149310000Y-83710000D03*
X145410000Y-104600000D03*
X146920000Y-100610000D03*
X149700000Y-83700000D03*
%TO.N,M2_CONFIG*%
X142860000Y-114180000D03*
X146410000Y-104600000D03*
%TO.N,DIN*%
X147410000Y-100100000D03*
%TO.N,DONE*%
X149980000Y-105100000D03*
X146420000Y-105100000D03*
%TO.N,CS*%
X144900000Y-104610000D03*
X151550000Y-87050000D03*
%TO.N,CCLK*%
X144150000Y-91030000D03*
D15*
%TO.N,RFSH_5V*%
X152110000Y-93040000D03*
%TO.N,A10_5V*%
X152160000Y-122810000D03*
%TO.N,A6_5V*%
X152000000Y-112970000D03*
D14*
%TO.N,+3V3*%
X143920000Y-102120000D03*
X146920000Y-101590000D03*
X145660000Y-106260000D03*
X144410000Y-105100000D03*
X148380000Y-97550000D03*
D15*
X141010000Y-106460000D03*
X139470000Y-128130000D03*
X149410000Y-79090000D03*
X140530000Y-116070000D03*
X140660000Y-91640000D03*
D14*
X145250000Y-91020000D03*
D15*
X140240000Y-111370000D03*
X148900000Y-86210000D03*
X141800000Y-83130000D03*
X151390000Y-109400000D03*
X151060000Y-95700000D03*
X151590000Y-101730000D03*
D14*
X144350000Y-88480000D03*
D15*
X150090000Y-125010000D03*
X151000000Y-119670000D03*
X139520000Y-96990000D03*
X140280000Y-122250000D03*
X140910000Y-102340000D03*
X151800000Y-89520000D03*
X150840000Y-115670000D03*
X139390000Y-86030000D03*
%TD*%
D16*
%TO.N,+1V8*%
X144160000Y-99830000D02*
X144160000Y-97300000D01*
X146420000Y-101090000D02*
X145420000Y-101090000D01*
X145420000Y-101090000D02*
X144910000Y-100580000D01*
X144910000Y-100580000D02*
X144160000Y-99830000D01*
%TO.N,TDO*%
X147270000Y-97580000D02*
X147270000Y-87210000D01*
%TO.N,RFSH_5V*%
X152110000Y-95350000D02*
X153940000Y-97180000D01*
X152110000Y-93040000D02*
X152110000Y-95350000D01*
%TO.N,A10_5V*%
X152160000Y-125850000D02*
X153970000Y-127660000D01*
X152160000Y-122810000D02*
X152160000Y-125850000D01*
%TD*%
%TA.AperFunction,Conductor*%
%TO.N,GND*%
G36*
X152917826Y-78641674D02*
G01*
X152939500Y-78694000D01*
X152939500Y-80264820D01*
X152948233Y-80308722D01*
X152981496Y-80358504D01*
X153031278Y-80391767D01*
X153075180Y-80400500D01*
X153075181Y-80400500D01*
X153926000Y-80400500D01*
X153978326Y-80422174D01*
X154000000Y-80474500D01*
X154000000Y-80861679D01*
X153978326Y-80914005D01*
X153933254Y-80935323D01*
X153743866Y-80953976D01*
X153555268Y-81011187D01*
X153381463Y-81104089D01*
X153229117Y-81229117D01*
X153104089Y-81381463D01*
X153011187Y-81555268D01*
X152953976Y-81743866D01*
X152934659Y-81940000D01*
X152953976Y-82136133D01*
X153011187Y-82324731D01*
X153098776Y-82488597D01*
X153104090Y-82498538D01*
X153229117Y-82650883D01*
X153381462Y-82775910D01*
X153458426Y-82817048D01*
X153555268Y-82868812D01*
X153555270Y-82868812D01*
X153555273Y-82868814D01*
X153743868Y-82926024D01*
X153933254Y-82944676D01*
X153983203Y-82971375D01*
X154000000Y-83018320D01*
X154000000Y-83401679D01*
X153978326Y-83454005D01*
X153933254Y-83475323D01*
X153743866Y-83493976D01*
X153555268Y-83551187D01*
X153381463Y-83644089D01*
X153229117Y-83769117D01*
X153104089Y-83921463D01*
X153011187Y-84095268D01*
X152953976Y-84283866D01*
X152934659Y-84480000D01*
X152953976Y-84676133D01*
X153011187Y-84864731D01*
X153089103Y-85010499D01*
X153104090Y-85038538D01*
X153229117Y-85190883D01*
X153381462Y-85315910D01*
X153458426Y-85357048D01*
X153555268Y-85408812D01*
X153555270Y-85408812D01*
X153555273Y-85408814D01*
X153743868Y-85466024D01*
X153933254Y-85484676D01*
X153983203Y-85511375D01*
X154000000Y-85558320D01*
X154000000Y-85941679D01*
X153978326Y-85994005D01*
X153933254Y-86015323D01*
X153743866Y-86033976D01*
X153555268Y-86091187D01*
X153381463Y-86184089D01*
X153229117Y-86309117D01*
X153104089Y-86461463D01*
X153011187Y-86635268D01*
X152953976Y-86823866D01*
X152934659Y-87020000D01*
X152953976Y-87216133D01*
X153011187Y-87404731D01*
X153098776Y-87568597D01*
X153104090Y-87578538D01*
X153229117Y-87730883D01*
X153381462Y-87855910D01*
X153458426Y-87897048D01*
X153555268Y-87948812D01*
X153555270Y-87948812D01*
X153555273Y-87948814D01*
X153743868Y-88006024D01*
X153933254Y-88024676D01*
X153983203Y-88051375D01*
X154000000Y-88098320D01*
X154000000Y-88481679D01*
X153978326Y-88534005D01*
X153933254Y-88555323D01*
X153743866Y-88573976D01*
X153555268Y-88631187D01*
X153381463Y-88724089D01*
X153229117Y-88849117D01*
X153104089Y-89001463D01*
X153011187Y-89175268D01*
X152953976Y-89363866D01*
X152934659Y-89560000D01*
X152953976Y-89756133D01*
X153011187Y-89944731D01*
X153098776Y-90108597D01*
X153104090Y-90118538D01*
X153229117Y-90270883D01*
X153381462Y-90395910D01*
X153458426Y-90437048D01*
X153555268Y-90488812D01*
X153555270Y-90488812D01*
X153555273Y-90488814D01*
X153743868Y-90546024D01*
X153933254Y-90564676D01*
X153983203Y-90591375D01*
X154000000Y-90638320D01*
X154000000Y-91021679D01*
X153978326Y-91074005D01*
X153933254Y-91095323D01*
X153743866Y-91113976D01*
X153555268Y-91171187D01*
X153381463Y-91264089D01*
X153229117Y-91389117D01*
X153104089Y-91541463D01*
X153011187Y-91715268D01*
X152953976Y-91903866D01*
X152934659Y-92100000D01*
X152953976Y-92296133D01*
X153011187Y-92484731D01*
X153098776Y-92648597D01*
X153104090Y-92658538D01*
X153229117Y-92810883D01*
X153381462Y-92935910D01*
X153458426Y-92977048D01*
X153555268Y-93028812D01*
X153555270Y-93028812D01*
X153555273Y-93028814D01*
X153743868Y-93086024D01*
X153933254Y-93104676D01*
X153983203Y-93131375D01*
X154000000Y-93178320D01*
X154000000Y-93561679D01*
X153978326Y-93614005D01*
X153933254Y-93635323D01*
X153743866Y-93653976D01*
X153555268Y-93711187D01*
X153381463Y-93804089D01*
X153229117Y-93929117D01*
X153104089Y-94081463D01*
X153011187Y-94255268D01*
X152953976Y-94443866D01*
X152934659Y-94640000D01*
X152953976Y-94836133D01*
X153011187Y-95024731D01*
X153098776Y-95188597D01*
X153104090Y-95198538D01*
X153229117Y-95350883D01*
X153381462Y-95475910D01*
X153458426Y-95517048D01*
X153555268Y-95568812D01*
X153555270Y-95568812D01*
X153555273Y-95568814D01*
X153743868Y-95626024D01*
X153933254Y-95644676D01*
X153983203Y-95671375D01*
X154000000Y-95718320D01*
X154000000Y-96101679D01*
X153978326Y-96154005D01*
X153933254Y-96175323D01*
X153743866Y-96193976D01*
X153555268Y-96251187D01*
X153433889Y-96316066D01*
X153377525Y-96321617D01*
X153346680Y-96303130D01*
X152332174Y-95288624D01*
X152310500Y-95236298D01*
X152310500Y-93298543D01*
X152332174Y-93246217D01*
X152336925Y-93241862D01*
X152343748Y-93236138D01*
X152396734Y-93144363D01*
X152415136Y-93040000D01*
X152396734Y-92935637D01*
X152343748Y-92843862D01*
X152343747Y-92843860D01*
X152262570Y-92775745D01*
X152262567Y-92775743D01*
X152162988Y-92739500D01*
X152162986Y-92739500D01*
X152057014Y-92739500D01*
X152057011Y-92739500D01*
X151957432Y-92775743D01*
X151957429Y-92775745D01*
X151876252Y-92843860D01*
X151823265Y-92935637D01*
X151804864Y-93040000D01*
X151823265Y-93144362D01*
X151842871Y-93178320D01*
X151876252Y-93236138D01*
X151883065Y-93241855D01*
X151909218Y-93292091D01*
X151909500Y-93298543D01*
X151909500Y-95389883D01*
X151940022Y-95463571D01*
X151940025Y-95463575D01*
X153063130Y-96586680D01*
X153084804Y-96639006D01*
X153076066Y-96673889D01*
X153011187Y-96795268D01*
X152953976Y-96983866D01*
X152934659Y-97180000D01*
X152953976Y-97376133D01*
X153011187Y-97564731D01*
X153070862Y-97676373D01*
X153104090Y-97738538D01*
X153229117Y-97890883D01*
X153381462Y-98015910D01*
X153458426Y-98057048D01*
X153555268Y-98108812D01*
X153555270Y-98108812D01*
X153555273Y-98108814D01*
X153743868Y-98166024D01*
X153933254Y-98184676D01*
X153983203Y-98211375D01*
X154000000Y-98258320D01*
X154000000Y-101181679D01*
X153978326Y-101234005D01*
X153933254Y-101255323D01*
X153743866Y-101273976D01*
X153555268Y-101331187D01*
X153381463Y-101424089D01*
X153229117Y-101549117D01*
X153104089Y-101701463D01*
X153011187Y-101875268D01*
X152953976Y-102063866D01*
X152934659Y-102260000D01*
X152953976Y-102456133D01*
X153011187Y-102644731D01*
X153078747Y-102771125D01*
X153104090Y-102818538D01*
X153229117Y-102970883D01*
X153381462Y-103095910D01*
X153458426Y-103137048D01*
X153555268Y-103188812D01*
X153555270Y-103188812D01*
X153555273Y-103188814D01*
X153743868Y-103246024D01*
X153933254Y-103264676D01*
X153983203Y-103291375D01*
X154000000Y-103338320D01*
X154000000Y-103725500D01*
X153978326Y-103777826D01*
X153926000Y-103799500D01*
X153105180Y-103799500D01*
X153083229Y-103803866D01*
X153061277Y-103808233D01*
X153011496Y-103841495D01*
X153011495Y-103841496D01*
X152978233Y-103891277D01*
X152978233Y-103891278D01*
X152969500Y-103935180D01*
X152969500Y-105664820D01*
X152978233Y-105708722D01*
X153011496Y-105758504D01*
X153061278Y-105791767D01*
X153105180Y-105800500D01*
X153105181Y-105800500D01*
X153926000Y-105800500D01*
X153978326Y-105822174D01*
X154000000Y-105874500D01*
X154000000Y-106264634D01*
X153978326Y-106316960D01*
X153933254Y-106338278D01*
X153773866Y-106353976D01*
X153585268Y-106411187D01*
X153411463Y-106504089D01*
X153259117Y-106629117D01*
X153134089Y-106781463D01*
X153041187Y-106955268D01*
X152983976Y-107143866D01*
X152964659Y-107340000D01*
X152983976Y-107536133D01*
X153041187Y-107724731D01*
X153128776Y-107888597D01*
X153134090Y-107898538D01*
X153259117Y-108050883D01*
X153411462Y-108175910D01*
X153486297Y-108215910D01*
X153585268Y-108268812D01*
X153585270Y-108268812D01*
X153585273Y-108268814D01*
X153773868Y-108326024D01*
X153933254Y-108341721D01*
X153983203Y-108368420D01*
X154000000Y-108415365D01*
X154000000Y-108804634D01*
X153978326Y-108856960D01*
X153933254Y-108878278D01*
X153773866Y-108893976D01*
X153585268Y-108951187D01*
X153411463Y-109044089D01*
X153259117Y-109169117D01*
X153134089Y-109321463D01*
X153041187Y-109495268D01*
X152983976Y-109683866D01*
X152964659Y-109880000D01*
X152983976Y-110076133D01*
X153041187Y-110264731D01*
X153128776Y-110428597D01*
X153134090Y-110438538D01*
X153259117Y-110590883D01*
X153411462Y-110715910D01*
X153486297Y-110755910D01*
X153585268Y-110808812D01*
X153585270Y-110808812D01*
X153585273Y-110808814D01*
X153773868Y-110866024D01*
X153933254Y-110881721D01*
X153983203Y-110908420D01*
X154000000Y-110955365D01*
X154000000Y-111344634D01*
X153978326Y-111396960D01*
X153933254Y-111418278D01*
X153773866Y-111433976D01*
X153585268Y-111491187D01*
X153411463Y-111584089D01*
X153259117Y-111709117D01*
X153134089Y-111861463D01*
X153041187Y-112035268D01*
X152983976Y-112223866D01*
X152964659Y-112420000D01*
X152983976Y-112616133D01*
X153041187Y-112804731D01*
X153128776Y-112968597D01*
X153134090Y-112978538D01*
X153259117Y-113130883D01*
X153411462Y-113255910D01*
X153486297Y-113295910D01*
X153585268Y-113348812D01*
X153585270Y-113348812D01*
X153585273Y-113348814D01*
X153773868Y-113406024D01*
X153933254Y-113421721D01*
X153983203Y-113448420D01*
X154000000Y-113495365D01*
X154000000Y-113884634D01*
X153978326Y-113936960D01*
X153933254Y-113958278D01*
X153773866Y-113973976D01*
X153585268Y-114031187D01*
X153411463Y-114124089D01*
X153259117Y-114249117D01*
X153134089Y-114401463D01*
X153041187Y-114575268D01*
X152983976Y-114763866D01*
X152964659Y-114960000D01*
X152983976Y-115156133D01*
X153041187Y-115344731D01*
X153110209Y-115473860D01*
X153134090Y-115518538D01*
X153259117Y-115670883D01*
X153411462Y-115795910D01*
X153486297Y-115835910D01*
X153585268Y-115888812D01*
X153585270Y-115888812D01*
X153585273Y-115888814D01*
X153773868Y-115946024D01*
X153933254Y-115961721D01*
X153983203Y-115988420D01*
X154000000Y-116035365D01*
X154000000Y-116424634D01*
X153978326Y-116476960D01*
X153933254Y-116498278D01*
X153773866Y-116513976D01*
X153585268Y-116571187D01*
X153411463Y-116664089D01*
X153259117Y-116789117D01*
X153134089Y-116941463D01*
X153041187Y-117115268D01*
X152983976Y-117303866D01*
X152964659Y-117500000D01*
X152983976Y-117696133D01*
X153041187Y-117884731D01*
X153128776Y-118048597D01*
X153134090Y-118058538D01*
X153259117Y-118210883D01*
X153411462Y-118335910D01*
X153486297Y-118375910D01*
X153585268Y-118428812D01*
X153585270Y-118428812D01*
X153585273Y-118428814D01*
X153773868Y-118486024D01*
X153933254Y-118501721D01*
X153983203Y-118528420D01*
X154000000Y-118575365D01*
X154000000Y-118964634D01*
X153978326Y-119016960D01*
X153933254Y-119038278D01*
X153773866Y-119053976D01*
X153585268Y-119111187D01*
X153411463Y-119204089D01*
X153259117Y-119329117D01*
X153134089Y-119481463D01*
X153041187Y-119655268D01*
X152983976Y-119843866D01*
X152964659Y-120040000D01*
X152983976Y-120236133D01*
X153041187Y-120424731D01*
X153128776Y-120588597D01*
X153134090Y-120598538D01*
X153259117Y-120750883D01*
X153411462Y-120875910D01*
X153486297Y-120915910D01*
X153585268Y-120968812D01*
X153585270Y-120968812D01*
X153585273Y-120968814D01*
X153773868Y-121026024D01*
X153933254Y-121041721D01*
X153983203Y-121068420D01*
X154000000Y-121115365D01*
X154000000Y-121504634D01*
X153978326Y-121556960D01*
X153933254Y-121578278D01*
X153773866Y-121593976D01*
X153585268Y-121651187D01*
X153411463Y-121744089D01*
X153259117Y-121869117D01*
X153134089Y-122021463D01*
X153041187Y-122195268D01*
X152983976Y-122383866D01*
X152964659Y-122580000D01*
X152983976Y-122776133D01*
X153041187Y-122964731D01*
X153128776Y-123128597D01*
X153134090Y-123138538D01*
X153259117Y-123290883D01*
X153411462Y-123415910D01*
X153486297Y-123455910D01*
X153585268Y-123508812D01*
X153585270Y-123508812D01*
X153585273Y-123508814D01*
X153773868Y-123566024D01*
X153933254Y-123581721D01*
X153983203Y-123608420D01*
X154000000Y-123655365D01*
X154000000Y-124044634D01*
X153978326Y-124096960D01*
X153933254Y-124118278D01*
X153773866Y-124133976D01*
X153585268Y-124191187D01*
X153411463Y-124284089D01*
X153259117Y-124409117D01*
X153134089Y-124561463D01*
X153041187Y-124735268D01*
X152983976Y-124923866D01*
X152964659Y-125120000D01*
X152983976Y-125316133D01*
X153041187Y-125504731D01*
X153128776Y-125668597D01*
X153134090Y-125678538D01*
X153259117Y-125830883D01*
X153411462Y-125955910D01*
X153486297Y-125995910D01*
X153585268Y-126048812D01*
X153585270Y-126048812D01*
X153585273Y-126048814D01*
X153773868Y-126106024D01*
X153933254Y-126121721D01*
X153983203Y-126148420D01*
X154000000Y-126195365D01*
X154000000Y-126584634D01*
X153978326Y-126636960D01*
X153933254Y-126658278D01*
X153773866Y-126673976D01*
X153585268Y-126731187D01*
X153463889Y-126796066D01*
X153407525Y-126801617D01*
X153376680Y-126783130D01*
X152382174Y-125788624D01*
X152360500Y-125736298D01*
X152360500Y-123068543D01*
X152382174Y-123016217D01*
X152386925Y-123011862D01*
X152393748Y-123006138D01*
X152446734Y-122914363D01*
X152465136Y-122810000D01*
X152446734Y-122705637D01*
X152393748Y-122613862D01*
X152393747Y-122613860D01*
X152312570Y-122545745D01*
X152312567Y-122545743D01*
X152212988Y-122509500D01*
X152212986Y-122509500D01*
X152107014Y-122509500D01*
X152107011Y-122509500D01*
X152007432Y-122545743D01*
X152007429Y-122545745D01*
X151926252Y-122613860D01*
X151873265Y-122705637D01*
X151854864Y-122810000D01*
X151873265Y-122914362D01*
X151874291Y-122916139D01*
X151926252Y-123006138D01*
X151933065Y-123011855D01*
X151959218Y-123062091D01*
X151959500Y-123068543D01*
X151959500Y-125889883D01*
X151990022Y-125963571D01*
X151990025Y-125963575D01*
X153093130Y-127066680D01*
X153114804Y-127119006D01*
X153106066Y-127153889D01*
X153041187Y-127275268D01*
X152983976Y-127463866D01*
X152964659Y-127660000D01*
X152983976Y-127856133D01*
X153041187Y-128044731D01*
X153086765Y-128130000D01*
X153134090Y-128218538D01*
X153259117Y-128370883D01*
X153402795Y-128488797D01*
X153429494Y-128538747D01*
X153413053Y-128592945D01*
X153363103Y-128619644D01*
X153355850Y-128620000D01*
X137662890Y-128620000D01*
X137610564Y-128598326D01*
X137588890Y-128546000D01*
X137610564Y-128493674D01*
X137615944Y-128488798D01*
X137623724Y-128482412D01*
X137710883Y-128410883D01*
X137835910Y-128258538D01*
X137904615Y-128130000D01*
X139164864Y-128130000D01*
X139183265Y-128234362D01*
X139236252Y-128326139D01*
X139317429Y-128394254D01*
X139317432Y-128394256D01*
X139417011Y-128430499D01*
X139417012Y-128430500D01*
X139417014Y-128430500D01*
X139522988Y-128430500D01*
X139522988Y-128430499D01*
X139622568Y-128394256D01*
X139703748Y-128326138D01*
X139756734Y-128234363D01*
X139775136Y-128130000D01*
X139756734Y-128025637D01*
X139703748Y-127933862D01*
X139703747Y-127933860D01*
X139622570Y-127865745D01*
X139622567Y-127865743D01*
X139522988Y-127829500D01*
X139522986Y-127829500D01*
X139417014Y-127829500D01*
X139417011Y-127829500D01*
X139317432Y-127865743D01*
X139317429Y-127865745D01*
X139236252Y-127933860D01*
X139183265Y-128025637D01*
X139164864Y-128130000D01*
X137904615Y-128130000D01*
X137928814Y-128084727D01*
X137986024Y-127896132D01*
X138005341Y-127700000D01*
X137986024Y-127503868D01*
X137928814Y-127315273D01*
X137928812Y-127315270D01*
X137928812Y-127315268D01*
X137842552Y-127153889D01*
X137835910Y-127141462D01*
X137710883Y-126989117D01*
X137558538Y-126864090D01*
X137548597Y-126858776D01*
X137384731Y-126771187D01*
X137196133Y-126713976D01*
X137132513Y-126707710D01*
X137066746Y-126701232D01*
X137016797Y-126674534D01*
X137000000Y-126627589D01*
X137000000Y-126232410D01*
X137021674Y-126180084D01*
X137066744Y-126158767D01*
X137196132Y-126146024D01*
X137384727Y-126088814D01*
X137558538Y-125995910D01*
X137710883Y-125870883D01*
X137835910Y-125718538D01*
X137928814Y-125544727D01*
X137942382Y-125500000D01*
X149784864Y-125500000D01*
X149803265Y-125604362D01*
X149856252Y-125696139D01*
X149937429Y-125764254D01*
X149937432Y-125764256D01*
X150037011Y-125800499D01*
X150037012Y-125800500D01*
X150037014Y-125800500D01*
X150142988Y-125800500D01*
X150142988Y-125800499D01*
X150242568Y-125764256D01*
X150323748Y-125696138D01*
X150376734Y-125604363D01*
X150395136Y-125500000D01*
X150376734Y-125395637D01*
X150323748Y-125303862D01*
X150322663Y-125302569D01*
X150322255Y-125301276D01*
X150320511Y-125298255D01*
X150321180Y-125297868D01*
X150305629Y-125248553D01*
X150320805Y-125211915D01*
X150320511Y-125211745D01*
X150321802Y-125209507D01*
X150322663Y-125207431D01*
X150323745Y-125206140D01*
X150323748Y-125206138D01*
X150376734Y-125114363D01*
X150395136Y-125010000D01*
X150376734Y-124905637D01*
X150323748Y-124813862D01*
X150323747Y-124813860D01*
X150242570Y-124745745D01*
X150242567Y-124745743D01*
X150142988Y-124709500D01*
X150142986Y-124709500D01*
X150037014Y-124709500D01*
X150037011Y-124709500D01*
X149937432Y-124745743D01*
X149937429Y-124745745D01*
X149856252Y-124813860D01*
X149803265Y-124905637D01*
X149784864Y-125010000D01*
X149803265Y-125114362D01*
X149856253Y-125206140D01*
X149857341Y-125207437D01*
X149857748Y-125208731D01*
X149859489Y-125211745D01*
X149858820Y-125212130D01*
X149874369Y-125261453D01*
X149859195Y-125298085D01*
X149859489Y-125298255D01*
X149858202Y-125300483D01*
X149857341Y-125302563D01*
X149856253Y-125303859D01*
X149803265Y-125395637D01*
X149784864Y-125500000D01*
X137942382Y-125500000D01*
X137986024Y-125356132D01*
X138005341Y-125160000D01*
X137986024Y-124963868D01*
X137928814Y-124775273D01*
X137928812Y-124775270D01*
X137928812Y-124775268D01*
X137877048Y-124678426D01*
X137835910Y-124601462D01*
X137710883Y-124449117D01*
X137558538Y-124324090D01*
X137548597Y-124318776D01*
X137384731Y-124231187D01*
X137196133Y-124173976D01*
X137132513Y-124167710D01*
X137066746Y-124161232D01*
X137016797Y-124134534D01*
X137000000Y-124087589D01*
X137000000Y-123692410D01*
X137021674Y-123640084D01*
X137066744Y-123618767D01*
X137196132Y-123606024D01*
X137384727Y-123548814D01*
X137558538Y-123455910D01*
X137710883Y-123330883D01*
X137835910Y-123178538D01*
X137920384Y-123020499D01*
X137928812Y-123004731D01*
X137928812Y-123004730D01*
X137928814Y-123004727D01*
X137986024Y-122816132D01*
X137995492Y-122720000D01*
X139284864Y-122720000D01*
X139303265Y-122824362D01*
X139356252Y-122916139D01*
X139437429Y-122984254D01*
X139437432Y-122984256D01*
X139537011Y-123020499D01*
X139537012Y-123020500D01*
X139537014Y-123020500D01*
X139642988Y-123020500D01*
X139642988Y-123020499D01*
X139742568Y-122984256D01*
X139823748Y-122916138D01*
X139876734Y-122824363D01*
X139895136Y-122720000D01*
X139876734Y-122615637D01*
X139823748Y-122523862D01*
X139823747Y-122523860D01*
X139742570Y-122455745D01*
X139742567Y-122455743D01*
X139642988Y-122419500D01*
X139642986Y-122419500D01*
X139537014Y-122419500D01*
X139537011Y-122419500D01*
X139437432Y-122455743D01*
X139437429Y-122455745D01*
X139356252Y-122523860D01*
X139303265Y-122615637D01*
X139284864Y-122720000D01*
X137995492Y-122720000D01*
X138005341Y-122620000D01*
X137986024Y-122423868D01*
X137933281Y-122250000D01*
X139974864Y-122250000D01*
X139993265Y-122354362D01*
X140046252Y-122446139D01*
X140127429Y-122514254D01*
X140127432Y-122514256D01*
X140227011Y-122550499D01*
X140227012Y-122550500D01*
X140227014Y-122550500D01*
X140332988Y-122550500D01*
X140332988Y-122550499D01*
X140432568Y-122514256D01*
X140513748Y-122446138D01*
X140566734Y-122354363D01*
X140585136Y-122250000D01*
X140566734Y-122145637D01*
X140513747Y-122053860D01*
X140432570Y-121985745D01*
X140432567Y-121985743D01*
X140332988Y-121949500D01*
X140332986Y-121949500D01*
X140227014Y-121949500D01*
X140227011Y-121949500D01*
X140127432Y-121985743D01*
X140127429Y-121985745D01*
X140046252Y-122053860D01*
X139993265Y-122145637D01*
X139974864Y-122250000D01*
X137933281Y-122250000D01*
X137928814Y-122235273D01*
X137928812Y-122235270D01*
X137928812Y-122235268D01*
X137877048Y-122138426D01*
X137835910Y-122061462D01*
X137710883Y-121909117D01*
X137558538Y-121784090D01*
X137548597Y-121778776D01*
X137384731Y-121691187D01*
X137196133Y-121633976D01*
X137132513Y-121627710D01*
X137066746Y-121621232D01*
X137016797Y-121594534D01*
X137000000Y-121547589D01*
X137000000Y-121152410D01*
X137021674Y-121100084D01*
X137066744Y-121078767D01*
X137196132Y-121066024D01*
X137384727Y-121008814D01*
X137558538Y-120915910D01*
X137710883Y-120790883D01*
X137835910Y-120638538D01*
X137928814Y-120464727D01*
X137986024Y-120276132D01*
X138005341Y-120080000D01*
X137986024Y-119883868D01*
X137928814Y-119695273D01*
X137928812Y-119695270D01*
X137928812Y-119695268D01*
X137915306Y-119670000D01*
X150694864Y-119670000D01*
X150713265Y-119774362D01*
X150766252Y-119866139D01*
X150847429Y-119934254D01*
X150847432Y-119934256D01*
X150947011Y-119970499D01*
X150947012Y-119970500D01*
X150947014Y-119970500D01*
X151052988Y-119970500D01*
X151052988Y-119970499D01*
X151152568Y-119934256D01*
X151233748Y-119866138D01*
X151286734Y-119774363D01*
X151305136Y-119670000D01*
X151286734Y-119565637D01*
X151261230Y-119521462D01*
X151233747Y-119473860D01*
X151152570Y-119405745D01*
X151152567Y-119405743D01*
X151052988Y-119369500D01*
X151052986Y-119369500D01*
X150947014Y-119369500D01*
X150947011Y-119369500D01*
X150847432Y-119405743D01*
X150847429Y-119405745D01*
X150766252Y-119473860D01*
X150713265Y-119565637D01*
X150694864Y-119670000D01*
X137915306Y-119670000D01*
X137859522Y-119565637D01*
X137835910Y-119521462D01*
X137710883Y-119369117D01*
X137558538Y-119244090D01*
X137548597Y-119238776D01*
X137384731Y-119151187D01*
X137196133Y-119093976D01*
X137132513Y-119087710D01*
X137066746Y-119081232D01*
X137016797Y-119054534D01*
X137000000Y-119007589D01*
X137000000Y-118612410D01*
X137021674Y-118560084D01*
X137066744Y-118538767D01*
X137196132Y-118526024D01*
X137384727Y-118468814D01*
X137558538Y-118375910D01*
X137710883Y-118250883D01*
X137835910Y-118098538D01*
X137928814Y-117924727D01*
X137986024Y-117736132D01*
X138005341Y-117540000D01*
X137986024Y-117343868D01*
X137928814Y-117155273D01*
X137928812Y-117155270D01*
X137928812Y-117155268D01*
X137877048Y-117058426D01*
X137835910Y-116981462D01*
X137710883Y-116829117D01*
X137558538Y-116704090D01*
X137548597Y-116698776D01*
X137384731Y-116611187D01*
X137196133Y-116553976D01*
X137132513Y-116547710D01*
X137066746Y-116541232D01*
X137016797Y-116514534D01*
X137000000Y-116467589D01*
X137000000Y-116072410D01*
X137000998Y-116070000D01*
X140224864Y-116070000D01*
X140243265Y-116174362D01*
X140296252Y-116266139D01*
X140377429Y-116334254D01*
X140377432Y-116334256D01*
X140477011Y-116370499D01*
X140477012Y-116370500D01*
X140477014Y-116370500D01*
X140582988Y-116370500D01*
X140582988Y-116370499D01*
X140682568Y-116334256D01*
X140763748Y-116266138D01*
X140816734Y-116174363D01*
X140835136Y-116070000D01*
X140816734Y-115965637D01*
X140814473Y-115961721D01*
X140763747Y-115873860D01*
X140682570Y-115805745D01*
X140682567Y-115805743D01*
X140582988Y-115769500D01*
X140582986Y-115769500D01*
X140477014Y-115769500D01*
X140477011Y-115769500D01*
X140377432Y-115805743D01*
X140377429Y-115805745D01*
X140296252Y-115873860D01*
X140243265Y-115965637D01*
X140224864Y-116070000D01*
X137000998Y-116070000D01*
X137021674Y-116020084D01*
X137066744Y-115998767D01*
X137196132Y-115986024D01*
X137384727Y-115928814D01*
X137558538Y-115835910D01*
X137710883Y-115710883D01*
X137744435Y-115670000D01*
X150534864Y-115670000D01*
X150553265Y-115774362D01*
X150606252Y-115866139D01*
X150687429Y-115934254D01*
X150687432Y-115934256D01*
X150787011Y-115970499D01*
X150787012Y-115970500D01*
X150787014Y-115970500D01*
X150892988Y-115970500D01*
X150892988Y-115970499D01*
X150992568Y-115934256D01*
X151073748Y-115866138D01*
X151126734Y-115774363D01*
X151145136Y-115670000D01*
X151126734Y-115565637D01*
X151073748Y-115473862D01*
X151073747Y-115473860D01*
X150992570Y-115405745D01*
X150992567Y-115405743D01*
X150892988Y-115369500D01*
X150892986Y-115369500D01*
X150787014Y-115369500D01*
X150787011Y-115369500D01*
X150687432Y-115405743D01*
X150687429Y-115405745D01*
X150606252Y-115473860D01*
X150553265Y-115565637D01*
X150534864Y-115670000D01*
X137744435Y-115670000D01*
X137835910Y-115558538D01*
X137928814Y-115384727D01*
X137986024Y-115196132D01*
X138005341Y-115000000D01*
X137986024Y-114803868D01*
X137966650Y-114740000D01*
X150524864Y-114740000D01*
X150543265Y-114844362D01*
X150596252Y-114936139D01*
X150677429Y-115004254D01*
X150677432Y-115004256D01*
X150777011Y-115040499D01*
X150777012Y-115040500D01*
X150777014Y-115040500D01*
X150882988Y-115040500D01*
X150882988Y-115040499D01*
X150982568Y-115004256D01*
X151063748Y-114936138D01*
X151116734Y-114844363D01*
X151135136Y-114740000D01*
X151116734Y-114635637D01*
X151063748Y-114543862D01*
X151063747Y-114543860D01*
X150982570Y-114475745D01*
X150982567Y-114475743D01*
X150882988Y-114439500D01*
X150882986Y-114439500D01*
X150777014Y-114439500D01*
X150777011Y-114439500D01*
X150677432Y-114475743D01*
X150677429Y-114475745D01*
X150596252Y-114543860D01*
X150543265Y-114635637D01*
X150524864Y-114740000D01*
X137966650Y-114740000D01*
X137928814Y-114615273D01*
X137928812Y-114615270D01*
X137928812Y-114615268D01*
X137877048Y-114518426D01*
X137835910Y-114441462D01*
X137710883Y-114289117D01*
X137577924Y-114180000D01*
X142578219Y-114180000D01*
X142595211Y-114276373D01*
X142595211Y-114276374D01*
X142595212Y-114276375D01*
X142644143Y-114361125D01*
X142719109Y-114424030D01*
X142811067Y-114457499D01*
X142811067Y-114457500D01*
X142811069Y-114457500D01*
X142908933Y-114457500D01*
X142908932Y-114457499D01*
X143000891Y-114424030D01*
X143075857Y-114361125D01*
X143124788Y-114276375D01*
X143141781Y-114180000D01*
X143124788Y-114083625D01*
X143075857Y-113998875D01*
X143000891Y-113935970D01*
X143000890Y-113935969D01*
X142908932Y-113902500D01*
X142908931Y-113902500D01*
X142811069Y-113902500D01*
X142811067Y-113902500D01*
X142719109Y-113935970D01*
X142719107Y-113935971D01*
X142644143Y-113998873D01*
X142595211Y-114083626D01*
X142578219Y-114180000D01*
X137577924Y-114180000D01*
X137558538Y-114164090D01*
X137548597Y-114158776D01*
X137384731Y-114071187D01*
X137196133Y-114013976D01*
X137132513Y-114007710D01*
X137066746Y-114001232D01*
X137016797Y-113974534D01*
X137000000Y-113927589D01*
X137000000Y-113532410D01*
X137021674Y-113480084D01*
X137066744Y-113458767D01*
X137196132Y-113446024D01*
X137384727Y-113388814D01*
X137558538Y-113295910D01*
X137710883Y-113170883D01*
X137835910Y-113018538D01*
X137861854Y-112970000D01*
X151694864Y-112970000D01*
X151713265Y-113074362D01*
X151766252Y-113166139D01*
X151847429Y-113234254D01*
X151847432Y-113234256D01*
X151947011Y-113270499D01*
X151947012Y-113270500D01*
X151947014Y-113270500D01*
X152052988Y-113270500D01*
X152052988Y-113270499D01*
X152152568Y-113234256D01*
X152233748Y-113166138D01*
X152286734Y-113074363D01*
X152305136Y-112970000D01*
X152286734Y-112865637D01*
X152233748Y-112773862D01*
X152233747Y-112773860D01*
X152152570Y-112705745D01*
X152152567Y-112705743D01*
X152052988Y-112669500D01*
X152052986Y-112669500D01*
X151947014Y-112669500D01*
X151947011Y-112669500D01*
X151847432Y-112705743D01*
X151847429Y-112705745D01*
X151766252Y-112773860D01*
X151713265Y-112865637D01*
X151694864Y-112970000D01*
X137861854Y-112970000D01*
X137928814Y-112844727D01*
X137986024Y-112656132D01*
X138005341Y-112460000D01*
X137986024Y-112263868D01*
X137928814Y-112075273D01*
X137928812Y-112075270D01*
X137928812Y-112075268D01*
X137867466Y-111960499D01*
X137835910Y-111901462D01*
X137710883Y-111749117D01*
X137602294Y-111660000D01*
X139284864Y-111660000D01*
X139303265Y-111764362D01*
X139356252Y-111856139D01*
X139437429Y-111924254D01*
X139437432Y-111924256D01*
X139537011Y-111960499D01*
X139537012Y-111960500D01*
X139537014Y-111960500D01*
X139642988Y-111960500D01*
X139642988Y-111960499D01*
X139742568Y-111924256D01*
X139823748Y-111856138D01*
X139876734Y-111764363D01*
X139895136Y-111660000D01*
X139891721Y-111640635D01*
X139903979Y-111585342D01*
X139951746Y-111554910D01*
X140007041Y-111567168D01*
X140012163Y-111571099D01*
X140087429Y-111634254D01*
X140087432Y-111634256D01*
X140187011Y-111670499D01*
X140187012Y-111670500D01*
X140187014Y-111670500D01*
X140292988Y-111670500D01*
X140292988Y-111670499D01*
X140392568Y-111634256D01*
X140467836Y-111571099D01*
X140473747Y-111566139D01*
X140473748Y-111566138D01*
X140526734Y-111474363D01*
X140545136Y-111370000D01*
X140526734Y-111265637D01*
X140473748Y-111173862D01*
X140473747Y-111173860D01*
X140392570Y-111105745D01*
X140392567Y-111105743D01*
X140292988Y-111069500D01*
X140292986Y-111069500D01*
X140187014Y-111069500D01*
X140187011Y-111069500D01*
X140087432Y-111105743D01*
X140087429Y-111105745D01*
X140006252Y-111173860D01*
X139953265Y-111265637D01*
X139934864Y-111370000D01*
X139938278Y-111389364D01*
X139926018Y-111444659D01*
X139878251Y-111475089D01*
X139822956Y-111462829D01*
X139817836Y-111458900D01*
X139742570Y-111395745D01*
X139742567Y-111395743D01*
X139642988Y-111359500D01*
X139642986Y-111359500D01*
X139537014Y-111359500D01*
X139537011Y-111359500D01*
X139437432Y-111395743D01*
X139437429Y-111395745D01*
X139356252Y-111463860D01*
X139303265Y-111555637D01*
X139284864Y-111660000D01*
X137602294Y-111660000D01*
X137558538Y-111624090D01*
X137486046Y-111585342D01*
X137384731Y-111531187D01*
X137196133Y-111473976D01*
X137093441Y-111463862D01*
X137066746Y-111461232D01*
X137016797Y-111434534D01*
X137000000Y-111387589D01*
X137000000Y-110992410D01*
X137021674Y-110940084D01*
X137066744Y-110918767D01*
X137196132Y-110906024D01*
X137384727Y-110848814D01*
X137558538Y-110755910D01*
X137710883Y-110630883D01*
X137835910Y-110478538D01*
X137928814Y-110304727D01*
X137986024Y-110116132D01*
X138005341Y-109920000D01*
X137986024Y-109723868D01*
X137928814Y-109535273D01*
X137928812Y-109535270D01*
X137928812Y-109535268D01*
X137856509Y-109400000D01*
X151084864Y-109400000D01*
X151103265Y-109504362D01*
X151156252Y-109596139D01*
X151237429Y-109664254D01*
X151237432Y-109664256D01*
X151337011Y-109700499D01*
X151337012Y-109700500D01*
X151337014Y-109700500D01*
X151442988Y-109700500D01*
X151442988Y-109700499D01*
X151542568Y-109664256D01*
X151623748Y-109596138D01*
X151676734Y-109504363D01*
X151695136Y-109400000D01*
X151676734Y-109295637D01*
X151623748Y-109203862D01*
X151623747Y-109203860D01*
X151542570Y-109135745D01*
X151542567Y-109135743D01*
X151442988Y-109099500D01*
X151442986Y-109099500D01*
X151337014Y-109099500D01*
X151337011Y-109099500D01*
X151237432Y-109135743D01*
X151237429Y-109135745D01*
X151156252Y-109203860D01*
X151103265Y-109295637D01*
X151084864Y-109400000D01*
X137856509Y-109400000D01*
X137835910Y-109361462D01*
X137710883Y-109209117D01*
X137558538Y-109084090D01*
X137548597Y-109078776D01*
X137384731Y-108991187D01*
X137196133Y-108933976D01*
X137132513Y-108927710D01*
X137066746Y-108921232D01*
X137016797Y-108894534D01*
X137000000Y-108847589D01*
X137000000Y-108452410D01*
X137021674Y-108400084D01*
X137066744Y-108378767D01*
X137196132Y-108366024D01*
X137384727Y-108308814D01*
X137558538Y-108215910D01*
X137710883Y-108090883D01*
X137835910Y-107938538D01*
X137928814Y-107764727D01*
X137986024Y-107576132D01*
X138005341Y-107380000D01*
X137986024Y-107183868D01*
X137928814Y-106995273D01*
X137928812Y-106995270D01*
X137928812Y-106995268D01*
X137877048Y-106898426D01*
X137835910Y-106821462D01*
X137710883Y-106669117D01*
X137558538Y-106544090D01*
X137546207Y-106537499D01*
X137401219Y-106460000D01*
X140704864Y-106460000D01*
X140723265Y-106564362D01*
X140776252Y-106656139D01*
X140857429Y-106724254D01*
X140857432Y-106724256D01*
X140957011Y-106760499D01*
X140957012Y-106760500D01*
X140957014Y-106760500D01*
X141062988Y-106760500D01*
X141062988Y-106760499D01*
X141162568Y-106724256D01*
X141243748Y-106656138D01*
X141296734Y-106564363D01*
X141315136Y-106460000D01*
X141296734Y-106355637D01*
X141243748Y-106263862D01*
X141243747Y-106263860D01*
X141239147Y-106260000D01*
X145378219Y-106260000D01*
X145395211Y-106356373D01*
X145426857Y-106411186D01*
X145444143Y-106441125D01*
X145519109Y-106504030D01*
X145611067Y-106537499D01*
X145611067Y-106537500D01*
X145611069Y-106537500D01*
X145708933Y-106537500D01*
X145708932Y-106537499D01*
X145800891Y-106504030D01*
X145841446Y-106470000D01*
X149554344Y-106470000D01*
X149574710Y-106559231D01*
X149631776Y-106630788D01*
X149714237Y-106670500D01*
X149714238Y-106670500D01*
X149805762Y-106670500D01*
X149805763Y-106670500D01*
X149888224Y-106630788D01*
X149945290Y-106559231D01*
X149965656Y-106470000D01*
X149945290Y-106380769D01*
X149888224Y-106309212D01*
X149805763Y-106269500D01*
X149714237Y-106269500D01*
X149673006Y-106289356D01*
X149631775Y-106309212D01*
X149574711Y-106380767D01*
X149574710Y-106380768D01*
X149574710Y-106380769D01*
X149554344Y-106470000D01*
X145841446Y-106470000D01*
X145875857Y-106441125D01*
X145924788Y-106356375D01*
X145941781Y-106260000D01*
X145924788Y-106163625D01*
X145875857Y-106078875D01*
X145800891Y-106015970D01*
X145800890Y-106015969D01*
X145708932Y-105982500D01*
X145708931Y-105982500D01*
X145611069Y-105982500D01*
X145611067Y-105982500D01*
X145519109Y-106015970D01*
X145519107Y-106015971D01*
X145444143Y-106078873D01*
X145395211Y-106163626D01*
X145378219Y-106260000D01*
X141239147Y-106260000D01*
X141162570Y-106195745D01*
X141162567Y-106195743D01*
X141062988Y-106159500D01*
X141062986Y-106159500D01*
X140957014Y-106159500D01*
X140957011Y-106159500D01*
X140857432Y-106195743D01*
X140857429Y-106195745D01*
X140776252Y-106263860D01*
X140723265Y-106355637D01*
X140704864Y-106460000D01*
X137401219Y-106460000D01*
X137384731Y-106451187D01*
X137196133Y-106393976D01*
X137132513Y-106387710D01*
X137066746Y-106381232D01*
X137016797Y-106354534D01*
X137000000Y-106307589D01*
X137000000Y-105914500D01*
X137021674Y-105862174D01*
X137074000Y-105840500D01*
X137864819Y-105840500D01*
X137864820Y-105840500D01*
X137908722Y-105831767D01*
X137958504Y-105798504D01*
X137991767Y-105748722D01*
X138000500Y-105704820D01*
X138000500Y-105100000D01*
X144128219Y-105100000D01*
X144145211Y-105196373D01*
X144145211Y-105196374D01*
X144145212Y-105196375D01*
X144194143Y-105281125D01*
X144269109Y-105344030D01*
X144361067Y-105377499D01*
X144361067Y-105377500D01*
X144361069Y-105377500D01*
X144458933Y-105377500D01*
X144458932Y-105377499D01*
X144550891Y-105344030D01*
X144625857Y-105281125D01*
X144674788Y-105196375D01*
X144691781Y-105100000D01*
X144674788Y-105003625D01*
X144637859Y-104939664D01*
X144630467Y-104883513D01*
X144664946Y-104838579D01*
X144721098Y-104831186D01*
X144749512Y-104845978D01*
X144759106Y-104854028D01*
X144759109Y-104854030D01*
X144851067Y-104887499D01*
X144851067Y-104887500D01*
X144851069Y-104887500D01*
X144948933Y-104887500D01*
X144948932Y-104887499D01*
X145040891Y-104854030D01*
X145113391Y-104793193D01*
X145167406Y-104776161D01*
X145208524Y-104793192D01*
X145269109Y-104844030D01*
X145361067Y-104877499D01*
X145361067Y-104877500D01*
X145361069Y-104877500D01*
X145458933Y-104877500D01*
X145458932Y-104877499D01*
X145550891Y-104844030D01*
X145625857Y-104781125D01*
X145674788Y-104696375D01*
X145691781Y-104600000D01*
X146128219Y-104600000D01*
X146145211Y-104696373D01*
X146194142Y-104781124D01*
X146213667Y-104797508D01*
X146239818Y-104847746D01*
X146222787Y-104901762D01*
X146213669Y-104910880D01*
X146204143Y-104918873D01*
X146155211Y-105003626D01*
X146138219Y-105100000D01*
X146155211Y-105196373D01*
X146155211Y-105196374D01*
X146155212Y-105196375D01*
X146204143Y-105281125D01*
X146279109Y-105344030D01*
X146371067Y-105377499D01*
X146371067Y-105377500D01*
X146371069Y-105377500D01*
X146468933Y-105377500D01*
X146468932Y-105377499D01*
X146560891Y-105344030D01*
X146635857Y-105281125D01*
X146684788Y-105196375D01*
X146701781Y-105100000D01*
X149698219Y-105100000D01*
X149715211Y-105196373D01*
X149715211Y-105196374D01*
X149715212Y-105196375D01*
X149764143Y-105281125D01*
X149839109Y-105344030D01*
X149931067Y-105377499D01*
X149931067Y-105377500D01*
X149931069Y-105377500D01*
X150028933Y-105377500D01*
X150028932Y-105377499D01*
X150120891Y-105344030D01*
X150195857Y-105281125D01*
X150244788Y-105196375D01*
X150261781Y-105100000D01*
X150244788Y-105003625D01*
X150195857Y-104918875D01*
X150120891Y-104855970D01*
X150120890Y-104855969D01*
X150028932Y-104822500D01*
X150028931Y-104822500D01*
X149931069Y-104822500D01*
X149931067Y-104822500D01*
X149839109Y-104855970D01*
X149839107Y-104855971D01*
X149764143Y-104918873D01*
X149715211Y-105003626D01*
X149698219Y-105100000D01*
X146701781Y-105100000D01*
X146684788Y-105003625D01*
X146660322Y-104961250D01*
X146635857Y-104918874D01*
X146616332Y-104902491D01*
X146590181Y-104852253D01*
X146607212Y-104798237D01*
X146616334Y-104789116D01*
X146617524Y-104788116D01*
X146625857Y-104781125D01*
X146674788Y-104696375D01*
X146691781Y-104600000D01*
X146674788Y-104503625D01*
X146625857Y-104418875D01*
X146550891Y-104355970D01*
X146550890Y-104355969D01*
X146458932Y-104322500D01*
X146458931Y-104322500D01*
X146361069Y-104322500D01*
X146361067Y-104322500D01*
X146269109Y-104355970D01*
X146269107Y-104355971D01*
X146194143Y-104418873D01*
X146145211Y-104503626D01*
X146128219Y-104600000D01*
X145691781Y-104600000D01*
X145674788Y-104503625D01*
X145625857Y-104418875D01*
X145550891Y-104355970D01*
X145550890Y-104355969D01*
X145458932Y-104322500D01*
X145458931Y-104322500D01*
X145361069Y-104322500D01*
X145361067Y-104322500D01*
X145269109Y-104355970D01*
X145269107Y-104355971D01*
X145196607Y-104416806D01*
X145142591Y-104433837D01*
X145101474Y-104416806D01*
X145040890Y-104365969D01*
X144948932Y-104332500D01*
X144948931Y-104332500D01*
X144851069Y-104332500D01*
X144851067Y-104332500D01*
X144759109Y-104365970D01*
X144759107Y-104365971D01*
X144713524Y-104404220D01*
X144659508Y-104421251D01*
X144618391Y-104404219D01*
X144560893Y-104355971D01*
X144560890Y-104355969D01*
X144468932Y-104322500D01*
X144468931Y-104322500D01*
X144371069Y-104322500D01*
X144371067Y-104322500D01*
X144279109Y-104355970D01*
X144279107Y-104355971D01*
X144204143Y-104418873D01*
X144155211Y-104503626D01*
X144138219Y-104600000D01*
X144155211Y-104696373D01*
X144204142Y-104781125D01*
X144213667Y-104789117D01*
X144239818Y-104839355D01*
X144222787Y-104893371D01*
X144213668Y-104902490D01*
X144194143Y-104918874D01*
X144145211Y-105003626D01*
X144128219Y-105100000D01*
X138000500Y-105100000D01*
X138000500Y-103975180D01*
X137991767Y-103931278D01*
X137958504Y-103881496D01*
X137908722Y-103848233D01*
X137864820Y-103839500D01*
X137074000Y-103839500D01*
X137021674Y-103817826D01*
X137000000Y-103765500D01*
X137000000Y-103337410D01*
X137021674Y-103285084D01*
X137066744Y-103263767D01*
X137196132Y-103251024D01*
X137384727Y-103193814D01*
X137558538Y-103100910D01*
X137710883Y-102975883D01*
X137835910Y-102823538D01*
X137928814Y-102649727D01*
X137986024Y-102461132D01*
X137997954Y-102340000D01*
X140604864Y-102340000D01*
X140623265Y-102444362D01*
X140676252Y-102536139D01*
X140757429Y-102604254D01*
X140757432Y-102604256D01*
X140857011Y-102640499D01*
X140857012Y-102640500D01*
X140857014Y-102640500D01*
X140962988Y-102640500D01*
X140962988Y-102640499D01*
X141062568Y-102604256D01*
X141079558Y-102590000D01*
X144638219Y-102590000D01*
X144655211Y-102686373D01*
X144655211Y-102686374D01*
X144655212Y-102686375D01*
X144704143Y-102771125D01*
X144779109Y-102834030D01*
X144871067Y-102867499D01*
X144871067Y-102867500D01*
X144871069Y-102867500D01*
X144968933Y-102867500D01*
X144968932Y-102867499D01*
X145060891Y-102834030D01*
X145135857Y-102771125D01*
X145184788Y-102686375D01*
X145201781Y-102590000D01*
X145184788Y-102493625D01*
X145135857Y-102408875D01*
X145082414Y-102364030D01*
X145060890Y-102345969D01*
X144968932Y-102312500D01*
X144968931Y-102312500D01*
X144871069Y-102312500D01*
X144871067Y-102312500D01*
X144779109Y-102345970D01*
X144779107Y-102345971D01*
X144704143Y-102408873D01*
X144655211Y-102493626D01*
X144638219Y-102590000D01*
X141079558Y-102590000D01*
X141143748Y-102536138D01*
X141196734Y-102444363D01*
X141215136Y-102340000D01*
X141196734Y-102235637D01*
X141143748Y-102143862D01*
X141143747Y-102143860D01*
X141115312Y-102120000D01*
X143638219Y-102120000D01*
X143655211Y-102216373D01*
X143698368Y-102291124D01*
X143704143Y-102301125D01*
X143779109Y-102364030D01*
X143871067Y-102397499D01*
X143871067Y-102397500D01*
X143871069Y-102397500D01*
X143968933Y-102397500D01*
X143968932Y-102397499D01*
X144060891Y-102364030D01*
X144135857Y-102301125D01*
X144184788Y-102216375D01*
X144201781Y-102120000D01*
X144200018Y-102110000D01*
X146118219Y-102110000D01*
X146135211Y-102206373D01*
X146135211Y-102206374D01*
X146135212Y-102206375D01*
X146140986Y-102216375D01*
X146169059Y-102265000D01*
X146184143Y-102291125D01*
X146259109Y-102354030D01*
X146351067Y-102387499D01*
X146351067Y-102387500D01*
X146351069Y-102387500D01*
X146448933Y-102387500D01*
X146448932Y-102387499D01*
X146540891Y-102354030D01*
X146615857Y-102291125D01*
X146664788Y-102206375D01*
X146681781Y-102110000D01*
X146664788Y-102013625D01*
X146615857Y-101928875D01*
X146612595Y-101926138D01*
X146540890Y-101865969D01*
X146448932Y-101832500D01*
X146448931Y-101832500D01*
X146351069Y-101832500D01*
X146351067Y-101832500D01*
X146259109Y-101865970D01*
X146259107Y-101865971D01*
X146184143Y-101928873D01*
X146135211Y-102013626D01*
X146118219Y-102110000D01*
X144200018Y-102110000D01*
X144184788Y-102023625D01*
X144135857Y-101938875D01*
X144060891Y-101875970D01*
X144060890Y-101875969D01*
X143968932Y-101842500D01*
X143968931Y-101842500D01*
X143871069Y-101842500D01*
X143871067Y-101842500D01*
X143779109Y-101875970D01*
X143779107Y-101875971D01*
X143704143Y-101938873D01*
X143655211Y-102023626D01*
X143638219Y-102120000D01*
X141115312Y-102120000D01*
X141062570Y-102075745D01*
X141062567Y-102075743D01*
X140962988Y-102039500D01*
X140962986Y-102039500D01*
X140857014Y-102039500D01*
X140857011Y-102039500D01*
X140757432Y-102075743D01*
X140757429Y-102075745D01*
X140676252Y-102143860D01*
X140623265Y-102235637D01*
X140604864Y-102340000D01*
X137997954Y-102340000D01*
X138005341Y-102265000D01*
X137986024Y-102068868D01*
X137928814Y-101880273D01*
X137928812Y-101880270D01*
X137928812Y-101880268D01*
X137848491Y-101730000D01*
X137835910Y-101706462D01*
X137740332Y-101590000D01*
X146638219Y-101590000D01*
X146655211Y-101686373D01*
X146655211Y-101686374D01*
X146655212Y-101686375D01*
X146704143Y-101771125D01*
X146779109Y-101834030D01*
X146871067Y-101867499D01*
X146871067Y-101867500D01*
X146871069Y-101867500D01*
X146968933Y-101867500D01*
X146968932Y-101867499D01*
X147060891Y-101834030D01*
X147135857Y-101771125D01*
X147159601Y-101730000D01*
X151284864Y-101730000D01*
X151303265Y-101834362D01*
X151356252Y-101926139D01*
X151437429Y-101994254D01*
X151437432Y-101994256D01*
X151537011Y-102030499D01*
X151537012Y-102030500D01*
X151537014Y-102030500D01*
X151642988Y-102030500D01*
X151642988Y-102030499D01*
X151742568Y-101994256D01*
X151823748Y-101926138D01*
X151876734Y-101834363D01*
X151895136Y-101730000D01*
X151876734Y-101625637D01*
X151833353Y-101550499D01*
X151823747Y-101533860D01*
X151742570Y-101465745D01*
X151742567Y-101465743D01*
X151642988Y-101429500D01*
X151642986Y-101429500D01*
X151537014Y-101429500D01*
X151537011Y-101429500D01*
X151437432Y-101465743D01*
X151437429Y-101465745D01*
X151356252Y-101533860D01*
X151303265Y-101625637D01*
X151284864Y-101730000D01*
X147159601Y-101730000D01*
X147184788Y-101686375D01*
X147201781Y-101590000D01*
X147184788Y-101493625D01*
X147135857Y-101408875D01*
X147060891Y-101345970D01*
X147060890Y-101345969D01*
X146968932Y-101312500D01*
X146968931Y-101312500D01*
X146871069Y-101312500D01*
X146871067Y-101312500D01*
X146779109Y-101345970D01*
X146779107Y-101345971D01*
X146704143Y-101408873D01*
X146655211Y-101493626D01*
X146638219Y-101590000D01*
X137740332Y-101590000D01*
X137710883Y-101554117D01*
X137558538Y-101429090D01*
X137548597Y-101423776D01*
X137384731Y-101336187D01*
X137196133Y-101278976D01*
X137116408Y-101271124D01*
X137066746Y-101266232D01*
X137036378Y-101250000D01*
X138634864Y-101250000D01*
X138653265Y-101354362D01*
X138706252Y-101446139D01*
X138787429Y-101514254D01*
X138787432Y-101514256D01*
X138887011Y-101550499D01*
X138887012Y-101550500D01*
X138887014Y-101550500D01*
X138992988Y-101550500D01*
X138992988Y-101550499D01*
X139092568Y-101514256D01*
X139173748Y-101446138D01*
X139226734Y-101354363D01*
X139245136Y-101250000D01*
X139226734Y-101145637D01*
X139173748Y-101053862D01*
X139173747Y-101053860D01*
X139092570Y-100985745D01*
X139092567Y-100985743D01*
X138992988Y-100949500D01*
X138992986Y-100949500D01*
X138887014Y-100949500D01*
X138887011Y-100949500D01*
X138787432Y-100985743D01*
X138787429Y-100985745D01*
X138706252Y-101053860D01*
X138653265Y-101145637D01*
X138634864Y-101250000D01*
X137036378Y-101250000D01*
X137016797Y-101239534D01*
X137000000Y-101192589D01*
X137000000Y-100797410D01*
X137021674Y-100745084D01*
X137066744Y-100723767D01*
X137196132Y-100711024D01*
X137384727Y-100653814D01*
X137558538Y-100560910D01*
X137710883Y-100435883D01*
X137835910Y-100283538D01*
X137928814Y-100109727D01*
X137986024Y-99921132D01*
X138005341Y-99725000D01*
X137986024Y-99528868D01*
X137928814Y-99340273D01*
X137928812Y-99340270D01*
X137928812Y-99340268D01*
X137877048Y-99243426D01*
X137835910Y-99166462D01*
X137710883Y-99014117D01*
X137558538Y-98889090D01*
X137548597Y-98883776D01*
X137384731Y-98796187D01*
X137196133Y-98738976D01*
X137132513Y-98732710D01*
X137066746Y-98726232D01*
X137016797Y-98699534D01*
X137000000Y-98652589D01*
X137000000Y-98257410D01*
X137021674Y-98205084D01*
X137066744Y-98183767D01*
X137196132Y-98171024D01*
X137384727Y-98113814D01*
X137558538Y-98020910D01*
X137710883Y-97895883D01*
X137835910Y-97743538D01*
X137928814Y-97569727D01*
X137986024Y-97381132D01*
X138005341Y-97185000D01*
X137986135Y-96990000D01*
X139214864Y-96990000D01*
X139233265Y-97094362D01*
X139286252Y-97186139D01*
X139367429Y-97254254D01*
X139367432Y-97254256D01*
X139467011Y-97290499D01*
X139467012Y-97290500D01*
X139467014Y-97290500D01*
X139572988Y-97290500D01*
X139572988Y-97290499D01*
X139672568Y-97254256D01*
X139753748Y-97186138D01*
X139806734Y-97094363D01*
X139809267Y-97080000D01*
X141158219Y-97080000D01*
X141175211Y-97176373D01*
X141175211Y-97176374D01*
X141175212Y-97176375D01*
X141224143Y-97261125D01*
X141299109Y-97324030D01*
X141391067Y-97357499D01*
X141391067Y-97357500D01*
X141391069Y-97357500D01*
X141488933Y-97357500D01*
X141488932Y-97357499D01*
X141580891Y-97324030D01*
X141609528Y-97300000D01*
X143878219Y-97300000D01*
X143895211Y-97396373D01*
X143895211Y-97396374D01*
X143895212Y-97396375D01*
X143915642Y-97431761D01*
X143947380Y-97486732D01*
X143945476Y-97487831D01*
X143959500Y-97526361D01*
X143959500Y-99869883D01*
X143990022Y-99943571D01*
X143990025Y-99943575D01*
X144612098Y-100565648D01*
X144632648Y-100605124D01*
X144645211Y-100676373D01*
X144684881Y-100745084D01*
X144694143Y-100761125D01*
X144769109Y-100824030D01*
X144861067Y-100857499D01*
X144861067Y-100857500D01*
X144861069Y-100857500D01*
X144873298Y-100857500D01*
X144925624Y-100879174D01*
X145122098Y-101075648D01*
X145142648Y-101115124D01*
X145155211Y-101186373D01*
X145201318Y-101266233D01*
X145204143Y-101271125D01*
X145279109Y-101334030D01*
X145371067Y-101367499D01*
X145371067Y-101367500D01*
X145371069Y-101367500D01*
X145468933Y-101367500D01*
X145468932Y-101367499D01*
X145560891Y-101334030D01*
X145592135Y-101307813D01*
X145639702Y-101290500D01*
X146200298Y-101290500D01*
X146247865Y-101307813D01*
X146279109Y-101334030D01*
X146371067Y-101367499D01*
X146371067Y-101367500D01*
X146371069Y-101367500D01*
X146468933Y-101367500D01*
X146468932Y-101367499D01*
X146560891Y-101334030D01*
X146635857Y-101271125D01*
X146684788Y-101186375D01*
X146701781Y-101090000D01*
X146684788Y-100993625D01*
X146649661Y-100932785D01*
X146642269Y-100876634D01*
X146647025Y-100870435D01*
X146607098Y-100875692D01*
X146578685Y-100860900D01*
X146560893Y-100845971D01*
X146560890Y-100845969D01*
X146468932Y-100812500D01*
X146468931Y-100812500D01*
X146371069Y-100812500D01*
X146371067Y-100812500D01*
X146279110Y-100845969D01*
X146247866Y-100872187D01*
X146200299Y-100889500D01*
X145639702Y-100889500D01*
X145592135Y-100872187D01*
X145560890Y-100845969D01*
X145468932Y-100812500D01*
X145468931Y-100812500D01*
X145456702Y-100812500D01*
X145404376Y-100790826D01*
X145223550Y-100610000D01*
X146638219Y-100610000D01*
X146655211Y-100706373D01*
X146690337Y-100767213D01*
X146697730Y-100823366D01*
X146692974Y-100829563D01*
X146732900Y-100824307D01*
X146761314Y-100839099D01*
X146779106Y-100854028D01*
X146779109Y-100854030D01*
X146871067Y-100887499D01*
X146871067Y-100887500D01*
X146871069Y-100887500D01*
X146968933Y-100887500D01*
X146968932Y-100887499D01*
X147060891Y-100854030D01*
X147135857Y-100791125D01*
X147184788Y-100706375D01*
X147201781Y-100610000D01*
X147184788Y-100513625D01*
X147135857Y-100428875D01*
X147074632Y-100377500D01*
X147060890Y-100365969D01*
X146968932Y-100332500D01*
X146968931Y-100332500D01*
X146871069Y-100332500D01*
X146871067Y-100332500D01*
X146779109Y-100365970D01*
X146779107Y-100365971D01*
X146704143Y-100428873D01*
X146655211Y-100513626D01*
X146638219Y-100610000D01*
X145223550Y-100610000D01*
X145207900Y-100594350D01*
X145187350Y-100554873D01*
X145180077Y-100513626D01*
X145174788Y-100483625D01*
X145125857Y-100398875D01*
X145086642Y-100365969D01*
X145050890Y-100335969D01*
X144958932Y-100302500D01*
X144958931Y-100302500D01*
X144946702Y-100302500D01*
X144894376Y-100280826D01*
X144713550Y-100100000D01*
X147128219Y-100100000D01*
X147145211Y-100196373D01*
X147145211Y-100196374D01*
X147145212Y-100196375D01*
X147194143Y-100281125D01*
X147269109Y-100344030D01*
X147361067Y-100377499D01*
X147361067Y-100377500D01*
X147361069Y-100377500D01*
X147458933Y-100377500D01*
X147458932Y-100377499D01*
X147550891Y-100344030D01*
X147625857Y-100281125D01*
X147674788Y-100196375D01*
X147691781Y-100100000D01*
X147674788Y-100003625D01*
X147625857Y-99918875D01*
X147567472Y-99869883D01*
X147550890Y-99855969D01*
X147458932Y-99822500D01*
X147458931Y-99822500D01*
X147361069Y-99822500D01*
X147361067Y-99822500D01*
X147269109Y-99855970D01*
X147269107Y-99855971D01*
X147194143Y-99918873D01*
X147145211Y-100003626D01*
X147128219Y-100100000D01*
X144713550Y-100100000D01*
X144382174Y-99768624D01*
X144360500Y-99716298D01*
X144360500Y-97580000D01*
X146988219Y-97580000D01*
X147005211Y-97676373D01*
X147036821Y-97731124D01*
X147054143Y-97761125D01*
X147129109Y-97824030D01*
X147221067Y-97857499D01*
X147221067Y-97857500D01*
X147221069Y-97857500D01*
X147318933Y-97857500D01*
X147318932Y-97857499D01*
X147410891Y-97824030D01*
X147485857Y-97761125D01*
X147534788Y-97676375D01*
X147551781Y-97580000D01*
X147546491Y-97550000D01*
X148098219Y-97550000D01*
X148115211Y-97646373D01*
X148115211Y-97646374D01*
X148115212Y-97646375D01*
X148164143Y-97731125D01*
X148239109Y-97794030D01*
X148331067Y-97827499D01*
X148331067Y-97827500D01*
X148331069Y-97827500D01*
X148428933Y-97827500D01*
X148428932Y-97827499D01*
X148520891Y-97794030D01*
X148595857Y-97731125D01*
X148644788Y-97646375D01*
X148661781Y-97550000D01*
X148644788Y-97453625D01*
X148595857Y-97368875D01*
X148520891Y-97305970D01*
X148520890Y-97305969D01*
X148428932Y-97272500D01*
X148428931Y-97272500D01*
X148331069Y-97272500D01*
X148331067Y-97272500D01*
X148239109Y-97305970D01*
X148239107Y-97305971D01*
X148164143Y-97368873D01*
X148115211Y-97453626D01*
X148098219Y-97550000D01*
X147546491Y-97550000D01*
X147534788Y-97483625D01*
X147485857Y-97398875D01*
X147485856Y-97398874D01*
X147482620Y-97393269D01*
X147484520Y-97392171D01*
X147470500Y-97353639D01*
X147470500Y-95700000D01*
X150754864Y-95700000D01*
X150773265Y-95804362D01*
X150826252Y-95896139D01*
X150907429Y-95964254D01*
X150907432Y-95964256D01*
X151007011Y-96000499D01*
X151007012Y-96000500D01*
X151007014Y-96000500D01*
X151112988Y-96000500D01*
X151112988Y-96000499D01*
X151212568Y-95964256D01*
X151293748Y-95896138D01*
X151346734Y-95804363D01*
X151365136Y-95700000D01*
X151346734Y-95595637D01*
X151293748Y-95503862D01*
X151293747Y-95503860D01*
X151212570Y-95435745D01*
X151212567Y-95435743D01*
X151112988Y-95399500D01*
X151112986Y-95399500D01*
X151007014Y-95399500D01*
X151007011Y-95399500D01*
X150907432Y-95435743D01*
X150907429Y-95435745D01*
X150826252Y-95503860D01*
X150773265Y-95595637D01*
X150754864Y-95700000D01*
X147470500Y-95700000D01*
X147470500Y-94720000D01*
X150454864Y-94720000D01*
X150473265Y-94824362D01*
X150526252Y-94916139D01*
X150607429Y-94984254D01*
X150607432Y-94984256D01*
X150707011Y-95020499D01*
X150707012Y-95020500D01*
X150707014Y-95020500D01*
X150812988Y-95020500D01*
X150812988Y-95020499D01*
X150912568Y-94984256D01*
X150993748Y-94916138D01*
X151046734Y-94824363D01*
X151065136Y-94720000D01*
X151046734Y-94615637D01*
X150993748Y-94523862D01*
X150993747Y-94523860D01*
X150912570Y-94455745D01*
X150912567Y-94455743D01*
X150812988Y-94419500D01*
X150812986Y-94419500D01*
X150707014Y-94419500D01*
X150707011Y-94419500D01*
X150607432Y-94455743D01*
X150607429Y-94455745D01*
X150526252Y-94523860D01*
X150473265Y-94615637D01*
X150454864Y-94720000D01*
X147470500Y-94720000D01*
X147470500Y-89520000D01*
X151494864Y-89520000D01*
X151513265Y-89624362D01*
X151566252Y-89716139D01*
X151647429Y-89784254D01*
X151647432Y-89784256D01*
X151747011Y-89820499D01*
X151747012Y-89820500D01*
X151747014Y-89820500D01*
X151852988Y-89820500D01*
X151852988Y-89820499D01*
X151952568Y-89784256D01*
X152033748Y-89716138D01*
X152086734Y-89624363D01*
X152105136Y-89520000D01*
X152086734Y-89415637D01*
X152033748Y-89323862D01*
X152033747Y-89323860D01*
X151952570Y-89255745D01*
X151952567Y-89255743D01*
X151852988Y-89219500D01*
X151852986Y-89219500D01*
X151747014Y-89219500D01*
X151747011Y-89219500D01*
X151647432Y-89255743D01*
X151647429Y-89255745D01*
X151566252Y-89323860D01*
X151513265Y-89415637D01*
X151494864Y-89520000D01*
X147470500Y-89520000D01*
X147470500Y-87436361D01*
X147484523Y-87397831D01*
X147482620Y-87396732D01*
X147522591Y-87327500D01*
X147534788Y-87306375D01*
X147551781Y-87210000D01*
X147534788Y-87113625D01*
X147498054Y-87050000D01*
X151268219Y-87050000D01*
X151285211Y-87146373D01*
X151325486Y-87216132D01*
X151334143Y-87231125D01*
X151409109Y-87294030D01*
X151501067Y-87327499D01*
X151501067Y-87327500D01*
X151501069Y-87327500D01*
X151598933Y-87327500D01*
X151598932Y-87327499D01*
X151690891Y-87294030D01*
X151765857Y-87231125D01*
X151814788Y-87146375D01*
X151831781Y-87050000D01*
X151814788Y-86953625D01*
X151765857Y-86868875D01*
X151690891Y-86805970D01*
X151690890Y-86805969D01*
X151598932Y-86772500D01*
X151598931Y-86772500D01*
X151501069Y-86772500D01*
X151501067Y-86772500D01*
X151409109Y-86805970D01*
X151409107Y-86805971D01*
X151334143Y-86868873D01*
X151285211Y-86953626D01*
X151268219Y-87050000D01*
X147498054Y-87050000D01*
X147485857Y-87028875D01*
X147410891Y-86965970D01*
X147410890Y-86965969D01*
X147318932Y-86932500D01*
X147318931Y-86932500D01*
X147221069Y-86932500D01*
X147221067Y-86932500D01*
X147129109Y-86965970D01*
X147129107Y-86965971D01*
X147054143Y-87028873D01*
X147005211Y-87113626D01*
X146988219Y-87210000D01*
X147005211Y-87306373D01*
X147057380Y-87396732D01*
X147055476Y-87397831D01*
X147069500Y-87436361D01*
X147069500Y-97353639D01*
X147055479Y-97392171D01*
X147057380Y-97393269D01*
X147005211Y-97483626D01*
X146988219Y-97580000D01*
X144360500Y-97580000D01*
X144360500Y-97526361D01*
X144374523Y-97487831D01*
X144372620Y-97486732D01*
X144381606Y-97471166D01*
X144424788Y-97396375D01*
X144441781Y-97300000D01*
X144424788Y-97203625D01*
X144375857Y-97118875D01*
X144300891Y-97055970D01*
X144300890Y-97055969D01*
X144208932Y-97022500D01*
X144208931Y-97022500D01*
X144111069Y-97022500D01*
X144111067Y-97022500D01*
X144019109Y-97055970D01*
X144019107Y-97055971D01*
X143944143Y-97118873D01*
X143895211Y-97203626D01*
X143878219Y-97300000D01*
X141609528Y-97300000D01*
X141655857Y-97261125D01*
X141704788Y-97176375D01*
X141721781Y-97080000D01*
X141704788Y-96983625D01*
X141655857Y-96898875D01*
X141580891Y-96835970D01*
X141580890Y-96835969D01*
X141488932Y-96802500D01*
X141488931Y-96802500D01*
X141391069Y-96802500D01*
X141391067Y-96802500D01*
X141299109Y-96835970D01*
X141299107Y-96835971D01*
X141224143Y-96898873D01*
X141175211Y-96983626D01*
X141158219Y-97080000D01*
X139809267Y-97080000D01*
X139825136Y-96990000D01*
X139806734Y-96885637D01*
X139753747Y-96793860D01*
X139672570Y-96725745D01*
X139672567Y-96725743D01*
X139572988Y-96689500D01*
X139572986Y-96689500D01*
X139467014Y-96689500D01*
X139467011Y-96689500D01*
X139367432Y-96725743D01*
X139367429Y-96725745D01*
X139286252Y-96793860D01*
X139233265Y-96885637D01*
X139214864Y-96990000D01*
X137986135Y-96990000D01*
X137986024Y-96988868D01*
X137928814Y-96800273D01*
X137928812Y-96800270D01*
X137928812Y-96800268D01*
X137877048Y-96703426D01*
X137835910Y-96626462D01*
X137710883Y-96474117D01*
X137558538Y-96349090D01*
X137507140Y-96321617D01*
X137384731Y-96256187D01*
X137196133Y-96198976D01*
X137132513Y-96192710D01*
X137066746Y-96186232D01*
X137016797Y-96159534D01*
X137000000Y-96112589D01*
X137000000Y-95717410D01*
X137021674Y-95665084D01*
X137066744Y-95643767D01*
X137196132Y-95631024D01*
X137384727Y-95573814D01*
X137558538Y-95480910D01*
X137710883Y-95355883D01*
X137835910Y-95203538D01*
X137928814Y-95029727D01*
X137986024Y-94841132D01*
X138005341Y-94645000D01*
X137986024Y-94448868D01*
X137928814Y-94260273D01*
X137928812Y-94260270D01*
X137928812Y-94260268D01*
X137877048Y-94163426D01*
X137835910Y-94086462D01*
X137710883Y-93934117D01*
X137558538Y-93809090D01*
X137548597Y-93803776D01*
X137384731Y-93716187D01*
X137196133Y-93658976D01*
X137132513Y-93652710D01*
X137066746Y-93646232D01*
X137016797Y-93619534D01*
X137000000Y-93572589D01*
X137000000Y-93177410D01*
X137021674Y-93125084D01*
X137066744Y-93103767D01*
X137196132Y-93091024D01*
X137384727Y-93033814D01*
X137558538Y-92940910D01*
X137710883Y-92815883D01*
X137835910Y-92663538D01*
X137928814Y-92489727D01*
X137986024Y-92301132D01*
X138005341Y-92105000D01*
X137986024Y-91908868D01*
X137928814Y-91720273D01*
X137928812Y-91720270D01*
X137928812Y-91720268D01*
X137885907Y-91640000D01*
X140354864Y-91640000D01*
X140373265Y-91744362D01*
X140426252Y-91836139D01*
X140507429Y-91904254D01*
X140507432Y-91904256D01*
X140607011Y-91940499D01*
X140607012Y-91940500D01*
X140607014Y-91940500D01*
X140712988Y-91940500D01*
X140712988Y-91940499D01*
X140812568Y-91904256D01*
X140893748Y-91836138D01*
X140946734Y-91744363D01*
X140965136Y-91640000D01*
X140946734Y-91535637D01*
X140893748Y-91443862D01*
X140893747Y-91443860D01*
X140812570Y-91375745D01*
X140812567Y-91375743D01*
X140712988Y-91339500D01*
X140712986Y-91339500D01*
X140607014Y-91339500D01*
X140607011Y-91339500D01*
X140507432Y-91375743D01*
X140507429Y-91375745D01*
X140426252Y-91443860D01*
X140373265Y-91535637D01*
X140354864Y-91640000D01*
X137885907Y-91640000D01*
X137877048Y-91623426D01*
X137835910Y-91546462D01*
X137710883Y-91394117D01*
X137558538Y-91269090D01*
X137548597Y-91263776D01*
X137384731Y-91176187D01*
X137196133Y-91118976D01*
X137132513Y-91112710D01*
X137066746Y-91106232D01*
X137016797Y-91079534D01*
X137000000Y-91032589D01*
X137000000Y-91030000D01*
X143868219Y-91030000D01*
X143885211Y-91126373D01*
X143928368Y-91201124D01*
X143934143Y-91211125D01*
X144009109Y-91274030D01*
X144101067Y-91307499D01*
X144101067Y-91307500D01*
X144101069Y-91307500D01*
X144198933Y-91307500D01*
X144198932Y-91307499D01*
X144290891Y-91274030D01*
X144365857Y-91211125D01*
X144414788Y-91126375D01*
X144431781Y-91030000D01*
X144430018Y-91020000D01*
X144968219Y-91020000D01*
X144985211Y-91116373D01*
X144985211Y-91116374D01*
X144985212Y-91116375D01*
X144990986Y-91126375D01*
X145016857Y-91171186D01*
X145034143Y-91201125D01*
X145109109Y-91264030D01*
X145201067Y-91297499D01*
X145201067Y-91297500D01*
X145201069Y-91297500D01*
X145298933Y-91297500D01*
X145298932Y-91297499D01*
X145390891Y-91264030D01*
X145465857Y-91201125D01*
X145514788Y-91116375D01*
X145531781Y-91020000D01*
X145514788Y-90923625D01*
X145465857Y-90838875D01*
X145390891Y-90775970D01*
X145390890Y-90775969D01*
X145298932Y-90742500D01*
X145298931Y-90742500D01*
X145201069Y-90742500D01*
X145201067Y-90742500D01*
X145109109Y-90775970D01*
X145109107Y-90775971D01*
X145034143Y-90838873D01*
X144985211Y-90923626D01*
X144968219Y-91020000D01*
X144430018Y-91020000D01*
X144414788Y-90933625D01*
X144365857Y-90848875D01*
X144290891Y-90785970D01*
X144290890Y-90785969D01*
X144198932Y-90752500D01*
X144198931Y-90752500D01*
X144101069Y-90752500D01*
X144101067Y-90752500D01*
X144009109Y-90785970D01*
X144009107Y-90785971D01*
X143934143Y-90848873D01*
X143885211Y-90933626D01*
X143868219Y-91030000D01*
X137000000Y-91030000D01*
X137000000Y-90637410D01*
X137021674Y-90585084D01*
X137066744Y-90563767D01*
X137196132Y-90551024D01*
X137384727Y-90493814D01*
X137558538Y-90400910D01*
X137644942Y-90330000D01*
X138914864Y-90330000D01*
X138933265Y-90434362D01*
X138986252Y-90526139D01*
X139067429Y-90594254D01*
X139067432Y-90594256D01*
X139167011Y-90630499D01*
X139167012Y-90630500D01*
X139167014Y-90630500D01*
X139272988Y-90630500D01*
X139272988Y-90630499D01*
X139372568Y-90594256D01*
X139453748Y-90526138D01*
X139506734Y-90434363D01*
X139525136Y-90330000D01*
X139506734Y-90225637D01*
X139453748Y-90133862D01*
X139453747Y-90133860D01*
X139372570Y-90065745D01*
X139372567Y-90065743D01*
X139272988Y-90029500D01*
X139272986Y-90029500D01*
X139167014Y-90029500D01*
X139167011Y-90029500D01*
X139067432Y-90065743D01*
X139067429Y-90065745D01*
X138986252Y-90133860D01*
X138933265Y-90225637D01*
X138914864Y-90330000D01*
X137644942Y-90330000D01*
X137710883Y-90275883D01*
X137835910Y-90123538D01*
X137928814Y-89949727D01*
X137986024Y-89761132D01*
X138005341Y-89565000D01*
X137986024Y-89368868D01*
X137928814Y-89180273D01*
X137928812Y-89180270D01*
X137928812Y-89180268D01*
X137877048Y-89083426D01*
X137835910Y-89006462D01*
X137710883Y-88854117D01*
X137558538Y-88729090D01*
X137548597Y-88723776D01*
X137384731Y-88636187D01*
X137196133Y-88578976D01*
X137132513Y-88572710D01*
X137066746Y-88566232D01*
X137016797Y-88539534D01*
X137000000Y-88492589D01*
X137000000Y-88480000D01*
X144068219Y-88480000D01*
X144085211Y-88576373D01*
X144116857Y-88631186D01*
X144134143Y-88661125D01*
X144209109Y-88724030D01*
X144301067Y-88757499D01*
X144301067Y-88757500D01*
X144301069Y-88757500D01*
X144398933Y-88757500D01*
X144398932Y-88757499D01*
X144490891Y-88724030D01*
X144565857Y-88661125D01*
X144614788Y-88576375D01*
X144631781Y-88480000D01*
X144614788Y-88383625D01*
X144565857Y-88298875D01*
X144490891Y-88235970D01*
X144490890Y-88235969D01*
X144398932Y-88202500D01*
X144398931Y-88202500D01*
X144301069Y-88202500D01*
X144301067Y-88202500D01*
X144209109Y-88235970D01*
X144209107Y-88235971D01*
X144134143Y-88298873D01*
X144085211Y-88383626D01*
X144068219Y-88480000D01*
X137000000Y-88480000D01*
X137000000Y-88097410D01*
X137021674Y-88045084D01*
X137066744Y-88023767D01*
X137196132Y-88011024D01*
X137384727Y-87953814D01*
X137558538Y-87860910D01*
X137710883Y-87735883D01*
X137835910Y-87583538D01*
X137928814Y-87409727D01*
X137986024Y-87221132D01*
X138005341Y-87025000D01*
X137986024Y-86828868D01*
X137928814Y-86640273D01*
X137928812Y-86640270D01*
X137928812Y-86640268D01*
X137840076Y-86474256D01*
X137835910Y-86466462D01*
X137710883Y-86314117D01*
X137558538Y-86189090D01*
X137548597Y-86183776D01*
X137384731Y-86096187D01*
X137196133Y-86038976D01*
X137132513Y-86032710D01*
X137105000Y-86030000D01*
X139084864Y-86030000D01*
X139103265Y-86134362D01*
X139156252Y-86226139D01*
X139237429Y-86294254D01*
X139237432Y-86294256D01*
X139337011Y-86330499D01*
X139337012Y-86330500D01*
X139337014Y-86330500D01*
X139442988Y-86330500D01*
X139442988Y-86330499D01*
X139542568Y-86294256D01*
X139623748Y-86226138D01*
X139633065Y-86210000D01*
X148594864Y-86210000D01*
X148613265Y-86314362D01*
X148666252Y-86406139D01*
X148747429Y-86474254D01*
X148747432Y-86474256D01*
X148847011Y-86510499D01*
X148847012Y-86510500D01*
X148847014Y-86510500D01*
X148952988Y-86510500D01*
X148952988Y-86510499D01*
X149052568Y-86474256D01*
X149133748Y-86406138D01*
X149186734Y-86314363D01*
X149205136Y-86210000D01*
X149186734Y-86105637D01*
X149181278Y-86096187D01*
X149133747Y-86013860D01*
X149052570Y-85945745D01*
X149052567Y-85945743D01*
X148952988Y-85909500D01*
X148952986Y-85909500D01*
X148847014Y-85909500D01*
X148847011Y-85909500D01*
X148747432Y-85945743D01*
X148747429Y-85945745D01*
X148666252Y-86013860D01*
X148613265Y-86105637D01*
X148594864Y-86210000D01*
X139633065Y-86210000D01*
X139676734Y-86134363D01*
X139695136Y-86030000D01*
X139676734Y-85925637D01*
X139623748Y-85833862D01*
X139623747Y-85833860D01*
X139542570Y-85765745D01*
X139542567Y-85765743D01*
X139442988Y-85729500D01*
X139442986Y-85729500D01*
X139337014Y-85729500D01*
X139337011Y-85729500D01*
X139237432Y-85765743D01*
X139237429Y-85765745D01*
X139156252Y-85833860D01*
X139103265Y-85925637D01*
X139084864Y-86030000D01*
X137105000Y-86030000D01*
X137066746Y-86026232D01*
X137016797Y-85999534D01*
X137000000Y-85952589D01*
X137000000Y-85557410D01*
X137021674Y-85505084D01*
X137066744Y-85483767D01*
X137196132Y-85471024D01*
X137384727Y-85413814D01*
X137558538Y-85320910D01*
X137710883Y-85195883D01*
X137835910Y-85043538D01*
X137928814Y-84869727D01*
X137977267Y-84710000D01*
X142494864Y-84710000D01*
X142513265Y-84814362D01*
X142566252Y-84906139D01*
X142647429Y-84974254D01*
X142647432Y-84974256D01*
X142747011Y-85010499D01*
X142747012Y-85010500D01*
X142747014Y-85010500D01*
X142852988Y-85010500D01*
X142852988Y-85010499D01*
X142952568Y-84974256D01*
X143033748Y-84906138D01*
X143086734Y-84814363D01*
X143105136Y-84710000D01*
X143086734Y-84605637D01*
X143033748Y-84513862D01*
X143033747Y-84513860D01*
X142952570Y-84445745D01*
X142952567Y-84445743D01*
X142852988Y-84409500D01*
X142852986Y-84409500D01*
X142747014Y-84409500D01*
X142747011Y-84409500D01*
X142647432Y-84445743D01*
X142647429Y-84445745D01*
X142566252Y-84513860D01*
X142513265Y-84605637D01*
X142494864Y-84710000D01*
X137977267Y-84710000D01*
X137986024Y-84681132D01*
X138005341Y-84485000D01*
X137986024Y-84288868D01*
X137928814Y-84100273D01*
X137928812Y-84100270D01*
X137928812Y-84100268D01*
X137877048Y-84003426D01*
X137835910Y-83926462D01*
X137710883Y-83774117D01*
X137632757Y-83710000D01*
X149028219Y-83710000D01*
X149045211Y-83806373D01*
X149088368Y-83881124D01*
X149094143Y-83891125D01*
X149169109Y-83954030D01*
X149261067Y-83987499D01*
X149261067Y-83987500D01*
X149261069Y-83987500D01*
X149358933Y-83987500D01*
X149358932Y-83987499D01*
X149450891Y-83954030D01*
X149462808Y-83944030D01*
X149463390Y-83943542D01*
X149517405Y-83926508D01*
X149553189Y-83941330D01*
X149553500Y-83940792D01*
X149557589Y-83943152D01*
X149558524Y-83943540D01*
X149559106Y-83944028D01*
X149559109Y-83944030D01*
X149651067Y-83977499D01*
X149651067Y-83977500D01*
X149651069Y-83977500D01*
X149748933Y-83977500D01*
X149748932Y-83977499D01*
X149840891Y-83944030D01*
X149915857Y-83881125D01*
X149964788Y-83796375D01*
X149981781Y-83700000D01*
X149964788Y-83603625D01*
X149915857Y-83518875D01*
X149886184Y-83493976D01*
X149840890Y-83455969D01*
X149748932Y-83422500D01*
X149748931Y-83422500D01*
X149651069Y-83422500D01*
X149651067Y-83422500D01*
X149559109Y-83455969D01*
X149546603Y-83466463D01*
X149492586Y-83483490D01*
X149456810Y-83468670D01*
X149456500Y-83469208D01*
X149452413Y-83466848D01*
X149451475Y-83466460D01*
X149450890Y-83465969D01*
X149358932Y-83432500D01*
X149358931Y-83432500D01*
X149261069Y-83432500D01*
X149261067Y-83432500D01*
X149169109Y-83465970D01*
X149169107Y-83465971D01*
X149094143Y-83528873D01*
X149045211Y-83613626D01*
X149028219Y-83710000D01*
X137632757Y-83710000D01*
X137558538Y-83649090D01*
X137492188Y-83613625D01*
X137384731Y-83556187D01*
X137196133Y-83498976D01*
X137132513Y-83492710D01*
X137066746Y-83486232D01*
X137016797Y-83459534D01*
X137000000Y-83412589D01*
X137000000Y-83130000D01*
X141494864Y-83130000D01*
X141513265Y-83234362D01*
X141566252Y-83326139D01*
X141647429Y-83394254D01*
X141647432Y-83394256D01*
X141747011Y-83430499D01*
X141747012Y-83430500D01*
X141747014Y-83430500D01*
X141852988Y-83430500D01*
X141852988Y-83430499D01*
X141952568Y-83394256D01*
X142033748Y-83326138D01*
X142086734Y-83234363D01*
X142105136Y-83130000D01*
X142086734Y-83025637D01*
X142040375Y-82945341D01*
X142033747Y-82933860D01*
X141952570Y-82865745D01*
X141952567Y-82865743D01*
X141852988Y-82829500D01*
X141852986Y-82829500D01*
X141747014Y-82829500D01*
X141747011Y-82829500D01*
X141647432Y-82865743D01*
X141647429Y-82865745D01*
X141566252Y-82933860D01*
X141513265Y-83025637D01*
X141494864Y-83130000D01*
X137000000Y-83130000D01*
X137000000Y-83017410D01*
X137021674Y-82965084D01*
X137066744Y-82943767D01*
X137196132Y-82931024D01*
X137384727Y-82873814D01*
X137558538Y-82780910D01*
X137710883Y-82655883D01*
X137835910Y-82503538D01*
X137928814Y-82329727D01*
X137986024Y-82141132D01*
X138005341Y-81945000D01*
X137997954Y-81870000D01*
X142494864Y-81870000D01*
X142513265Y-81974362D01*
X142566252Y-82066139D01*
X142647429Y-82134254D01*
X142647432Y-82134256D01*
X142747011Y-82170499D01*
X142747012Y-82170500D01*
X142747014Y-82170500D01*
X142852988Y-82170500D01*
X142852988Y-82170499D01*
X142952568Y-82134256D01*
X143033748Y-82066138D01*
X143086734Y-81974363D01*
X143105136Y-81870000D01*
X143086734Y-81765637D01*
X143033747Y-81673860D01*
X142952570Y-81605745D01*
X142952567Y-81605743D01*
X142852988Y-81569500D01*
X142852986Y-81569500D01*
X142747014Y-81569500D01*
X142747011Y-81569500D01*
X142647432Y-81605743D01*
X142647429Y-81605745D01*
X142566252Y-81673860D01*
X142513265Y-81765637D01*
X142494864Y-81870000D01*
X137997954Y-81870000D01*
X137986024Y-81748868D01*
X137928814Y-81560273D01*
X137928812Y-81560270D01*
X137928812Y-81560268D01*
X137877048Y-81463426D01*
X137835910Y-81386462D01*
X137710883Y-81234117D01*
X137558538Y-81109090D01*
X137548597Y-81103776D01*
X137384731Y-81016187D01*
X137196133Y-80958976D01*
X137132513Y-80952710D01*
X137066746Y-80946232D01*
X137016797Y-80919534D01*
X137000000Y-80872589D01*
X137000000Y-80479500D01*
X137021674Y-80427174D01*
X137074000Y-80405500D01*
X137864819Y-80405500D01*
X137864820Y-80405500D01*
X137908722Y-80396767D01*
X137958504Y-80363504D01*
X137991767Y-80313722D01*
X138000500Y-80269820D01*
X138000500Y-79090000D01*
X149104864Y-79090000D01*
X149123265Y-79194362D01*
X149176252Y-79286139D01*
X149257429Y-79354254D01*
X149257432Y-79354256D01*
X149357011Y-79390499D01*
X149357012Y-79390500D01*
X149357014Y-79390500D01*
X149462988Y-79390500D01*
X149462988Y-79390499D01*
X149562568Y-79354256D01*
X149643748Y-79286138D01*
X149696734Y-79194363D01*
X149715136Y-79090000D01*
X149696734Y-78985637D01*
X149643748Y-78893862D01*
X149643747Y-78893860D01*
X149562570Y-78825745D01*
X149562567Y-78825743D01*
X149462988Y-78789500D01*
X149462986Y-78789500D01*
X149357014Y-78789500D01*
X149357011Y-78789500D01*
X149257432Y-78825743D01*
X149257429Y-78825745D01*
X149176252Y-78893860D01*
X149123265Y-78985637D01*
X149104864Y-79090000D01*
X138000500Y-79090000D01*
X138000500Y-78694000D01*
X138022174Y-78641674D01*
X138074500Y-78620000D01*
X152865500Y-78620000D01*
X152917826Y-78641674D01*
G37*
%TD.AperFunction*%
%TD*%
M02*
