%TF.GenerationSoftware,KiCad,Pcbnew,8.0.1*%
%TF.CreationDate,2024-10-17T14:11:07-05:00*%
%TF.ProjectId,sip-board,7369702d-626f-4617-9264-2e6b69636164,rev?*%
%TF.SameCoordinates,Original*%
%TF.FileFunction,AssemblyDrawing,Bot*%
%FSLAX46Y46*%
G04 Gerber Fmt 4.6, Leading zero omitted, Abs format (unit mm)*
G04 Created by KiCad (PCBNEW 8.0.1) date 2024-10-17 14:11:07*
%MOMM*%
%LPD*%
G01*
G04 APERTURE LIST*
%ADD10C,0.150000*%
%ADD11C,0.040000*%
%ADD12C,0.100000*%
G04 APERTURE END LIST*
D10*
X152894819Y-120139761D02*
X152894819Y-119568333D01*
X152894819Y-119854047D02*
X151894819Y-119854047D01*
X151894819Y-119854047D02*
X152037676Y-119758809D01*
X152037676Y-119758809D02*
X152132914Y-119663571D01*
X152132914Y-119663571D02*
X152180533Y-119568333D01*
X151894819Y-120758809D02*
X151894819Y-120854047D01*
X151894819Y-120854047D02*
X151942438Y-120949285D01*
X151942438Y-120949285D02*
X151990057Y-120996904D01*
X151990057Y-120996904D02*
X152085295Y-121044523D01*
X152085295Y-121044523D02*
X152275771Y-121092142D01*
X152275771Y-121092142D02*
X152513866Y-121092142D01*
X152513866Y-121092142D02*
X152704342Y-121044523D01*
X152704342Y-121044523D02*
X152799580Y-120996904D01*
X152799580Y-120996904D02*
X152847200Y-120949285D01*
X152847200Y-120949285D02*
X152894819Y-120854047D01*
X152894819Y-120854047D02*
X152894819Y-120758809D01*
X152894819Y-120758809D02*
X152847200Y-120663571D01*
X152847200Y-120663571D02*
X152799580Y-120615952D01*
X152799580Y-120615952D02*
X152704342Y-120568333D01*
X152704342Y-120568333D02*
X152513866Y-120520714D01*
X152513866Y-120520714D02*
X152275771Y-120520714D01*
X152275771Y-120520714D02*
X152085295Y-120568333D01*
X152085295Y-120568333D02*
X151990057Y-120615952D01*
X151990057Y-120615952D02*
X151942438Y-120663571D01*
X151942438Y-120663571D02*
X151894819Y-120758809D01*
X152894819Y-121520714D02*
X151894819Y-121520714D01*
X152513866Y-121615952D02*
X152894819Y-121901666D01*
X152228152Y-121901666D02*
X152609104Y-121520714D01*
D11*
X150823574Y-120574285D02*
X150704527Y-120490952D01*
X150823574Y-120431428D02*
X150573574Y-120431428D01*
X150573574Y-120431428D02*
X150573574Y-120526666D01*
X150573574Y-120526666D02*
X150585479Y-120550476D01*
X150585479Y-120550476D02*
X150597384Y-120562381D01*
X150597384Y-120562381D02*
X150621193Y-120574285D01*
X150621193Y-120574285D02*
X150656908Y-120574285D01*
X150656908Y-120574285D02*
X150680717Y-120562381D01*
X150680717Y-120562381D02*
X150692622Y-120550476D01*
X150692622Y-120550476D02*
X150704527Y-120526666D01*
X150704527Y-120526666D02*
X150704527Y-120431428D01*
X150823574Y-120812381D02*
X150823574Y-120669524D01*
X150823574Y-120740952D02*
X150573574Y-120740952D01*
X150573574Y-120740952D02*
X150609289Y-120717143D01*
X150609289Y-120717143D02*
X150633098Y-120693333D01*
X150633098Y-120693333D02*
X150645003Y-120669524D01*
X150573574Y-120895714D02*
X150573574Y-121050476D01*
X150573574Y-121050476D02*
X150668812Y-120967142D01*
X150668812Y-120967142D02*
X150668812Y-121002857D01*
X150668812Y-121002857D02*
X150680717Y-121026666D01*
X150680717Y-121026666D02*
X150692622Y-121038571D01*
X150692622Y-121038571D02*
X150716431Y-121050476D01*
X150716431Y-121050476D02*
X150775955Y-121050476D01*
X150775955Y-121050476D02*
X150799765Y-121038571D01*
X150799765Y-121038571D02*
X150811670Y-121026666D01*
X150811670Y-121026666D02*
X150823574Y-121002857D01*
X150823574Y-121002857D02*
X150823574Y-120931428D01*
X150823574Y-120931428D02*
X150811670Y-120907619D01*
X150811670Y-120907619D02*
X150799765Y-120895714D01*
D10*
X139394819Y-85119761D02*
X139394819Y-84548333D01*
X139394819Y-84834047D02*
X138394819Y-84834047D01*
X138394819Y-84834047D02*
X138537676Y-84738809D01*
X138537676Y-84738809D02*
X138632914Y-84643571D01*
X138632914Y-84643571D02*
X138680533Y-84548333D01*
X138394819Y-85738809D02*
X138394819Y-85834047D01*
X138394819Y-85834047D02*
X138442438Y-85929285D01*
X138442438Y-85929285D02*
X138490057Y-85976904D01*
X138490057Y-85976904D02*
X138585295Y-86024523D01*
X138585295Y-86024523D02*
X138775771Y-86072142D01*
X138775771Y-86072142D02*
X139013866Y-86072142D01*
X139013866Y-86072142D02*
X139204342Y-86024523D01*
X139204342Y-86024523D02*
X139299580Y-85976904D01*
X139299580Y-85976904D02*
X139347200Y-85929285D01*
X139347200Y-85929285D02*
X139394819Y-85834047D01*
X139394819Y-85834047D02*
X139394819Y-85738809D01*
X139394819Y-85738809D02*
X139347200Y-85643571D01*
X139347200Y-85643571D02*
X139299580Y-85595952D01*
X139299580Y-85595952D02*
X139204342Y-85548333D01*
X139204342Y-85548333D02*
X139013866Y-85500714D01*
X139013866Y-85500714D02*
X138775771Y-85500714D01*
X138775771Y-85500714D02*
X138585295Y-85548333D01*
X138585295Y-85548333D02*
X138490057Y-85595952D01*
X138490057Y-85595952D02*
X138442438Y-85643571D01*
X138442438Y-85643571D02*
X138394819Y-85738809D01*
X139394819Y-86500714D02*
X138394819Y-86500714D01*
X139013866Y-86595952D02*
X139394819Y-86881666D01*
X138728152Y-86881666D02*
X139109104Y-86500714D01*
D11*
X140783574Y-85673333D02*
X140664527Y-85590000D01*
X140783574Y-85530476D02*
X140533574Y-85530476D01*
X140533574Y-85530476D02*
X140533574Y-85625714D01*
X140533574Y-85625714D02*
X140545479Y-85649524D01*
X140545479Y-85649524D02*
X140557384Y-85661429D01*
X140557384Y-85661429D02*
X140581193Y-85673333D01*
X140581193Y-85673333D02*
X140616908Y-85673333D01*
X140616908Y-85673333D02*
X140640717Y-85661429D01*
X140640717Y-85661429D02*
X140652622Y-85649524D01*
X140652622Y-85649524D02*
X140664527Y-85625714D01*
X140664527Y-85625714D02*
X140664527Y-85530476D01*
X140616908Y-85887619D02*
X140783574Y-85887619D01*
X140521670Y-85828095D02*
X140700241Y-85768572D01*
X140700241Y-85768572D02*
X140700241Y-85923333D01*
D10*
X149720475Y-99224819D02*
X149625237Y-99224819D01*
X149625237Y-99224819D02*
X149529999Y-99272438D01*
X149529999Y-99272438D02*
X149482380Y-99320057D01*
X149482380Y-99320057D02*
X149434761Y-99415295D01*
X149434761Y-99415295D02*
X149387142Y-99605771D01*
X149387142Y-99605771D02*
X149387142Y-99843866D01*
X149387142Y-99843866D02*
X149434761Y-100034342D01*
X149434761Y-100034342D02*
X149482380Y-100129580D01*
X149482380Y-100129580D02*
X149529999Y-100177200D01*
X149529999Y-100177200D02*
X149625237Y-100224819D01*
X149625237Y-100224819D02*
X149720475Y-100224819D01*
X149720475Y-100224819D02*
X149815713Y-100177200D01*
X149815713Y-100177200D02*
X149863332Y-100129580D01*
X149863332Y-100129580D02*
X149910951Y-100034342D01*
X149910951Y-100034342D02*
X149958570Y-99843866D01*
X149958570Y-99843866D02*
X149958570Y-99605771D01*
X149958570Y-99605771D02*
X149910951Y-99415295D01*
X149910951Y-99415295D02*
X149863332Y-99320057D01*
X149863332Y-99320057D02*
X149815713Y-99272438D01*
X149815713Y-99272438D02*
X149720475Y-99224819D01*
X148958570Y-100129580D02*
X148910951Y-100177200D01*
X148910951Y-100177200D02*
X148958570Y-100224819D01*
X148958570Y-100224819D02*
X149006189Y-100177200D01*
X149006189Y-100177200D02*
X148958570Y-100129580D01*
X148958570Y-100129580D02*
X148958570Y-100224819D01*
X148053809Y-99558152D02*
X148053809Y-100224819D01*
X148291904Y-99177200D02*
X148529999Y-99891485D01*
X148529999Y-99891485D02*
X147910952Y-99891485D01*
X147625237Y-99224819D02*
X146958571Y-99224819D01*
X146958571Y-99224819D02*
X147387142Y-100224819D01*
X146149047Y-99558152D02*
X146149047Y-100224819D01*
X146577618Y-99558152D02*
X146577618Y-100081961D01*
X146577618Y-100081961D02*
X146529999Y-100177200D01*
X146529999Y-100177200D02*
X146434761Y-100224819D01*
X146434761Y-100224819D02*
X146291904Y-100224819D01*
X146291904Y-100224819D02*
X146196666Y-100177200D01*
X146196666Y-100177200D02*
X146149047Y-100129580D01*
D11*
X148190714Y-101589765D02*
X148202618Y-101601670D01*
X148202618Y-101601670D02*
X148238333Y-101613574D01*
X148238333Y-101613574D02*
X148262142Y-101613574D01*
X148262142Y-101613574D02*
X148297856Y-101601670D01*
X148297856Y-101601670D02*
X148321666Y-101577860D01*
X148321666Y-101577860D02*
X148333571Y-101554050D01*
X148333571Y-101554050D02*
X148345475Y-101506431D01*
X148345475Y-101506431D02*
X148345475Y-101470717D01*
X148345475Y-101470717D02*
X148333571Y-101423098D01*
X148333571Y-101423098D02*
X148321666Y-101399289D01*
X148321666Y-101399289D02*
X148297856Y-101375479D01*
X148297856Y-101375479D02*
X148262142Y-101363574D01*
X148262142Y-101363574D02*
X148238333Y-101363574D01*
X148238333Y-101363574D02*
X148202618Y-101375479D01*
X148202618Y-101375479D02*
X148190714Y-101387384D01*
X148095475Y-101387384D02*
X148083571Y-101375479D01*
X148083571Y-101375479D02*
X148059761Y-101363574D01*
X148059761Y-101363574D02*
X148000237Y-101363574D01*
X148000237Y-101363574D02*
X147976428Y-101375479D01*
X147976428Y-101375479D02*
X147964523Y-101387384D01*
X147964523Y-101387384D02*
X147952618Y-101411193D01*
X147952618Y-101411193D02*
X147952618Y-101435003D01*
X147952618Y-101435003D02*
X147964523Y-101470717D01*
X147964523Y-101470717D02*
X148107380Y-101613574D01*
X148107380Y-101613574D02*
X147952618Y-101613574D01*
X147714523Y-101613574D02*
X147857380Y-101613574D01*
X147785952Y-101613574D02*
X147785952Y-101363574D01*
X147785952Y-101363574D02*
X147809761Y-101399289D01*
X147809761Y-101399289D02*
X147833571Y-101423098D01*
X147833571Y-101423098D02*
X147857380Y-101435003D01*
D10*
X138934819Y-115134761D02*
X138934819Y-114563333D01*
X138934819Y-114849047D02*
X137934819Y-114849047D01*
X137934819Y-114849047D02*
X138077676Y-114753809D01*
X138077676Y-114753809D02*
X138172914Y-114658571D01*
X138172914Y-114658571D02*
X138220533Y-114563333D01*
X137934819Y-115753809D02*
X137934819Y-115849047D01*
X137934819Y-115849047D02*
X137982438Y-115944285D01*
X137982438Y-115944285D02*
X138030057Y-115991904D01*
X138030057Y-115991904D02*
X138125295Y-116039523D01*
X138125295Y-116039523D02*
X138315771Y-116087142D01*
X138315771Y-116087142D02*
X138553866Y-116087142D01*
X138553866Y-116087142D02*
X138744342Y-116039523D01*
X138744342Y-116039523D02*
X138839580Y-115991904D01*
X138839580Y-115991904D02*
X138887200Y-115944285D01*
X138887200Y-115944285D02*
X138934819Y-115849047D01*
X138934819Y-115849047D02*
X138934819Y-115753809D01*
X138934819Y-115753809D02*
X138887200Y-115658571D01*
X138887200Y-115658571D02*
X138839580Y-115610952D01*
X138839580Y-115610952D02*
X138744342Y-115563333D01*
X138744342Y-115563333D02*
X138553866Y-115515714D01*
X138553866Y-115515714D02*
X138315771Y-115515714D01*
X138315771Y-115515714D02*
X138125295Y-115563333D01*
X138125295Y-115563333D02*
X138030057Y-115610952D01*
X138030057Y-115610952D02*
X137982438Y-115658571D01*
X137982438Y-115658571D02*
X137934819Y-115753809D01*
X138934819Y-116515714D02*
X137934819Y-116515714D01*
X138553866Y-116610952D02*
X138934819Y-116896666D01*
X138268152Y-116896666D02*
X138649104Y-116515714D01*
D11*
X140323574Y-115688333D02*
X140204527Y-115605000D01*
X140323574Y-115545476D02*
X140073574Y-115545476D01*
X140073574Y-115545476D02*
X140073574Y-115640714D01*
X140073574Y-115640714D02*
X140085479Y-115664524D01*
X140085479Y-115664524D02*
X140097384Y-115676429D01*
X140097384Y-115676429D02*
X140121193Y-115688333D01*
X140121193Y-115688333D02*
X140156908Y-115688333D01*
X140156908Y-115688333D02*
X140180717Y-115676429D01*
X140180717Y-115676429D02*
X140192622Y-115664524D01*
X140192622Y-115664524D02*
X140204527Y-115640714D01*
X140204527Y-115640714D02*
X140204527Y-115545476D01*
X140073574Y-115771667D02*
X140073574Y-115938333D01*
X140073574Y-115938333D02*
X140323574Y-115831191D01*
D10*
X144420475Y-102064819D02*
X144325237Y-102064819D01*
X144325237Y-102064819D02*
X144229999Y-102112438D01*
X144229999Y-102112438D02*
X144182380Y-102160057D01*
X144182380Y-102160057D02*
X144134761Y-102255295D01*
X144134761Y-102255295D02*
X144087142Y-102445771D01*
X144087142Y-102445771D02*
X144087142Y-102683866D01*
X144087142Y-102683866D02*
X144134761Y-102874342D01*
X144134761Y-102874342D02*
X144182380Y-102969580D01*
X144182380Y-102969580D02*
X144229999Y-103017200D01*
X144229999Y-103017200D02*
X144325237Y-103064819D01*
X144325237Y-103064819D02*
X144420475Y-103064819D01*
X144420475Y-103064819D02*
X144515713Y-103017200D01*
X144515713Y-103017200D02*
X144563332Y-102969580D01*
X144563332Y-102969580D02*
X144610951Y-102874342D01*
X144610951Y-102874342D02*
X144658570Y-102683866D01*
X144658570Y-102683866D02*
X144658570Y-102445771D01*
X144658570Y-102445771D02*
X144610951Y-102255295D01*
X144610951Y-102255295D02*
X144563332Y-102160057D01*
X144563332Y-102160057D02*
X144515713Y-102112438D01*
X144515713Y-102112438D02*
X144420475Y-102064819D01*
X143658570Y-102969580D02*
X143610951Y-103017200D01*
X143610951Y-103017200D02*
X143658570Y-103064819D01*
X143658570Y-103064819D02*
X143706189Y-103017200D01*
X143706189Y-103017200D02*
X143658570Y-102969580D01*
X143658570Y-102969580D02*
X143658570Y-103064819D01*
X142753809Y-102398152D02*
X142753809Y-103064819D01*
X142991904Y-102017200D02*
X143229999Y-102731485D01*
X143229999Y-102731485D02*
X142610952Y-102731485D01*
X142325237Y-102064819D02*
X141658571Y-102064819D01*
X141658571Y-102064819D02*
X142087142Y-103064819D01*
X140849047Y-102398152D02*
X140849047Y-103064819D01*
X141277618Y-102398152D02*
X141277618Y-102921961D01*
X141277618Y-102921961D02*
X141229999Y-103017200D01*
X141229999Y-103017200D02*
X141134761Y-103064819D01*
X141134761Y-103064819D02*
X140991904Y-103064819D01*
X140991904Y-103064819D02*
X140896666Y-103017200D01*
X140896666Y-103017200D02*
X140849047Y-102969580D01*
D11*
X142890714Y-100969765D02*
X142902618Y-100981670D01*
X142902618Y-100981670D02*
X142938333Y-100993574D01*
X142938333Y-100993574D02*
X142962142Y-100993574D01*
X142962142Y-100993574D02*
X142997856Y-100981670D01*
X142997856Y-100981670D02*
X143021666Y-100957860D01*
X143021666Y-100957860D02*
X143033571Y-100934050D01*
X143033571Y-100934050D02*
X143045475Y-100886431D01*
X143045475Y-100886431D02*
X143045475Y-100850717D01*
X143045475Y-100850717D02*
X143033571Y-100803098D01*
X143033571Y-100803098D02*
X143021666Y-100779289D01*
X143021666Y-100779289D02*
X142997856Y-100755479D01*
X142997856Y-100755479D02*
X142962142Y-100743574D01*
X142962142Y-100743574D02*
X142938333Y-100743574D01*
X142938333Y-100743574D02*
X142902618Y-100755479D01*
X142902618Y-100755479D02*
X142890714Y-100767384D01*
X142807380Y-100743574D02*
X142652618Y-100743574D01*
X142652618Y-100743574D02*
X142735952Y-100838812D01*
X142735952Y-100838812D02*
X142700237Y-100838812D01*
X142700237Y-100838812D02*
X142676428Y-100850717D01*
X142676428Y-100850717D02*
X142664523Y-100862622D01*
X142664523Y-100862622D02*
X142652618Y-100886431D01*
X142652618Y-100886431D02*
X142652618Y-100945955D01*
X142652618Y-100945955D02*
X142664523Y-100969765D01*
X142664523Y-100969765D02*
X142676428Y-100981670D01*
X142676428Y-100981670D02*
X142700237Y-100993574D01*
X142700237Y-100993574D02*
X142771666Y-100993574D01*
X142771666Y-100993574D02*
X142795475Y-100981670D01*
X142795475Y-100981670D02*
X142807380Y-100969765D01*
X142557380Y-100767384D02*
X142545476Y-100755479D01*
X142545476Y-100755479D02*
X142521666Y-100743574D01*
X142521666Y-100743574D02*
X142462142Y-100743574D01*
X142462142Y-100743574D02*
X142438333Y-100755479D01*
X142438333Y-100755479D02*
X142426428Y-100767384D01*
X142426428Y-100767384D02*
X142414523Y-100791193D01*
X142414523Y-100791193D02*
X142414523Y-100815003D01*
X142414523Y-100815003D02*
X142426428Y-100850717D01*
X142426428Y-100850717D02*
X142569285Y-100993574D01*
X142569285Y-100993574D02*
X142414523Y-100993574D01*
D10*
X145144819Y-101549524D02*
X145144819Y-101644762D01*
X145144819Y-101644762D02*
X145192438Y-101740000D01*
X145192438Y-101740000D02*
X145240057Y-101787619D01*
X145240057Y-101787619D02*
X145335295Y-101835238D01*
X145335295Y-101835238D02*
X145525771Y-101882857D01*
X145525771Y-101882857D02*
X145763866Y-101882857D01*
X145763866Y-101882857D02*
X145954342Y-101835238D01*
X145954342Y-101835238D02*
X146049580Y-101787619D01*
X146049580Y-101787619D02*
X146097200Y-101740000D01*
X146097200Y-101740000D02*
X146144819Y-101644762D01*
X146144819Y-101644762D02*
X146144819Y-101549524D01*
X146144819Y-101549524D02*
X146097200Y-101454286D01*
X146097200Y-101454286D02*
X146049580Y-101406667D01*
X146049580Y-101406667D02*
X145954342Y-101359048D01*
X145954342Y-101359048D02*
X145763866Y-101311429D01*
X145763866Y-101311429D02*
X145525771Y-101311429D01*
X145525771Y-101311429D02*
X145335295Y-101359048D01*
X145335295Y-101359048D02*
X145240057Y-101406667D01*
X145240057Y-101406667D02*
X145192438Y-101454286D01*
X145192438Y-101454286D02*
X145144819Y-101549524D01*
X146049580Y-102311429D02*
X146097200Y-102359048D01*
X146097200Y-102359048D02*
X146144819Y-102311429D01*
X146144819Y-102311429D02*
X146097200Y-102263810D01*
X146097200Y-102263810D02*
X146049580Y-102311429D01*
X146049580Y-102311429D02*
X146144819Y-102311429D01*
X145478152Y-103216190D02*
X146144819Y-103216190D01*
X145097200Y-102978095D02*
X145811485Y-102740000D01*
X145811485Y-102740000D02*
X145811485Y-103359047D01*
X145144819Y-103644762D02*
X145144819Y-104311428D01*
X145144819Y-104311428D02*
X146144819Y-103882857D01*
X145478152Y-105120952D02*
X146144819Y-105120952D01*
X145478152Y-104692381D02*
X146001961Y-104692381D01*
X146001961Y-104692381D02*
X146097200Y-104740000D01*
X146097200Y-104740000D02*
X146144819Y-104835238D01*
X146144819Y-104835238D02*
X146144819Y-104978095D01*
X146144819Y-104978095D02*
X146097200Y-105073333D01*
X146097200Y-105073333D02*
X146049580Y-105120952D01*
D11*
X144049765Y-103198333D02*
X144061670Y-103186429D01*
X144061670Y-103186429D02*
X144073574Y-103150714D01*
X144073574Y-103150714D02*
X144073574Y-103126905D01*
X144073574Y-103126905D02*
X144061670Y-103091191D01*
X144061670Y-103091191D02*
X144037860Y-103067381D01*
X144037860Y-103067381D02*
X144014050Y-103055476D01*
X144014050Y-103055476D02*
X143966431Y-103043572D01*
X143966431Y-103043572D02*
X143930717Y-103043572D01*
X143930717Y-103043572D02*
X143883098Y-103055476D01*
X143883098Y-103055476D02*
X143859289Y-103067381D01*
X143859289Y-103067381D02*
X143835479Y-103091191D01*
X143835479Y-103091191D02*
X143823574Y-103126905D01*
X143823574Y-103126905D02*
X143823574Y-103150714D01*
X143823574Y-103150714D02*
X143835479Y-103186429D01*
X143835479Y-103186429D02*
X143847384Y-103198333D01*
X144073574Y-103317381D02*
X144073574Y-103365000D01*
X144073574Y-103365000D02*
X144061670Y-103388810D01*
X144061670Y-103388810D02*
X144049765Y-103400714D01*
X144049765Y-103400714D02*
X144014050Y-103424524D01*
X144014050Y-103424524D02*
X143966431Y-103436429D01*
X143966431Y-103436429D02*
X143871193Y-103436429D01*
X143871193Y-103436429D02*
X143847384Y-103424524D01*
X143847384Y-103424524D02*
X143835479Y-103412619D01*
X143835479Y-103412619D02*
X143823574Y-103388810D01*
X143823574Y-103388810D02*
X143823574Y-103341191D01*
X143823574Y-103341191D02*
X143835479Y-103317381D01*
X143835479Y-103317381D02*
X143847384Y-103305476D01*
X143847384Y-103305476D02*
X143871193Y-103293572D01*
X143871193Y-103293572D02*
X143930717Y-103293572D01*
X143930717Y-103293572D02*
X143954527Y-103305476D01*
X143954527Y-103305476D02*
X143966431Y-103317381D01*
X143966431Y-103317381D02*
X143978336Y-103341191D01*
X143978336Y-103341191D02*
X143978336Y-103388810D01*
X143978336Y-103388810D02*
X143966431Y-103412619D01*
X143966431Y-103412619D02*
X143954527Y-103424524D01*
X143954527Y-103424524D02*
X143930717Y-103436429D01*
D10*
X145435475Y-105074819D02*
X145340237Y-105074819D01*
X145340237Y-105074819D02*
X145244999Y-105122438D01*
X145244999Y-105122438D02*
X145197380Y-105170057D01*
X145197380Y-105170057D02*
X145149761Y-105265295D01*
X145149761Y-105265295D02*
X145102142Y-105455771D01*
X145102142Y-105455771D02*
X145102142Y-105693866D01*
X145102142Y-105693866D02*
X145149761Y-105884342D01*
X145149761Y-105884342D02*
X145197380Y-105979580D01*
X145197380Y-105979580D02*
X145244999Y-106027200D01*
X145244999Y-106027200D02*
X145340237Y-106074819D01*
X145340237Y-106074819D02*
X145435475Y-106074819D01*
X145435475Y-106074819D02*
X145530713Y-106027200D01*
X145530713Y-106027200D02*
X145578332Y-105979580D01*
X145578332Y-105979580D02*
X145625951Y-105884342D01*
X145625951Y-105884342D02*
X145673570Y-105693866D01*
X145673570Y-105693866D02*
X145673570Y-105455771D01*
X145673570Y-105455771D02*
X145625951Y-105265295D01*
X145625951Y-105265295D02*
X145578332Y-105170057D01*
X145578332Y-105170057D02*
X145530713Y-105122438D01*
X145530713Y-105122438D02*
X145435475Y-105074819D01*
X144673570Y-105979580D02*
X144625951Y-106027200D01*
X144625951Y-106027200D02*
X144673570Y-106074819D01*
X144673570Y-106074819D02*
X144721189Y-106027200D01*
X144721189Y-106027200D02*
X144673570Y-105979580D01*
X144673570Y-105979580D02*
X144673570Y-106074819D01*
X143768809Y-105408152D02*
X143768809Y-106074819D01*
X144006904Y-105027200D02*
X144244999Y-105741485D01*
X144244999Y-105741485D02*
X143625952Y-105741485D01*
X143340237Y-105074819D02*
X142673571Y-105074819D01*
X142673571Y-105074819D02*
X143102142Y-106074819D01*
X141864047Y-105408152D02*
X141864047Y-106074819D01*
X142292618Y-105408152D02*
X142292618Y-105931961D01*
X142292618Y-105931961D02*
X142244999Y-106027200D01*
X142244999Y-106027200D02*
X142149761Y-106074819D01*
X142149761Y-106074819D02*
X142006904Y-106074819D01*
X142006904Y-106074819D02*
X141911666Y-106027200D01*
X141911666Y-106027200D02*
X141864047Y-105979580D01*
D11*
X143786666Y-103979765D02*
X143798570Y-103991670D01*
X143798570Y-103991670D02*
X143834285Y-104003574D01*
X143834285Y-104003574D02*
X143858094Y-104003574D01*
X143858094Y-104003574D02*
X143893808Y-103991670D01*
X143893808Y-103991670D02*
X143917618Y-103967860D01*
X143917618Y-103967860D02*
X143929523Y-103944050D01*
X143929523Y-103944050D02*
X143941427Y-103896431D01*
X143941427Y-103896431D02*
X143941427Y-103860717D01*
X143941427Y-103860717D02*
X143929523Y-103813098D01*
X143929523Y-103813098D02*
X143917618Y-103789289D01*
X143917618Y-103789289D02*
X143893808Y-103765479D01*
X143893808Y-103765479D02*
X143858094Y-103753574D01*
X143858094Y-103753574D02*
X143834285Y-103753574D01*
X143834285Y-103753574D02*
X143798570Y-103765479D01*
X143798570Y-103765479D02*
X143786666Y-103777384D01*
X143643808Y-103860717D02*
X143667618Y-103848812D01*
X143667618Y-103848812D02*
X143679523Y-103836908D01*
X143679523Y-103836908D02*
X143691427Y-103813098D01*
X143691427Y-103813098D02*
X143691427Y-103801193D01*
X143691427Y-103801193D02*
X143679523Y-103777384D01*
X143679523Y-103777384D02*
X143667618Y-103765479D01*
X143667618Y-103765479D02*
X143643808Y-103753574D01*
X143643808Y-103753574D02*
X143596189Y-103753574D01*
X143596189Y-103753574D02*
X143572380Y-103765479D01*
X143572380Y-103765479D02*
X143560475Y-103777384D01*
X143560475Y-103777384D02*
X143548570Y-103801193D01*
X143548570Y-103801193D02*
X143548570Y-103813098D01*
X143548570Y-103813098D02*
X143560475Y-103836908D01*
X143560475Y-103836908D02*
X143572380Y-103848812D01*
X143572380Y-103848812D02*
X143596189Y-103860717D01*
X143596189Y-103860717D02*
X143643808Y-103860717D01*
X143643808Y-103860717D02*
X143667618Y-103872622D01*
X143667618Y-103872622D02*
X143679523Y-103884527D01*
X143679523Y-103884527D02*
X143691427Y-103908336D01*
X143691427Y-103908336D02*
X143691427Y-103955955D01*
X143691427Y-103955955D02*
X143679523Y-103979765D01*
X143679523Y-103979765D02*
X143667618Y-103991670D01*
X143667618Y-103991670D02*
X143643808Y-104003574D01*
X143643808Y-104003574D02*
X143596189Y-104003574D01*
X143596189Y-104003574D02*
X143572380Y-103991670D01*
X143572380Y-103991670D02*
X143560475Y-103979765D01*
X143560475Y-103979765D02*
X143548570Y-103955955D01*
X143548570Y-103955955D02*
X143548570Y-103908336D01*
X143548570Y-103908336D02*
X143560475Y-103884527D01*
X143560475Y-103884527D02*
X143572380Y-103872622D01*
X143572380Y-103872622D02*
X143596189Y-103860717D01*
D10*
X150665895Y-90927133D02*
X150713514Y-90974752D01*
X150713514Y-90974752D02*
X150808752Y-91022371D01*
X150808752Y-91022371D02*
X150999228Y-90927133D01*
X150999228Y-90927133D02*
X151094466Y-90974752D01*
X151094466Y-90974752D02*
X151142085Y-91022371D01*
X149689705Y-90046180D02*
X149689705Y-89236657D01*
X149689705Y-89236657D02*
X149737324Y-89141419D01*
X149737324Y-89141419D02*
X149784943Y-89093800D01*
X149784943Y-89093800D02*
X149880181Y-89046180D01*
X149880181Y-89046180D02*
X150070657Y-89046180D01*
X150070657Y-89046180D02*
X150165895Y-89093800D01*
X150165895Y-89093800D02*
X150213514Y-89141419D01*
X150213514Y-89141419D02*
X150261133Y-89236657D01*
X150261133Y-89236657D02*
X150261133Y-90046180D01*
X151261133Y-89046180D02*
X150689705Y-89046180D01*
X150975419Y-89046180D02*
X150975419Y-90046180D01*
X150975419Y-90046180D02*
X150880181Y-89903323D01*
X150880181Y-89903323D02*
X150784943Y-89808085D01*
X150784943Y-89808085D02*
X150689705Y-89760466D01*
X152213514Y-89046180D02*
X151642086Y-89046180D01*
X151927800Y-89046180D02*
X151927800Y-90046180D01*
X151927800Y-90046180D02*
X151832562Y-89903323D01*
X151832562Y-89903323D02*
X151737324Y-89808085D01*
X151737324Y-89808085D02*
X151642086Y-89760466D01*
X148060475Y-105474819D02*
X147965237Y-105474819D01*
X147965237Y-105474819D02*
X147869999Y-105522438D01*
X147869999Y-105522438D02*
X147822380Y-105570057D01*
X147822380Y-105570057D02*
X147774761Y-105665295D01*
X147774761Y-105665295D02*
X147727142Y-105855771D01*
X147727142Y-105855771D02*
X147727142Y-106093866D01*
X147727142Y-106093866D02*
X147774761Y-106284342D01*
X147774761Y-106284342D02*
X147822380Y-106379580D01*
X147822380Y-106379580D02*
X147869999Y-106427200D01*
X147869999Y-106427200D02*
X147965237Y-106474819D01*
X147965237Y-106474819D02*
X148060475Y-106474819D01*
X148060475Y-106474819D02*
X148155713Y-106427200D01*
X148155713Y-106427200D02*
X148203332Y-106379580D01*
X148203332Y-106379580D02*
X148250951Y-106284342D01*
X148250951Y-106284342D02*
X148298570Y-106093866D01*
X148298570Y-106093866D02*
X148298570Y-105855771D01*
X148298570Y-105855771D02*
X148250951Y-105665295D01*
X148250951Y-105665295D02*
X148203332Y-105570057D01*
X148203332Y-105570057D02*
X148155713Y-105522438D01*
X148155713Y-105522438D02*
X148060475Y-105474819D01*
X147298570Y-106379580D02*
X147250951Y-106427200D01*
X147250951Y-106427200D02*
X147298570Y-106474819D01*
X147298570Y-106474819D02*
X147346189Y-106427200D01*
X147346189Y-106427200D02*
X147298570Y-106379580D01*
X147298570Y-106379580D02*
X147298570Y-106474819D01*
X146393809Y-105808152D02*
X146393809Y-106474819D01*
X146631904Y-105427200D02*
X146869999Y-106141485D01*
X146869999Y-106141485D02*
X146250952Y-106141485D01*
X145965237Y-105474819D02*
X145298571Y-105474819D01*
X145298571Y-105474819D02*
X145727142Y-106474819D01*
X144489047Y-105808152D02*
X144489047Y-106474819D01*
X144917618Y-105808152D02*
X144917618Y-106331961D01*
X144917618Y-106331961D02*
X144869999Y-106427200D01*
X144869999Y-106427200D02*
X144774761Y-106474819D01*
X144774761Y-106474819D02*
X144631904Y-106474819D01*
X144631904Y-106474819D02*
X144536666Y-106427200D01*
X144536666Y-106427200D02*
X144489047Y-106379580D01*
D11*
X146530714Y-107839765D02*
X146542618Y-107851670D01*
X146542618Y-107851670D02*
X146578333Y-107863574D01*
X146578333Y-107863574D02*
X146602142Y-107863574D01*
X146602142Y-107863574D02*
X146637856Y-107851670D01*
X146637856Y-107851670D02*
X146661666Y-107827860D01*
X146661666Y-107827860D02*
X146673571Y-107804050D01*
X146673571Y-107804050D02*
X146685475Y-107756431D01*
X146685475Y-107756431D02*
X146685475Y-107720717D01*
X146685475Y-107720717D02*
X146673571Y-107673098D01*
X146673571Y-107673098D02*
X146661666Y-107649289D01*
X146661666Y-107649289D02*
X146637856Y-107625479D01*
X146637856Y-107625479D02*
X146602142Y-107613574D01*
X146602142Y-107613574D02*
X146578333Y-107613574D01*
X146578333Y-107613574D02*
X146542618Y-107625479D01*
X146542618Y-107625479D02*
X146530714Y-107637384D01*
X146292618Y-107863574D02*
X146435475Y-107863574D01*
X146364047Y-107863574D02*
X146364047Y-107613574D01*
X146364047Y-107613574D02*
X146387856Y-107649289D01*
X146387856Y-107649289D02*
X146411666Y-107673098D01*
X146411666Y-107673098D02*
X146435475Y-107685003D01*
X146209285Y-107613574D02*
X146054523Y-107613574D01*
X146054523Y-107613574D02*
X146137857Y-107708812D01*
X146137857Y-107708812D02*
X146102142Y-107708812D01*
X146102142Y-107708812D02*
X146078333Y-107720717D01*
X146078333Y-107720717D02*
X146066428Y-107732622D01*
X146066428Y-107732622D02*
X146054523Y-107756431D01*
X146054523Y-107756431D02*
X146054523Y-107815955D01*
X146054523Y-107815955D02*
X146066428Y-107839765D01*
X146066428Y-107839765D02*
X146078333Y-107851670D01*
X146078333Y-107851670D02*
X146102142Y-107863574D01*
X146102142Y-107863574D02*
X146173571Y-107863574D01*
X146173571Y-107863574D02*
X146197380Y-107851670D01*
X146197380Y-107851670D02*
X146209285Y-107839765D01*
D10*
X150582445Y-102579933D02*
X150630064Y-102627552D01*
X150630064Y-102627552D02*
X150725302Y-102675171D01*
X150725302Y-102675171D02*
X150915778Y-102579933D01*
X150915778Y-102579933D02*
X151011016Y-102627552D01*
X151011016Y-102627552D02*
X151058635Y-102675171D01*
X149606255Y-101698980D02*
X149606255Y-100889457D01*
X149606255Y-100889457D02*
X149653874Y-100794219D01*
X149653874Y-100794219D02*
X149701493Y-100746600D01*
X149701493Y-100746600D02*
X149796731Y-100698980D01*
X149796731Y-100698980D02*
X149987207Y-100698980D01*
X149987207Y-100698980D02*
X150082445Y-100746600D01*
X150082445Y-100746600D02*
X150130064Y-100794219D01*
X150130064Y-100794219D02*
X150177683Y-100889457D01*
X150177683Y-100889457D02*
X150177683Y-101698980D01*
X151177683Y-100698980D02*
X150606255Y-100698980D01*
X150891969Y-100698980D02*
X150891969Y-101698980D01*
X150891969Y-101698980D02*
X150796731Y-101556123D01*
X150796731Y-101556123D02*
X150701493Y-101460885D01*
X150701493Y-101460885D02*
X150606255Y-101413266D01*
X151558636Y-101603742D02*
X151606255Y-101651361D01*
X151606255Y-101651361D02*
X151701493Y-101698980D01*
X151701493Y-101698980D02*
X151939588Y-101698980D01*
X151939588Y-101698980D02*
X152034826Y-101651361D01*
X152034826Y-101651361D02*
X152082445Y-101603742D01*
X152082445Y-101603742D02*
X152130064Y-101508504D01*
X152130064Y-101508504D02*
X152130064Y-101413266D01*
X152130064Y-101413266D02*
X152082445Y-101270409D01*
X152082445Y-101270409D02*
X151511017Y-100698980D01*
X151511017Y-100698980D02*
X152130064Y-100698980D01*
X145420475Y-105854819D02*
X145325237Y-105854819D01*
X145325237Y-105854819D02*
X145229999Y-105902438D01*
X145229999Y-105902438D02*
X145182380Y-105950057D01*
X145182380Y-105950057D02*
X145134761Y-106045295D01*
X145134761Y-106045295D02*
X145087142Y-106235771D01*
X145087142Y-106235771D02*
X145087142Y-106473866D01*
X145087142Y-106473866D02*
X145134761Y-106664342D01*
X145134761Y-106664342D02*
X145182380Y-106759580D01*
X145182380Y-106759580D02*
X145229999Y-106807200D01*
X145229999Y-106807200D02*
X145325237Y-106854819D01*
X145325237Y-106854819D02*
X145420475Y-106854819D01*
X145420475Y-106854819D02*
X145515713Y-106807200D01*
X145515713Y-106807200D02*
X145563332Y-106759580D01*
X145563332Y-106759580D02*
X145610951Y-106664342D01*
X145610951Y-106664342D02*
X145658570Y-106473866D01*
X145658570Y-106473866D02*
X145658570Y-106235771D01*
X145658570Y-106235771D02*
X145610951Y-106045295D01*
X145610951Y-106045295D02*
X145563332Y-105950057D01*
X145563332Y-105950057D02*
X145515713Y-105902438D01*
X145515713Y-105902438D02*
X145420475Y-105854819D01*
X144658570Y-106759580D02*
X144610951Y-106807200D01*
X144610951Y-106807200D02*
X144658570Y-106854819D01*
X144658570Y-106854819D02*
X144706189Y-106807200D01*
X144706189Y-106807200D02*
X144658570Y-106759580D01*
X144658570Y-106759580D02*
X144658570Y-106854819D01*
X143753809Y-106188152D02*
X143753809Y-106854819D01*
X143991904Y-105807200D02*
X144229999Y-106521485D01*
X144229999Y-106521485D02*
X143610952Y-106521485D01*
X143325237Y-105854819D02*
X142658571Y-105854819D01*
X142658571Y-105854819D02*
X143087142Y-106854819D01*
X141849047Y-106188152D02*
X141849047Y-106854819D01*
X142277618Y-106188152D02*
X142277618Y-106711961D01*
X142277618Y-106711961D02*
X142229999Y-106807200D01*
X142229999Y-106807200D02*
X142134761Y-106854819D01*
X142134761Y-106854819D02*
X141991904Y-106854819D01*
X141991904Y-106854819D02*
X141896666Y-106807200D01*
X141896666Y-106807200D02*
X141849047Y-106759580D01*
D11*
X143771666Y-104759765D02*
X143783570Y-104771670D01*
X143783570Y-104771670D02*
X143819285Y-104783574D01*
X143819285Y-104783574D02*
X143843094Y-104783574D01*
X143843094Y-104783574D02*
X143878808Y-104771670D01*
X143878808Y-104771670D02*
X143902618Y-104747860D01*
X143902618Y-104747860D02*
X143914523Y-104724050D01*
X143914523Y-104724050D02*
X143926427Y-104676431D01*
X143926427Y-104676431D02*
X143926427Y-104640717D01*
X143926427Y-104640717D02*
X143914523Y-104593098D01*
X143914523Y-104593098D02*
X143902618Y-104569289D01*
X143902618Y-104569289D02*
X143878808Y-104545479D01*
X143878808Y-104545479D02*
X143843094Y-104533574D01*
X143843094Y-104533574D02*
X143819285Y-104533574D01*
X143819285Y-104533574D02*
X143783570Y-104545479D01*
X143783570Y-104545479D02*
X143771666Y-104557384D01*
X143688332Y-104533574D02*
X143521666Y-104533574D01*
X143521666Y-104533574D02*
X143628808Y-104783574D01*
D10*
X139967554Y-96380066D02*
X139919935Y-96332447D01*
X139919935Y-96332447D02*
X139824697Y-96284828D01*
X139824697Y-96284828D02*
X139634221Y-96380066D01*
X139634221Y-96380066D02*
X139538983Y-96332447D01*
X139538983Y-96332447D02*
X139491364Y-96284828D01*
X140467554Y-97261019D02*
X140467554Y-98070542D01*
X140467554Y-98070542D02*
X140419935Y-98165780D01*
X140419935Y-98165780D02*
X140372316Y-98213400D01*
X140372316Y-98213400D02*
X140277078Y-98261019D01*
X140277078Y-98261019D02*
X140086602Y-98261019D01*
X140086602Y-98261019D02*
X139991364Y-98213400D01*
X139991364Y-98213400D02*
X139943745Y-98165780D01*
X139943745Y-98165780D02*
X139896126Y-98070542D01*
X139896126Y-98070542D02*
X139896126Y-97261019D01*
X138991364Y-97261019D02*
X139181840Y-97261019D01*
X139181840Y-97261019D02*
X139277078Y-97308638D01*
X139277078Y-97308638D02*
X139324697Y-97356257D01*
X139324697Y-97356257D02*
X139419935Y-97499114D01*
X139419935Y-97499114D02*
X139467554Y-97689590D01*
X139467554Y-97689590D02*
X139467554Y-98070542D01*
X139467554Y-98070542D02*
X139419935Y-98165780D01*
X139419935Y-98165780D02*
X139372316Y-98213400D01*
X139372316Y-98213400D02*
X139277078Y-98261019D01*
X139277078Y-98261019D02*
X139086602Y-98261019D01*
X139086602Y-98261019D02*
X138991364Y-98213400D01*
X138991364Y-98213400D02*
X138943745Y-98165780D01*
X138943745Y-98165780D02*
X138896126Y-98070542D01*
X138896126Y-98070542D02*
X138896126Y-97832447D01*
X138896126Y-97832447D02*
X138943745Y-97737209D01*
X138943745Y-97737209D02*
X138991364Y-97689590D01*
X138991364Y-97689590D02*
X139086602Y-97641971D01*
X139086602Y-97641971D02*
X139277078Y-97641971D01*
X139277078Y-97641971D02*
X139372316Y-97689590D01*
X139372316Y-97689590D02*
X139419935Y-97737209D01*
X139419935Y-97737209D02*
X139467554Y-97832447D01*
X146174819Y-98580952D02*
X146174819Y-98009524D01*
X146174819Y-98295238D02*
X145174819Y-98295238D01*
X145174819Y-98295238D02*
X145317676Y-98200000D01*
X145317676Y-98200000D02*
X145412914Y-98104762D01*
X145412914Y-98104762D02*
X145460533Y-98009524D01*
X145174819Y-99200000D02*
X145174819Y-99295238D01*
X145174819Y-99295238D02*
X145222438Y-99390476D01*
X145222438Y-99390476D02*
X145270057Y-99438095D01*
X145270057Y-99438095D02*
X145365295Y-99485714D01*
X145365295Y-99485714D02*
X145555771Y-99533333D01*
X145555771Y-99533333D02*
X145793866Y-99533333D01*
X145793866Y-99533333D02*
X145984342Y-99485714D01*
X145984342Y-99485714D02*
X146079580Y-99438095D01*
X146079580Y-99438095D02*
X146127200Y-99390476D01*
X146127200Y-99390476D02*
X146174819Y-99295238D01*
X146174819Y-99295238D02*
X146174819Y-99200000D01*
X146174819Y-99200000D02*
X146127200Y-99104762D01*
X146127200Y-99104762D02*
X146079580Y-99057143D01*
X146079580Y-99057143D02*
X145984342Y-99009524D01*
X145984342Y-99009524D02*
X145793866Y-98961905D01*
X145793866Y-98961905D02*
X145555771Y-98961905D01*
X145555771Y-98961905D02*
X145365295Y-99009524D01*
X145365295Y-99009524D02*
X145270057Y-99057143D01*
X145270057Y-99057143D02*
X145222438Y-99104762D01*
X145222438Y-99104762D02*
X145174819Y-99200000D01*
X145174819Y-100152381D02*
X145174819Y-100247619D01*
X145174819Y-100247619D02*
X145222438Y-100342857D01*
X145222438Y-100342857D02*
X145270057Y-100390476D01*
X145270057Y-100390476D02*
X145365295Y-100438095D01*
X145365295Y-100438095D02*
X145555771Y-100485714D01*
X145555771Y-100485714D02*
X145793866Y-100485714D01*
X145793866Y-100485714D02*
X145984342Y-100438095D01*
X145984342Y-100438095D02*
X146079580Y-100390476D01*
X146079580Y-100390476D02*
X146127200Y-100342857D01*
X146127200Y-100342857D02*
X146174819Y-100247619D01*
X146174819Y-100247619D02*
X146174819Y-100152381D01*
X146174819Y-100152381D02*
X146127200Y-100057143D01*
X146127200Y-100057143D02*
X146079580Y-100009524D01*
X146079580Y-100009524D02*
X145984342Y-99961905D01*
X145984342Y-99961905D02*
X145793866Y-99914286D01*
X145793866Y-99914286D02*
X145555771Y-99914286D01*
X145555771Y-99914286D02*
X145365295Y-99961905D01*
X145365295Y-99961905D02*
X145270057Y-100009524D01*
X145270057Y-100009524D02*
X145222438Y-100057143D01*
X145222438Y-100057143D02*
X145174819Y-100152381D01*
X145508152Y-101342857D02*
X146174819Y-101342857D01*
X145508152Y-100914286D02*
X146031961Y-100914286D01*
X146031961Y-100914286D02*
X146127200Y-100961905D01*
X146127200Y-100961905D02*
X146174819Y-101057143D01*
X146174819Y-101057143D02*
X146174819Y-101200000D01*
X146174819Y-101200000D02*
X146127200Y-101295238D01*
X146127200Y-101295238D02*
X146079580Y-101342857D01*
D11*
X147539765Y-99539285D02*
X147551670Y-99527381D01*
X147551670Y-99527381D02*
X147563574Y-99491666D01*
X147563574Y-99491666D02*
X147563574Y-99467857D01*
X147563574Y-99467857D02*
X147551670Y-99432143D01*
X147551670Y-99432143D02*
X147527860Y-99408333D01*
X147527860Y-99408333D02*
X147504050Y-99396428D01*
X147504050Y-99396428D02*
X147456431Y-99384524D01*
X147456431Y-99384524D02*
X147420717Y-99384524D01*
X147420717Y-99384524D02*
X147373098Y-99396428D01*
X147373098Y-99396428D02*
X147349289Y-99408333D01*
X147349289Y-99408333D02*
X147325479Y-99432143D01*
X147325479Y-99432143D02*
X147313574Y-99467857D01*
X147313574Y-99467857D02*
X147313574Y-99491666D01*
X147313574Y-99491666D02*
X147325479Y-99527381D01*
X147325479Y-99527381D02*
X147337384Y-99539285D01*
X147337384Y-99634524D02*
X147325479Y-99646428D01*
X147325479Y-99646428D02*
X147313574Y-99670238D01*
X147313574Y-99670238D02*
X147313574Y-99729762D01*
X147313574Y-99729762D02*
X147325479Y-99753571D01*
X147325479Y-99753571D02*
X147337384Y-99765476D01*
X147337384Y-99765476D02*
X147361193Y-99777381D01*
X147361193Y-99777381D02*
X147385003Y-99777381D01*
X147385003Y-99777381D02*
X147420717Y-99765476D01*
X147420717Y-99765476D02*
X147563574Y-99622619D01*
X147563574Y-99622619D02*
X147563574Y-99777381D01*
X147313574Y-100003571D02*
X147313574Y-99884523D01*
X147313574Y-99884523D02*
X147432622Y-99872619D01*
X147432622Y-99872619D02*
X147420717Y-99884523D01*
X147420717Y-99884523D02*
X147408812Y-99908333D01*
X147408812Y-99908333D02*
X147408812Y-99967857D01*
X147408812Y-99967857D02*
X147420717Y-99991666D01*
X147420717Y-99991666D02*
X147432622Y-100003571D01*
X147432622Y-100003571D02*
X147456431Y-100015476D01*
X147456431Y-100015476D02*
X147515955Y-100015476D01*
X147515955Y-100015476D02*
X147539765Y-100003571D01*
X147539765Y-100003571D02*
X147551670Y-99991666D01*
X147551670Y-99991666D02*
X147563574Y-99967857D01*
X147563574Y-99967857D02*
X147563574Y-99908333D01*
X147563574Y-99908333D02*
X147551670Y-99884523D01*
X147551670Y-99884523D02*
X147539765Y-99872619D01*
D10*
X149720475Y-99994819D02*
X149625237Y-99994819D01*
X149625237Y-99994819D02*
X149529999Y-100042438D01*
X149529999Y-100042438D02*
X149482380Y-100090057D01*
X149482380Y-100090057D02*
X149434761Y-100185295D01*
X149434761Y-100185295D02*
X149387142Y-100375771D01*
X149387142Y-100375771D02*
X149387142Y-100613866D01*
X149387142Y-100613866D02*
X149434761Y-100804342D01*
X149434761Y-100804342D02*
X149482380Y-100899580D01*
X149482380Y-100899580D02*
X149529999Y-100947200D01*
X149529999Y-100947200D02*
X149625237Y-100994819D01*
X149625237Y-100994819D02*
X149720475Y-100994819D01*
X149720475Y-100994819D02*
X149815713Y-100947200D01*
X149815713Y-100947200D02*
X149863332Y-100899580D01*
X149863332Y-100899580D02*
X149910951Y-100804342D01*
X149910951Y-100804342D02*
X149958570Y-100613866D01*
X149958570Y-100613866D02*
X149958570Y-100375771D01*
X149958570Y-100375771D02*
X149910951Y-100185295D01*
X149910951Y-100185295D02*
X149863332Y-100090057D01*
X149863332Y-100090057D02*
X149815713Y-100042438D01*
X149815713Y-100042438D02*
X149720475Y-99994819D01*
X148958570Y-100899580D02*
X148910951Y-100947200D01*
X148910951Y-100947200D02*
X148958570Y-100994819D01*
X148958570Y-100994819D02*
X149006189Y-100947200D01*
X149006189Y-100947200D02*
X148958570Y-100899580D01*
X148958570Y-100899580D02*
X148958570Y-100994819D01*
X148053809Y-100328152D02*
X148053809Y-100994819D01*
X148291904Y-99947200D02*
X148529999Y-100661485D01*
X148529999Y-100661485D02*
X147910952Y-100661485D01*
X147625237Y-99994819D02*
X146958571Y-99994819D01*
X146958571Y-99994819D02*
X147387142Y-100994819D01*
X146149047Y-100328152D02*
X146149047Y-100994819D01*
X146577618Y-100328152D02*
X146577618Y-100851961D01*
X146577618Y-100851961D02*
X146529999Y-100947200D01*
X146529999Y-100947200D02*
X146434761Y-100994819D01*
X146434761Y-100994819D02*
X146291904Y-100994819D01*
X146291904Y-100994819D02*
X146196666Y-100947200D01*
X146196666Y-100947200D02*
X146149047Y-100899580D01*
D11*
X148190714Y-102359765D02*
X148202618Y-102371670D01*
X148202618Y-102371670D02*
X148238333Y-102383574D01*
X148238333Y-102383574D02*
X148262142Y-102383574D01*
X148262142Y-102383574D02*
X148297856Y-102371670D01*
X148297856Y-102371670D02*
X148321666Y-102347860D01*
X148321666Y-102347860D02*
X148333571Y-102324050D01*
X148333571Y-102324050D02*
X148345475Y-102276431D01*
X148345475Y-102276431D02*
X148345475Y-102240717D01*
X148345475Y-102240717D02*
X148333571Y-102193098D01*
X148333571Y-102193098D02*
X148321666Y-102169289D01*
X148321666Y-102169289D02*
X148297856Y-102145479D01*
X148297856Y-102145479D02*
X148262142Y-102133574D01*
X148262142Y-102133574D02*
X148238333Y-102133574D01*
X148238333Y-102133574D02*
X148202618Y-102145479D01*
X148202618Y-102145479D02*
X148190714Y-102157384D01*
X148095475Y-102157384D02*
X148083571Y-102145479D01*
X148083571Y-102145479D02*
X148059761Y-102133574D01*
X148059761Y-102133574D02*
X148000237Y-102133574D01*
X148000237Y-102133574D02*
X147976428Y-102145479D01*
X147976428Y-102145479D02*
X147964523Y-102157384D01*
X147964523Y-102157384D02*
X147952618Y-102181193D01*
X147952618Y-102181193D02*
X147952618Y-102205003D01*
X147952618Y-102205003D02*
X147964523Y-102240717D01*
X147964523Y-102240717D02*
X148107380Y-102383574D01*
X148107380Y-102383574D02*
X147952618Y-102383574D01*
X147797857Y-102133574D02*
X147774047Y-102133574D01*
X147774047Y-102133574D02*
X147750238Y-102145479D01*
X147750238Y-102145479D02*
X147738333Y-102157384D01*
X147738333Y-102157384D02*
X147726428Y-102181193D01*
X147726428Y-102181193D02*
X147714523Y-102228812D01*
X147714523Y-102228812D02*
X147714523Y-102288336D01*
X147714523Y-102288336D02*
X147726428Y-102335955D01*
X147726428Y-102335955D02*
X147738333Y-102359765D01*
X147738333Y-102359765D02*
X147750238Y-102371670D01*
X147750238Y-102371670D02*
X147774047Y-102383574D01*
X147774047Y-102383574D02*
X147797857Y-102383574D01*
X147797857Y-102383574D02*
X147821666Y-102371670D01*
X147821666Y-102371670D02*
X147833571Y-102359765D01*
X147833571Y-102359765D02*
X147845476Y-102335955D01*
X147845476Y-102335955D02*
X147857380Y-102288336D01*
X147857380Y-102288336D02*
X147857380Y-102228812D01*
X147857380Y-102228812D02*
X147845476Y-102181193D01*
X147845476Y-102181193D02*
X147833571Y-102157384D01*
X147833571Y-102157384D02*
X147821666Y-102145479D01*
X147821666Y-102145479D02*
X147797857Y-102133574D01*
D10*
X142434819Y-96280952D02*
X142434819Y-95709524D01*
X142434819Y-95995238D02*
X141434819Y-95995238D01*
X141434819Y-95995238D02*
X141577676Y-95900000D01*
X141577676Y-95900000D02*
X141672914Y-95804762D01*
X141672914Y-95804762D02*
X141720533Y-95709524D01*
X141434819Y-96900000D02*
X141434819Y-96995238D01*
X141434819Y-96995238D02*
X141482438Y-97090476D01*
X141482438Y-97090476D02*
X141530057Y-97138095D01*
X141530057Y-97138095D02*
X141625295Y-97185714D01*
X141625295Y-97185714D02*
X141815771Y-97233333D01*
X141815771Y-97233333D02*
X142053866Y-97233333D01*
X142053866Y-97233333D02*
X142244342Y-97185714D01*
X142244342Y-97185714D02*
X142339580Y-97138095D01*
X142339580Y-97138095D02*
X142387200Y-97090476D01*
X142387200Y-97090476D02*
X142434819Y-96995238D01*
X142434819Y-96995238D02*
X142434819Y-96900000D01*
X142434819Y-96900000D02*
X142387200Y-96804762D01*
X142387200Y-96804762D02*
X142339580Y-96757143D01*
X142339580Y-96757143D02*
X142244342Y-96709524D01*
X142244342Y-96709524D02*
X142053866Y-96661905D01*
X142053866Y-96661905D02*
X141815771Y-96661905D01*
X141815771Y-96661905D02*
X141625295Y-96709524D01*
X141625295Y-96709524D02*
X141530057Y-96757143D01*
X141530057Y-96757143D02*
X141482438Y-96804762D01*
X141482438Y-96804762D02*
X141434819Y-96900000D01*
X141434819Y-97852381D02*
X141434819Y-97947619D01*
X141434819Y-97947619D02*
X141482438Y-98042857D01*
X141482438Y-98042857D02*
X141530057Y-98090476D01*
X141530057Y-98090476D02*
X141625295Y-98138095D01*
X141625295Y-98138095D02*
X141815771Y-98185714D01*
X141815771Y-98185714D02*
X142053866Y-98185714D01*
X142053866Y-98185714D02*
X142244342Y-98138095D01*
X142244342Y-98138095D02*
X142339580Y-98090476D01*
X142339580Y-98090476D02*
X142387200Y-98042857D01*
X142387200Y-98042857D02*
X142434819Y-97947619D01*
X142434819Y-97947619D02*
X142434819Y-97852381D01*
X142434819Y-97852381D02*
X142387200Y-97757143D01*
X142387200Y-97757143D02*
X142339580Y-97709524D01*
X142339580Y-97709524D02*
X142244342Y-97661905D01*
X142244342Y-97661905D02*
X142053866Y-97614286D01*
X142053866Y-97614286D02*
X141815771Y-97614286D01*
X141815771Y-97614286D02*
X141625295Y-97661905D01*
X141625295Y-97661905D02*
X141530057Y-97709524D01*
X141530057Y-97709524D02*
X141482438Y-97757143D01*
X141482438Y-97757143D02*
X141434819Y-97852381D01*
X141768152Y-99042857D02*
X142434819Y-99042857D01*
X141768152Y-98614286D02*
X142291961Y-98614286D01*
X142291961Y-98614286D02*
X142387200Y-98661905D01*
X142387200Y-98661905D02*
X142434819Y-98757143D01*
X142434819Y-98757143D02*
X142434819Y-98900000D01*
X142434819Y-98900000D02*
X142387200Y-98995238D01*
X142387200Y-98995238D02*
X142339580Y-99042857D01*
D11*
X140339765Y-97239285D02*
X140351670Y-97227381D01*
X140351670Y-97227381D02*
X140363574Y-97191666D01*
X140363574Y-97191666D02*
X140363574Y-97167857D01*
X140363574Y-97167857D02*
X140351670Y-97132143D01*
X140351670Y-97132143D02*
X140327860Y-97108333D01*
X140327860Y-97108333D02*
X140304050Y-97096428D01*
X140304050Y-97096428D02*
X140256431Y-97084524D01*
X140256431Y-97084524D02*
X140220717Y-97084524D01*
X140220717Y-97084524D02*
X140173098Y-97096428D01*
X140173098Y-97096428D02*
X140149289Y-97108333D01*
X140149289Y-97108333D02*
X140125479Y-97132143D01*
X140125479Y-97132143D02*
X140113574Y-97167857D01*
X140113574Y-97167857D02*
X140113574Y-97191666D01*
X140113574Y-97191666D02*
X140125479Y-97227381D01*
X140125479Y-97227381D02*
X140137384Y-97239285D01*
X140363574Y-97477381D02*
X140363574Y-97334524D01*
X140363574Y-97405952D02*
X140113574Y-97405952D01*
X140113574Y-97405952D02*
X140149289Y-97382143D01*
X140149289Y-97382143D02*
X140173098Y-97358333D01*
X140173098Y-97358333D02*
X140185003Y-97334524D01*
X140196908Y-97691666D02*
X140363574Y-97691666D01*
X140101670Y-97632142D02*
X140280241Y-97572619D01*
X140280241Y-97572619D02*
X140280241Y-97727380D01*
D10*
X140361104Y-106332666D02*
X140313485Y-106285047D01*
X140313485Y-106285047D02*
X140218247Y-106237428D01*
X140218247Y-106237428D02*
X140027771Y-106332666D01*
X140027771Y-106332666D02*
X139932533Y-106285047D01*
X139932533Y-106285047D02*
X139884914Y-106237428D01*
X140861104Y-107213619D02*
X140861104Y-108023142D01*
X140861104Y-108023142D02*
X140813485Y-108118380D01*
X140813485Y-108118380D02*
X140765866Y-108166000D01*
X140765866Y-108166000D02*
X140670628Y-108213619D01*
X140670628Y-108213619D02*
X140480152Y-108213619D01*
X140480152Y-108213619D02*
X140384914Y-108166000D01*
X140384914Y-108166000D02*
X140337295Y-108118380D01*
X140337295Y-108118380D02*
X140289676Y-108023142D01*
X140289676Y-108023142D02*
X140289676Y-107213619D01*
X139908723Y-107213619D02*
X139242057Y-107213619D01*
X139242057Y-107213619D02*
X139670628Y-108213619D01*
X147184819Y-103309524D02*
X147184819Y-103404762D01*
X147184819Y-103404762D02*
X147232438Y-103500000D01*
X147232438Y-103500000D02*
X147280057Y-103547619D01*
X147280057Y-103547619D02*
X147375295Y-103595238D01*
X147375295Y-103595238D02*
X147565771Y-103642857D01*
X147565771Y-103642857D02*
X147803866Y-103642857D01*
X147803866Y-103642857D02*
X147994342Y-103595238D01*
X147994342Y-103595238D02*
X148089580Y-103547619D01*
X148089580Y-103547619D02*
X148137200Y-103500000D01*
X148137200Y-103500000D02*
X148184819Y-103404762D01*
X148184819Y-103404762D02*
X148184819Y-103309524D01*
X148184819Y-103309524D02*
X148137200Y-103214286D01*
X148137200Y-103214286D02*
X148089580Y-103166667D01*
X148089580Y-103166667D02*
X147994342Y-103119048D01*
X147994342Y-103119048D02*
X147803866Y-103071429D01*
X147803866Y-103071429D02*
X147565771Y-103071429D01*
X147565771Y-103071429D02*
X147375295Y-103119048D01*
X147375295Y-103119048D02*
X147280057Y-103166667D01*
X147280057Y-103166667D02*
X147232438Y-103214286D01*
X147232438Y-103214286D02*
X147184819Y-103309524D01*
X148089580Y-104071429D02*
X148137200Y-104119048D01*
X148137200Y-104119048D02*
X148184819Y-104071429D01*
X148184819Y-104071429D02*
X148137200Y-104023810D01*
X148137200Y-104023810D02*
X148089580Y-104071429D01*
X148089580Y-104071429D02*
X148184819Y-104071429D01*
X147518152Y-104976190D02*
X148184819Y-104976190D01*
X147137200Y-104738095D02*
X147851485Y-104500000D01*
X147851485Y-104500000D02*
X147851485Y-105119047D01*
X147184819Y-105404762D02*
X147184819Y-106071428D01*
X147184819Y-106071428D02*
X148184819Y-105642857D01*
X147518152Y-106880952D02*
X148184819Y-106880952D01*
X147518152Y-106452381D02*
X148041961Y-106452381D01*
X148041961Y-106452381D02*
X148137200Y-106500000D01*
X148137200Y-106500000D02*
X148184819Y-106595238D01*
X148184819Y-106595238D02*
X148184819Y-106738095D01*
X148184819Y-106738095D02*
X148137200Y-106833333D01*
X148137200Y-106833333D02*
X148089580Y-106880952D01*
D11*
X146089765Y-104839285D02*
X146101670Y-104827381D01*
X146101670Y-104827381D02*
X146113574Y-104791666D01*
X146113574Y-104791666D02*
X146113574Y-104767857D01*
X146113574Y-104767857D02*
X146101670Y-104732143D01*
X146101670Y-104732143D02*
X146077860Y-104708333D01*
X146077860Y-104708333D02*
X146054050Y-104696428D01*
X146054050Y-104696428D02*
X146006431Y-104684524D01*
X146006431Y-104684524D02*
X145970717Y-104684524D01*
X145970717Y-104684524D02*
X145923098Y-104696428D01*
X145923098Y-104696428D02*
X145899289Y-104708333D01*
X145899289Y-104708333D02*
X145875479Y-104732143D01*
X145875479Y-104732143D02*
X145863574Y-104767857D01*
X145863574Y-104767857D02*
X145863574Y-104791666D01*
X145863574Y-104791666D02*
X145875479Y-104827381D01*
X145875479Y-104827381D02*
X145887384Y-104839285D01*
X145863574Y-104922619D02*
X145863574Y-105077381D01*
X145863574Y-105077381D02*
X145958812Y-104994047D01*
X145958812Y-104994047D02*
X145958812Y-105029762D01*
X145958812Y-105029762D02*
X145970717Y-105053571D01*
X145970717Y-105053571D02*
X145982622Y-105065476D01*
X145982622Y-105065476D02*
X146006431Y-105077381D01*
X146006431Y-105077381D02*
X146065955Y-105077381D01*
X146065955Y-105077381D02*
X146089765Y-105065476D01*
X146089765Y-105065476D02*
X146101670Y-105053571D01*
X146101670Y-105053571D02*
X146113574Y-105029762D01*
X146113574Y-105029762D02*
X146113574Y-104958333D01*
X146113574Y-104958333D02*
X146101670Y-104934524D01*
X146101670Y-104934524D02*
X146089765Y-104922619D01*
X145946908Y-105291666D02*
X146113574Y-105291666D01*
X145851670Y-105232142D02*
X146030241Y-105172619D01*
X146030241Y-105172619D02*
X146030241Y-105327380D01*
D10*
X150666189Y-94249819D02*
X150666189Y-93249819D01*
X150666189Y-93249819D02*
X150332856Y-93964104D01*
X150332856Y-93964104D02*
X149999523Y-93249819D01*
X149999523Y-93249819D02*
X149999523Y-94249819D01*
X149475713Y-94249819D02*
X149285237Y-94249819D01*
X149285237Y-94249819D02*
X149189999Y-94202200D01*
X149189999Y-94202200D02*
X149142380Y-94154580D01*
X149142380Y-94154580D02*
X149047142Y-94011723D01*
X149047142Y-94011723D02*
X148999523Y-93821247D01*
X148999523Y-93821247D02*
X148999523Y-93440295D01*
X148999523Y-93440295D02*
X149047142Y-93345057D01*
X149047142Y-93345057D02*
X149094761Y-93297438D01*
X149094761Y-93297438D02*
X149189999Y-93249819D01*
X149189999Y-93249819D02*
X149380475Y-93249819D01*
X149380475Y-93249819D02*
X149475713Y-93297438D01*
X149475713Y-93297438D02*
X149523332Y-93345057D01*
X149523332Y-93345057D02*
X149570951Y-93440295D01*
X149570951Y-93440295D02*
X149570951Y-93678390D01*
X149570951Y-93678390D02*
X149523332Y-93773628D01*
X149523332Y-93773628D02*
X149475713Y-93821247D01*
X149475713Y-93821247D02*
X149380475Y-93868866D01*
X149380475Y-93868866D02*
X149189999Y-93868866D01*
X149189999Y-93868866D02*
X149094761Y-93821247D01*
X149094761Y-93821247D02*
X149047142Y-93773628D01*
X149047142Y-93773628D02*
X148999523Y-93678390D01*
X148094761Y-93249819D02*
X148570951Y-93249819D01*
X148570951Y-93249819D02*
X148618570Y-93726009D01*
X148618570Y-93726009D02*
X148570951Y-93678390D01*
X148570951Y-93678390D02*
X148475713Y-93630771D01*
X148475713Y-93630771D02*
X148237618Y-93630771D01*
X148237618Y-93630771D02*
X148142380Y-93678390D01*
X148142380Y-93678390D02*
X148094761Y-93726009D01*
X148094761Y-93726009D02*
X148047142Y-93821247D01*
X148047142Y-93821247D02*
X148047142Y-94059342D01*
X148047142Y-94059342D02*
X148094761Y-94154580D01*
X148094761Y-94154580D02*
X148142380Y-94202200D01*
X148142380Y-94202200D02*
X148237618Y-94249819D01*
X148237618Y-94249819D02*
X148475713Y-94249819D01*
X148475713Y-94249819D02*
X148570951Y-94202200D01*
X148570951Y-94202200D02*
X148618570Y-94154580D01*
X147666189Y-93345057D02*
X147618570Y-93297438D01*
X147618570Y-93297438D02*
X147523332Y-93249819D01*
X147523332Y-93249819D02*
X147285237Y-93249819D01*
X147285237Y-93249819D02*
X147189999Y-93297438D01*
X147189999Y-93297438D02*
X147142380Y-93345057D01*
X147142380Y-93345057D02*
X147094761Y-93440295D01*
X147094761Y-93440295D02*
X147094761Y-93535533D01*
X147094761Y-93535533D02*
X147142380Y-93678390D01*
X147142380Y-93678390D02*
X147713808Y-94249819D01*
X147713808Y-94249819D02*
X147094761Y-94249819D01*
X146189999Y-93249819D02*
X146666189Y-93249819D01*
X146666189Y-93249819D02*
X146713808Y-93726009D01*
X146713808Y-93726009D02*
X146666189Y-93678390D01*
X146666189Y-93678390D02*
X146570951Y-93630771D01*
X146570951Y-93630771D02*
X146332856Y-93630771D01*
X146332856Y-93630771D02*
X146237618Y-93678390D01*
X146237618Y-93678390D02*
X146189999Y-93726009D01*
X146189999Y-93726009D02*
X146142380Y-93821247D01*
X146142380Y-93821247D02*
X146142380Y-94059342D01*
X146142380Y-94059342D02*
X146189999Y-94154580D01*
X146189999Y-94154580D02*
X146237618Y-94202200D01*
X146237618Y-94202200D02*
X146332856Y-94249819D01*
X146332856Y-94249819D02*
X146570951Y-94249819D01*
X146570951Y-94249819D02*
X146666189Y-94202200D01*
X146666189Y-94202200D02*
X146713808Y-94154580D01*
X145285237Y-93249819D02*
X145475713Y-93249819D01*
X145475713Y-93249819D02*
X145570951Y-93297438D01*
X145570951Y-93297438D02*
X145618570Y-93345057D01*
X145618570Y-93345057D02*
X145713808Y-93487914D01*
X145713808Y-93487914D02*
X145761427Y-93678390D01*
X145761427Y-93678390D02*
X145761427Y-94059342D01*
X145761427Y-94059342D02*
X145713808Y-94154580D01*
X145713808Y-94154580D02*
X145666189Y-94202200D01*
X145666189Y-94202200D02*
X145570951Y-94249819D01*
X145570951Y-94249819D02*
X145380475Y-94249819D01*
X145380475Y-94249819D02*
X145285237Y-94202200D01*
X145285237Y-94202200D02*
X145237618Y-94154580D01*
X145237618Y-94154580D02*
X145189999Y-94059342D01*
X145189999Y-94059342D02*
X145189999Y-93821247D01*
X145189999Y-93821247D02*
X145237618Y-93726009D01*
X145237618Y-93726009D02*
X145285237Y-93678390D01*
X145285237Y-93678390D02*
X145380475Y-93630771D01*
X145380475Y-93630771D02*
X145570951Y-93630771D01*
X145570951Y-93630771D02*
X145666189Y-93678390D01*
X145666189Y-93678390D02*
X145713808Y-93726009D01*
X145713808Y-93726009D02*
X145761427Y-93821247D01*
X144761427Y-93868866D02*
X143999523Y-93868866D01*
X143618570Y-93249819D02*
X143380475Y-94249819D01*
X143380475Y-94249819D02*
X143189999Y-93535533D01*
X143189999Y-93535533D02*
X142999523Y-94249819D01*
X142999523Y-94249819D02*
X142761428Y-93249819D01*
X142380475Y-94249819D02*
X142380475Y-93249819D01*
X142380475Y-93249819D02*
X142047142Y-93964104D01*
X142047142Y-93964104D02*
X141713809Y-93249819D01*
X141713809Y-93249819D02*
X141713809Y-94249819D01*
X141237618Y-94249819D02*
X141237618Y-93249819D01*
X141237618Y-93249819D02*
X140666190Y-94249819D01*
X140666190Y-94249819D02*
X140666190Y-93249819D01*
X139761428Y-93249819D02*
X139951904Y-93249819D01*
X139951904Y-93249819D02*
X140047142Y-93297438D01*
X140047142Y-93297438D02*
X140094761Y-93345057D01*
X140094761Y-93345057D02*
X140189999Y-93487914D01*
X140189999Y-93487914D02*
X140237618Y-93678390D01*
X140237618Y-93678390D02*
X140237618Y-94059342D01*
X140237618Y-94059342D02*
X140189999Y-94154580D01*
X140189999Y-94154580D02*
X140142380Y-94202200D01*
X140142380Y-94202200D02*
X140047142Y-94249819D01*
X140047142Y-94249819D02*
X139856666Y-94249819D01*
X139856666Y-94249819D02*
X139761428Y-94202200D01*
X139761428Y-94202200D02*
X139713809Y-94154580D01*
X139713809Y-94154580D02*
X139666190Y-94059342D01*
X139666190Y-94059342D02*
X139666190Y-93821247D01*
X139666190Y-93821247D02*
X139713809Y-93726009D01*
X139713809Y-93726009D02*
X139761428Y-93678390D01*
X139761428Y-93678390D02*
X139856666Y-93630771D01*
X139856666Y-93630771D02*
X140047142Y-93630771D01*
X140047142Y-93630771D02*
X140142380Y-93678390D01*
X140142380Y-93678390D02*
X140189999Y-93726009D01*
X140189999Y-93726009D02*
X140237618Y-93821247D01*
X139237618Y-94249819D02*
X139237618Y-93249819D01*
X139237618Y-93249819D02*
X138856666Y-93249819D01*
X138856666Y-93249819D02*
X138761428Y-93297438D01*
X138761428Y-93297438D02*
X138713809Y-93345057D01*
X138713809Y-93345057D02*
X138666190Y-93440295D01*
X138666190Y-93440295D02*
X138666190Y-93583152D01*
X138666190Y-93583152D02*
X138713809Y-93678390D01*
X138713809Y-93678390D02*
X138761428Y-93726009D01*
X138761428Y-93726009D02*
X138856666Y-93773628D01*
X138856666Y-93773628D02*
X139237618Y-93773628D01*
X145436666Y-89860566D02*
X145436666Y-90653900D01*
X145436666Y-90653900D02*
X145390000Y-90747233D01*
X145390000Y-90747233D02*
X145343333Y-90793900D01*
X145343333Y-90793900D02*
X145250000Y-90840566D01*
X145250000Y-90840566D02*
X145063333Y-90840566D01*
X145063333Y-90840566D02*
X144970000Y-90793900D01*
X144970000Y-90793900D02*
X144923333Y-90747233D01*
X144923333Y-90747233D02*
X144876666Y-90653900D01*
X144876666Y-90653900D02*
X144876666Y-89860566D01*
X143989999Y-90187233D02*
X143989999Y-90840566D01*
X144223333Y-89813900D02*
X144456666Y-90513900D01*
X144456666Y-90513900D02*
X143849999Y-90513900D01*
X139104819Y-105334761D02*
X139104819Y-104763333D01*
X139104819Y-105049047D02*
X138104819Y-105049047D01*
X138104819Y-105049047D02*
X138247676Y-104953809D01*
X138247676Y-104953809D02*
X138342914Y-104858571D01*
X138342914Y-104858571D02*
X138390533Y-104763333D01*
X138104819Y-105953809D02*
X138104819Y-106049047D01*
X138104819Y-106049047D02*
X138152438Y-106144285D01*
X138152438Y-106144285D02*
X138200057Y-106191904D01*
X138200057Y-106191904D02*
X138295295Y-106239523D01*
X138295295Y-106239523D02*
X138485771Y-106287142D01*
X138485771Y-106287142D02*
X138723866Y-106287142D01*
X138723866Y-106287142D02*
X138914342Y-106239523D01*
X138914342Y-106239523D02*
X139009580Y-106191904D01*
X139009580Y-106191904D02*
X139057200Y-106144285D01*
X139057200Y-106144285D02*
X139104819Y-106049047D01*
X139104819Y-106049047D02*
X139104819Y-105953809D01*
X139104819Y-105953809D02*
X139057200Y-105858571D01*
X139057200Y-105858571D02*
X139009580Y-105810952D01*
X139009580Y-105810952D02*
X138914342Y-105763333D01*
X138914342Y-105763333D02*
X138723866Y-105715714D01*
X138723866Y-105715714D02*
X138485771Y-105715714D01*
X138485771Y-105715714D02*
X138295295Y-105763333D01*
X138295295Y-105763333D02*
X138200057Y-105810952D01*
X138200057Y-105810952D02*
X138152438Y-105858571D01*
X138152438Y-105858571D02*
X138104819Y-105953809D01*
X139104819Y-106715714D02*
X138104819Y-106715714D01*
X138723866Y-106810952D02*
X139104819Y-107096666D01*
X138438152Y-107096666D02*
X138819104Y-106715714D01*
D11*
X140493574Y-105888333D02*
X140374527Y-105805000D01*
X140493574Y-105745476D02*
X140243574Y-105745476D01*
X140243574Y-105745476D02*
X140243574Y-105840714D01*
X140243574Y-105840714D02*
X140255479Y-105864524D01*
X140255479Y-105864524D02*
X140267384Y-105876429D01*
X140267384Y-105876429D02*
X140291193Y-105888333D01*
X140291193Y-105888333D02*
X140326908Y-105888333D01*
X140326908Y-105888333D02*
X140350717Y-105876429D01*
X140350717Y-105876429D02*
X140362622Y-105864524D01*
X140362622Y-105864524D02*
X140374527Y-105840714D01*
X140374527Y-105840714D02*
X140374527Y-105745476D01*
X140243574Y-106102619D02*
X140243574Y-106055000D01*
X140243574Y-106055000D02*
X140255479Y-106031191D01*
X140255479Y-106031191D02*
X140267384Y-106019286D01*
X140267384Y-106019286D02*
X140303098Y-105995476D01*
X140303098Y-105995476D02*
X140350717Y-105983572D01*
X140350717Y-105983572D02*
X140445955Y-105983572D01*
X140445955Y-105983572D02*
X140469765Y-105995476D01*
X140469765Y-105995476D02*
X140481670Y-106007381D01*
X140481670Y-106007381D02*
X140493574Y-106031191D01*
X140493574Y-106031191D02*
X140493574Y-106078810D01*
X140493574Y-106078810D02*
X140481670Y-106102619D01*
X140481670Y-106102619D02*
X140469765Y-106114524D01*
X140469765Y-106114524D02*
X140445955Y-106126429D01*
X140445955Y-106126429D02*
X140386431Y-106126429D01*
X140386431Y-106126429D02*
X140362622Y-106114524D01*
X140362622Y-106114524D02*
X140350717Y-106102619D01*
X140350717Y-106102619D02*
X140338812Y-106078810D01*
X140338812Y-106078810D02*
X140338812Y-106031191D01*
X140338812Y-106031191D02*
X140350717Y-106007381D01*
X140350717Y-106007381D02*
X140362622Y-105995476D01*
X140362622Y-105995476D02*
X140386431Y-105983572D01*
D10*
X150732445Y-110849933D02*
X150780064Y-110897552D01*
X150780064Y-110897552D02*
X150875302Y-110945171D01*
X150875302Y-110945171D02*
X151065778Y-110849933D01*
X151065778Y-110849933D02*
X151161016Y-110897552D01*
X151161016Y-110897552D02*
X151208635Y-110945171D01*
X149756255Y-109968980D02*
X149756255Y-109159457D01*
X149756255Y-109159457D02*
X149803874Y-109064219D01*
X149803874Y-109064219D02*
X149851493Y-109016600D01*
X149851493Y-109016600D02*
X149946731Y-108968980D01*
X149946731Y-108968980D02*
X150137207Y-108968980D01*
X150137207Y-108968980D02*
X150232445Y-109016600D01*
X150232445Y-109016600D02*
X150280064Y-109064219D01*
X150280064Y-109064219D02*
X150327683Y-109159457D01*
X150327683Y-109159457D02*
X150327683Y-109968980D01*
X151327683Y-108968980D02*
X150756255Y-108968980D01*
X151041969Y-108968980D02*
X151041969Y-109968980D01*
X151041969Y-109968980D02*
X150946731Y-109826123D01*
X150946731Y-109826123D02*
X150851493Y-109730885D01*
X150851493Y-109730885D02*
X150756255Y-109683266D01*
X151661017Y-109968980D02*
X152280064Y-109968980D01*
X152280064Y-109968980D02*
X151946731Y-109588028D01*
X151946731Y-109588028D02*
X152089588Y-109588028D01*
X152089588Y-109588028D02*
X152184826Y-109540409D01*
X152184826Y-109540409D02*
X152232445Y-109492790D01*
X152232445Y-109492790D02*
X152280064Y-109397552D01*
X152280064Y-109397552D02*
X152280064Y-109159457D01*
X152280064Y-109159457D02*
X152232445Y-109064219D01*
X152232445Y-109064219D02*
X152184826Y-109016600D01*
X152184826Y-109016600D02*
X152089588Y-108968980D01*
X152089588Y-108968980D02*
X151803874Y-108968980D01*
X151803874Y-108968980D02*
X151708636Y-109016600D01*
X151708636Y-109016600D02*
X151661017Y-109064219D01*
X140117554Y-126920066D02*
X140069935Y-126872447D01*
X140069935Y-126872447D02*
X139974697Y-126824828D01*
X139974697Y-126824828D02*
X139784221Y-126920066D01*
X139784221Y-126920066D02*
X139688983Y-126872447D01*
X139688983Y-126872447D02*
X139641364Y-126824828D01*
X140617554Y-127801019D02*
X140617554Y-128610542D01*
X140617554Y-128610542D02*
X140569935Y-128705780D01*
X140569935Y-128705780D02*
X140522316Y-128753400D01*
X140522316Y-128753400D02*
X140427078Y-128801019D01*
X140427078Y-128801019D02*
X140236602Y-128801019D01*
X140236602Y-128801019D02*
X140141364Y-128753400D01*
X140141364Y-128753400D02*
X140093745Y-128705780D01*
X140093745Y-128705780D02*
X140046126Y-128610542D01*
X140046126Y-128610542D02*
X140046126Y-127801019D01*
X139522316Y-128801019D02*
X139331840Y-128801019D01*
X139331840Y-128801019D02*
X139236602Y-128753400D01*
X139236602Y-128753400D02*
X139188983Y-128705780D01*
X139188983Y-128705780D02*
X139093745Y-128562923D01*
X139093745Y-128562923D02*
X139046126Y-128372447D01*
X139046126Y-128372447D02*
X139046126Y-127991495D01*
X139046126Y-127991495D02*
X139093745Y-127896257D01*
X139093745Y-127896257D02*
X139141364Y-127848638D01*
X139141364Y-127848638D02*
X139236602Y-127801019D01*
X139236602Y-127801019D02*
X139427078Y-127801019D01*
X139427078Y-127801019D02*
X139522316Y-127848638D01*
X139522316Y-127848638D02*
X139569935Y-127896257D01*
X139569935Y-127896257D02*
X139617554Y-127991495D01*
X139617554Y-127991495D02*
X139617554Y-128229590D01*
X139617554Y-128229590D02*
X139569935Y-128324828D01*
X139569935Y-128324828D02*
X139522316Y-128372447D01*
X139522316Y-128372447D02*
X139427078Y-128420066D01*
X139427078Y-128420066D02*
X139236602Y-128420066D01*
X139236602Y-128420066D02*
X139141364Y-128372447D01*
X139141364Y-128372447D02*
X139093745Y-128324828D01*
X139093745Y-128324828D02*
X139046126Y-128229590D01*
X150342445Y-79839933D02*
X150390064Y-79887552D01*
X150390064Y-79887552D02*
X150485302Y-79935171D01*
X150485302Y-79935171D02*
X150675778Y-79839933D01*
X150675778Y-79839933D02*
X150771016Y-79887552D01*
X150771016Y-79887552D02*
X150818635Y-79935171D01*
X149366255Y-78958980D02*
X149366255Y-78149457D01*
X149366255Y-78149457D02*
X149413874Y-78054219D01*
X149413874Y-78054219D02*
X149461493Y-78006600D01*
X149461493Y-78006600D02*
X149556731Y-77958980D01*
X149556731Y-77958980D02*
X149747207Y-77958980D01*
X149747207Y-77958980D02*
X149842445Y-78006600D01*
X149842445Y-78006600D02*
X149890064Y-78054219D01*
X149890064Y-78054219D02*
X149937683Y-78149457D01*
X149937683Y-78149457D02*
X149937683Y-78958980D01*
X150937683Y-77958980D02*
X150366255Y-77958980D01*
X150651969Y-77958980D02*
X150651969Y-78958980D01*
X150651969Y-78958980D02*
X150556731Y-78816123D01*
X150556731Y-78816123D02*
X150461493Y-78720885D01*
X150461493Y-78720885D02*
X150366255Y-78673266D01*
X151556731Y-78958980D02*
X151651969Y-78958980D01*
X151651969Y-78958980D02*
X151747207Y-78911361D01*
X151747207Y-78911361D02*
X151794826Y-78863742D01*
X151794826Y-78863742D02*
X151842445Y-78768504D01*
X151842445Y-78768504D02*
X151890064Y-78578028D01*
X151890064Y-78578028D02*
X151890064Y-78339933D01*
X151890064Y-78339933D02*
X151842445Y-78149457D01*
X151842445Y-78149457D02*
X151794826Y-78054219D01*
X151794826Y-78054219D02*
X151747207Y-78006600D01*
X151747207Y-78006600D02*
X151651969Y-77958980D01*
X151651969Y-77958980D02*
X151556731Y-77958980D01*
X151556731Y-77958980D02*
X151461493Y-78006600D01*
X151461493Y-78006600D02*
X151413874Y-78054219D01*
X151413874Y-78054219D02*
X151366255Y-78149457D01*
X151366255Y-78149457D02*
X151318636Y-78339933D01*
X151318636Y-78339933D02*
X151318636Y-78578028D01*
X151318636Y-78578028D02*
X151366255Y-78768504D01*
X151366255Y-78768504D02*
X151413874Y-78863742D01*
X151413874Y-78863742D02*
X151461493Y-78911361D01*
X151461493Y-78911361D02*
X151556731Y-78958980D01*
X140631904Y-86383866D02*
X140584285Y-86336247D01*
X140584285Y-86336247D02*
X140489047Y-86288628D01*
X140489047Y-86288628D02*
X140298571Y-86383866D01*
X140298571Y-86383866D02*
X140203333Y-86336247D01*
X140203333Y-86336247D02*
X140155714Y-86288628D01*
X141131904Y-87264819D02*
X141131904Y-88074342D01*
X141131904Y-88074342D02*
X141084285Y-88169580D01*
X141084285Y-88169580D02*
X141036666Y-88217200D01*
X141036666Y-88217200D02*
X140941428Y-88264819D01*
X140941428Y-88264819D02*
X140750952Y-88264819D01*
X140750952Y-88264819D02*
X140655714Y-88217200D01*
X140655714Y-88217200D02*
X140608095Y-88169580D01*
X140608095Y-88169580D02*
X140560476Y-88074342D01*
X140560476Y-88074342D02*
X140560476Y-87264819D01*
X139608095Y-87264819D02*
X140084285Y-87264819D01*
X140084285Y-87264819D02*
X140131904Y-87741009D01*
X140131904Y-87741009D02*
X140084285Y-87693390D01*
X140084285Y-87693390D02*
X139989047Y-87645771D01*
X139989047Y-87645771D02*
X139750952Y-87645771D01*
X139750952Y-87645771D02*
X139655714Y-87693390D01*
X139655714Y-87693390D02*
X139608095Y-87741009D01*
X139608095Y-87741009D02*
X139560476Y-87836247D01*
X139560476Y-87836247D02*
X139560476Y-88074342D01*
X139560476Y-88074342D02*
X139608095Y-88169580D01*
X139608095Y-88169580D02*
X139655714Y-88217200D01*
X139655714Y-88217200D02*
X139750952Y-88264819D01*
X139750952Y-88264819D02*
X139989047Y-88264819D01*
X139989047Y-88264819D02*
X140084285Y-88217200D01*
X140084285Y-88217200D02*
X140131904Y-88169580D01*
X152574819Y-79369761D02*
X152574819Y-78798333D01*
X152574819Y-79084047D02*
X151574819Y-79084047D01*
X151574819Y-79084047D02*
X151717676Y-78988809D01*
X151717676Y-78988809D02*
X151812914Y-78893571D01*
X151812914Y-78893571D02*
X151860533Y-78798333D01*
X151574819Y-79988809D02*
X151574819Y-80084047D01*
X151574819Y-80084047D02*
X151622438Y-80179285D01*
X151622438Y-80179285D02*
X151670057Y-80226904D01*
X151670057Y-80226904D02*
X151765295Y-80274523D01*
X151765295Y-80274523D02*
X151955771Y-80322142D01*
X151955771Y-80322142D02*
X152193866Y-80322142D01*
X152193866Y-80322142D02*
X152384342Y-80274523D01*
X152384342Y-80274523D02*
X152479580Y-80226904D01*
X152479580Y-80226904D02*
X152527200Y-80179285D01*
X152527200Y-80179285D02*
X152574819Y-80084047D01*
X152574819Y-80084047D02*
X152574819Y-79988809D01*
X152574819Y-79988809D02*
X152527200Y-79893571D01*
X152527200Y-79893571D02*
X152479580Y-79845952D01*
X152479580Y-79845952D02*
X152384342Y-79798333D01*
X152384342Y-79798333D02*
X152193866Y-79750714D01*
X152193866Y-79750714D02*
X151955771Y-79750714D01*
X151955771Y-79750714D02*
X151765295Y-79798333D01*
X151765295Y-79798333D02*
X151670057Y-79845952D01*
X151670057Y-79845952D02*
X151622438Y-79893571D01*
X151622438Y-79893571D02*
X151574819Y-79988809D01*
X152574819Y-80750714D02*
X151574819Y-80750714D01*
X152193866Y-80845952D02*
X152574819Y-81131666D01*
X151908152Y-81131666D02*
X152289104Y-80750714D01*
D11*
X150503574Y-79923333D02*
X150384527Y-79840000D01*
X150503574Y-79780476D02*
X150253574Y-79780476D01*
X150253574Y-79780476D02*
X150253574Y-79875714D01*
X150253574Y-79875714D02*
X150265479Y-79899524D01*
X150265479Y-79899524D02*
X150277384Y-79911429D01*
X150277384Y-79911429D02*
X150301193Y-79923333D01*
X150301193Y-79923333D02*
X150336908Y-79923333D01*
X150336908Y-79923333D02*
X150360717Y-79911429D01*
X150360717Y-79911429D02*
X150372622Y-79899524D01*
X150372622Y-79899524D02*
X150384527Y-79875714D01*
X150384527Y-79875714D02*
X150384527Y-79780476D01*
X150503574Y-80042381D02*
X150503574Y-80090000D01*
X150503574Y-80090000D02*
X150491670Y-80113810D01*
X150491670Y-80113810D02*
X150479765Y-80125714D01*
X150479765Y-80125714D02*
X150444050Y-80149524D01*
X150444050Y-80149524D02*
X150396431Y-80161429D01*
X150396431Y-80161429D02*
X150301193Y-80161429D01*
X150301193Y-80161429D02*
X150277384Y-80149524D01*
X150277384Y-80149524D02*
X150265479Y-80137619D01*
X150265479Y-80137619D02*
X150253574Y-80113810D01*
X150253574Y-80113810D02*
X150253574Y-80066191D01*
X150253574Y-80066191D02*
X150265479Y-80042381D01*
X150265479Y-80042381D02*
X150277384Y-80030476D01*
X150277384Y-80030476D02*
X150301193Y-80018572D01*
X150301193Y-80018572D02*
X150360717Y-80018572D01*
X150360717Y-80018572D02*
X150384527Y-80030476D01*
X150384527Y-80030476D02*
X150396431Y-80042381D01*
X150396431Y-80042381D02*
X150408336Y-80066191D01*
X150408336Y-80066191D02*
X150408336Y-80113810D01*
X150408336Y-80113810D02*
X150396431Y-80137619D01*
X150396431Y-80137619D02*
X150384527Y-80149524D01*
X150384527Y-80149524D02*
X150360717Y-80161429D01*
D10*
X152854819Y-89989761D02*
X152854819Y-89418333D01*
X152854819Y-89704047D02*
X151854819Y-89704047D01*
X151854819Y-89704047D02*
X151997676Y-89608809D01*
X151997676Y-89608809D02*
X152092914Y-89513571D01*
X152092914Y-89513571D02*
X152140533Y-89418333D01*
X151854819Y-90608809D02*
X151854819Y-90704047D01*
X151854819Y-90704047D02*
X151902438Y-90799285D01*
X151902438Y-90799285D02*
X151950057Y-90846904D01*
X151950057Y-90846904D02*
X152045295Y-90894523D01*
X152045295Y-90894523D02*
X152235771Y-90942142D01*
X152235771Y-90942142D02*
X152473866Y-90942142D01*
X152473866Y-90942142D02*
X152664342Y-90894523D01*
X152664342Y-90894523D02*
X152759580Y-90846904D01*
X152759580Y-90846904D02*
X152807200Y-90799285D01*
X152807200Y-90799285D02*
X152854819Y-90704047D01*
X152854819Y-90704047D02*
X152854819Y-90608809D01*
X152854819Y-90608809D02*
X152807200Y-90513571D01*
X152807200Y-90513571D02*
X152759580Y-90465952D01*
X152759580Y-90465952D02*
X152664342Y-90418333D01*
X152664342Y-90418333D02*
X152473866Y-90370714D01*
X152473866Y-90370714D02*
X152235771Y-90370714D01*
X152235771Y-90370714D02*
X152045295Y-90418333D01*
X152045295Y-90418333D02*
X151950057Y-90465952D01*
X151950057Y-90465952D02*
X151902438Y-90513571D01*
X151902438Y-90513571D02*
X151854819Y-90608809D01*
X152854819Y-91370714D02*
X151854819Y-91370714D01*
X152473866Y-91465952D02*
X152854819Y-91751666D01*
X152188152Y-91751666D02*
X152569104Y-91370714D01*
D11*
X150783574Y-90424285D02*
X150664527Y-90340952D01*
X150783574Y-90281428D02*
X150533574Y-90281428D01*
X150533574Y-90281428D02*
X150533574Y-90376666D01*
X150533574Y-90376666D02*
X150545479Y-90400476D01*
X150545479Y-90400476D02*
X150557384Y-90412381D01*
X150557384Y-90412381D02*
X150581193Y-90424285D01*
X150581193Y-90424285D02*
X150616908Y-90424285D01*
X150616908Y-90424285D02*
X150640717Y-90412381D01*
X150640717Y-90412381D02*
X150652622Y-90400476D01*
X150652622Y-90400476D02*
X150664527Y-90376666D01*
X150664527Y-90376666D02*
X150664527Y-90281428D01*
X150783574Y-90662381D02*
X150783574Y-90519524D01*
X150783574Y-90590952D02*
X150533574Y-90590952D01*
X150533574Y-90590952D02*
X150569289Y-90567143D01*
X150569289Y-90567143D02*
X150593098Y-90543333D01*
X150593098Y-90543333D02*
X150605003Y-90519524D01*
X150533574Y-90817142D02*
X150533574Y-90840952D01*
X150533574Y-90840952D02*
X150545479Y-90864761D01*
X150545479Y-90864761D02*
X150557384Y-90876666D01*
X150557384Y-90876666D02*
X150581193Y-90888571D01*
X150581193Y-90888571D02*
X150628812Y-90900476D01*
X150628812Y-90900476D02*
X150688336Y-90900476D01*
X150688336Y-90900476D02*
X150735955Y-90888571D01*
X150735955Y-90888571D02*
X150759765Y-90876666D01*
X150759765Y-90876666D02*
X150771670Y-90864761D01*
X150771670Y-90864761D02*
X150783574Y-90840952D01*
X150783574Y-90840952D02*
X150783574Y-90817142D01*
X150783574Y-90817142D02*
X150771670Y-90793333D01*
X150771670Y-90793333D02*
X150759765Y-90781428D01*
X150759765Y-90781428D02*
X150735955Y-90769523D01*
X150735955Y-90769523D02*
X150688336Y-90757619D01*
X150688336Y-90757619D02*
X150628812Y-90757619D01*
X150628812Y-90757619D02*
X150581193Y-90769523D01*
X150581193Y-90769523D02*
X150557384Y-90781428D01*
X150557384Y-90781428D02*
X150545479Y-90793333D01*
X150545479Y-90793333D02*
X150533574Y-90817142D01*
D10*
X145920475Y-107574819D02*
X145825237Y-107574819D01*
X145825237Y-107574819D02*
X145729999Y-107622438D01*
X145729999Y-107622438D02*
X145682380Y-107670057D01*
X145682380Y-107670057D02*
X145634761Y-107765295D01*
X145634761Y-107765295D02*
X145587142Y-107955771D01*
X145587142Y-107955771D02*
X145587142Y-108193866D01*
X145587142Y-108193866D02*
X145634761Y-108384342D01*
X145634761Y-108384342D02*
X145682380Y-108479580D01*
X145682380Y-108479580D02*
X145729999Y-108527200D01*
X145729999Y-108527200D02*
X145825237Y-108574819D01*
X145825237Y-108574819D02*
X145920475Y-108574819D01*
X145920475Y-108574819D02*
X146015713Y-108527200D01*
X146015713Y-108527200D02*
X146063332Y-108479580D01*
X146063332Y-108479580D02*
X146110951Y-108384342D01*
X146110951Y-108384342D02*
X146158570Y-108193866D01*
X146158570Y-108193866D02*
X146158570Y-107955771D01*
X146158570Y-107955771D02*
X146110951Y-107765295D01*
X146110951Y-107765295D02*
X146063332Y-107670057D01*
X146063332Y-107670057D02*
X146015713Y-107622438D01*
X146015713Y-107622438D02*
X145920475Y-107574819D01*
X145158570Y-108479580D02*
X145110951Y-108527200D01*
X145110951Y-108527200D02*
X145158570Y-108574819D01*
X145158570Y-108574819D02*
X145206189Y-108527200D01*
X145206189Y-108527200D02*
X145158570Y-108479580D01*
X145158570Y-108479580D02*
X145158570Y-108574819D01*
X144253809Y-107908152D02*
X144253809Y-108574819D01*
X144491904Y-107527200D02*
X144729999Y-108241485D01*
X144729999Y-108241485D02*
X144110952Y-108241485D01*
X143825237Y-107574819D02*
X143158571Y-107574819D01*
X143158571Y-107574819D02*
X143587142Y-108574819D01*
X142349047Y-107908152D02*
X142349047Y-108574819D01*
X142777618Y-107908152D02*
X142777618Y-108431961D01*
X142777618Y-108431961D02*
X142729999Y-108527200D01*
X142729999Y-108527200D02*
X142634761Y-108574819D01*
X142634761Y-108574819D02*
X142491904Y-108574819D01*
X142491904Y-108574819D02*
X142396666Y-108527200D01*
X142396666Y-108527200D02*
X142349047Y-108479580D01*
D11*
X144390714Y-106479765D02*
X144402618Y-106491670D01*
X144402618Y-106491670D02*
X144438333Y-106503574D01*
X144438333Y-106503574D02*
X144462142Y-106503574D01*
X144462142Y-106503574D02*
X144497856Y-106491670D01*
X144497856Y-106491670D02*
X144521666Y-106467860D01*
X144521666Y-106467860D02*
X144533571Y-106444050D01*
X144533571Y-106444050D02*
X144545475Y-106396431D01*
X144545475Y-106396431D02*
X144545475Y-106360717D01*
X144545475Y-106360717D02*
X144533571Y-106313098D01*
X144533571Y-106313098D02*
X144521666Y-106289289D01*
X144521666Y-106289289D02*
X144497856Y-106265479D01*
X144497856Y-106265479D02*
X144462142Y-106253574D01*
X144462142Y-106253574D02*
X144438333Y-106253574D01*
X144438333Y-106253574D02*
X144402618Y-106265479D01*
X144402618Y-106265479D02*
X144390714Y-106277384D01*
X144152618Y-106503574D02*
X144295475Y-106503574D01*
X144224047Y-106503574D02*
X144224047Y-106253574D01*
X144224047Y-106253574D02*
X144247856Y-106289289D01*
X144247856Y-106289289D02*
X144271666Y-106313098D01*
X144271666Y-106313098D02*
X144295475Y-106325003D01*
X143997857Y-106253574D02*
X143974047Y-106253574D01*
X143974047Y-106253574D02*
X143950238Y-106265479D01*
X143950238Y-106265479D02*
X143938333Y-106277384D01*
X143938333Y-106277384D02*
X143926428Y-106301193D01*
X143926428Y-106301193D02*
X143914523Y-106348812D01*
X143914523Y-106348812D02*
X143914523Y-106408336D01*
X143914523Y-106408336D02*
X143926428Y-106455955D01*
X143926428Y-106455955D02*
X143938333Y-106479765D01*
X143938333Y-106479765D02*
X143950238Y-106491670D01*
X143950238Y-106491670D02*
X143974047Y-106503574D01*
X143974047Y-106503574D02*
X143997857Y-106503574D01*
X143997857Y-106503574D02*
X144021666Y-106491670D01*
X144021666Y-106491670D02*
X144033571Y-106479765D01*
X144033571Y-106479765D02*
X144045476Y-106455955D01*
X144045476Y-106455955D02*
X144057380Y-106408336D01*
X144057380Y-106408336D02*
X144057380Y-106348812D01*
X144057380Y-106348812D02*
X144045476Y-106301193D01*
X144045476Y-106301193D02*
X144033571Y-106277384D01*
X144033571Y-106277384D02*
X144021666Y-106265479D01*
X144021666Y-106265479D02*
X143997857Y-106253574D01*
D10*
X144990475Y-100344819D02*
X144895237Y-100344819D01*
X144895237Y-100344819D02*
X144799999Y-100392438D01*
X144799999Y-100392438D02*
X144752380Y-100440057D01*
X144752380Y-100440057D02*
X144704761Y-100535295D01*
X144704761Y-100535295D02*
X144657142Y-100725771D01*
X144657142Y-100725771D02*
X144657142Y-100963866D01*
X144657142Y-100963866D02*
X144704761Y-101154342D01*
X144704761Y-101154342D02*
X144752380Y-101249580D01*
X144752380Y-101249580D02*
X144799999Y-101297200D01*
X144799999Y-101297200D02*
X144895237Y-101344819D01*
X144895237Y-101344819D02*
X144990475Y-101344819D01*
X144990475Y-101344819D02*
X145085713Y-101297200D01*
X145085713Y-101297200D02*
X145133332Y-101249580D01*
X145133332Y-101249580D02*
X145180951Y-101154342D01*
X145180951Y-101154342D02*
X145228570Y-100963866D01*
X145228570Y-100963866D02*
X145228570Y-100725771D01*
X145228570Y-100725771D02*
X145180951Y-100535295D01*
X145180951Y-100535295D02*
X145133332Y-100440057D01*
X145133332Y-100440057D02*
X145085713Y-100392438D01*
X145085713Y-100392438D02*
X144990475Y-100344819D01*
X144228570Y-101249580D02*
X144180951Y-101297200D01*
X144180951Y-101297200D02*
X144228570Y-101344819D01*
X144228570Y-101344819D02*
X144276189Y-101297200D01*
X144276189Y-101297200D02*
X144228570Y-101249580D01*
X144228570Y-101249580D02*
X144228570Y-101344819D01*
X143323809Y-100678152D02*
X143323809Y-101344819D01*
X143561904Y-100297200D02*
X143799999Y-101011485D01*
X143799999Y-101011485D02*
X143180952Y-101011485D01*
X142895237Y-100344819D02*
X142228571Y-100344819D01*
X142228571Y-100344819D02*
X142657142Y-101344819D01*
X141419047Y-100678152D02*
X141419047Y-101344819D01*
X141847618Y-100678152D02*
X141847618Y-101201961D01*
X141847618Y-101201961D02*
X141799999Y-101297200D01*
X141799999Y-101297200D02*
X141704761Y-101344819D01*
X141704761Y-101344819D02*
X141561904Y-101344819D01*
X141561904Y-101344819D02*
X141466666Y-101297200D01*
X141466666Y-101297200D02*
X141419047Y-101249580D01*
D11*
X143460714Y-99249765D02*
X143472618Y-99261670D01*
X143472618Y-99261670D02*
X143508333Y-99273574D01*
X143508333Y-99273574D02*
X143532142Y-99273574D01*
X143532142Y-99273574D02*
X143567856Y-99261670D01*
X143567856Y-99261670D02*
X143591666Y-99237860D01*
X143591666Y-99237860D02*
X143603571Y-99214050D01*
X143603571Y-99214050D02*
X143615475Y-99166431D01*
X143615475Y-99166431D02*
X143615475Y-99130717D01*
X143615475Y-99130717D02*
X143603571Y-99083098D01*
X143603571Y-99083098D02*
X143591666Y-99059289D01*
X143591666Y-99059289D02*
X143567856Y-99035479D01*
X143567856Y-99035479D02*
X143532142Y-99023574D01*
X143532142Y-99023574D02*
X143508333Y-99023574D01*
X143508333Y-99023574D02*
X143472618Y-99035479D01*
X143472618Y-99035479D02*
X143460714Y-99047384D01*
X143365475Y-99047384D02*
X143353571Y-99035479D01*
X143353571Y-99035479D02*
X143329761Y-99023574D01*
X143329761Y-99023574D02*
X143270237Y-99023574D01*
X143270237Y-99023574D02*
X143246428Y-99035479D01*
X143246428Y-99035479D02*
X143234523Y-99047384D01*
X143234523Y-99047384D02*
X143222618Y-99071193D01*
X143222618Y-99071193D02*
X143222618Y-99095003D01*
X143222618Y-99095003D02*
X143234523Y-99130717D01*
X143234523Y-99130717D02*
X143377380Y-99273574D01*
X143377380Y-99273574D02*
X143222618Y-99273574D01*
X143079761Y-99130717D02*
X143103571Y-99118812D01*
X143103571Y-99118812D02*
X143115476Y-99106908D01*
X143115476Y-99106908D02*
X143127380Y-99083098D01*
X143127380Y-99083098D02*
X143127380Y-99071193D01*
X143127380Y-99071193D02*
X143115476Y-99047384D01*
X143115476Y-99047384D02*
X143103571Y-99035479D01*
X143103571Y-99035479D02*
X143079761Y-99023574D01*
X143079761Y-99023574D02*
X143032142Y-99023574D01*
X143032142Y-99023574D02*
X143008333Y-99035479D01*
X143008333Y-99035479D02*
X142996428Y-99047384D01*
X142996428Y-99047384D02*
X142984523Y-99071193D01*
X142984523Y-99071193D02*
X142984523Y-99083098D01*
X142984523Y-99083098D02*
X142996428Y-99106908D01*
X142996428Y-99106908D02*
X143008333Y-99118812D01*
X143008333Y-99118812D02*
X143032142Y-99130717D01*
X143032142Y-99130717D02*
X143079761Y-99130717D01*
X143079761Y-99130717D02*
X143103571Y-99142622D01*
X143103571Y-99142622D02*
X143115476Y-99154527D01*
X143115476Y-99154527D02*
X143127380Y-99178336D01*
X143127380Y-99178336D02*
X143127380Y-99225955D01*
X143127380Y-99225955D02*
X143115476Y-99249765D01*
X143115476Y-99249765D02*
X143103571Y-99261670D01*
X143103571Y-99261670D02*
X143079761Y-99273574D01*
X143079761Y-99273574D02*
X143032142Y-99273574D01*
X143032142Y-99273574D02*
X143008333Y-99261670D01*
X143008333Y-99261670D02*
X142996428Y-99249765D01*
X142996428Y-99249765D02*
X142984523Y-99225955D01*
X142984523Y-99225955D02*
X142984523Y-99178336D01*
X142984523Y-99178336D02*
X142996428Y-99154527D01*
X142996428Y-99154527D02*
X143008333Y-99142622D01*
X143008333Y-99142622D02*
X143032142Y-99130717D01*
D10*
X140197554Y-116100066D02*
X140149935Y-116052447D01*
X140149935Y-116052447D02*
X140054697Y-116004828D01*
X140054697Y-116004828D02*
X139864221Y-116100066D01*
X139864221Y-116100066D02*
X139768983Y-116052447D01*
X139768983Y-116052447D02*
X139721364Y-116004828D01*
X140697554Y-116981019D02*
X140697554Y-117790542D01*
X140697554Y-117790542D02*
X140649935Y-117885780D01*
X140649935Y-117885780D02*
X140602316Y-117933400D01*
X140602316Y-117933400D02*
X140507078Y-117981019D01*
X140507078Y-117981019D02*
X140316602Y-117981019D01*
X140316602Y-117981019D02*
X140221364Y-117933400D01*
X140221364Y-117933400D02*
X140173745Y-117885780D01*
X140173745Y-117885780D02*
X140126126Y-117790542D01*
X140126126Y-117790542D02*
X140126126Y-116981019D01*
X139507078Y-117409590D02*
X139602316Y-117361971D01*
X139602316Y-117361971D02*
X139649935Y-117314352D01*
X139649935Y-117314352D02*
X139697554Y-117219114D01*
X139697554Y-117219114D02*
X139697554Y-117171495D01*
X139697554Y-117171495D02*
X139649935Y-117076257D01*
X139649935Y-117076257D02*
X139602316Y-117028638D01*
X139602316Y-117028638D02*
X139507078Y-116981019D01*
X139507078Y-116981019D02*
X139316602Y-116981019D01*
X139316602Y-116981019D02*
X139221364Y-117028638D01*
X139221364Y-117028638D02*
X139173745Y-117076257D01*
X139173745Y-117076257D02*
X139126126Y-117171495D01*
X139126126Y-117171495D02*
X139126126Y-117219114D01*
X139126126Y-117219114D02*
X139173745Y-117314352D01*
X139173745Y-117314352D02*
X139221364Y-117361971D01*
X139221364Y-117361971D02*
X139316602Y-117409590D01*
X139316602Y-117409590D02*
X139507078Y-117409590D01*
X139507078Y-117409590D02*
X139602316Y-117457209D01*
X139602316Y-117457209D02*
X139649935Y-117504828D01*
X139649935Y-117504828D02*
X139697554Y-117600066D01*
X139697554Y-117600066D02*
X139697554Y-117790542D01*
X139697554Y-117790542D02*
X139649935Y-117885780D01*
X139649935Y-117885780D02*
X139602316Y-117933400D01*
X139602316Y-117933400D02*
X139507078Y-117981019D01*
X139507078Y-117981019D02*
X139316602Y-117981019D01*
X139316602Y-117981019D02*
X139221364Y-117933400D01*
X139221364Y-117933400D02*
X139173745Y-117885780D01*
X139173745Y-117885780D02*
X139126126Y-117790542D01*
X139126126Y-117790542D02*
X139126126Y-117600066D01*
X139126126Y-117600066D02*
X139173745Y-117504828D01*
X139173745Y-117504828D02*
X139221364Y-117457209D01*
X139221364Y-117457209D02*
X139316602Y-117409590D01*
X144990475Y-99544819D02*
X144895237Y-99544819D01*
X144895237Y-99544819D02*
X144799999Y-99592438D01*
X144799999Y-99592438D02*
X144752380Y-99640057D01*
X144752380Y-99640057D02*
X144704761Y-99735295D01*
X144704761Y-99735295D02*
X144657142Y-99925771D01*
X144657142Y-99925771D02*
X144657142Y-100163866D01*
X144657142Y-100163866D02*
X144704761Y-100354342D01*
X144704761Y-100354342D02*
X144752380Y-100449580D01*
X144752380Y-100449580D02*
X144799999Y-100497200D01*
X144799999Y-100497200D02*
X144895237Y-100544819D01*
X144895237Y-100544819D02*
X144990475Y-100544819D01*
X144990475Y-100544819D02*
X145085713Y-100497200D01*
X145085713Y-100497200D02*
X145133332Y-100449580D01*
X145133332Y-100449580D02*
X145180951Y-100354342D01*
X145180951Y-100354342D02*
X145228570Y-100163866D01*
X145228570Y-100163866D02*
X145228570Y-99925771D01*
X145228570Y-99925771D02*
X145180951Y-99735295D01*
X145180951Y-99735295D02*
X145133332Y-99640057D01*
X145133332Y-99640057D02*
X145085713Y-99592438D01*
X145085713Y-99592438D02*
X144990475Y-99544819D01*
X144228570Y-100449580D02*
X144180951Y-100497200D01*
X144180951Y-100497200D02*
X144228570Y-100544819D01*
X144228570Y-100544819D02*
X144276189Y-100497200D01*
X144276189Y-100497200D02*
X144228570Y-100449580D01*
X144228570Y-100449580D02*
X144228570Y-100544819D01*
X143323809Y-99878152D02*
X143323809Y-100544819D01*
X143561904Y-99497200D02*
X143799999Y-100211485D01*
X143799999Y-100211485D02*
X143180952Y-100211485D01*
X142895237Y-99544819D02*
X142228571Y-99544819D01*
X142228571Y-99544819D02*
X142657142Y-100544819D01*
X141419047Y-99878152D02*
X141419047Y-100544819D01*
X141847618Y-99878152D02*
X141847618Y-100401961D01*
X141847618Y-100401961D02*
X141799999Y-100497200D01*
X141799999Y-100497200D02*
X141704761Y-100544819D01*
X141704761Y-100544819D02*
X141561904Y-100544819D01*
X141561904Y-100544819D02*
X141466666Y-100497200D01*
X141466666Y-100497200D02*
X141419047Y-100449580D01*
D11*
X143460714Y-98449765D02*
X143472618Y-98461670D01*
X143472618Y-98461670D02*
X143508333Y-98473574D01*
X143508333Y-98473574D02*
X143532142Y-98473574D01*
X143532142Y-98473574D02*
X143567856Y-98461670D01*
X143567856Y-98461670D02*
X143591666Y-98437860D01*
X143591666Y-98437860D02*
X143603571Y-98414050D01*
X143603571Y-98414050D02*
X143615475Y-98366431D01*
X143615475Y-98366431D02*
X143615475Y-98330717D01*
X143615475Y-98330717D02*
X143603571Y-98283098D01*
X143603571Y-98283098D02*
X143591666Y-98259289D01*
X143591666Y-98259289D02*
X143567856Y-98235479D01*
X143567856Y-98235479D02*
X143532142Y-98223574D01*
X143532142Y-98223574D02*
X143508333Y-98223574D01*
X143508333Y-98223574D02*
X143472618Y-98235479D01*
X143472618Y-98235479D02*
X143460714Y-98247384D01*
X143377380Y-98223574D02*
X143222618Y-98223574D01*
X143222618Y-98223574D02*
X143305952Y-98318812D01*
X143305952Y-98318812D02*
X143270237Y-98318812D01*
X143270237Y-98318812D02*
X143246428Y-98330717D01*
X143246428Y-98330717D02*
X143234523Y-98342622D01*
X143234523Y-98342622D02*
X143222618Y-98366431D01*
X143222618Y-98366431D02*
X143222618Y-98425955D01*
X143222618Y-98425955D02*
X143234523Y-98449765D01*
X143234523Y-98449765D02*
X143246428Y-98461670D01*
X143246428Y-98461670D02*
X143270237Y-98473574D01*
X143270237Y-98473574D02*
X143341666Y-98473574D01*
X143341666Y-98473574D02*
X143365475Y-98461670D01*
X143365475Y-98461670D02*
X143377380Y-98449765D01*
X143067857Y-98223574D02*
X143044047Y-98223574D01*
X143044047Y-98223574D02*
X143020238Y-98235479D01*
X143020238Y-98235479D02*
X143008333Y-98247384D01*
X143008333Y-98247384D02*
X142996428Y-98271193D01*
X142996428Y-98271193D02*
X142984523Y-98318812D01*
X142984523Y-98318812D02*
X142984523Y-98378336D01*
X142984523Y-98378336D02*
X142996428Y-98425955D01*
X142996428Y-98425955D02*
X143008333Y-98449765D01*
X143008333Y-98449765D02*
X143020238Y-98461670D01*
X143020238Y-98461670D02*
X143044047Y-98473574D01*
X143044047Y-98473574D02*
X143067857Y-98473574D01*
X143067857Y-98473574D02*
X143091666Y-98461670D01*
X143091666Y-98461670D02*
X143103571Y-98449765D01*
X143103571Y-98449765D02*
X143115476Y-98425955D01*
X143115476Y-98425955D02*
X143127380Y-98378336D01*
X143127380Y-98378336D02*
X143127380Y-98318812D01*
X143127380Y-98318812D02*
X143115476Y-98271193D01*
X143115476Y-98271193D02*
X143103571Y-98247384D01*
X143103571Y-98247384D02*
X143091666Y-98235479D01*
X143091666Y-98235479D02*
X143067857Y-98223574D01*
D10*
X138884819Y-126304761D02*
X138884819Y-125733333D01*
X138884819Y-126019047D02*
X137884819Y-126019047D01*
X137884819Y-126019047D02*
X138027676Y-125923809D01*
X138027676Y-125923809D02*
X138122914Y-125828571D01*
X138122914Y-125828571D02*
X138170533Y-125733333D01*
X137884819Y-126923809D02*
X137884819Y-127019047D01*
X137884819Y-127019047D02*
X137932438Y-127114285D01*
X137932438Y-127114285D02*
X137980057Y-127161904D01*
X137980057Y-127161904D02*
X138075295Y-127209523D01*
X138075295Y-127209523D02*
X138265771Y-127257142D01*
X138265771Y-127257142D02*
X138503866Y-127257142D01*
X138503866Y-127257142D02*
X138694342Y-127209523D01*
X138694342Y-127209523D02*
X138789580Y-127161904D01*
X138789580Y-127161904D02*
X138837200Y-127114285D01*
X138837200Y-127114285D02*
X138884819Y-127019047D01*
X138884819Y-127019047D02*
X138884819Y-126923809D01*
X138884819Y-126923809D02*
X138837200Y-126828571D01*
X138837200Y-126828571D02*
X138789580Y-126780952D01*
X138789580Y-126780952D02*
X138694342Y-126733333D01*
X138694342Y-126733333D02*
X138503866Y-126685714D01*
X138503866Y-126685714D02*
X138265771Y-126685714D01*
X138265771Y-126685714D02*
X138075295Y-126733333D01*
X138075295Y-126733333D02*
X137980057Y-126780952D01*
X137980057Y-126780952D02*
X137932438Y-126828571D01*
X137932438Y-126828571D02*
X137884819Y-126923809D01*
X138884819Y-127685714D02*
X137884819Y-127685714D01*
X138503866Y-127780952D02*
X138884819Y-128066666D01*
X138218152Y-128066666D02*
X138599104Y-127685714D01*
D11*
X140273574Y-126858333D02*
X140154527Y-126775000D01*
X140273574Y-126715476D02*
X140023574Y-126715476D01*
X140023574Y-126715476D02*
X140023574Y-126810714D01*
X140023574Y-126810714D02*
X140035479Y-126834524D01*
X140035479Y-126834524D02*
X140047384Y-126846429D01*
X140047384Y-126846429D02*
X140071193Y-126858333D01*
X140071193Y-126858333D02*
X140106908Y-126858333D01*
X140106908Y-126858333D02*
X140130717Y-126846429D01*
X140130717Y-126846429D02*
X140142622Y-126834524D01*
X140142622Y-126834524D02*
X140154527Y-126810714D01*
X140154527Y-126810714D02*
X140154527Y-126715476D01*
X140130717Y-127001191D02*
X140118812Y-126977381D01*
X140118812Y-126977381D02*
X140106908Y-126965476D01*
X140106908Y-126965476D02*
X140083098Y-126953572D01*
X140083098Y-126953572D02*
X140071193Y-126953572D01*
X140071193Y-126953572D02*
X140047384Y-126965476D01*
X140047384Y-126965476D02*
X140035479Y-126977381D01*
X140035479Y-126977381D02*
X140023574Y-127001191D01*
X140023574Y-127001191D02*
X140023574Y-127048810D01*
X140023574Y-127048810D02*
X140035479Y-127072619D01*
X140035479Y-127072619D02*
X140047384Y-127084524D01*
X140047384Y-127084524D02*
X140071193Y-127096429D01*
X140071193Y-127096429D02*
X140083098Y-127096429D01*
X140083098Y-127096429D02*
X140106908Y-127084524D01*
X140106908Y-127084524D02*
X140118812Y-127072619D01*
X140118812Y-127072619D02*
X140130717Y-127048810D01*
X140130717Y-127048810D02*
X140130717Y-127001191D01*
X140130717Y-127001191D02*
X140142622Y-126977381D01*
X140142622Y-126977381D02*
X140154527Y-126965476D01*
X140154527Y-126965476D02*
X140178336Y-126953572D01*
X140178336Y-126953572D02*
X140225955Y-126953572D01*
X140225955Y-126953572D02*
X140249765Y-126965476D01*
X140249765Y-126965476D02*
X140261670Y-126977381D01*
X140261670Y-126977381D02*
X140273574Y-127001191D01*
X140273574Y-127001191D02*
X140273574Y-127048810D01*
X140273574Y-127048810D02*
X140261670Y-127072619D01*
X140261670Y-127072619D02*
X140249765Y-127084524D01*
X140249765Y-127084524D02*
X140225955Y-127096429D01*
X140225955Y-127096429D02*
X140178336Y-127096429D01*
X140178336Y-127096429D02*
X140154527Y-127084524D01*
X140154527Y-127084524D02*
X140142622Y-127072619D01*
X140142622Y-127072619D02*
X140130717Y-127048810D01*
D10*
X150732445Y-121009933D02*
X150780064Y-121057552D01*
X150780064Y-121057552D02*
X150875302Y-121105171D01*
X150875302Y-121105171D02*
X151065778Y-121009933D01*
X151065778Y-121009933D02*
X151161016Y-121057552D01*
X151161016Y-121057552D02*
X151208635Y-121105171D01*
X149756255Y-120128980D02*
X149756255Y-119319457D01*
X149756255Y-119319457D02*
X149803874Y-119224219D01*
X149803874Y-119224219D02*
X149851493Y-119176600D01*
X149851493Y-119176600D02*
X149946731Y-119128980D01*
X149946731Y-119128980D02*
X150137207Y-119128980D01*
X150137207Y-119128980D02*
X150232445Y-119176600D01*
X150232445Y-119176600D02*
X150280064Y-119224219D01*
X150280064Y-119224219D02*
X150327683Y-119319457D01*
X150327683Y-119319457D02*
X150327683Y-120128980D01*
X151327683Y-119128980D02*
X150756255Y-119128980D01*
X151041969Y-119128980D02*
X151041969Y-120128980D01*
X151041969Y-120128980D02*
X150946731Y-119986123D01*
X150946731Y-119986123D02*
X150851493Y-119890885D01*
X150851493Y-119890885D02*
X150756255Y-119843266D01*
X152184826Y-119795647D02*
X152184826Y-119128980D01*
X151946731Y-120176600D02*
X151708636Y-119462314D01*
X151708636Y-119462314D02*
X152327683Y-119462314D01*
X144415475Y-102854819D02*
X144320237Y-102854819D01*
X144320237Y-102854819D02*
X144224999Y-102902438D01*
X144224999Y-102902438D02*
X144177380Y-102950057D01*
X144177380Y-102950057D02*
X144129761Y-103045295D01*
X144129761Y-103045295D02*
X144082142Y-103235771D01*
X144082142Y-103235771D02*
X144082142Y-103473866D01*
X144082142Y-103473866D02*
X144129761Y-103664342D01*
X144129761Y-103664342D02*
X144177380Y-103759580D01*
X144177380Y-103759580D02*
X144224999Y-103807200D01*
X144224999Y-103807200D02*
X144320237Y-103854819D01*
X144320237Y-103854819D02*
X144415475Y-103854819D01*
X144415475Y-103854819D02*
X144510713Y-103807200D01*
X144510713Y-103807200D02*
X144558332Y-103759580D01*
X144558332Y-103759580D02*
X144605951Y-103664342D01*
X144605951Y-103664342D02*
X144653570Y-103473866D01*
X144653570Y-103473866D02*
X144653570Y-103235771D01*
X144653570Y-103235771D02*
X144605951Y-103045295D01*
X144605951Y-103045295D02*
X144558332Y-102950057D01*
X144558332Y-102950057D02*
X144510713Y-102902438D01*
X144510713Y-102902438D02*
X144415475Y-102854819D01*
X143653570Y-103759580D02*
X143605951Y-103807200D01*
X143605951Y-103807200D02*
X143653570Y-103854819D01*
X143653570Y-103854819D02*
X143701189Y-103807200D01*
X143701189Y-103807200D02*
X143653570Y-103759580D01*
X143653570Y-103759580D02*
X143653570Y-103854819D01*
X142748809Y-103188152D02*
X142748809Y-103854819D01*
X142986904Y-102807200D02*
X143224999Y-103521485D01*
X143224999Y-103521485D02*
X142605952Y-103521485D01*
X142320237Y-102854819D02*
X141653571Y-102854819D01*
X141653571Y-102854819D02*
X142082142Y-103854819D01*
X140844047Y-103188152D02*
X140844047Y-103854819D01*
X141272618Y-103188152D02*
X141272618Y-103711961D01*
X141272618Y-103711961D02*
X141224999Y-103807200D01*
X141224999Y-103807200D02*
X141129761Y-103854819D01*
X141129761Y-103854819D02*
X140986904Y-103854819D01*
X140986904Y-103854819D02*
X140891666Y-103807200D01*
X140891666Y-103807200D02*
X140844047Y-103759580D01*
D11*
X142885714Y-101759765D02*
X142897618Y-101771670D01*
X142897618Y-101771670D02*
X142933333Y-101783574D01*
X142933333Y-101783574D02*
X142957142Y-101783574D01*
X142957142Y-101783574D02*
X142992856Y-101771670D01*
X142992856Y-101771670D02*
X143016666Y-101747860D01*
X143016666Y-101747860D02*
X143028571Y-101724050D01*
X143028571Y-101724050D02*
X143040475Y-101676431D01*
X143040475Y-101676431D02*
X143040475Y-101640717D01*
X143040475Y-101640717D02*
X143028571Y-101593098D01*
X143028571Y-101593098D02*
X143016666Y-101569289D01*
X143016666Y-101569289D02*
X142992856Y-101545479D01*
X142992856Y-101545479D02*
X142957142Y-101533574D01*
X142957142Y-101533574D02*
X142933333Y-101533574D01*
X142933333Y-101533574D02*
X142897618Y-101545479D01*
X142897618Y-101545479D02*
X142885714Y-101557384D01*
X142802380Y-101533574D02*
X142647618Y-101533574D01*
X142647618Y-101533574D02*
X142730952Y-101628812D01*
X142730952Y-101628812D02*
X142695237Y-101628812D01*
X142695237Y-101628812D02*
X142671428Y-101640717D01*
X142671428Y-101640717D02*
X142659523Y-101652622D01*
X142659523Y-101652622D02*
X142647618Y-101676431D01*
X142647618Y-101676431D02*
X142647618Y-101735955D01*
X142647618Y-101735955D02*
X142659523Y-101759765D01*
X142659523Y-101759765D02*
X142671428Y-101771670D01*
X142671428Y-101771670D02*
X142695237Y-101783574D01*
X142695237Y-101783574D02*
X142766666Y-101783574D01*
X142766666Y-101783574D02*
X142790475Y-101771670D01*
X142790475Y-101771670D02*
X142802380Y-101759765D01*
X142409523Y-101783574D02*
X142552380Y-101783574D01*
X142480952Y-101783574D02*
X142480952Y-101533574D01*
X142480952Y-101533574D02*
X142504761Y-101569289D01*
X142504761Y-101569289D02*
X142528571Y-101593098D01*
X142528571Y-101593098D02*
X142552380Y-101605003D01*
D10*
X138704819Y-95209761D02*
X138704819Y-94638333D01*
X138704819Y-94924047D02*
X137704819Y-94924047D01*
X137704819Y-94924047D02*
X137847676Y-94828809D01*
X137847676Y-94828809D02*
X137942914Y-94733571D01*
X137942914Y-94733571D02*
X137990533Y-94638333D01*
X137704819Y-95828809D02*
X137704819Y-95924047D01*
X137704819Y-95924047D02*
X137752438Y-96019285D01*
X137752438Y-96019285D02*
X137800057Y-96066904D01*
X137800057Y-96066904D02*
X137895295Y-96114523D01*
X137895295Y-96114523D02*
X138085771Y-96162142D01*
X138085771Y-96162142D02*
X138323866Y-96162142D01*
X138323866Y-96162142D02*
X138514342Y-96114523D01*
X138514342Y-96114523D02*
X138609580Y-96066904D01*
X138609580Y-96066904D02*
X138657200Y-96019285D01*
X138657200Y-96019285D02*
X138704819Y-95924047D01*
X138704819Y-95924047D02*
X138704819Y-95828809D01*
X138704819Y-95828809D02*
X138657200Y-95733571D01*
X138657200Y-95733571D02*
X138609580Y-95685952D01*
X138609580Y-95685952D02*
X138514342Y-95638333D01*
X138514342Y-95638333D02*
X138323866Y-95590714D01*
X138323866Y-95590714D02*
X138085771Y-95590714D01*
X138085771Y-95590714D02*
X137895295Y-95638333D01*
X137895295Y-95638333D02*
X137800057Y-95685952D01*
X137800057Y-95685952D02*
X137752438Y-95733571D01*
X137752438Y-95733571D02*
X137704819Y-95828809D01*
X138704819Y-96590714D02*
X137704819Y-96590714D01*
X138323866Y-96685952D02*
X138704819Y-96971666D01*
X138038152Y-96971666D02*
X138419104Y-96590714D01*
D11*
X140093574Y-95763333D02*
X139974527Y-95680000D01*
X140093574Y-95620476D02*
X139843574Y-95620476D01*
X139843574Y-95620476D02*
X139843574Y-95715714D01*
X139843574Y-95715714D02*
X139855479Y-95739524D01*
X139855479Y-95739524D02*
X139867384Y-95751429D01*
X139867384Y-95751429D02*
X139891193Y-95763333D01*
X139891193Y-95763333D02*
X139926908Y-95763333D01*
X139926908Y-95763333D02*
X139950717Y-95751429D01*
X139950717Y-95751429D02*
X139962622Y-95739524D01*
X139962622Y-95739524D02*
X139974527Y-95715714D01*
X139974527Y-95715714D02*
X139974527Y-95620476D01*
X139843574Y-95989524D02*
X139843574Y-95870476D01*
X139843574Y-95870476D02*
X139962622Y-95858572D01*
X139962622Y-95858572D02*
X139950717Y-95870476D01*
X139950717Y-95870476D02*
X139938812Y-95894286D01*
X139938812Y-95894286D02*
X139938812Y-95953810D01*
X139938812Y-95953810D02*
X139950717Y-95977619D01*
X139950717Y-95977619D02*
X139962622Y-95989524D01*
X139962622Y-95989524D02*
X139986431Y-96001429D01*
X139986431Y-96001429D02*
X140045955Y-96001429D01*
X140045955Y-96001429D02*
X140069765Y-95989524D01*
X140069765Y-95989524D02*
X140081670Y-95977619D01*
X140081670Y-95977619D02*
X140093574Y-95953810D01*
X140093574Y-95953810D02*
X140093574Y-95894286D01*
X140093574Y-95894286D02*
X140081670Y-95870476D01*
X140081670Y-95870476D02*
X140069765Y-95858572D01*
D10*
X146283095Y-96198152D02*
X146283095Y-96864819D01*
X146521190Y-95817200D02*
X146759285Y-96531485D01*
X146759285Y-96531485D02*
X146140238Y-96531485D01*
X145854523Y-95864819D02*
X145187857Y-95864819D01*
X145187857Y-95864819D02*
X145616428Y-96864819D01*
X144378333Y-96198152D02*
X144378333Y-96864819D01*
X144806904Y-96198152D02*
X144806904Y-96721961D01*
X144806904Y-96721961D02*
X144759285Y-96817200D01*
X144759285Y-96817200D02*
X144664047Y-96864819D01*
X144664047Y-96864819D02*
X144521190Y-96864819D01*
X144521190Y-96864819D02*
X144425952Y-96817200D01*
X144425952Y-96817200D02*
X144378333Y-96769580D01*
D11*
X145705714Y-98229765D02*
X145717618Y-98241670D01*
X145717618Y-98241670D02*
X145753333Y-98253574D01*
X145753333Y-98253574D02*
X145777142Y-98253574D01*
X145777142Y-98253574D02*
X145812856Y-98241670D01*
X145812856Y-98241670D02*
X145836666Y-98217860D01*
X145836666Y-98217860D02*
X145848571Y-98194050D01*
X145848571Y-98194050D02*
X145860475Y-98146431D01*
X145860475Y-98146431D02*
X145860475Y-98110717D01*
X145860475Y-98110717D02*
X145848571Y-98063098D01*
X145848571Y-98063098D02*
X145836666Y-98039289D01*
X145836666Y-98039289D02*
X145812856Y-98015479D01*
X145812856Y-98015479D02*
X145777142Y-98003574D01*
X145777142Y-98003574D02*
X145753333Y-98003574D01*
X145753333Y-98003574D02*
X145717618Y-98015479D01*
X145717618Y-98015479D02*
X145705714Y-98027384D01*
X145610475Y-98027384D02*
X145598571Y-98015479D01*
X145598571Y-98015479D02*
X145574761Y-98003574D01*
X145574761Y-98003574D02*
X145515237Y-98003574D01*
X145515237Y-98003574D02*
X145491428Y-98015479D01*
X145491428Y-98015479D02*
X145479523Y-98027384D01*
X145479523Y-98027384D02*
X145467618Y-98051193D01*
X145467618Y-98051193D02*
X145467618Y-98075003D01*
X145467618Y-98075003D02*
X145479523Y-98110717D01*
X145479523Y-98110717D02*
X145622380Y-98253574D01*
X145622380Y-98253574D02*
X145467618Y-98253574D01*
X145253333Y-98086908D02*
X145253333Y-98253574D01*
X145312857Y-97991670D02*
X145372380Y-98170241D01*
X145372380Y-98170241D02*
X145217619Y-98170241D01*
D10*
X152784819Y-101989761D02*
X152784819Y-101418333D01*
X152784819Y-101704047D02*
X151784819Y-101704047D01*
X151784819Y-101704047D02*
X151927676Y-101608809D01*
X151927676Y-101608809D02*
X152022914Y-101513571D01*
X152022914Y-101513571D02*
X152070533Y-101418333D01*
X151784819Y-102608809D02*
X151784819Y-102704047D01*
X151784819Y-102704047D02*
X151832438Y-102799285D01*
X151832438Y-102799285D02*
X151880057Y-102846904D01*
X151880057Y-102846904D02*
X151975295Y-102894523D01*
X151975295Y-102894523D02*
X152165771Y-102942142D01*
X152165771Y-102942142D02*
X152403866Y-102942142D01*
X152403866Y-102942142D02*
X152594342Y-102894523D01*
X152594342Y-102894523D02*
X152689580Y-102846904D01*
X152689580Y-102846904D02*
X152737200Y-102799285D01*
X152737200Y-102799285D02*
X152784819Y-102704047D01*
X152784819Y-102704047D02*
X152784819Y-102608809D01*
X152784819Y-102608809D02*
X152737200Y-102513571D01*
X152737200Y-102513571D02*
X152689580Y-102465952D01*
X152689580Y-102465952D02*
X152594342Y-102418333D01*
X152594342Y-102418333D02*
X152403866Y-102370714D01*
X152403866Y-102370714D02*
X152165771Y-102370714D01*
X152165771Y-102370714D02*
X151975295Y-102418333D01*
X151975295Y-102418333D02*
X151880057Y-102465952D01*
X151880057Y-102465952D02*
X151832438Y-102513571D01*
X151832438Y-102513571D02*
X151784819Y-102608809D01*
X152784819Y-103370714D02*
X151784819Y-103370714D01*
X152403866Y-103465952D02*
X152784819Y-103751666D01*
X152118152Y-103751666D02*
X152499104Y-103370714D01*
D11*
X150713574Y-102424285D02*
X150594527Y-102340952D01*
X150713574Y-102281428D02*
X150463574Y-102281428D01*
X150463574Y-102281428D02*
X150463574Y-102376666D01*
X150463574Y-102376666D02*
X150475479Y-102400476D01*
X150475479Y-102400476D02*
X150487384Y-102412381D01*
X150487384Y-102412381D02*
X150511193Y-102424285D01*
X150511193Y-102424285D02*
X150546908Y-102424285D01*
X150546908Y-102424285D02*
X150570717Y-102412381D01*
X150570717Y-102412381D02*
X150582622Y-102400476D01*
X150582622Y-102400476D02*
X150594527Y-102376666D01*
X150594527Y-102376666D02*
X150594527Y-102281428D01*
X150713574Y-102662381D02*
X150713574Y-102519524D01*
X150713574Y-102590952D02*
X150463574Y-102590952D01*
X150463574Y-102590952D02*
X150499289Y-102567143D01*
X150499289Y-102567143D02*
X150523098Y-102543333D01*
X150523098Y-102543333D02*
X150535003Y-102519524D01*
X150713574Y-102900476D02*
X150713574Y-102757619D01*
X150713574Y-102829047D02*
X150463574Y-102829047D01*
X150463574Y-102829047D02*
X150499289Y-102805238D01*
X150499289Y-102805238D02*
X150523098Y-102781428D01*
X150523098Y-102781428D02*
X150535003Y-102757619D01*
D10*
X148810475Y-100754819D02*
X148715237Y-100754819D01*
X148715237Y-100754819D02*
X148619999Y-100802438D01*
X148619999Y-100802438D02*
X148572380Y-100850057D01*
X148572380Y-100850057D02*
X148524761Y-100945295D01*
X148524761Y-100945295D02*
X148477142Y-101135771D01*
X148477142Y-101135771D02*
X148477142Y-101373866D01*
X148477142Y-101373866D02*
X148524761Y-101564342D01*
X148524761Y-101564342D02*
X148572380Y-101659580D01*
X148572380Y-101659580D02*
X148619999Y-101707200D01*
X148619999Y-101707200D02*
X148715237Y-101754819D01*
X148715237Y-101754819D02*
X148810475Y-101754819D01*
X148810475Y-101754819D02*
X148905713Y-101707200D01*
X148905713Y-101707200D02*
X148953332Y-101659580D01*
X148953332Y-101659580D02*
X149000951Y-101564342D01*
X149000951Y-101564342D02*
X149048570Y-101373866D01*
X149048570Y-101373866D02*
X149048570Y-101135771D01*
X149048570Y-101135771D02*
X149000951Y-100945295D01*
X149000951Y-100945295D02*
X148953332Y-100850057D01*
X148953332Y-100850057D02*
X148905713Y-100802438D01*
X148905713Y-100802438D02*
X148810475Y-100754819D01*
X148048570Y-101659580D02*
X148000951Y-101707200D01*
X148000951Y-101707200D02*
X148048570Y-101754819D01*
X148048570Y-101754819D02*
X148096189Y-101707200D01*
X148096189Y-101707200D02*
X148048570Y-101659580D01*
X148048570Y-101659580D02*
X148048570Y-101754819D01*
X147143809Y-101088152D02*
X147143809Y-101754819D01*
X147381904Y-100707200D02*
X147619999Y-101421485D01*
X147619999Y-101421485D02*
X147000952Y-101421485D01*
X146715237Y-100754819D02*
X146048571Y-100754819D01*
X146048571Y-100754819D02*
X146477142Y-101754819D01*
X145239047Y-101088152D02*
X145239047Y-101754819D01*
X145667618Y-101088152D02*
X145667618Y-101611961D01*
X145667618Y-101611961D02*
X145619999Y-101707200D01*
X145619999Y-101707200D02*
X145524761Y-101754819D01*
X145524761Y-101754819D02*
X145381904Y-101754819D01*
X145381904Y-101754819D02*
X145286666Y-101707200D01*
X145286666Y-101707200D02*
X145239047Y-101659580D01*
D11*
X147280714Y-103119765D02*
X147292618Y-103131670D01*
X147292618Y-103131670D02*
X147328333Y-103143574D01*
X147328333Y-103143574D02*
X147352142Y-103143574D01*
X147352142Y-103143574D02*
X147387856Y-103131670D01*
X147387856Y-103131670D02*
X147411666Y-103107860D01*
X147411666Y-103107860D02*
X147423571Y-103084050D01*
X147423571Y-103084050D02*
X147435475Y-103036431D01*
X147435475Y-103036431D02*
X147435475Y-103000717D01*
X147435475Y-103000717D02*
X147423571Y-102953098D01*
X147423571Y-102953098D02*
X147411666Y-102929289D01*
X147411666Y-102929289D02*
X147387856Y-102905479D01*
X147387856Y-102905479D02*
X147352142Y-102893574D01*
X147352142Y-102893574D02*
X147328333Y-102893574D01*
X147328333Y-102893574D02*
X147292618Y-102905479D01*
X147292618Y-102905479D02*
X147280714Y-102917384D01*
X147042618Y-103143574D02*
X147185475Y-103143574D01*
X147114047Y-103143574D02*
X147114047Y-102893574D01*
X147114047Y-102893574D02*
X147137856Y-102929289D01*
X147137856Y-102929289D02*
X147161666Y-102953098D01*
X147161666Y-102953098D02*
X147185475Y-102965003D01*
X146947380Y-102917384D02*
X146935476Y-102905479D01*
X146935476Y-102905479D02*
X146911666Y-102893574D01*
X146911666Y-102893574D02*
X146852142Y-102893574D01*
X146852142Y-102893574D02*
X146828333Y-102905479D01*
X146828333Y-102905479D02*
X146816428Y-102917384D01*
X146816428Y-102917384D02*
X146804523Y-102941193D01*
X146804523Y-102941193D02*
X146804523Y-102965003D01*
X146804523Y-102965003D02*
X146816428Y-103000717D01*
X146816428Y-103000717D02*
X146959285Y-103143574D01*
X146959285Y-103143574D02*
X146804523Y-103143574D01*
D10*
X149730475Y-98434819D02*
X149635237Y-98434819D01*
X149635237Y-98434819D02*
X149539999Y-98482438D01*
X149539999Y-98482438D02*
X149492380Y-98530057D01*
X149492380Y-98530057D02*
X149444761Y-98625295D01*
X149444761Y-98625295D02*
X149397142Y-98815771D01*
X149397142Y-98815771D02*
X149397142Y-99053866D01*
X149397142Y-99053866D02*
X149444761Y-99244342D01*
X149444761Y-99244342D02*
X149492380Y-99339580D01*
X149492380Y-99339580D02*
X149539999Y-99387200D01*
X149539999Y-99387200D02*
X149635237Y-99434819D01*
X149635237Y-99434819D02*
X149730475Y-99434819D01*
X149730475Y-99434819D02*
X149825713Y-99387200D01*
X149825713Y-99387200D02*
X149873332Y-99339580D01*
X149873332Y-99339580D02*
X149920951Y-99244342D01*
X149920951Y-99244342D02*
X149968570Y-99053866D01*
X149968570Y-99053866D02*
X149968570Y-98815771D01*
X149968570Y-98815771D02*
X149920951Y-98625295D01*
X149920951Y-98625295D02*
X149873332Y-98530057D01*
X149873332Y-98530057D02*
X149825713Y-98482438D01*
X149825713Y-98482438D02*
X149730475Y-98434819D01*
X148968570Y-99339580D02*
X148920951Y-99387200D01*
X148920951Y-99387200D02*
X148968570Y-99434819D01*
X148968570Y-99434819D02*
X149016189Y-99387200D01*
X149016189Y-99387200D02*
X148968570Y-99339580D01*
X148968570Y-99339580D02*
X148968570Y-99434819D01*
X148063809Y-98768152D02*
X148063809Y-99434819D01*
X148301904Y-98387200D02*
X148539999Y-99101485D01*
X148539999Y-99101485D02*
X147920952Y-99101485D01*
X147635237Y-98434819D02*
X146968571Y-98434819D01*
X146968571Y-98434819D02*
X147397142Y-99434819D01*
X146159047Y-98768152D02*
X146159047Y-99434819D01*
X146587618Y-98768152D02*
X146587618Y-99291961D01*
X146587618Y-99291961D02*
X146539999Y-99387200D01*
X146539999Y-99387200D02*
X146444761Y-99434819D01*
X146444761Y-99434819D02*
X146301904Y-99434819D01*
X146301904Y-99434819D02*
X146206666Y-99387200D01*
X146206666Y-99387200D02*
X146159047Y-99339580D01*
D11*
X148200714Y-100799765D02*
X148212618Y-100811670D01*
X148212618Y-100811670D02*
X148248333Y-100823574D01*
X148248333Y-100823574D02*
X148272142Y-100823574D01*
X148272142Y-100823574D02*
X148307856Y-100811670D01*
X148307856Y-100811670D02*
X148331666Y-100787860D01*
X148331666Y-100787860D02*
X148343571Y-100764050D01*
X148343571Y-100764050D02*
X148355475Y-100716431D01*
X148355475Y-100716431D02*
X148355475Y-100680717D01*
X148355475Y-100680717D02*
X148343571Y-100633098D01*
X148343571Y-100633098D02*
X148331666Y-100609289D01*
X148331666Y-100609289D02*
X148307856Y-100585479D01*
X148307856Y-100585479D02*
X148272142Y-100573574D01*
X148272142Y-100573574D02*
X148248333Y-100573574D01*
X148248333Y-100573574D02*
X148212618Y-100585479D01*
X148212618Y-100585479D02*
X148200714Y-100597384D01*
X148105475Y-100597384D02*
X148093571Y-100585479D01*
X148093571Y-100585479D02*
X148069761Y-100573574D01*
X148069761Y-100573574D02*
X148010237Y-100573574D01*
X148010237Y-100573574D02*
X147986428Y-100585479D01*
X147986428Y-100585479D02*
X147974523Y-100597384D01*
X147974523Y-100597384D02*
X147962618Y-100621193D01*
X147962618Y-100621193D02*
X147962618Y-100645003D01*
X147962618Y-100645003D02*
X147974523Y-100680717D01*
X147974523Y-100680717D02*
X148117380Y-100823574D01*
X148117380Y-100823574D02*
X147962618Y-100823574D01*
X147867380Y-100597384D02*
X147855476Y-100585479D01*
X147855476Y-100585479D02*
X147831666Y-100573574D01*
X147831666Y-100573574D02*
X147772142Y-100573574D01*
X147772142Y-100573574D02*
X147748333Y-100585479D01*
X147748333Y-100585479D02*
X147736428Y-100597384D01*
X147736428Y-100597384D02*
X147724523Y-100621193D01*
X147724523Y-100621193D02*
X147724523Y-100645003D01*
X147724523Y-100645003D02*
X147736428Y-100680717D01*
X147736428Y-100680717D02*
X147879285Y-100823574D01*
X147879285Y-100823574D02*
X147724523Y-100823574D01*
D10*
X149104819Y-103880952D02*
X149104819Y-103309524D01*
X149104819Y-103595238D02*
X148104819Y-103595238D01*
X148104819Y-103595238D02*
X148247676Y-103500000D01*
X148247676Y-103500000D02*
X148342914Y-103404762D01*
X148342914Y-103404762D02*
X148390533Y-103309524D01*
X148104819Y-104500000D02*
X148104819Y-104595238D01*
X148104819Y-104595238D02*
X148152438Y-104690476D01*
X148152438Y-104690476D02*
X148200057Y-104738095D01*
X148200057Y-104738095D02*
X148295295Y-104785714D01*
X148295295Y-104785714D02*
X148485771Y-104833333D01*
X148485771Y-104833333D02*
X148723866Y-104833333D01*
X148723866Y-104833333D02*
X148914342Y-104785714D01*
X148914342Y-104785714D02*
X149009580Y-104738095D01*
X149009580Y-104738095D02*
X149057200Y-104690476D01*
X149057200Y-104690476D02*
X149104819Y-104595238D01*
X149104819Y-104595238D02*
X149104819Y-104500000D01*
X149104819Y-104500000D02*
X149057200Y-104404762D01*
X149057200Y-104404762D02*
X149009580Y-104357143D01*
X149009580Y-104357143D02*
X148914342Y-104309524D01*
X148914342Y-104309524D02*
X148723866Y-104261905D01*
X148723866Y-104261905D02*
X148485771Y-104261905D01*
X148485771Y-104261905D02*
X148295295Y-104309524D01*
X148295295Y-104309524D02*
X148200057Y-104357143D01*
X148200057Y-104357143D02*
X148152438Y-104404762D01*
X148152438Y-104404762D02*
X148104819Y-104500000D01*
X148104819Y-105452381D02*
X148104819Y-105547619D01*
X148104819Y-105547619D02*
X148152438Y-105642857D01*
X148152438Y-105642857D02*
X148200057Y-105690476D01*
X148200057Y-105690476D02*
X148295295Y-105738095D01*
X148295295Y-105738095D02*
X148485771Y-105785714D01*
X148485771Y-105785714D02*
X148723866Y-105785714D01*
X148723866Y-105785714D02*
X148914342Y-105738095D01*
X148914342Y-105738095D02*
X149009580Y-105690476D01*
X149009580Y-105690476D02*
X149057200Y-105642857D01*
X149057200Y-105642857D02*
X149104819Y-105547619D01*
X149104819Y-105547619D02*
X149104819Y-105452381D01*
X149104819Y-105452381D02*
X149057200Y-105357143D01*
X149057200Y-105357143D02*
X149009580Y-105309524D01*
X149009580Y-105309524D02*
X148914342Y-105261905D01*
X148914342Y-105261905D02*
X148723866Y-105214286D01*
X148723866Y-105214286D02*
X148485771Y-105214286D01*
X148485771Y-105214286D02*
X148295295Y-105261905D01*
X148295295Y-105261905D02*
X148200057Y-105309524D01*
X148200057Y-105309524D02*
X148152438Y-105357143D01*
X148152438Y-105357143D02*
X148104819Y-105452381D01*
X148438152Y-106642857D02*
X149104819Y-106642857D01*
X148438152Y-106214286D02*
X148961961Y-106214286D01*
X148961961Y-106214286D02*
X149057200Y-106261905D01*
X149057200Y-106261905D02*
X149104819Y-106357143D01*
X149104819Y-106357143D02*
X149104819Y-106500000D01*
X149104819Y-106500000D02*
X149057200Y-106595238D01*
X149057200Y-106595238D02*
X149009580Y-106642857D01*
D11*
X147009765Y-104839285D02*
X147021670Y-104827381D01*
X147021670Y-104827381D02*
X147033574Y-104791666D01*
X147033574Y-104791666D02*
X147033574Y-104767857D01*
X147033574Y-104767857D02*
X147021670Y-104732143D01*
X147021670Y-104732143D02*
X146997860Y-104708333D01*
X146997860Y-104708333D02*
X146974050Y-104696428D01*
X146974050Y-104696428D02*
X146926431Y-104684524D01*
X146926431Y-104684524D02*
X146890717Y-104684524D01*
X146890717Y-104684524D02*
X146843098Y-104696428D01*
X146843098Y-104696428D02*
X146819289Y-104708333D01*
X146819289Y-104708333D02*
X146795479Y-104732143D01*
X146795479Y-104732143D02*
X146783574Y-104767857D01*
X146783574Y-104767857D02*
X146783574Y-104791666D01*
X146783574Y-104791666D02*
X146795479Y-104827381D01*
X146795479Y-104827381D02*
X146807384Y-104839285D01*
X147033574Y-105077381D02*
X147033574Y-104934524D01*
X147033574Y-105005952D02*
X146783574Y-105005952D01*
X146783574Y-105005952D02*
X146819289Y-104982143D01*
X146819289Y-104982143D02*
X146843098Y-104958333D01*
X146843098Y-104958333D02*
X146855003Y-104934524D01*
X146783574Y-105303571D02*
X146783574Y-105184523D01*
X146783574Y-105184523D02*
X146902622Y-105172619D01*
X146902622Y-105172619D02*
X146890717Y-105184523D01*
X146890717Y-105184523D02*
X146878812Y-105208333D01*
X146878812Y-105208333D02*
X146878812Y-105267857D01*
X146878812Y-105267857D02*
X146890717Y-105291666D01*
X146890717Y-105291666D02*
X146902622Y-105303571D01*
X146902622Y-105303571D02*
X146926431Y-105315476D01*
X146926431Y-105315476D02*
X146985955Y-105315476D01*
X146985955Y-105315476D02*
X147009765Y-105303571D01*
X147009765Y-105303571D02*
X147021670Y-105291666D01*
X147021670Y-105291666D02*
X147033574Y-105267857D01*
X147033574Y-105267857D02*
X147033574Y-105208333D01*
X147033574Y-105208333D02*
X147021670Y-105184523D01*
X147021670Y-105184523D02*
X147009765Y-105172619D01*
D10*
X144420475Y-101284819D02*
X144325237Y-101284819D01*
X144325237Y-101284819D02*
X144229999Y-101332438D01*
X144229999Y-101332438D02*
X144182380Y-101380057D01*
X144182380Y-101380057D02*
X144134761Y-101475295D01*
X144134761Y-101475295D02*
X144087142Y-101665771D01*
X144087142Y-101665771D02*
X144087142Y-101903866D01*
X144087142Y-101903866D02*
X144134761Y-102094342D01*
X144134761Y-102094342D02*
X144182380Y-102189580D01*
X144182380Y-102189580D02*
X144229999Y-102237200D01*
X144229999Y-102237200D02*
X144325237Y-102284819D01*
X144325237Y-102284819D02*
X144420475Y-102284819D01*
X144420475Y-102284819D02*
X144515713Y-102237200D01*
X144515713Y-102237200D02*
X144563332Y-102189580D01*
X144563332Y-102189580D02*
X144610951Y-102094342D01*
X144610951Y-102094342D02*
X144658570Y-101903866D01*
X144658570Y-101903866D02*
X144658570Y-101665771D01*
X144658570Y-101665771D02*
X144610951Y-101475295D01*
X144610951Y-101475295D02*
X144563332Y-101380057D01*
X144563332Y-101380057D02*
X144515713Y-101332438D01*
X144515713Y-101332438D02*
X144420475Y-101284819D01*
X143658570Y-102189580D02*
X143610951Y-102237200D01*
X143610951Y-102237200D02*
X143658570Y-102284819D01*
X143658570Y-102284819D02*
X143706189Y-102237200D01*
X143706189Y-102237200D02*
X143658570Y-102189580D01*
X143658570Y-102189580D02*
X143658570Y-102284819D01*
X142753809Y-101618152D02*
X142753809Y-102284819D01*
X142991904Y-101237200D02*
X143229999Y-101951485D01*
X143229999Y-101951485D02*
X142610952Y-101951485D01*
X142325237Y-101284819D02*
X141658571Y-101284819D01*
X141658571Y-101284819D02*
X142087142Y-102284819D01*
X140849047Y-101618152D02*
X140849047Y-102284819D01*
X141277618Y-101618152D02*
X141277618Y-102141961D01*
X141277618Y-102141961D02*
X141229999Y-102237200D01*
X141229999Y-102237200D02*
X141134761Y-102284819D01*
X141134761Y-102284819D02*
X140991904Y-102284819D01*
X140991904Y-102284819D02*
X140896666Y-102237200D01*
X140896666Y-102237200D02*
X140849047Y-102189580D01*
D11*
X142890714Y-100189765D02*
X142902618Y-100201670D01*
X142902618Y-100201670D02*
X142938333Y-100213574D01*
X142938333Y-100213574D02*
X142962142Y-100213574D01*
X142962142Y-100213574D02*
X142997856Y-100201670D01*
X142997856Y-100201670D02*
X143021666Y-100177860D01*
X143021666Y-100177860D02*
X143033571Y-100154050D01*
X143033571Y-100154050D02*
X143045475Y-100106431D01*
X143045475Y-100106431D02*
X143045475Y-100070717D01*
X143045475Y-100070717D02*
X143033571Y-100023098D01*
X143033571Y-100023098D02*
X143021666Y-99999289D01*
X143021666Y-99999289D02*
X142997856Y-99975479D01*
X142997856Y-99975479D02*
X142962142Y-99963574D01*
X142962142Y-99963574D02*
X142938333Y-99963574D01*
X142938333Y-99963574D02*
X142902618Y-99975479D01*
X142902618Y-99975479D02*
X142890714Y-99987384D01*
X142807380Y-99963574D02*
X142652618Y-99963574D01*
X142652618Y-99963574D02*
X142735952Y-100058812D01*
X142735952Y-100058812D02*
X142700237Y-100058812D01*
X142700237Y-100058812D02*
X142676428Y-100070717D01*
X142676428Y-100070717D02*
X142664523Y-100082622D01*
X142664523Y-100082622D02*
X142652618Y-100106431D01*
X142652618Y-100106431D02*
X142652618Y-100165955D01*
X142652618Y-100165955D02*
X142664523Y-100189765D01*
X142664523Y-100189765D02*
X142676428Y-100201670D01*
X142676428Y-100201670D02*
X142700237Y-100213574D01*
X142700237Y-100213574D02*
X142771666Y-100213574D01*
X142771666Y-100213574D02*
X142795475Y-100201670D01*
X142795475Y-100201670D02*
X142807380Y-100189765D01*
X142569285Y-99963574D02*
X142414523Y-99963574D01*
X142414523Y-99963574D02*
X142497857Y-100058812D01*
X142497857Y-100058812D02*
X142462142Y-100058812D01*
X142462142Y-100058812D02*
X142438333Y-100070717D01*
X142438333Y-100070717D02*
X142426428Y-100082622D01*
X142426428Y-100082622D02*
X142414523Y-100106431D01*
X142414523Y-100106431D02*
X142414523Y-100165955D01*
X142414523Y-100165955D02*
X142426428Y-100189765D01*
X142426428Y-100189765D02*
X142438333Y-100201670D01*
X142438333Y-100201670D02*
X142462142Y-100213574D01*
X142462142Y-100213574D02*
X142533571Y-100213574D01*
X142533571Y-100213574D02*
X142557380Y-100201670D01*
X142557380Y-100201670D02*
X142569285Y-100189765D01*
D10*
X148219047Y-99554819D02*
X148790475Y-99554819D01*
X148504761Y-99554819D02*
X148504761Y-98554819D01*
X148504761Y-98554819D02*
X148599999Y-98697676D01*
X148599999Y-98697676D02*
X148695237Y-98792914D01*
X148695237Y-98792914D02*
X148790475Y-98840533D01*
X147599999Y-98554819D02*
X147504761Y-98554819D01*
X147504761Y-98554819D02*
X147409523Y-98602438D01*
X147409523Y-98602438D02*
X147361904Y-98650057D01*
X147361904Y-98650057D02*
X147314285Y-98745295D01*
X147314285Y-98745295D02*
X147266666Y-98935771D01*
X147266666Y-98935771D02*
X147266666Y-99173866D01*
X147266666Y-99173866D02*
X147314285Y-99364342D01*
X147314285Y-99364342D02*
X147361904Y-99459580D01*
X147361904Y-99459580D02*
X147409523Y-99507200D01*
X147409523Y-99507200D02*
X147504761Y-99554819D01*
X147504761Y-99554819D02*
X147599999Y-99554819D01*
X147599999Y-99554819D02*
X147695237Y-99507200D01*
X147695237Y-99507200D02*
X147742856Y-99459580D01*
X147742856Y-99459580D02*
X147790475Y-99364342D01*
X147790475Y-99364342D02*
X147838094Y-99173866D01*
X147838094Y-99173866D02*
X147838094Y-98935771D01*
X147838094Y-98935771D02*
X147790475Y-98745295D01*
X147790475Y-98745295D02*
X147742856Y-98650057D01*
X147742856Y-98650057D02*
X147695237Y-98602438D01*
X147695237Y-98602438D02*
X147599999Y-98554819D01*
X146647618Y-98554819D02*
X146552380Y-98554819D01*
X146552380Y-98554819D02*
X146457142Y-98602438D01*
X146457142Y-98602438D02*
X146409523Y-98650057D01*
X146409523Y-98650057D02*
X146361904Y-98745295D01*
X146361904Y-98745295D02*
X146314285Y-98935771D01*
X146314285Y-98935771D02*
X146314285Y-99173866D01*
X146314285Y-99173866D02*
X146361904Y-99364342D01*
X146361904Y-99364342D02*
X146409523Y-99459580D01*
X146409523Y-99459580D02*
X146457142Y-99507200D01*
X146457142Y-99507200D02*
X146552380Y-99554819D01*
X146552380Y-99554819D02*
X146647618Y-99554819D01*
X146647618Y-99554819D02*
X146742856Y-99507200D01*
X146742856Y-99507200D02*
X146790475Y-99459580D01*
X146790475Y-99459580D02*
X146838094Y-99364342D01*
X146838094Y-99364342D02*
X146885713Y-99173866D01*
X146885713Y-99173866D02*
X146885713Y-98935771D01*
X146885713Y-98935771D02*
X146838094Y-98745295D01*
X146838094Y-98745295D02*
X146790475Y-98650057D01*
X146790475Y-98650057D02*
X146742856Y-98602438D01*
X146742856Y-98602438D02*
X146647618Y-98554819D01*
X145457142Y-98888152D02*
X145457142Y-99554819D01*
X145885713Y-98888152D02*
X145885713Y-99411961D01*
X145885713Y-99411961D02*
X145838094Y-99507200D01*
X145838094Y-99507200D02*
X145742856Y-99554819D01*
X145742856Y-99554819D02*
X145599999Y-99554819D01*
X145599999Y-99554819D02*
X145504761Y-99507200D01*
X145504761Y-99507200D02*
X145457142Y-99459580D01*
D11*
X147260714Y-97459765D02*
X147272618Y-97471670D01*
X147272618Y-97471670D02*
X147308333Y-97483574D01*
X147308333Y-97483574D02*
X147332142Y-97483574D01*
X147332142Y-97483574D02*
X147367856Y-97471670D01*
X147367856Y-97471670D02*
X147391666Y-97447860D01*
X147391666Y-97447860D02*
X147403571Y-97424050D01*
X147403571Y-97424050D02*
X147415475Y-97376431D01*
X147415475Y-97376431D02*
X147415475Y-97340717D01*
X147415475Y-97340717D02*
X147403571Y-97293098D01*
X147403571Y-97293098D02*
X147391666Y-97269289D01*
X147391666Y-97269289D02*
X147367856Y-97245479D01*
X147367856Y-97245479D02*
X147332142Y-97233574D01*
X147332142Y-97233574D02*
X147308333Y-97233574D01*
X147308333Y-97233574D02*
X147272618Y-97245479D01*
X147272618Y-97245479D02*
X147260714Y-97257384D01*
X147177380Y-97233574D02*
X147022618Y-97233574D01*
X147022618Y-97233574D02*
X147105952Y-97328812D01*
X147105952Y-97328812D02*
X147070237Y-97328812D01*
X147070237Y-97328812D02*
X147046428Y-97340717D01*
X147046428Y-97340717D02*
X147034523Y-97352622D01*
X147034523Y-97352622D02*
X147022618Y-97376431D01*
X147022618Y-97376431D02*
X147022618Y-97435955D01*
X147022618Y-97435955D02*
X147034523Y-97459765D01*
X147034523Y-97459765D02*
X147046428Y-97471670D01*
X147046428Y-97471670D02*
X147070237Y-97483574D01*
X147070237Y-97483574D02*
X147141666Y-97483574D01*
X147141666Y-97483574D02*
X147165475Y-97471670D01*
X147165475Y-97471670D02*
X147177380Y-97459765D01*
X146796428Y-97233574D02*
X146915476Y-97233574D01*
X146915476Y-97233574D02*
X146927380Y-97352622D01*
X146927380Y-97352622D02*
X146915476Y-97340717D01*
X146915476Y-97340717D02*
X146891666Y-97328812D01*
X146891666Y-97328812D02*
X146832142Y-97328812D01*
X146832142Y-97328812D02*
X146808333Y-97340717D01*
X146808333Y-97340717D02*
X146796428Y-97352622D01*
X146796428Y-97352622D02*
X146784523Y-97376431D01*
X146784523Y-97376431D02*
X146784523Y-97435955D01*
X146784523Y-97435955D02*
X146796428Y-97459765D01*
X146796428Y-97459765D02*
X146808333Y-97471670D01*
X146808333Y-97471670D02*
X146832142Y-97483574D01*
X146832142Y-97483574D02*
X146891666Y-97483574D01*
X146891666Y-97483574D02*
X146915476Y-97471670D01*
X146915476Y-97471670D02*
X146927380Y-97459765D01*
D10*
X147050475Y-103774819D02*
X146955237Y-103774819D01*
X146955237Y-103774819D02*
X146859999Y-103822438D01*
X146859999Y-103822438D02*
X146812380Y-103870057D01*
X146812380Y-103870057D02*
X146764761Y-103965295D01*
X146764761Y-103965295D02*
X146717142Y-104155771D01*
X146717142Y-104155771D02*
X146717142Y-104393866D01*
X146717142Y-104393866D02*
X146764761Y-104584342D01*
X146764761Y-104584342D02*
X146812380Y-104679580D01*
X146812380Y-104679580D02*
X146859999Y-104727200D01*
X146859999Y-104727200D02*
X146955237Y-104774819D01*
X146955237Y-104774819D02*
X147050475Y-104774819D01*
X147050475Y-104774819D02*
X147145713Y-104727200D01*
X147145713Y-104727200D02*
X147193332Y-104679580D01*
X147193332Y-104679580D02*
X147240951Y-104584342D01*
X147240951Y-104584342D02*
X147288570Y-104393866D01*
X147288570Y-104393866D02*
X147288570Y-104155771D01*
X147288570Y-104155771D02*
X147240951Y-103965295D01*
X147240951Y-103965295D02*
X147193332Y-103870057D01*
X147193332Y-103870057D02*
X147145713Y-103822438D01*
X147145713Y-103822438D02*
X147050475Y-103774819D01*
X146288570Y-104679580D02*
X146240951Y-104727200D01*
X146240951Y-104727200D02*
X146288570Y-104774819D01*
X146288570Y-104774819D02*
X146336189Y-104727200D01*
X146336189Y-104727200D02*
X146288570Y-104679580D01*
X146288570Y-104679580D02*
X146288570Y-104774819D01*
X145383809Y-104108152D02*
X145383809Y-104774819D01*
X145621904Y-103727200D02*
X145859999Y-104441485D01*
X145859999Y-104441485D02*
X145240952Y-104441485D01*
X144955237Y-103774819D02*
X144288571Y-103774819D01*
X144288571Y-103774819D02*
X144717142Y-104774819D01*
X143479047Y-104108152D02*
X143479047Y-104774819D01*
X143907618Y-104108152D02*
X143907618Y-104631961D01*
X143907618Y-104631961D02*
X143859999Y-104727200D01*
X143859999Y-104727200D02*
X143764761Y-104774819D01*
X143764761Y-104774819D02*
X143621904Y-104774819D01*
X143621904Y-104774819D02*
X143526666Y-104727200D01*
X143526666Y-104727200D02*
X143479047Y-104679580D01*
D11*
X145520714Y-106139765D02*
X145532618Y-106151670D01*
X145532618Y-106151670D02*
X145568333Y-106163574D01*
X145568333Y-106163574D02*
X145592142Y-106163574D01*
X145592142Y-106163574D02*
X145627856Y-106151670D01*
X145627856Y-106151670D02*
X145651666Y-106127860D01*
X145651666Y-106127860D02*
X145663571Y-106104050D01*
X145663571Y-106104050D02*
X145675475Y-106056431D01*
X145675475Y-106056431D02*
X145675475Y-106020717D01*
X145675475Y-106020717D02*
X145663571Y-105973098D01*
X145663571Y-105973098D02*
X145651666Y-105949289D01*
X145651666Y-105949289D02*
X145627856Y-105925479D01*
X145627856Y-105925479D02*
X145592142Y-105913574D01*
X145592142Y-105913574D02*
X145568333Y-105913574D01*
X145568333Y-105913574D02*
X145532618Y-105925479D01*
X145532618Y-105925479D02*
X145520714Y-105937384D01*
X145425475Y-105937384D02*
X145413571Y-105925479D01*
X145413571Y-105925479D02*
X145389761Y-105913574D01*
X145389761Y-105913574D02*
X145330237Y-105913574D01*
X145330237Y-105913574D02*
X145306428Y-105925479D01*
X145306428Y-105925479D02*
X145294523Y-105937384D01*
X145294523Y-105937384D02*
X145282618Y-105961193D01*
X145282618Y-105961193D02*
X145282618Y-105985003D01*
X145282618Y-105985003D02*
X145294523Y-106020717D01*
X145294523Y-106020717D02*
X145437380Y-106163574D01*
X145437380Y-106163574D02*
X145282618Y-106163574D01*
X145199285Y-105913574D02*
X145044523Y-105913574D01*
X145044523Y-105913574D02*
X145127857Y-106008812D01*
X145127857Y-106008812D02*
X145092142Y-106008812D01*
X145092142Y-106008812D02*
X145068333Y-106020717D01*
X145068333Y-106020717D02*
X145056428Y-106032622D01*
X145056428Y-106032622D02*
X145044523Y-106056431D01*
X145044523Y-106056431D02*
X145044523Y-106115955D01*
X145044523Y-106115955D02*
X145056428Y-106139765D01*
X145056428Y-106139765D02*
X145068333Y-106151670D01*
X145068333Y-106151670D02*
X145092142Y-106163574D01*
X145092142Y-106163574D02*
X145163571Y-106163574D01*
X145163571Y-106163574D02*
X145187380Y-106151670D01*
X145187380Y-106151670D02*
X145199285Y-106139765D01*
D10*
X152894819Y-109774761D02*
X152894819Y-109203333D01*
X152894819Y-109489047D02*
X151894819Y-109489047D01*
X151894819Y-109489047D02*
X152037676Y-109393809D01*
X152037676Y-109393809D02*
X152132914Y-109298571D01*
X152132914Y-109298571D02*
X152180533Y-109203333D01*
X151894819Y-110393809D02*
X151894819Y-110489047D01*
X151894819Y-110489047D02*
X151942438Y-110584285D01*
X151942438Y-110584285D02*
X151990057Y-110631904D01*
X151990057Y-110631904D02*
X152085295Y-110679523D01*
X152085295Y-110679523D02*
X152275771Y-110727142D01*
X152275771Y-110727142D02*
X152513866Y-110727142D01*
X152513866Y-110727142D02*
X152704342Y-110679523D01*
X152704342Y-110679523D02*
X152799580Y-110631904D01*
X152799580Y-110631904D02*
X152847200Y-110584285D01*
X152847200Y-110584285D02*
X152894819Y-110489047D01*
X152894819Y-110489047D02*
X152894819Y-110393809D01*
X152894819Y-110393809D02*
X152847200Y-110298571D01*
X152847200Y-110298571D02*
X152799580Y-110250952D01*
X152799580Y-110250952D02*
X152704342Y-110203333D01*
X152704342Y-110203333D02*
X152513866Y-110155714D01*
X152513866Y-110155714D02*
X152275771Y-110155714D01*
X152275771Y-110155714D02*
X152085295Y-110203333D01*
X152085295Y-110203333D02*
X151990057Y-110250952D01*
X151990057Y-110250952D02*
X151942438Y-110298571D01*
X151942438Y-110298571D02*
X151894819Y-110393809D01*
X152894819Y-111155714D02*
X151894819Y-111155714D01*
X152513866Y-111250952D02*
X152894819Y-111536666D01*
X152228152Y-111536666D02*
X152609104Y-111155714D01*
D11*
X150823574Y-110209285D02*
X150704527Y-110125952D01*
X150823574Y-110066428D02*
X150573574Y-110066428D01*
X150573574Y-110066428D02*
X150573574Y-110161666D01*
X150573574Y-110161666D02*
X150585479Y-110185476D01*
X150585479Y-110185476D02*
X150597384Y-110197381D01*
X150597384Y-110197381D02*
X150621193Y-110209285D01*
X150621193Y-110209285D02*
X150656908Y-110209285D01*
X150656908Y-110209285D02*
X150680717Y-110197381D01*
X150680717Y-110197381D02*
X150692622Y-110185476D01*
X150692622Y-110185476D02*
X150704527Y-110161666D01*
X150704527Y-110161666D02*
X150704527Y-110066428D01*
X150823574Y-110447381D02*
X150823574Y-110304524D01*
X150823574Y-110375952D02*
X150573574Y-110375952D01*
X150573574Y-110375952D02*
X150609289Y-110352143D01*
X150609289Y-110352143D02*
X150633098Y-110328333D01*
X150633098Y-110328333D02*
X150645003Y-110304524D01*
X150597384Y-110542619D02*
X150585479Y-110554523D01*
X150585479Y-110554523D02*
X150573574Y-110578333D01*
X150573574Y-110578333D02*
X150573574Y-110637857D01*
X150573574Y-110637857D02*
X150585479Y-110661666D01*
X150585479Y-110661666D02*
X150597384Y-110673571D01*
X150597384Y-110673571D02*
X150621193Y-110685476D01*
X150621193Y-110685476D02*
X150645003Y-110685476D01*
X150645003Y-110685476D02*
X150680717Y-110673571D01*
X150680717Y-110673571D02*
X150823574Y-110530714D01*
X150823574Y-110530714D02*
X150823574Y-110685476D01*
D12*
%TO.C,R13*%
X151240000Y-120435000D02*
X151540000Y-120435000D01*
X151240000Y-121035000D02*
X151240000Y-120435000D01*
X151540000Y-120435000D02*
X151540000Y-121035000D01*
X151540000Y-121035000D02*
X151240000Y-121035000D01*
%TO.C,R4*%
X139840000Y-85415000D02*
X140140000Y-85415000D01*
X139840000Y-86015000D02*
X139840000Y-85415000D01*
X140140000Y-85415000D02*
X140140000Y-86015000D01*
X140140000Y-86015000D02*
X139840000Y-86015000D01*
%TO.C,C21*%
X147730000Y-100670000D02*
X148330000Y-100670000D01*
X147730000Y-100970000D02*
X147730000Y-100670000D01*
X148330000Y-100670000D02*
X148330000Y-100970000D01*
X148330000Y-100970000D02*
X147730000Y-100970000D01*
%TO.C,R7*%
X139380000Y-115430000D02*
X139680000Y-115430000D01*
X139380000Y-116030000D02*
X139380000Y-115430000D01*
X139680000Y-115430000D02*
X139680000Y-116030000D01*
X139680000Y-116030000D02*
X139380000Y-116030000D01*
%TO.C,C32*%
X142430000Y-101410000D02*
X143030000Y-101410000D01*
X142430000Y-101710000D02*
X142430000Y-101410000D01*
X143030000Y-101410000D02*
X143030000Y-101710000D01*
X143030000Y-101710000D02*
X142430000Y-101710000D01*
%TO.C,C9*%
X144490000Y-102940000D02*
X144790000Y-102940000D01*
X144490000Y-103540000D02*
X144490000Y-102940000D01*
X144790000Y-102940000D02*
X144790000Y-103540000D01*
X144790000Y-103540000D02*
X144490000Y-103540000D01*
%TO.C,C8*%
X143445000Y-104420000D02*
X144045000Y-104420000D01*
X143445000Y-104720000D02*
X143445000Y-104420000D01*
X144045000Y-104420000D02*
X144045000Y-104720000D01*
X144045000Y-104720000D02*
X143445000Y-104720000D01*
%TO.C,C13*%
X146070000Y-106920000D02*
X146670000Y-106920000D01*
X146070000Y-107220000D02*
X146070000Y-106920000D01*
X146670000Y-106920000D02*
X146670000Y-107220000D01*
X146670000Y-107220000D02*
X146070000Y-107220000D01*
%TO.C,C7*%
X143430000Y-105200000D02*
X144030000Y-105200000D01*
X143430000Y-105500000D02*
X143430000Y-105200000D01*
X144030000Y-105200000D02*
X144030000Y-105500000D01*
X144030000Y-105500000D02*
X143430000Y-105500000D01*
%TO.C,C25*%
X146620000Y-99400000D02*
X146920000Y-99400000D01*
X146620000Y-100000000D02*
X146620000Y-99400000D01*
X146920000Y-99400000D02*
X146920000Y-100000000D01*
X146920000Y-100000000D02*
X146620000Y-100000000D01*
%TO.C,C20*%
X147730000Y-101440000D02*
X148330000Y-101440000D01*
X147730000Y-101740000D02*
X147730000Y-101440000D01*
X148330000Y-101440000D02*
X148330000Y-101740000D01*
X148330000Y-101740000D02*
X147730000Y-101740000D01*
%TO.C,C14*%
X140780000Y-97100000D02*
X141080000Y-97100000D01*
X140780000Y-97700000D02*
X140780000Y-97100000D01*
X141080000Y-97100000D02*
X141080000Y-97700000D01*
X141080000Y-97700000D02*
X140780000Y-97700000D01*
%TO.C,C34*%
X146530000Y-104700000D02*
X146830000Y-104700000D01*
X146530000Y-105300000D02*
X146530000Y-104700000D01*
X146830000Y-104700000D02*
X146830000Y-105300000D01*
X146830000Y-105300000D02*
X146530000Y-105300000D01*
%TO.C,U4*%
X142740000Y-87945000D02*
X145665000Y-87945000D01*
X142740000Y-92845000D02*
X142740000Y-87945000D01*
X145665000Y-87945000D02*
X146640000Y-88920000D01*
X146640000Y-88920000D02*
X146640000Y-92845000D01*
X146640000Y-92845000D02*
X142740000Y-92845000D01*
%TO.C,R6*%
X139550000Y-105630000D02*
X139850000Y-105630000D01*
X139550000Y-106230000D02*
X139550000Y-105630000D01*
X139850000Y-105630000D02*
X139850000Y-106230000D01*
X139850000Y-106230000D02*
X139550000Y-106230000D01*
%TO.C,R9*%
X150920000Y-79665000D02*
X151220000Y-79665000D01*
X150920000Y-80265000D02*
X150920000Y-79665000D01*
X151220000Y-79665000D02*
X151220000Y-80265000D01*
X151220000Y-80265000D02*
X150920000Y-80265000D01*
%TO.C,R10*%
X151200000Y-90285000D02*
X151500000Y-90285000D01*
X151200000Y-90885000D02*
X151200000Y-90285000D01*
X151500000Y-90285000D02*
X151500000Y-90885000D01*
X151500000Y-90885000D02*
X151200000Y-90885000D01*
%TO.C,C10*%
X143930000Y-106920000D02*
X144530000Y-106920000D01*
X143930000Y-107220000D02*
X143930000Y-106920000D01*
X144530000Y-106920000D02*
X144530000Y-107220000D01*
X144530000Y-107220000D02*
X143930000Y-107220000D01*
%TO.C,C28*%
X143000000Y-99690000D02*
X143600000Y-99690000D01*
X143000000Y-99990000D02*
X143000000Y-99690000D01*
X143600000Y-99690000D02*
X143600000Y-99990000D01*
X143600000Y-99990000D02*
X143000000Y-99990000D01*
%TO.C,C30*%
X143000000Y-98890000D02*
X143600000Y-98890000D01*
X143000000Y-99190000D02*
X143000000Y-98890000D01*
X143600000Y-98890000D02*
X143600000Y-99190000D01*
X143600000Y-99190000D02*
X143000000Y-99190000D01*
%TO.C,R8*%
X139330000Y-126600000D02*
X139630000Y-126600000D01*
X139330000Y-127200000D02*
X139330000Y-126600000D01*
X139630000Y-126600000D02*
X139630000Y-127200000D01*
X139630000Y-127200000D02*
X139330000Y-127200000D01*
%TO.C,C31*%
X142425000Y-102200000D02*
X143025000Y-102200000D01*
X142425000Y-102500000D02*
X142425000Y-102200000D01*
X143025000Y-102200000D02*
X143025000Y-102500000D01*
X143025000Y-102500000D02*
X142425000Y-102500000D01*
%TO.C,R5*%
X139150000Y-95505000D02*
X139450000Y-95505000D01*
X139150000Y-96105000D02*
X139150000Y-95505000D01*
X139450000Y-95505000D02*
X139450000Y-96105000D01*
X139450000Y-96105000D02*
X139150000Y-96105000D01*
%TO.C,C24*%
X145245000Y-97310000D02*
X145845000Y-97310000D01*
X145245000Y-97610000D02*
X145245000Y-97310000D01*
X145845000Y-97310000D02*
X145845000Y-97610000D01*
X145845000Y-97610000D02*
X145245000Y-97610000D01*
%TO.C,R11*%
X151130000Y-102285000D02*
X151430000Y-102285000D01*
X151130000Y-102885000D02*
X151130000Y-102285000D01*
X151430000Y-102285000D02*
X151430000Y-102885000D01*
X151430000Y-102885000D02*
X151130000Y-102885000D01*
%TO.C,C12*%
X146820000Y-102200000D02*
X147420000Y-102200000D01*
X146820000Y-102500000D02*
X146820000Y-102200000D01*
X147420000Y-102200000D02*
X147420000Y-102500000D01*
X147420000Y-102500000D02*
X146820000Y-102500000D01*
%TO.C,C22*%
X147740000Y-99880000D02*
X148340000Y-99880000D01*
X147740000Y-100180000D02*
X147740000Y-99880000D01*
X148340000Y-99880000D02*
X148340000Y-100180000D01*
X148340000Y-100180000D02*
X147740000Y-100180000D01*
%TO.C,C15*%
X147450000Y-104700000D02*
X147750000Y-104700000D01*
X147450000Y-105300000D02*
X147450000Y-104700000D01*
X147750000Y-104700000D02*
X147750000Y-105300000D01*
X147750000Y-105300000D02*
X147450000Y-105300000D01*
%TO.C,C33*%
X142430000Y-100630000D02*
X143030000Y-100630000D01*
X142430000Y-100930000D02*
X142430000Y-100630000D01*
X143030000Y-100630000D02*
X143030000Y-100930000D01*
X143030000Y-100930000D02*
X142430000Y-100930000D01*
%TO.C,C35*%
X146800000Y-97900000D02*
X147400000Y-97900000D01*
X146800000Y-98200000D02*
X146800000Y-97900000D01*
X147400000Y-97900000D02*
X147400000Y-98200000D01*
X147400000Y-98200000D02*
X146800000Y-98200000D01*
%TO.C,C23*%
X145060000Y-105220000D02*
X145660000Y-105220000D01*
X145060000Y-105520000D02*
X145060000Y-105220000D01*
X145660000Y-105220000D02*
X145660000Y-105520000D01*
X145660000Y-105520000D02*
X145060000Y-105520000D01*
%TO.C,R12*%
X151240000Y-110070000D02*
X151540000Y-110070000D01*
X151240000Y-110670000D02*
X151240000Y-110070000D01*
X151540000Y-110070000D02*
X151540000Y-110670000D01*
X151540000Y-110670000D02*
X151240000Y-110670000D01*
%TD*%
M02*
