M48
; DRILL file {KiCad 8.0.1} date 2024-10-17T14:11:03-0500
; FORMAT={-:-/ absolute / metric / decimal}
; #@! TF.CreationDate,2024-10-17T14:11:03-05:00
; #@! TF.GenerationSoftware,Kicad,Pcbnew,8.0.1
; #@! TF.FileFunction,Plated,3,8,Blind
FMAT,2
METRIC
; #@! TA.AperFunction,Plated,Buried,ViaDrill
T1C0.100
%
G90
G05
T1
X139.39Y-86.03
X139.47Y-128.13
X139.52Y-96.99
X140.24Y-111.37
X140.28Y-122.25
X140.53Y-116.07
X140.66Y-91.64
X140.91Y-102.34
X141.8Y-83.13
X144.35Y-88.48
X145.25Y-91.02
X148.9Y-86.21
X149.41Y-79.09
X150.09Y-125.01
X150.84Y-115.67
X151.0Y-119.67
X151.06Y-95.7
X151.39Y-109.4
X151.59Y-101.73
X151.8Y-89.52
M30
