%TF.GenerationSoftware,KiCad,Pcbnew,8.0.1*%
%TF.CreationDate,2024-10-17T14:11:07-05:00*%
%TF.ProjectId,sip-board,7369702d-626f-4617-9264-2e6b69636164,rev?*%
%TF.SameCoordinates,Original*%
%TF.FileFunction,Copper,L6,Inr*%
%TF.FilePolarity,Positive*%
%FSLAX46Y46*%
G04 Gerber Fmt 4.6, Leading zero omitted, Abs format (unit mm)*
G04 Created by KiCad (PCBNEW 8.0.1) date 2024-10-17 14:11:07*
%MOMM*%
%LPD*%
G01*
G04 APERTURE LIST*
%TA.AperFunction,CastellatedPad*%
%ADD10R,1.700000X1.700000*%
%TD*%
%TA.AperFunction,CastellatedPad*%
%ADD11O,1.700000X1.700000*%
%TD*%
%TA.AperFunction,ComponentPad*%
%ADD12R,1.700000X1.700000*%
%TD*%
%TA.AperFunction,ComponentPad*%
%ADD13O,1.700000X1.700000*%
%TD*%
%TA.AperFunction,ViaPad*%
%ADD14C,0.254000*%
%TD*%
%TA.AperFunction,ViaPad*%
%ADD15C,0.300000*%
%TD*%
%TA.AperFunction,Conductor*%
%ADD16C,0.100000*%
%TD*%
G04 APERTURE END LIST*
D10*
%TO.N,A1_5V*%
%TO.C,J5*%
X153970000Y-104800000D03*
D11*
%TO.N,A2_5V*%
X153970000Y-107340000D03*
%TO.N,A3_5V*%
X153970000Y-109880000D03*
%TO.N,A4_5V*%
X153970000Y-112420000D03*
%TO.N,A5_5V*%
X153970000Y-114960000D03*
%TO.N,A6_5V*%
X153970000Y-117500000D03*
%TO.N,A7_5V*%
X153970000Y-120040000D03*
%TO.N,A8_5V*%
X153970000Y-122580000D03*
%TO.N,A9_5V*%
X153970000Y-125120000D03*
%TO.N,A10_5V*%
X153970000Y-127660000D03*
%TD*%
D10*
%TO.N,+5V*%
%TO.C,J3*%
X137000000Y-104840000D03*
D11*
%TO.N,D2_5V*%
X137000000Y-107380000D03*
%TO.N,D7_5V*%
X137000000Y-109920000D03*
%TO.N,D0_5V*%
X137000000Y-112460000D03*
%TO.N,D1_5V*%
X137000000Y-115000000D03*
%TO.N,INT_5V*%
X137000000Y-117540000D03*
%TO.N,NMI_5V*%
X137000000Y-120080000D03*
%TO.N,HALT_5V*%
X137000000Y-122620000D03*
%TO.N,MREQ_5V*%
X137000000Y-125160000D03*
%TO.N,IORQ_5V*%
X137000000Y-127700000D03*
%TD*%
D10*
%TO.N,A11_5V*%
%TO.C,J2*%
X137000000Y-79405000D03*
D11*
%TO.N,A12_5V*%
X137000000Y-81945000D03*
%TO.N,A13_5V*%
X137000000Y-84485000D03*
%TO.N,A14_5V*%
X137000000Y-87025000D03*
%TO.N,A15_5V*%
X137000000Y-89565000D03*
%TO.N,CLK_5V*%
X137000000Y-92105000D03*
%TO.N,D4_5V*%
X137000000Y-94645000D03*
%TO.N,D3_5V*%
X137000000Y-97185000D03*
%TO.N,D5_5V*%
X137000000Y-99725000D03*
%TO.N,D6_5V*%
X137000000Y-102265000D03*
%TD*%
D12*
%TO.N,RD_5V*%
%TO.C,J4*%
X153940000Y-79400000D03*
D13*
%TO.N,WR_5V*%
X153940000Y-81940000D03*
%TO.N,BUSAK_5V*%
X153940000Y-84480000D03*
%TO.N,WAIT_5V*%
X153940000Y-87020000D03*
%TO.N,BUSRQ_5V*%
X153940000Y-89560000D03*
%TO.N,RESET_5V*%
X153940000Y-92100000D03*
%TO.N,M1_5V*%
X153940000Y-94640000D03*
%TO.N,RFSH_5V*%
X153940000Y-97180000D03*
%TO.N,GND*%
X153940000Y-99720000D03*
%TO.N,A0_5V*%
X153940000Y-102260000D03*
%TD*%
D14*
%TO.N,+1V0*%
X146400000Y-102110000D03*
X144920000Y-102590000D03*
X141440000Y-97080000D03*
%TO.N,GND*%
X150400000Y-106500000D03*
X150530000Y-95300000D03*
X146760000Y-114750000D03*
X141770000Y-101850000D03*
X147160000Y-98930000D03*
X149060000Y-105850000D03*
X142160000Y-98920000D03*
X149040000Y-103850000D03*
X149240000Y-114750000D03*
X141770000Y-104350000D03*
X144160000Y-106240000D03*
X149920000Y-111060000D03*
X144660000Y-98960000D03*
X140700000Y-85980000D03*
X141770000Y-105850000D03*
X146740000Y-94550000D03*
X145160000Y-106240000D03*
X144130000Y-114750000D03*
X143040000Y-94560000D03*
X149020000Y-99350000D03*
X149000000Y-101350000D03*
X146160000Y-106230000D03*
D15*
%TO.N,+5V*%
X139220000Y-90330000D03*
X138940000Y-101250000D03*
X150760000Y-94720000D03*
X142800000Y-84710000D03*
X142800000Y-81870000D03*
X150090000Y-125500000D03*
X139590000Y-122720000D03*
X150830000Y-114740000D03*
X139590000Y-111660000D03*
X149300000Y-110440000D03*
D14*
%TO.N,+1V8*%
X144910000Y-100580000D03*
%TO.N,TDO*%
X144420000Y-104600000D03*
X147270000Y-97580000D03*
%TO.N,MOSI*%
X149310000Y-83710000D03*
X145410000Y-104600000D03*
X146920000Y-100610000D03*
X149700000Y-83700000D03*
%TO.N,M2_CONFIG*%
X142860000Y-114180000D03*
X146410000Y-104600000D03*
%TO.N,DIN*%
X147410000Y-100100000D03*
X147165000Y-89760000D03*
%TO.N,DONE*%
X149980000Y-105100000D03*
X146420000Y-105100000D03*
%TO.N,CS*%
X144900000Y-104610000D03*
X151550000Y-87050000D03*
X151100000Y-87050000D03*
%TO.N,CCLK*%
X144150000Y-91030000D03*
D15*
%TO.N,RFSH_5V*%
X152110000Y-93040000D03*
%TO.N,BUSAK_5V*%
X152370000Y-81790000D03*
%TO.N,M1_5V*%
X152470000Y-93450000D03*
%TO.N,A2_5V*%
X152257022Y-104550000D03*
%TO.N,A10_5V*%
X152160000Y-122810000D03*
%TO.N,A6_5V*%
X152000000Y-112970000D03*
%TO.N,A5_5V*%
X152420000Y-113230000D03*
%TO.N,A7_5V*%
X152670000Y-123990000D03*
D14*
%TO.N,+3V3*%
X143920000Y-102120000D03*
X146920000Y-101590000D03*
X145660000Y-106260000D03*
X144410000Y-105100000D03*
X148380000Y-97550000D03*
D15*
X141010000Y-106460000D03*
X139470000Y-128130000D03*
X149410000Y-79090000D03*
X140530000Y-116070000D03*
X140660000Y-91640000D03*
D14*
X145250000Y-91020000D03*
D15*
X140240000Y-111370000D03*
X148900000Y-86210000D03*
X141800000Y-83130000D03*
X151390000Y-109400000D03*
X151060000Y-95700000D03*
X151590000Y-101730000D03*
D14*
X144350000Y-88480000D03*
D15*
X150090000Y-125010000D03*
X151000000Y-119670000D03*
X139520000Y-96990000D03*
X140280000Y-122250000D03*
X140910000Y-102340000D03*
X151800000Y-89520000D03*
X150840000Y-115670000D03*
X139390000Y-86030000D03*
%TD*%
D16*
%TO.N,+5V*%
X139596446Y-111660000D02*
X139590000Y-111660000D01*
X140816446Y-110440000D02*
X139596446Y-111660000D01*
X149300000Y-110440000D02*
X140816446Y-110440000D01*
%TO.N,TDO*%
X144420000Y-100430000D02*
X147270000Y-97580000D01*
X144420000Y-104600000D02*
X144420000Y-100430000D01*
%TO.N,MOSI*%
X146920000Y-100610000D02*
X147230000Y-100610000D01*
X147230000Y-100610000D02*
X149500000Y-98340000D01*
X149500000Y-98340000D02*
X149500000Y-83900000D01*
X149500000Y-83900000D02*
X149310000Y-83710000D01*
%TO.N,DIN*%
X147690000Y-90285000D02*
X147165000Y-89760000D01*
X147690000Y-99820000D02*
X147690000Y-90285000D01*
X147410000Y-100100000D02*
X147690000Y-99820000D01*
%TO.N,DONE*%
X146420000Y-105100000D02*
X149980000Y-105100000D01*
%TO.N,CS*%
X151550000Y-98100000D02*
X151550000Y-87050000D01*
X151540000Y-98320000D02*
X151550000Y-98320000D01*
X149580000Y-100280000D02*
X151540000Y-98320000D01*
X144900000Y-104610000D02*
X144900000Y-103288973D01*
X151100000Y-87050000D02*
X151550000Y-87050000D01*
X147908973Y-100280000D02*
X149580000Y-100280000D01*
X144900000Y-103288973D02*
X147908973Y-100280000D01*
X151550000Y-98320000D02*
X151550000Y-98100000D01*
%TO.N,BUSAK_5V*%
X152370000Y-82910000D02*
X153940000Y-84480000D01*
X152370000Y-81790000D02*
X152370000Y-82910000D01*
%TO.N,M1_5V*%
X152750000Y-93450000D02*
X153940000Y-94640000D01*
X152470000Y-93450000D02*
X152750000Y-93450000D01*
%TO.N,A2_5V*%
X152257022Y-104550000D02*
X152257022Y-105627022D01*
X152257022Y-105627022D02*
X153970000Y-107340000D01*
%TO.N,A5_5V*%
X152450000Y-113260000D02*
X152450000Y-113440000D01*
X152420000Y-113230000D02*
X152450000Y-113260000D01*
X152450000Y-113440000D02*
X153970000Y-114960000D01*
%TO.N,A7_5V*%
X152670000Y-123990000D02*
X152670000Y-121340000D01*
X152670000Y-121340000D02*
X153970000Y-120040000D01*
%TD*%
M02*
